#VRML V2.0 utf8
# 3D model generated by easyeda2kicad.py (https://github.com/uPesy/easyeda2kicad.py)

Shape{
    appearance Appearance {
        material  Material 	{
            diffuseColor 0.7764705882352941 0.7568627450980392 0.7372549019607844
            specularColor 0.38823529411764707 0.3764705882352941 0.3686274509803922
            ambientIntensity 0.7605
            transparency 0.0
            shininess 0.5
        }
    }
    geometry IndexedFaceSet {
        ccw TRUE
        solid FALSE
        coord DEF co Coordinate {
            point [
                -0.0689 -0.6102 0.0591, -0.0689 -0.6102 0.0, -0.187 -0.6102 0.0591, -0.187 -0.6102 0.0, -0.0689 -0.6594 0.0, -0.187 -0.6594 0.0, -0.0689 -0.6594 0.0591, -0.187 -0.6594 0.0591, -0.4429 0.6102 0.0, -0.4429 0.6102 0.0591, -0.3248 0.6102 0.0, -0.3248 0.6102 0.0591, -0.4429 0.502 0.0591, -0.3248 0.502 0.0591, -0.3248 0.502 0.0, -0.4429 0.502 0.0, 0.3248 0.6102 0.0591, 0.4429 0.6102 0.0591, 0.3248 0.6102 0.0, 0.4429 0.6102 0.0, 0.3248 0.502 0.0591, 0.4429 0.502 0.0591, 0.4429 0.502 0.0, 0.3248 0.502 0.0
            ]
        }
        coordIndex [
            0,1,2,-1,2,1,3,-1,4,5,1,-1,1,5,3,-1,0,6,1,-1,1,6,4,-1,6,7,4,-1,4,7,5,-1,5,7,3,-1,3,7,2,-1,7,6,2,-1,2,6,0,-1,8,9,10,-1,10,9,11,-1,9,12,11,-1,11,12,13,-1,11,13,10,-1,10,13,14,-1,15,12,8,-1,8,12,9,-1,13,12,14,-1,14,12,15,-1,8,10,15,-1,15,10,14,-1,16,17,18,-1,18,17,19,-1,16,20,17,-1,17,20,21,-1,17,21,19,-1,19,21,22,-1,23,20,18,-1,18,20,16,-1,21,20,22,-1,22,20,23,-1,23,18,22,-1,22,18,19,-1,
        ]
    }
}
Shape{
    appearance Appearance {
        material  Material 	{
            diffuseColor 0.10980392156862745 0.10980392156862745 0.10980392156862745
            specularColor 0.0784313725490196 0.0784313725490196 0.0784313725490196
            ambientIntensity 0.1098
            transparency 0.0
            shininess 0.5
        }
    }
    geometry IndexedFaceSet {
        ccw TRUE
        solid FALSE
        coord DEF co Coordinate {
            point [
                -0.4429 0.502 0.0, -0.6201 0.3263 0.0, -0.6201 0.5512 0.0, -0.0689 0.502 0.0, -0.0689 0.6102 0.0, -0.0026 0.6102 0.0, -0.0151 0.3264 0.0, -0.005 0.3264 0.0, -0.0026 0.3263 0.0, -0.0045 0.3461 0.0, -0.0151 0.3461 0.0, -0.187 0.502 0.0, -0.0235 0.3283 0.0, -0.0193 0.3431 0.0, -0.0211 0.3286 0.0, -0.0189 0.3429 0.0, -0.0189 0.3296 0.0, -0.6028 0.5929 0.0, -0.5906 0.6023 0.0, -0.0218 0.3263 0.0, -0.0212 0.3263 0.0, -0.0189 0.3269 0.0, -0.005 0.3285 0.0, -0.0045 0.3439 0.0, -0.0124 0.3372 0.0, -0.0124 0.3439 0.0, -0.0055 0.3372 0.0, -0.0055 0.335 0.0, -0.0124 0.335 0.0, -0.0124 0.3285 0.0, -0.6181 0.5665 0.0, -0.6122 0.5807 0.0, -0.5763 0.6082 0.0, -0.561 0.6102 0.0, -0.4429 0.6102 0.0, -0.3248 0.6102 0.0, -0.187 0.6102 0.0, -0.0255 0.3285 0.0, -0.0269 0.3291 0.0, -0.0283 0.33 0.0, -0.0295 0.3313 0.0, -0.0303 0.3328 0.0, -0.0308 0.335 0.0, -0.0309 0.3364 0.0, -0.0307 0.3386 0.0, -0.0302 0.3403 0.0, -0.024 0.3442 0.0, -0.0285 0.3426 0.0, -0.0258 0.3439 0.0, -0.0272 0.3434 0.0, -0.0294 0.3416 0.0, -0.0214 0.3439 0.0, -0.0427 0.3264 0.0, -0.0427 0.3439 0.0, -0.0352 0.3439 0.0, -0.0313 0.3297 0.0, -0.0296 0.328 0.0, -0.0278 0.327 0.0, -0.0303 0.3444 0.0, -0.0317 0.3429 0.0, -0.0328 0.341 0.0, -0.0334 0.3389 0.0, -0.0256 0.3263 0.0, -0.0249 0.3263 0.0, -0.0453 0.3264 0.0, -0.0336 0.3366 0.0, -0.0333 0.3338 0.0, -0.0325 0.3316 0.0, -0.0189 0.3451 0.0, -0.021 0.3459 0.0, -0.0453 0.3461 0.0, -0.0243 0.3463 0.0, -0.0352 0.3461 0.0, -0.0268 0.3461 0.0, -0.0287 0.3454 0.0, -0.3248 0.502 0.0, -0.0238 0.3463 0.0, -0.0689 0.2382 0.0, -0.4902 0.2382 0.0, -0.0026 -0.6102 0.0, -0.0689 -0.6102 0.0, -0.0236 0.3261 0.0, -0.5586 0.0256 0.0, -0.6201 0.0256 0.0, -0.5586 0.05 0.0, -0.4902 0.0837 0.0, -0.5249 0.0837 0.0, -0.526 0.0749 0.0, -0.5294 0.0668 0.0, -0.5348 0.0598 0.0, -0.5417 0.0545 0.0, -0.5499 0.0511 0.0, -0.0007 0.3461 0.0, 0.0689 0.6102 0.0, 0.0689 0.502 0.0, 0.0047 0.3461 0.0, 0.0241 0.3264 0.0, 0.01 0.3275 0.0, 0.012 0.3288 0.0, 0.0166 0.3461 0.0, 0.0094 0.3452 0.0, 0.0072 0.3458 0.0, 0.4429 0.502 0.0, 0.4429 0.6102 0.0, 0.561 0.6102 0.0, 0.0142 0.3407 0.0, 0.0131 0.3424 0.0, 0.0115 0.344 0.0, 0.0267 0.3264 0.0, 0.6028 0.5929 0.0, 0.6122 0.5807 0.0, -0.0007 0.3264 0.0, 0.0049 0.3264 0.0, 0.0077 0.3267 0.0, 0.6181 0.5665 0.0, 0.6201 0.5512 0.0, 0.6201 0.3263 0.0, 0.0295 0.3405 0.0, 0.0214 0.3405 0.0, 0.0315 0.3461 0.0, 0.0195 0.3461 0.0, 0.0127 0.3295 0.0, 0.0139 0.331 0.0, 0.0148 0.3329 0.0, 0.187 0.6102 0.0, 0.3248 0.6102 0.0, 0.187 0.502 0.0, 0.3248 0.502 0.0, 0.0344 0.3461 0.0, 0.5763 0.6082 0.0, 0.5906 0.6023 0.0, 0.0151 0.335 0.0, 0.0152 0.336 0.0, 0.0149 0.3386 0.0, 0.6201 0.0256 0.0, 0.5586 0.05 0.0, 0.5586 0.0256 0.0, 0.0689 -0.6102 0.0, 0.0689 0.2382 0.0, 0.4902 0.2382 0.0, 0.5417 0.0545 0.0, 0.5348 0.0598 0.0, 0.5294 0.0668 0.0, 0.4902 0.0837 0.0, 0.5249 0.0837 0.0, 0.526 0.0749 0.0, 0.5499 0.0511 0.0
            ]
        }
        coordIndex [
            0,1,2,-1,3,4,5,-1,6,7,8,-1,9,10,11,-1,12,13,14,-1,14,13,15,-1,14,15,16,-1,0,17,18,-1,8,19,6,-1,6,19,20,-1,6,20,21,-1,7,22,8,-1,8,22,23,-1,8,23,9,-1,24,25,26,-1,26,25,23,-1,26,23,27,-1,27,23,22,-1,27,22,28,-1,28,22,29,-1,2,30,0,-1,0,30,31,-1,0,31,17,-1,18,32,0,-1,0,32,33,-1,0,33,34,-1,35,36,11,-1,12,37,13,-1,13,37,38,-1,13,38,39,-1,39,40,13,-1,13,40,41,-1,13,41,42,-1,42,43,13,-1,13,43,44,-1,13,44,45,-1,46,47,48,-1,48,47,49,-1,45,50,13,-1,13,50,47,-1,13,47,51,-1,51,47,46,-1,52,53,54,-1,55,56,52,-1,52,56,57,-1,58,59,54,-1,54,59,60,-1,54,60,61,-1,57,62,52,-1,52,62,63,-1,52,63,64,-1,61,65,54,-1,54,65,66,-1,54,66,52,-1,52,66,67,-1,52,67,55,-1,21,16,6,-1,6,16,15,-1,6,15,10,-1,10,15,68,-1,10,68,11,-1,11,68,69,-1,70,71,72,-1,72,71,73,-1,72,73,54,-1,54,73,74,-1,54,74,58,-1,64,75,70,-1,70,75,35,-1,70,35,71,-1,71,35,11,-1,71,11,76,-1,76,11,69,-1,77,78,1,-1,79,80,8,-1,8,80,77,-1,8,77,19,-1,19,77,81,-1,82,83,84,-1,84,83,1,-1,81,77,63,-1,63,77,1,-1,63,1,64,-1,64,1,0,-1,64,0,75,-1,78,85,1,-1,1,85,86,-1,1,86,84,-1,84,86,87,-1,84,87,88,-1,89,90,88,-1,88,90,91,-1,88,91,84,-1,11,3,9,-1,9,3,5,-1,9,5,8,-1,8,5,92,-1,5,93,92,-1,92,93,94,-1,92,94,95,-1,96,97,98,-1,99,100,101,-1,102,103,104,-1,105,106,99,-1,99,106,107,-1,99,107,100,-1,8,96,108,-1,109,110,102,-1,92,111,8,-1,8,111,112,-1,8,112,96,-1,96,112,113,-1,96,113,97,-1,110,114,102,-1,102,114,115,-1,102,115,116,-1,117,118,119,-1,119,118,120,-1,98,121,96,-1,96,121,122,-1,96,122,123,-1,124,125,126,-1,126,125,127,-1,126,127,128,-1,128,127,102,-1,128,102,108,-1,108,102,116,-1,108,116,8,-1,104,129,102,-1,102,129,130,-1,102,130,109,-1,101,95,99,-1,99,95,94,-1,99,94,120,-1,120,94,126,-1,120,126,119,-1,119,126,128,-1,123,131,96,-1,96,131,132,-1,96,132,99,-1,99,132,133,-1,99,133,105,-1,116,134,135,-1,135,134,136,-1,137,79,138,-1,138,79,8,-1,138,8,139,-1,139,8,116,-1,140,141,142,-1,143,139,144,-1,144,139,116,-1,144,116,145,-1,145,116,135,-1,145,135,142,-1,142,135,146,-1,142,146,140,-1,
        ]
    }
}
Shape{
    appearance Appearance {
        material  Material 	{
            diffuseColor 0.7764705882352941 0.7568627450980392 0.7372549019607844
            specularColor 0.38823529411764707 0.3764705882352941 0.3686274509803922
            ambientIntensity 0.7605
            transparency 0.0
            shininess 0.5
        }
    }
    geometry IndexedFaceSet {
        ccw TRUE
        solid FALSE
        coord DEF co Coordinate {
            point [
                -0.4902 0.2382 0.0591, -0.0689 0.2382 0.0591, -0.4902 0.0837 0.0591, -0.0689 -0.6102 0.0591, -0.5294 -0.0668 0.0591, -0.5348 -0.0598 0.0591, -0.5586 0.0256 0.0591, -0.6201 -0.0256 0.0591, -0.6201 0.0256 0.0591, -0.5586 -0.0256 0.0591, -0.4902 -0.0837 0.0591, -0.187 -0.502 0.0591, -0.3248 -0.502 0.0591, -0.5586 0.05 0.0591, -0.5499 0.0511 0.0591, -0.5417 0.0545 0.0591, -0.5348 0.0598 0.0591, -0.5294 0.0668 0.0591, -0.526 0.0749 0.0591, -0.5249 0.0837 0.0591, -0.4902 -0.502 0.0591, -0.4429 -0.502 0.0591, -0.4429 -0.6102 0.0591, -0.3248 -0.6102 0.0591, -0.5249 -0.0837 0.0591, -0.526 -0.0749 0.0591, -0.187 -0.6102 0.0591, -0.5417 -0.0545 0.0591, -0.5499 -0.0511 0.0591, -0.5586 -0.05 0.0591, -0.5586 0.0256 0.0, -0.6201 0.0256 0.0, -0.5586 -0.0256 0.0, -0.6201 -0.0256 0.0, -0.5586 -0.05 0.0, -0.5249 -0.0837 0.0, -0.526 -0.0749 0.0, -0.5294 -0.0668 0.0, -0.5348 -0.0598 0.0, -0.5417 -0.0545 0.0, -0.5499 -0.0511 0.0, -0.4902 -0.0837 0.0, -0.4902 -0.502 0.0, -0.4429 -0.502 0.0, -0.4429 -0.6102 0.0, -0.3248 -0.502 0.0, -0.3248 -0.6102 0.0, -0.187 -0.502 0.0, -0.187 -0.6102 0.0, -0.0689 0.2382 0.0, -0.0689 -0.6102 0.0, -0.4902 0.2382 0.0, -0.4902 0.0837 0.0, -0.5249 0.0837 0.0, -0.5586 0.05 0.0, -0.5499 0.0511 0.0, -0.5417 0.0545 0.0, -0.5348 0.0598 0.0, -0.5294 0.0668 0.0, -0.526 0.0749 0.0, 0.526 -0.0749 0.0591, 0.5249 -0.0837 0.0591, 0.4902 -0.0837 0.0591, 0.0689 0.2382 0.0591, 0.4902 0.2382 0.0591, 0.0689 -0.6102 0.0591, 0.4902 0.0837 0.0591, 0.5294 0.0668 0.0591, 0.5348 0.0598 0.0591, 0.187 -0.6102 0.0591, 0.187 -0.502 0.0591, 0.5586 0.0256 0.0591, 0.4429 -0.6102 0.0591, 0.3248 -0.6102 0.0591, 0.4429 -0.502 0.0591, 0.3248 -0.502 0.0591, 0.526 0.0749 0.0591, 0.5249 0.0837 0.0591, 0.5586 0.05 0.0591, 0.5499 0.0511 0.0591, 0.5417 0.0545 0.0591, 0.5499 -0.0511 0.0591, 0.5417 -0.0545 0.0591, 0.5348 -0.0598 0.0591, 0.5294 -0.0668 0.0591, 0.5586 -0.05 0.0591, 0.5586 -0.0256 0.0591, 0.6201 -0.0256 0.0591, 0.6201 0.0256 0.0591, 0.4902 -0.502 0.0591, 0.0689 0.2382 0.0, 0.0689 -0.6102 0.0, 0.187 -0.502 0.0, 0.187 -0.6102 0.0, 0.3248 -0.502 0.0, 0.3248 -0.6102 0.0, 0.4429 -0.502 0.0, 0.4429 -0.6102 0.0, 0.4902 -0.502 0.0, 0.4902 -0.0837 0.0, 0.5249 -0.0837 0.0, 0.5586 -0.05 0.0, 0.5499 -0.0511 0.0, 0.5417 -0.0545 0.0, 0.5348 -0.0598 0.0, 0.5294 -0.0668 0.0, 0.526 -0.0749 0.0, 0.5586 -0.0256 0.0, 0.6201 -0.0256 0.0, 0.5586 0.0256 0.0, 0.6201 0.0256 0.0, 0.5586 0.05 0.0, 0.5249 0.0837 0.0, 0.526 0.0749 0.0, 0.5294 0.0668 0.0, 0.5348 0.0598 0.0, 0.5417 0.0545 0.0, 0.5499 0.0511 0.0, 0.4902 0.0837 0.0, 0.4902 0.2382 0.0, 0.0689 0.502 0.0591, 0.0689 0.6102 0.0591, 0.187 0.502 0.0591, 0.187 0.6102 0.0591, 0.187 0.502 0.0, 0.187 0.6102 0.0, 0.0689 0.502 0.0, 0.0689 0.6102 0.0, 0.3248 0.502 0.0591, 0.3248 0.6102 0.0591, 0.4429 0.502 0.0591, 0.4429 0.6102 0.0591, 0.4429 0.502 0.0, 0.4429 0.6102 0.0, 0.3248 0.502 0.0, 0.3248 0.6102 0.0, -0.4429 0.502 0.0591, -0.4429 0.6102 0.0591, -0.3248 0.502 0.0591, -0.3248 0.6102 0.0591, -0.3248 0.502 0.0, -0.3248 0.6102 0.0, -0.4429 0.502 0.0, -0.4429 0.6102 0.0, -0.187 0.502 0.0591, -0.187 0.6102 0.0591, -0.0689 0.502 0.0591, -0.0689 0.6102 0.0591, -0.0689 0.502 0.0, -0.0689 0.6102 0.0, -0.187 0.502 0.0, -0.187 0.6102 0.0
            ]
        }
        coordIndex [
            0,1,2,-1,2,1,3,-1,4,5,6,-1,7,8,9,-1,9,8,6,-1,10,11,12,-1,6,13,3,-1,3,13,14,-1,3,14,15,-1,15,16,3,-1,3,16,17,-1,3,17,2,-1,2,17,18,-1,2,18,19,-1,20,10,21,-1,21,10,12,-1,21,12,22,-1,22,12,23,-1,10,24,25,-1,25,4,10,-1,10,4,6,-1,10,6,11,-1,11,6,3,-1,11,3,26,-1,5,27,6,-1,6,27,28,-1,6,28,9,-1,9,28,29,-1,6,8,30,-1,30,8,31,-1,9,32,7,-1,7,32,33,-1,9,29,32,-1,32,29,34,-1,24,35,36,-1,24,36,25,-1,25,36,37,-1,25,37,4,-1,4,37,38,-1,4,38,5,-1,5,38,39,-1,5,39,27,-1,27,39,40,-1,27,40,28,-1,28,40,34,-1,28,34,29,-1,24,10,35,-1,35,10,41,-1,10,20,41,-1,41,20,42,-1,20,21,42,-1,42,21,43,-1,21,22,43,-1,43,22,44,-1,12,45,23,-1,23,45,46,-1,12,11,45,-1,45,11,47,-1,11,26,47,-1,47,26,48,-1,1,49,3,-1,3,49,50,-1,1,0,49,-1,49,0,51,-1,0,2,51,-1,51,2,52,-1,2,19,52,-1,52,19,53,-1,13,54,55,-1,13,55,14,-1,14,55,56,-1,14,56,15,-1,15,56,57,-1,15,57,16,-1,16,57,58,-1,16,58,17,-1,17,58,59,-1,17,59,18,-1,18,59,53,-1,18,53,19,-1,13,6,54,-1,54,6,30,-1,60,61,62,-1,63,64,65,-1,65,64,66,-1,67,68,65,-1,69,65,70,-1,70,65,71,-1,70,71,62,-1,72,73,74,-1,74,73,75,-1,67,65,76,-1,76,65,66,-1,76,66,77,-1,78,71,79,-1,79,71,65,-1,79,65,80,-1,80,65,68,-1,81,82,71,-1,71,82,83,-1,71,83,62,-1,62,83,84,-1,62,84,60,-1,85,81,86,-1,86,81,71,-1,86,71,87,-1,87,71,88,-1,89,74,62,-1,62,74,75,-1,62,75,70,-1,63,65,90,-1,90,65,91,-1,70,92,69,-1,69,92,93,-1,70,75,92,-1,92,75,94,-1,75,73,94,-1,94,73,95,-1,74,96,72,-1,72,96,97,-1,74,89,96,-1,96,89,98,-1,89,62,98,-1,98,62,99,-1,62,61,99,-1,99,61,100,-1,85,101,102,-1,85,102,81,-1,81,102,103,-1,81,103,82,-1,82,103,104,-1,82,104,83,-1,83,104,105,-1,83,105,84,-1,84,105,106,-1,84,106,60,-1,60,106,100,-1,60,100,61,-1,85,86,101,-1,101,86,107,-1,86,87,107,-1,107,87,108,-1,71,109,88,-1,88,109,110,-1,71,78,109,-1,109,78,111,-1,77,112,113,-1,77,113,76,-1,76,113,114,-1,76,114,67,-1,67,114,115,-1,67,115,68,-1,68,115,116,-1,68,116,80,-1,80,116,117,-1,80,117,79,-1,79,117,111,-1,79,111,78,-1,77,66,112,-1,112,66,118,-1,66,64,118,-1,118,64,119,-1,64,63,119,-1,119,63,90,-1,120,121,122,-1,122,121,123,-1,122,123,124,-1,124,123,125,-1,120,126,121,-1,121,126,127,-1,120,122,126,-1,126,122,124,-1,128,129,130,-1,130,129,131,-1,130,131,132,-1,132,131,133,-1,128,134,129,-1,129,134,135,-1,128,130,134,-1,134,130,132,-1,136,137,138,-1,138,137,139,-1,138,139,140,-1,140,139,141,-1,136,142,137,-1,137,142,143,-1,136,138,142,-1,142,138,140,-1,144,145,146,-1,146,145,147,-1,146,147,148,-1,148,147,149,-1,144,150,145,-1,145,150,151,-1,144,146,150,-1,150,146,148,-1,
        ]
    }
}
Shape{
    appearance Appearance {
        material  Material 	{
            diffuseColor 0.10980392156862745 0.10980392156862745 0.10980392156862745
            specularColor 0.0784313725490196 0.0784313725490196 0.0784313725490196
            ambientIntensity 0.1098
            transparency 0.0
            shininess 0.5
        }
    }
    geometry IndexedFaceSet {
        ccw TRUE
        solid FALSE
        coord DEF co Coordinate {
            point [
                -0.572 -0.5471 0.2849, -0.5749 -0.5482 0.2816, -0.5737 -0.551 0.283, -0.5706 -0.5634 0.279, -0.572 -0.5621 0.2791, -0.5752 -0.5654 0.2718, -0.5678 -0.5656 0.2787, -0.5662 -0.5666 0.2783, -0.5634 -0.5623 0.2838, -0.5748 -0.5681 0.2679, -0.5731 -0.5694 0.2678, -0.572 -0.5681 0.2717, -0.5501 -0.5402 0.2949, -0.5454 -0.5355 0.2953, -0.5509 -0.5393 0.2948, -0.5772 -0.5673 0.2643, -0.5765 -0.5666 0.2679, -0.5786 -0.5656 0.2642, -0.5779 -0.565 0.2679, -0.579 -0.5652 0.2642, -0.5793 -0.5632 0.2678, -0.5814 -0.5594 0.2675, -0.5819 -0.5604 0.2639, -0.5801 -0.5639 0.2642, -0.5836 -0.555 0.2633, -0.5834 -0.5556 0.2634, -0.5828 -0.5553 0.2669, -0.5827 -0.5588 0.2638, -0.5821 -0.5599 0.2639, -0.584 -0.5531 0.2631, -0.5832 -0.551 0.266, -0.5842 -0.5512 0.2627, -0.5822 -0.5508 0.2695, -0.5815 -0.5548 0.2705, -0.5821 -0.5508 0.2698, -0.5818 -0.5507 0.2708, -0.5779 -0.5622 0.2717, -0.58 -0.5586 0.2712, -0.578 -0.5532 0.2774, -0.576 -0.5522 0.2803, -0.5775 -0.5492 0.2786, -0.5772 -0.5491 0.279, -0.564 -0.5541 0.2886, -0.5657 -0.5523 0.2885, -0.5702 -0.556 0.2843, -0.5721 -0.5536 0.2838, -0.5724 -0.5578 0.2818, -0.5743 -0.5551 0.2813, -0.5744 -0.5594 0.2789, -0.5764 -0.5564 0.2783, -0.5762 -0.5608 0.2755, -0.5783 -0.5576 0.275, -0.5777 -0.5493 0.2784, -0.579 -0.5498 0.276, -0.5799 -0.5541 0.2741, -0.5807 -0.5504 0.2728, -0.5621 -0.5469 0.2913, -0.5633 -0.5454 0.2909, -0.5688 -0.5484 0.2875, -0.5566 -0.5432 0.2935, -0.5526 -0.5387 0.2944, -0.5578 -0.541 0.2933, -0.5584 -0.5412 0.293, -0.5622 -0.5429 0.2913, -0.5567 -0.5522 0.2913, -0.5602 -0.5574 0.2881, -0.5553 -0.5534 0.2909, -0.5582 -0.5589 0.2875, -0.5555 -0.5586 0.2878, -0.5621 -0.5558 0.2885, -0.5581 -0.5509 0.2915, -0.5595 -0.5496 0.2916, -0.5537 -0.5545 0.2901, -0.5528 -0.5523 0.2914, -0.5523 -0.5512 0.292, -0.553 -0.5468 0.2935, -0.5511 -0.5485 0.2929, -0.5491 -0.544 0.2944, -0.5673 -0.5504 0.2881, -0.5608 -0.5483 0.2915, -0.5548 -0.545 0.2936, -0.561 -0.5743 0.2627, -0.5608 -0.573 0.2681, -0.5627 -0.5722 0.2701, -0.5606 -0.5724 0.2695, -0.5606 -0.5723 0.2697, -0.5668 -0.5734 0.2636, -0.5655 -0.5736 0.2634, -0.5652 -0.5729 0.2669, -0.5649 -0.5737 0.2633, -0.5632 -0.574 0.2631, -0.5614 -0.5688 0.2768, -0.5646 -0.5717 0.2705, -0.5693 -0.5715 0.2675, -0.5697 -0.5722 0.2639, -0.5598 -0.5697 0.2755, -0.5597 -0.5693 0.2761, -0.559 -0.5675 0.2785, -0.5621 -0.5631 0.2834, -0.5647 -0.5674 0.2779, -0.5608 -0.5639 0.283, -0.5631 -0.5682 0.2774, -0.5595 -0.5646 0.2824, -0.5579 -0.5645 0.2826, -0.5564 -0.5607 0.2859, -0.5561 -0.5602 0.2864, -0.5722 -0.5712 0.2641, -0.5702 -0.572 0.2639, -0.5703 -0.5692 0.2715, -0.5685 -0.5702 0.2712, -0.5666 -0.571 0.2709, -0.5768 -0.5677 0.2643, -0.5754 -0.5688 0.2642, -0.575 -0.5691 0.2642, -0.5736 -0.5701 0.2642, -0.5658 -0.5604 0.2843, -0.567 -0.5594 0.2844, -0.5681 -0.5583 0.2845, -0.5701 -0.5603 0.282, -0.5646 -0.5614 0.2841, -0.5486 -0.5428 0.2945, -0.5482 -0.542 0.2946, -0.5692 -0.5645 0.2789, -0.5581 -0.5651 0.2817, -0.5499 -0.5376 0.295, -0.5518 -0.5384 0.2946, -0.5644 -0.5439 0.2903, -0.5652 -0.5442 0.29, -0.57 -0.5463 0.2864, -0.5706 -0.5465 0.2859, 0.5571 -0.5624 0.2847, 0.5581 -0.5651 0.2816, 0.5608 -0.5639 0.283, 0.5732 -0.5608 0.279, 0.572 -0.5621 0.2791, 0.5752 -0.5654 0.2718, 0.5754 -0.5579 0.2787, 0.5764 -0.5564 0.2783, 0.5721 -0.5536 0.2838, 0.5779 -0.565 0.2679, 0.5793 -0.5632 0.2678, 0.5779 -0.5622 0.2717, 0.5501 -0.5402 0.2949, 0.5454 -0.5355 0.2953, 0.5492 -0.5411 0.2948, 0.5772 -0.5673 0.2643, 0.5765 -0.5666 0.2679, 0.5754 -0.5688 0.2642, 0.5748 -0.5681 0.2679, 0.575 -0.5691 0.2642, 0.5731 -0.5694 0.2678, 0.5693 -0.5715 0.2675, 0.5702 -0.572 0.2639, 0.5737 -0.5702 0.2642, 0.5648 -0.5737 0.2633, 0.5654 -0.5736 0.2634, 0.5652 -0.5729 0.2669, 0.5686 -0.5728 0.2638, 0.5697 -0.5723 0.2639, 0.563 -0.5742 0.2631, 0.5608 -0.5734 0.266, 0.561 -0.5743 0.2627, 0.5606 -0.5724 0.2695, 0.5646 -0.5717 0.2705, 0.5606 -0.5723 0.2698, 0.5606 -0.5721 0.2706, 0.572 -0.5681 0.2717, 0.5685 -0.5702 0.2712, 0.5631 -0.5682 0.2774, 0.562 -0.5661 0.2803, 0.5591 -0.5676 0.2786, 0.559 -0.5673 0.279, 0.564 -0.5541 0.2886, 0.5621 -0.5558 0.2885, 0.5658 -0.5604 0.2843, 0.5634 -0.5623 0.2838, 0.5676 -0.5625 0.2818, 0.5649 -0.5645 0.2813, 0.5692 -0.5645 0.2789, 0.5662 -0.5666 0.2783, 0.5707 -0.5664 0.2755, 0.5674 -0.5685 0.275, 0.5593 -0.5681 0.2781, 0.5596 -0.5692 0.276, 0.5639 -0.5701 0.2741, 0.5602 -0.5709 0.2728, 0.5483 -0.542 0.2945, 0.5486 -0.5428 0.2944, 0.553 -0.5468 0.2935, 0.5493 -0.5444 0.2942, 0.5511 -0.5484 0.2927, 0.5567 -0.5522 0.2913, 0.5528 -0.5523 0.2912, 0.5538 -0.5545 0.2904, 0.5553 -0.5534 0.2909, 0.5538 -0.5546 0.2903, 0.5561 -0.5601 0.2863, 0.5621 -0.5469 0.2913, 0.5673 -0.5504 0.2881, 0.5633 -0.5454 0.2909, 0.5688 -0.5484 0.2875, 0.5684 -0.5456 0.2878, 0.5657 -0.5523 0.2885, 0.5608 -0.5483 0.2915, 0.5595 -0.5496 0.2916, 0.5644 -0.5439 0.2901, 0.5622 -0.5429 0.2914, 0.561 -0.5424 0.292, 0.5566 -0.5432 0.2935, 0.5583 -0.5412 0.2929, 0.5538 -0.5393 0.2944, 0.5602 -0.5574 0.2881, 0.5581 -0.5509 0.2915, 0.5548 -0.545 0.2936, 0.5842 -0.5512 0.2627, 0.5828 -0.551 0.2681, 0.582 -0.5528 0.2701, 0.5822 -0.5508 0.2695, 0.5821 -0.5508 0.2697, 0.5833 -0.5569 0.2636, 0.5835 -0.5556 0.2634, 0.5828 -0.5553 0.2669, 0.5836 -0.555 0.2633, 0.5838 -0.5534 0.2631, 0.5787 -0.5516 0.2768, 0.5815 -0.5548 0.2705, 0.5814 -0.5594 0.2675, 0.5821 -0.5598 0.2639, 0.5795 -0.55 0.2755, 0.5791 -0.5498 0.2761, 0.5773 -0.5492 0.2785, 0.573 -0.5523 0.2834, 0.5773 -0.5548 0.2779, 0.5737 -0.551 0.283, 0.578 -0.5532 0.2774, 0.5744 -0.5497 0.2824, 0.5743 -0.548 0.2826, 0.5706 -0.5465 0.2859, 0.57 -0.5463 0.2864, 0.581 -0.5623 0.2641, 0.5818 -0.5604 0.2639, 0.579 -0.5604 0.2715, 0.58 -0.5586 0.2712, 0.5809 -0.5567 0.2709, 0.5776 -0.567 0.2643, 0.5786 -0.5656 0.2642, 0.5789 -0.5651 0.2642, 0.5799 -0.5638 0.2642, 0.5702 -0.556 0.2843, 0.5692 -0.5572 0.2844, 0.5681 -0.5583 0.2845, 0.5701 -0.5603 0.282, 0.5712 -0.5548 0.2841, 0.5527 -0.5388 0.2945, 0.5518 -0.5384 0.2946, 0.5744 -0.5594 0.2789, 0.575 -0.5483 0.2817, 0.5582 -0.5589 0.2875, 0.5564 -0.5607 0.2859, 0.5722 0.5472 0.2847, 0.5749 0.5483 0.2816, 0.5737 0.551 0.283, 0.5706 0.5634 0.279, 0.572 0.5621 0.2791, 0.5752 0.5654 0.2718, 0.5748 0.5681 0.2679, 0.5731 0.5694 0.2678, 0.572 0.5681 0.2717, 0.5703 0.5692 0.2715, 0.5685 0.5702 0.2712, 0.5662 0.5666 0.2783, 0.5595 0.5646 0.2824, 0.5608 0.5639 0.283, 0.5631 0.5682 0.2774, 0.5501 0.5402 0.2949, 0.5454 0.5355 0.2953, 0.5509 0.5393 0.2948, 0.5772 0.5673 0.2643, 0.5765 0.5666 0.2679, 0.5786 0.5656 0.2642, 0.5779 0.565 0.2679, 0.579 0.5652 0.2642, 0.5793 0.5632 0.2678, 0.5814 0.5594 0.2675, 0.5819 0.5604 0.2639, 0.5801 0.5639 0.2642, 0.5836 0.555 0.2633, 0.5834 0.5556 0.2634, 0.5828 0.5553 0.2669, 0.5827 0.5588 0.2638, 0.5821 0.5599 0.2639, 0.584 0.5531 0.2631, 0.5832 0.551 0.266, 0.5842 0.5512 0.2627, 0.5822 0.5508 0.2695, 0.5815 0.5548 0.2705, 0.5821 0.5508 0.2698, 0.5819 0.5507 0.2706, 0.5779 0.5622 0.2717, 0.58 0.5586 0.2712, 0.578 0.5532 0.2774, 0.576 0.5522 0.2803, 0.5775 0.5492 0.2786, 0.5772 0.5491 0.279, 0.564 0.5541 0.2886, 0.5657 0.5523 0.2885, 0.5702 0.556 0.2843, 0.5721 0.5536 0.2838, 0.5724 0.5578 0.2818, 0.5743 0.5551 0.2813, 0.5744 0.5594 0.2789, 0.5764 0.5564 0.2783, 0.5762 0.5608 0.2755, 0.5783 0.5576 0.275, 0.5779 0.5494 0.2781, 0.579 0.5498 0.276, 0.5799 0.5541 0.2741, 0.5807 0.5504 0.2728, 0.5518 0.5384 0.2945, 0.5526 0.5388 0.2944, 0.5566 0.5432 0.2935, 0.5543 0.5395 0.2942, 0.5582 0.5412 0.2927, 0.5621 0.5469 0.2913, 0.5621 0.5429 0.2912, 0.5644 0.5439 0.2904, 0.5633 0.5454 0.2909, 0.5644 0.544 0.2903, 0.57 0.5463 0.2863, 0.5602 0.5574 0.2881, 0.5567 0.5522 0.2913, 0.5621 0.5558 0.2885, 0.5581 0.5509 0.2915, 0.5595 0.5496 0.2916, 0.5553 0.5534 0.2909, 0.5538 0.5546 0.2903, 0.5528 0.5523 0.2912, 0.5502 0.5464 0.2937, 0.5548 0.545 0.2936, 0.553 0.5468 0.2935, 0.5486 0.5428 0.2942, 0.5482 0.542 0.2944, 0.5608 0.5483 0.2915, 0.5673 0.5504 0.2881, 0.561 0.5743 0.2627, 0.5606 0.5723 0.2695, 0.5632 0.574 0.2631, 0.5627 0.5722 0.2701, 0.5649 0.5737 0.2633, 0.5652 0.5729 0.2669, 0.5655 0.5736 0.2634, 0.5668 0.5734 0.2636, 0.5697 0.5722 0.2639, 0.5693 0.5715 0.2675, 0.5646 0.5717 0.2705, 0.5614 0.5688 0.2768, 0.5591 0.5677 0.2787, 0.5591 0.5676 0.2788, 0.5606 0.5723 0.2698, 0.5605 0.5719 0.2709, 0.5596 0.5691 0.276, 0.5582 0.5589 0.2875, 0.5568 0.5618 0.2852, 0.5581 0.5651 0.2816, 0.5564 0.5608 0.286, 0.5561 0.5602 0.2864, 0.554 0.5551 0.29, 0.5722 0.5712 0.2641, 0.5702 0.572 0.2639, 0.5768 0.5677 0.2643, 0.5754 0.5688 0.2642, 0.575 0.5691 0.2642, 0.5736 0.5701 0.2642, 0.5678 0.5656 0.2787, 0.5634 0.5623 0.2838, 0.5646 0.5614 0.2841, 0.5658 0.5604 0.2843, 0.567 0.5594 0.2844, 0.5681 0.5583 0.2845, 0.5701 0.5603 0.282, 0.5692 0.5645 0.2789, 0.5621 0.5631 0.2834, 0.5647 0.5674 0.2779, 0.5666 0.571 0.2709, 0.5511 0.5484 0.2928, 0.5688 0.5484 0.2875, 0.5706 0.5465 0.2859, -0.5454 0.5355 0.2953, 0.3481 0.3867 0.2953, 0.3457 0.4048 0.2953, 0.4765 0.4399 0.2953, 0.4835 0.423 0.2953, 0.3551 0.3698 0.2953, 0.3662 0.3553 0.2953, 0.4339 0.4725 0.2953, 0.4508 0.4655 0.2953, 0.4653 0.4544 0.2953, 0.4859 0.4048 0.2953, 0.4835 0.3867 0.2953, 0.4765 0.3698 0.2953, 0.4653 0.3553 0.2953, 0.4508 0.3442 0.2953, 0.4339 0.3372 0.2953, 0.3481 0.423 0.2953, 0.3551 0.4399 0.2953, 0.3662 0.4544 0.2953, 0.3807 0.4655 0.2953, 0.3976 0.4725 0.2953, 0.4158 0.4749 0.2953, 0.4158 0.3348 0.2953, 0.3976 0.3372 0.2953, 0.3807 0.3442 0.2953, -0.557 0.5621 0.2849, -0.5581 0.5651 0.2816, -0.5608 0.5639 0.283, -0.5732 0.5608 0.279, -0.572 0.5621 0.2791, -0.5752 0.5654 0.2718, -0.5779 0.565 0.2679, -0.5793 0.5632 0.2678, -0.5779 0.5622 0.2717, -0.579 0.5604 0.2715, -0.58 0.5586 0.2712, -0.5764 0.5564 0.2783, -0.5744 0.5497 0.2824, -0.5737 0.551 0.283, -0.578 0.5532 0.2774, -0.5501 0.5402 0.2949, -0.5492 0.5411 0.2948, -0.5772 0.5673 0.2643, -0.5765 0.5666 0.2679, -0.5754 0.5688 0.2642, -0.5748 0.5681 0.2679, -0.575 0.5691 0.2642, -0.5731 0.5694 0.2678, -0.5693 0.5715 0.2675, -0.5702 0.572 0.2639, -0.5737 0.5702 0.2642, -0.5648 0.5737 0.2633, -0.5654 0.5736 0.2634, -0.5652 0.5729 0.2669, -0.5686 0.5728 0.2638, -0.5697 0.5723 0.2639, -0.563 0.5742 0.2631, -0.5608 0.5734 0.266, -0.561 0.5743 0.2627, -0.5606 0.5724 0.2695, -0.5646 0.5717 0.2705, -0.5606 0.5723 0.2698, -0.5606 0.572 0.2708, -0.572 0.5681 0.2717, -0.5685 0.5702 0.2712, -0.5631 0.5682 0.2774, -0.562 0.5661 0.2803, -0.5591 0.5676 0.2786, -0.559 0.5673 0.279, -0.564 0.5541 0.2886, -0.5621 0.5558 0.2885, -0.5658 0.5604 0.2843, -0.5634 0.5623 0.2838, -0.5676 0.5625 0.2818, -0.5649 0.5645 0.2813, -0.5692 0.5645 0.2789, -0.5662 0.5666 0.2783, -0.5707 0.5664 0.2755, -0.5674 0.5685 0.275, -0.5592 0.5679 0.2784, -0.5596 0.5692 0.276, -0.5639 0.5701 0.2741, -0.5602 0.5709 0.2728, -0.5567 0.5522 0.2913, -0.5553 0.5534 0.2909, -0.5582 0.5589 0.2875, -0.553 0.5468 0.2935, -0.5486 0.5428 0.2944, -0.5508 0.5479 0.2933, -0.5511 0.5485 0.293, -0.5528 0.5523 0.2913, -0.5673 0.5504 0.2881, -0.5621 0.5469 0.2913, -0.5657 0.5523 0.2885, -0.5608 0.5483 0.2915, -0.5595 0.5496 0.2916, -0.5633 0.5454 0.2909, -0.5644 0.5439 0.2903, -0.5621 0.5429 0.2912, -0.5562 0.5404 0.2937, -0.5548 0.545 0.2936, -0.5566 0.5432 0.2935, -0.5526 0.5388 0.2942, -0.5518 0.5384 0.2944, -0.5581 0.5509 0.2915, -0.5602 0.5574 0.2881, -0.5842 0.5512 0.2627, -0.5822 0.5508 0.2695, -0.5838 0.5534 0.2631, -0.582 0.5528 0.2701, -0.5836 0.555 0.2633, -0.5828 0.5553 0.2669, -0.5835 0.5556 0.2634, -0.5833 0.5569 0.2636, -0.5821 0.5598 0.2639, -0.5814 0.5594 0.2675, -0.5815 0.5548 0.2705, -0.5787 0.5516 0.2768, -0.5775 0.5493 0.2787, -0.5774 0.5492 0.2788, -0.5821 0.5508 0.2698, -0.5818 0.5507 0.2709, -0.579 0.5498 0.276, -0.5688 0.5484 0.2875, -0.5717 0.547 0.2852, -0.5749 0.5483 0.2816, -0.5706 0.5466 0.286, -0.57 0.5463 0.2864, -0.565 0.5442 0.29, -0.581 0.5623 0.2641, -0.5818 0.5604 0.2639, -0.5776 0.567 0.2643, -0.5786 0.5656 0.2642, -0.5789 0.5651 0.2642, -0.5799 0.5638 0.2642, -0.5754 0.5579 0.2787, -0.5721 0.5536 0.2838, -0.5712 0.5548 0.2841, -0.5702 0.556 0.2843, -0.5692 0.5572 0.2844, -0.5681 0.5583 0.2845, -0.5701 0.5603 0.282, -0.5744 0.5594 0.2789, -0.573 0.5523 0.2834, -0.5773 0.5548 0.2779, -0.5809 0.5567 0.2709, -0.5583 0.5413 0.2928, -0.5474 0.5401 0.295, -0.5482 0.542 0.2946, -0.5538 0.5546 0.2903, -0.5541 0.5553 0.29, -0.5561 0.5602 0.2864, -0.5564 0.5608 0.2859, -0.6201 -0.5512 0.0591, -0.6201 -0.5512 0.0, -0.6192 -0.5611 0.0591, -0.6181 -0.5665 0.0, -0.6177 -0.5663 0.0591, -0.6151 -0.575 0.0591, -0.6122 -0.5807 0.0, -0.6118 -0.5805 0.0591, -0.6076 -0.5875 0.0591, -0.6028 -0.5929 0.0, -0.6025 -0.5926 0.0591, -0.5973 -0.5978 0.0591, -0.5906 -0.6023 0.0, -0.5903 -0.6019 0.0591, -0.5848 -0.6052 0.0591, -0.5763 -0.6082 0.0, -0.5762 -0.6078 0.0591, -0.5709 -0.6094 0.0591, -0.561 -0.6102 0.0, -0.561 -0.6102 0.0591, -0.6201 -0.0256 0.0, -0.5586 -0.05 0.0, -0.5586 -0.0256 0.0, -0.4429 -0.502 0.0, -0.4429 -0.6102 0.0, -0.4902 -0.502 0.0, -0.5417 -0.0545 0.0, -0.5348 -0.0598 0.0, -0.5294 -0.0668 0.0, -0.5249 -0.0837 0.0, -0.526 -0.0749 0.0, -0.5499 -0.0511 0.0, -0.4902 -0.0837 0.0, -0.187 -0.6102 0.0, -0.3248 -0.6102 0.0, -0.187 -0.502 0.0, -0.3248 -0.502 0.0, 0.3248 -0.6102 0.0, 0.187 -0.6102 0.0, 0.3248 -0.502 0.0, 0.187 -0.502 0.0, 0.561 -0.6102 0.0591, 0.561 -0.6102 0.0, 0.5709 -0.6094 0.0591, 0.5763 -0.6082 0.0, 0.5762 -0.6078 0.0591, 0.5848 -0.6052 0.0591, 0.5906 -0.6023 0.0, 0.5903 -0.6019 0.0591, 0.5973 -0.5978 0.0591, 0.6028 -0.5929 0.0, 0.6025 -0.5926 0.0591, 0.6076 -0.5875 0.0591, 0.6122 -0.5807 0.0, 0.6118 -0.5805 0.0591, 0.6151 -0.575 0.0591, 0.6181 -0.5665 0.0, 0.6177 -0.5663 0.0591, 0.6192 -0.5611 0.0591, 0.6201 -0.5512 0.0, 0.6201 -0.5512 0.0591, 0.4429 -0.6102 0.0, 0.4429 -0.502 0.0, 0.4902 -0.502 0.0, 0.5586 -0.0256 0.0, 0.6201 -0.0256 0.0, 0.5586 -0.05 0.0, 0.4902 -0.0837 0.0, 0.5249 -0.0837 0.0, 0.526 -0.0749 0.0, 0.5294 -0.0668 0.0, 0.5348 -0.0598 0.0, 0.5417 -0.0545 0.0, 0.5499 -0.0511 0.0, 0.6201 0.5512 0.0591, 0.6201 0.5512 0.0, 0.6192 0.5611 0.0591, 0.6181 0.5665 0.0, 0.6177 0.5663 0.0591, 0.6151 0.575 0.0591, 0.6122 0.5807 0.0, 0.6118 0.5805 0.0591, 0.6076 0.5875 0.0591, 0.6028 0.5929 0.0, 0.6025 0.5926 0.0591, 0.5973 0.5978 0.0591, 0.5906 0.6023 0.0, 0.5903 0.6019 0.0591, 0.5848 0.6052 0.0591, 0.5763 0.6082 0.0, 0.5762 0.6078 0.0591, 0.5709 0.6094 0.0591, 0.561 0.6102 0.0, 0.561 0.6102 0.0591, -0.561 0.6102 0.0591, -0.561 0.6102 0.0, -0.5709 0.6094 0.0591, -0.5763 0.6082 0.0, -0.5762 0.6078 0.0591, -0.5848 0.6052 0.0591, -0.5906 0.6023 0.0, -0.5903 0.6019 0.0591, -0.5973 0.5978 0.0591, -0.6028 0.5929 0.0, -0.6025 0.5926 0.0591, -0.6076 0.5875 0.0591, -0.6122 0.5807 0.0, -0.6118 0.5805 0.0591, -0.6151 0.575 0.0591, -0.6181 0.5665 0.0, -0.6177 0.5663 0.0591, -0.6192 0.5611 0.0591, -0.6201 0.5512 0.0, -0.6201 0.5512 0.0591, -0.6201 -0.0256 0.0591, -0.6201 0.0256 0.0, -0.6201 0.0256 0.0591, -0.6201 0.3263 0.0, 0.4429 -0.6102 0.0591, 0.3248 -0.6102 0.0591, 0.187 -0.6102 0.0591, 0.0689 -0.6102 0.0, 0.0689 -0.6102 0.0591, -0.0026 -0.6102 0.0, -0.0689 -0.6102 0.0591, -0.0689 -0.6102 0.0, -0.187 -0.6102 0.0591, -0.3248 -0.6102 0.0591, -0.4429 -0.6102 0.0591, 0.6201 0.3263 0.0, 0.6201 0.0256 0.0591, 0.6201 0.0256 0.0, 0.6201 -0.0256 0.0591, -0.4429 0.6102 0.0, -0.4429 0.6102 0.0591, -0.3248 0.6102 0.0591, -0.187 0.6102 0.0591, -0.3248 0.6102 0.0, -0.187 0.6102 0.0, 0.0689 0.6102 0.0591, 0.0689 0.6102 0.0, -0.0689 0.6102 0.0591, -0.0026 0.6102 0.0, -0.0689 0.6102 0.0, 0.187 0.6102 0.0591, 0.3248 0.6102 0.0591, 0.187 0.6102 0.0, 0.3248 0.6102 0.0, 0.4429 0.6102 0.0591, 0.4429 0.6102 0.0
            ]
        }
        coordIndex [
            0,1,2,-1,3,4,5,-1,6,7,8,-1,9,10,11,-1,12,13,14,-1,15,16,17,-1,17,16,18,-1,17,18,19,-1,19,18,20,-1,21,22,20,-1,20,22,23,-1,20,23,19,-1,24,25,26,-1,26,25,27,-1,26,27,21,-1,21,27,28,-1,21,28,22,-1,24,26,29,-1,29,26,30,-1,29,30,31,-1,32,33,34,-1,34,33,35,-1,16,5,18,-1,18,5,36,-1,18,36,20,-1,20,36,37,-1,20,37,21,-1,21,37,33,-1,21,33,26,-1,26,33,32,-1,26,32,30,-1,38,39,40,-1,2,1,39,-1,39,1,41,-1,39,41,40,-1,42,43,44,-1,44,43,45,-1,44,45,46,-1,46,45,47,-1,46,47,48,-1,48,47,49,-1,48,49,50,-1,50,49,51,-1,40,52,38,-1,38,52,53,-1,38,53,54,-1,54,53,55,-1,56,57,58,-1,59,14,60,-1,60,61,59,-1,59,61,62,-1,59,62,56,-1,56,62,63,-1,56,63,57,-1,64,65,66,-1,66,65,67,-1,66,67,68,-1,69,70,42,-1,42,70,71,-1,42,71,43,-1,68,72,66,-1,66,72,73,-1,66,73,64,-1,64,73,74,-1,64,74,75,-1,75,74,76,-1,75,76,77,-1,54,51,38,-1,38,51,49,-1,38,49,39,-1,39,49,47,-1,39,47,2,-1,2,47,45,-1,2,45,78,-1,78,45,43,-1,78,43,79,-1,79,43,71,-1,79,71,80,-1,80,71,70,-1,81,82,83,-1,83,82,84,-1,83,84,85,-1,86,87,88,-1,88,87,89,-1,88,89,83,-1,83,89,90,-1,83,90,81,-1,85,91,83,-1,83,91,92,-1,83,92,88,-1,88,92,93,-1,88,93,86,-1,86,93,94,-1,85,95,91,-1,91,95,96,-1,91,96,97,-1,8,7,98,-1,98,7,99,-1,98,99,100,-1,100,99,101,-1,100,101,102,-1,103,104,67,-1,67,104,105,-1,67,105,68,-1,10,106,93,-1,93,106,107,-1,93,107,94,-1,6,108,7,-1,7,108,109,-1,7,109,99,-1,99,109,110,-1,99,110,101,-1,111,112,9,-1,9,112,113,-1,9,113,10,-1,10,113,114,-1,10,114,106,-1,115,116,3,-1,116,117,3,-1,3,117,118,-1,3,118,4,-1,119,65,69,-1,69,65,64,-1,69,64,70,-1,70,64,75,-1,70,75,80,-1,80,75,77,-1,80,77,12,-1,12,77,120,-1,12,120,121,-1,15,111,16,-1,16,111,9,-1,16,9,5,-1,5,9,11,-1,5,11,3,-1,3,11,122,-1,3,122,115,-1,97,123,102,-1,102,123,103,-1,102,103,100,-1,100,103,67,-1,100,67,98,-1,98,67,65,-1,98,65,8,-1,8,65,119,-1,8,119,6,-1,13,124,14,-1,14,124,125,-1,14,125,60,-1,63,126,57,-1,57,126,127,-1,57,127,58,-1,58,127,128,-1,58,128,129,-1,12,14,80,-1,80,14,59,-1,80,59,79,-1,79,59,56,-1,79,56,78,-1,78,56,58,-1,78,58,2,-1,2,58,129,-1,2,129,0,-1,121,13,12,-1,97,102,91,-1,91,102,101,-1,91,101,92,-1,92,101,110,-1,92,110,93,-1,93,110,109,-1,93,109,10,-1,10,109,108,-1,10,108,11,-1,11,108,6,-1,11,6,122,-1,122,6,119,-1,122,119,115,-1,115,119,69,-1,115,69,116,-1,116,69,42,-1,116,42,117,-1,117,42,44,-1,117,44,118,-1,118,44,46,-1,118,46,4,-1,4,46,48,-1,4,48,5,-1,5,48,50,-1,5,50,36,-1,36,50,51,-1,36,51,37,-1,37,51,54,-1,37,54,33,-1,33,54,55,-1,33,55,35,-1,130,131,132,-1,133,134,135,-1,136,137,138,-1,139,140,141,-1,142,143,144,-1,145,146,147,-1,147,146,148,-1,147,148,149,-1,149,148,150,-1,151,152,150,-1,150,152,153,-1,150,153,149,-1,154,155,156,-1,156,155,157,-1,156,157,151,-1,151,157,158,-1,151,158,152,-1,154,156,159,-1,159,156,160,-1,159,160,161,-1,162,163,164,-1,164,163,165,-1,146,135,148,-1,148,135,166,-1,148,166,150,-1,150,166,167,-1,150,167,151,-1,151,167,163,-1,151,163,156,-1,156,163,162,-1,156,162,160,-1,168,169,170,-1,132,131,169,-1,169,131,171,-1,169,171,170,-1,172,173,174,-1,174,173,175,-1,174,175,176,-1,176,175,177,-1,176,177,178,-1,178,177,179,-1,178,179,180,-1,180,179,181,-1,170,182,168,-1,168,182,183,-1,168,183,184,-1,184,183,185,-1,143,186,144,-1,144,186,187,-1,144,187,188,-1,187,189,188,-1,188,189,190,-1,188,190,191,-1,192,193,194,-1,194,193,195,-1,194,195,196,-1,197,198,199,-1,199,198,200,-1,199,200,201,-1,202,203,172,-1,172,203,204,-1,172,204,173,-1,201,205,199,-1,199,205,206,-1,199,206,197,-1,197,206,207,-1,197,207,208,-1,208,207,209,-1,208,209,210,-1,184,181,168,-1,168,181,179,-1,168,179,169,-1,169,179,177,-1,169,177,132,-1,132,177,175,-1,132,175,211,-1,211,175,173,-1,211,173,212,-1,212,173,204,-1,212,204,213,-1,213,204,203,-1,214,215,216,-1,216,215,217,-1,216,217,218,-1,219,220,221,-1,221,220,222,-1,221,222,216,-1,216,222,223,-1,216,223,214,-1,218,224,216,-1,216,224,225,-1,216,225,221,-1,221,225,226,-1,221,226,219,-1,219,226,227,-1,218,228,224,-1,224,228,229,-1,224,229,230,-1,138,137,231,-1,231,137,232,-1,231,232,233,-1,233,232,234,-1,233,234,235,-1,236,237,200,-1,200,237,238,-1,200,238,201,-1,140,239,226,-1,226,239,240,-1,226,240,227,-1,136,241,137,-1,137,241,242,-1,137,242,232,-1,232,242,243,-1,232,243,234,-1,244,245,139,-1,139,245,246,-1,139,246,140,-1,140,246,247,-1,140,247,239,-1,248,249,133,-1,249,250,133,-1,133,250,251,-1,133,251,134,-1,252,198,202,-1,202,198,197,-1,202,197,203,-1,203,197,208,-1,203,208,213,-1,213,208,210,-1,213,210,142,-1,142,210,253,-1,142,253,254,-1,145,244,146,-1,146,244,139,-1,146,139,135,-1,135,139,141,-1,135,141,133,-1,133,141,255,-1,133,255,248,-1,230,256,235,-1,235,256,236,-1,235,236,233,-1,233,236,200,-1,233,200,231,-1,231,200,198,-1,231,198,138,-1,138,198,252,-1,138,252,136,-1,190,192,191,-1,191,192,194,-1,191,194,257,-1,257,194,196,-1,257,196,258,-1,142,144,213,-1,213,144,188,-1,213,188,212,-1,212,188,191,-1,212,191,211,-1,211,191,257,-1,211,257,132,-1,132,257,258,-1,132,258,130,-1,254,143,142,-1,230,235,224,-1,224,235,234,-1,224,234,225,-1,225,234,243,-1,225,243,226,-1,226,243,242,-1,226,242,140,-1,140,242,241,-1,140,241,141,-1,141,241,136,-1,141,136,255,-1,255,136,252,-1,255,252,248,-1,248,252,202,-1,248,202,249,-1,249,202,172,-1,249,172,250,-1,250,172,174,-1,250,174,251,-1,251,174,176,-1,251,176,134,-1,134,176,178,-1,134,178,135,-1,135,178,180,-1,135,180,166,-1,166,180,181,-1,166,181,167,-1,167,181,184,-1,167,184,163,-1,163,184,185,-1,163,185,165,-1,259,260,261,-1,262,263,264,-1,265,266,267,-1,268,269,270,-1,271,272,273,-1,274,275,276,-1,277,278,279,-1,279,278,280,-1,279,280,281,-1,281,280,282,-1,283,284,282,-1,282,284,285,-1,282,285,281,-1,286,287,288,-1,288,287,289,-1,288,289,283,-1,283,289,290,-1,283,290,284,-1,286,288,291,-1,291,288,292,-1,291,292,293,-1,294,295,296,-1,296,295,297,-1,278,264,280,-1,280,264,298,-1,280,298,282,-1,282,298,299,-1,282,299,283,-1,283,299,295,-1,283,295,288,-1,288,295,294,-1,288,294,292,-1,300,301,302,-1,261,260,301,-1,301,260,303,-1,301,303,302,-1,304,305,306,-1,306,305,307,-1,306,307,308,-1,308,307,309,-1,308,309,310,-1,310,309,311,-1,310,311,312,-1,312,311,313,-1,302,314,300,-1,300,314,315,-1,300,315,316,-1,316,315,317,-1,275,318,276,-1,276,318,319,-1,276,319,320,-1,319,321,320,-1,320,321,322,-1,320,322,323,-1,324,325,326,-1,326,325,327,-1,326,327,328,-1,329,330,331,-1,331,330,332,-1,331,332,304,-1,304,332,333,-1,304,333,305,-1,334,335,336,-1,337,338,339,-1,338,337,274,-1,274,337,340,-1,274,340,341,-1,330,339,332,-1,332,339,338,-1,332,338,333,-1,333,338,342,-1,333,342,305,-1,305,342,343,-1,305,343,307,-1,307,343,261,-1,307,261,309,-1,309,261,301,-1,309,301,311,-1,311,301,300,-1,311,300,313,-1,313,300,316,-1,344,345,346,-1,346,345,347,-1,346,347,348,-1,348,347,349,-1,348,349,350,-1,350,349,351,-1,352,351,353,-1,353,351,349,-1,353,349,354,-1,354,349,347,-1,354,347,355,-1,356,357,355,-1,345,358,347,-1,347,358,359,-1,347,359,355,-1,355,359,360,-1,355,360,356,-1,361,272,362,-1,362,272,271,-1,362,271,363,-1,363,271,357,-1,362,364,361,-1,361,364,365,-1,361,365,334,-1,334,365,366,-1,334,366,335,-1,266,367,353,-1,353,367,368,-1,353,368,352,-1,369,370,265,-1,265,370,371,-1,265,371,266,-1,266,371,372,-1,266,372,367,-1,268,270,373,-1,373,270,374,-1,373,374,375,-1,376,377,262,-1,377,378,262,-1,262,378,379,-1,262,379,263,-1,277,369,278,-1,278,369,265,-1,278,265,264,-1,264,265,267,-1,264,267,262,-1,262,267,380,-1,262,380,376,-1,331,375,329,-1,329,375,374,-1,329,374,381,-1,381,374,270,-1,381,270,382,-1,382,270,269,-1,382,269,383,-1,383,273,382,-1,382,273,272,-1,382,272,381,-1,381,272,361,-1,381,361,329,-1,329,361,334,-1,329,334,330,-1,330,334,336,-1,330,336,339,-1,339,336,384,-1,339,384,337,-1,322,324,323,-1,323,324,326,-1,323,326,385,-1,385,326,328,-1,385,328,386,-1,274,276,338,-1,338,276,320,-1,338,320,342,-1,342,320,323,-1,342,323,343,-1,343,323,385,-1,343,385,261,-1,261,385,386,-1,261,386,259,-1,341,275,274,-1,357,271,355,-1,355,271,273,-1,355,273,354,-1,354,273,383,-1,354,383,353,-1,353,383,269,-1,353,269,266,-1,266,269,268,-1,266,268,267,-1,267,268,373,-1,267,373,380,-1,380,373,375,-1,380,375,376,-1,376,375,331,-1,376,331,377,-1,377,331,304,-1,377,304,378,-1,378,304,306,-1,378,306,379,-1,379,306,308,-1,379,308,263,-1,263,308,310,-1,263,310,264,-1,264,310,312,-1,264,312,298,-1,298,312,313,-1,298,313,299,-1,299,313,316,-1,299,316,295,-1,295,316,317,-1,295,317,297,-1,387,388,389,-1,275,390,391,-1,388,387,392,-1,392,387,13,-1,392,13,393,-1,394,395,275,-1,275,395,396,-1,275,396,390,-1,391,397,275,-1,275,397,398,-1,275,398,143,-1,143,398,399,-1,399,400,143,-1,143,400,401,-1,143,401,402,-1,389,403,387,-1,387,403,404,-1,387,404,405,-1,405,406,387,-1,387,406,407,-1,387,407,275,-1,275,407,408,-1,275,408,394,-1,402,409,143,-1,143,409,410,-1,143,410,13,-1,13,410,411,-1,13,411,393,-1,412,413,414,-1,415,416,417,-1,418,419,420,-1,421,422,423,-1,424,425,426,-1,427,387,428,-1,429,430,431,-1,431,430,432,-1,431,432,433,-1,433,432,434,-1,435,436,434,-1,434,436,437,-1,434,437,433,-1,438,439,440,-1,440,439,441,-1,440,441,435,-1,435,441,442,-1,435,442,436,-1,438,440,443,-1,443,440,444,-1,443,444,445,-1,446,447,448,-1,448,447,449,-1,430,417,432,-1,432,417,450,-1,432,450,434,-1,434,450,451,-1,434,451,435,-1,435,451,447,-1,435,447,440,-1,440,447,446,-1,440,446,444,-1,452,453,454,-1,414,413,453,-1,453,413,455,-1,453,455,454,-1,456,457,458,-1,458,457,459,-1,458,459,460,-1,460,459,461,-1,460,461,462,-1,462,461,463,-1,462,463,464,-1,464,463,465,-1,454,466,452,-1,452,466,467,-1,452,467,468,-1,468,467,469,-1,470,471,472,-1,473,428,474,-1,474,475,473,-1,473,475,476,-1,473,476,470,-1,470,476,477,-1,470,477,471,-1,478,479,480,-1,480,479,481,-1,480,481,456,-1,456,481,482,-1,456,482,457,-1,483,484,485,-1,486,487,488,-1,487,486,427,-1,427,486,489,-1,427,489,490,-1,479,488,481,-1,481,488,487,-1,481,487,482,-1,482,487,491,-1,482,491,457,-1,457,491,492,-1,457,492,459,-1,459,492,414,-1,459,414,461,-1,461,414,453,-1,461,453,463,-1,463,453,452,-1,463,452,465,-1,465,452,468,-1,493,494,495,-1,495,494,496,-1,495,496,497,-1,497,496,498,-1,497,498,499,-1,499,498,500,-1,501,500,502,-1,502,500,498,-1,502,498,503,-1,503,498,496,-1,503,496,504,-1,505,506,504,-1,494,507,496,-1,496,507,508,-1,496,508,504,-1,504,508,509,-1,504,509,505,-1,510,425,511,-1,511,425,424,-1,511,424,512,-1,512,424,506,-1,511,513,510,-1,510,513,514,-1,510,514,483,-1,483,514,515,-1,483,515,484,-1,419,516,502,-1,502,516,517,-1,502,517,501,-1,518,519,418,-1,418,519,520,-1,418,520,419,-1,419,520,521,-1,419,521,516,-1,421,423,522,-1,522,423,523,-1,522,523,524,-1,525,526,415,-1,526,527,415,-1,415,527,528,-1,415,528,416,-1,429,518,430,-1,430,518,418,-1,430,418,417,-1,417,418,420,-1,417,420,415,-1,415,420,529,-1,415,529,525,-1,480,524,478,-1,478,524,523,-1,478,523,530,-1,530,523,423,-1,530,423,531,-1,531,423,422,-1,531,422,532,-1,532,426,531,-1,531,426,425,-1,531,425,530,-1,530,425,510,-1,530,510,478,-1,478,510,483,-1,478,483,479,-1,479,483,485,-1,479,485,488,-1,488,485,533,-1,488,533,486,-1,387,534,428,-1,428,534,535,-1,428,535,474,-1,477,536,471,-1,471,536,537,-1,471,537,472,-1,472,537,538,-1,472,538,539,-1,427,428,487,-1,487,428,473,-1,487,473,491,-1,491,473,470,-1,491,470,492,-1,492,470,472,-1,492,472,414,-1,414,472,539,-1,414,539,412,-1,490,387,427,-1,506,424,504,-1,504,424,426,-1,504,426,503,-1,503,426,532,-1,503,532,502,-1,502,532,422,-1,502,422,419,-1,419,422,421,-1,419,421,420,-1,420,421,522,-1,420,522,529,-1,529,522,524,-1,529,524,525,-1,525,524,480,-1,525,480,526,-1,526,480,456,-1,526,456,527,-1,527,456,458,-1,527,458,528,-1,528,458,460,-1,528,460,416,-1,416,460,462,-1,416,462,417,-1,417,462,464,-1,417,464,450,-1,450,464,465,-1,450,465,451,-1,451,465,468,-1,451,468,447,-1,447,468,469,-1,447,469,449,-1,540,541,542,-1,542,541,543,-1,542,543,544,-1,544,543,545,-1,545,543,546,-1,545,546,547,-1,547,546,548,-1,548,546,549,-1,548,549,550,-1,550,549,551,-1,551,549,552,-1,551,552,553,-1,553,552,554,-1,554,552,555,-1,554,555,556,-1,556,555,557,-1,557,555,558,-1,557,558,559,-1,541,560,561,-1,561,560,562,-1,563,564,565,-1,565,564,558,-1,565,558,555,-1,566,567,568,-1,555,552,565,-1,565,552,549,-1,565,549,546,-1,569,541,570,-1,570,541,561,-1,570,561,568,-1,568,561,571,-1,568,571,566,-1,569,572,541,-1,541,572,565,-1,541,565,543,-1,543,565,546,-1,573,574,575,-1,575,574,576,-1,577,578,579,-1,579,578,580,-1,581,582,583,-1,583,582,584,-1,583,584,585,-1,585,584,586,-1,586,584,587,-1,586,587,588,-1,588,587,589,-1,589,587,590,-1,589,590,591,-1,591,590,592,-1,592,590,593,-1,592,593,594,-1,594,593,595,-1,595,593,596,-1,595,596,597,-1,597,596,598,-1,598,596,599,-1,598,599,600,-1,601,602,582,-1,582,602,603,-1,590,587,603,-1,603,587,584,-1,603,584,582,-1,604,605,606,-1,606,605,599,-1,599,596,603,-1,603,596,593,-1,603,593,590,-1,603,607,599,-1,599,607,608,-1,599,608,606,-1,606,608,609,-1,606,609,610,-1,611,612,610,-1,610,612,613,-1,610,613,606,-1,614,615,616,-1,616,615,617,-1,616,617,618,-1,618,617,619,-1,619,617,620,-1,619,620,621,-1,621,620,622,-1,622,620,623,-1,622,623,624,-1,624,623,625,-1,625,623,626,-1,625,626,627,-1,627,626,628,-1,628,626,629,-1,628,629,630,-1,630,629,631,-1,631,629,632,-1,631,632,633,-1,634,635,636,-1,636,635,637,-1,636,637,638,-1,638,637,639,-1,639,637,640,-1,639,640,641,-1,641,640,642,-1,642,640,643,-1,642,643,644,-1,644,643,645,-1,645,643,646,-1,645,646,647,-1,647,646,648,-1,648,646,649,-1,648,649,650,-1,650,649,651,-1,651,649,652,-1,651,652,653,-1,541,540,560,-1,560,540,654,-1,655,656,657,-1,657,656,653,-1,657,653,652,-1,490,489,60,-1,514,513,129,-1,494,493,31,-1,31,30,494,-1,494,30,32,-1,494,32,507,-1,507,32,34,-1,507,34,508,-1,508,34,509,-1,509,34,35,-1,509,35,505,-1,505,35,55,-1,505,55,53,-1,129,513,0,-1,53,52,505,-1,505,52,40,-1,505,40,506,-1,506,40,512,-1,512,40,511,-1,511,40,41,-1,511,41,513,-1,513,41,1,-1,513,1,0,-1,128,127,484,-1,484,127,126,-1,484,126,485,-1,485,126,63,-1,485,63,533,-1,128,484,129,-1,129,484,515,-1,129,515,514,-1,533,63,486,-1,486,63,62,-1,486,62,489,-1,489,62,61,-1,489,61,60,-1,124,13,387,-1,490,60,387,-1,387,60,125,-1,387,125,124,-1,582,581,601,-1,601,581,658,-1,577,659,578,-1,578,659,660,-1,661,662,663,-1,663,662,664,-1,663,664,665,-1,573,666,574,-1,574,666,667,-1,668,559,564,-1,564,559,558,-1,94,107,554,-1,31,540,29,-1,29,540,542,-1,22,28,544,-1,28,27,544,-1,544,27,25,-1,544,25,542,-1,542,25,24,-1,542,24,29,-1,544,545,22,-1,22,545,547,-1,22,547,23,-1,23,547,548,-1,551,113,550,-1,550,113,112,-1,550,112,111,-1,111,15,550,-1,550,15,17,-1,550,17,548,-1,548,17,19,-1,548,19,23,-1,554,107,553,-1,553,107,106,-1,553,106,551,-1,551,106,114,-1,551,114,113,-1,94,554,86,-1,86,554,556,-1,86,556,87,-1,87,556,89,-1,89,556,557,-1,89,557,90,-1,90,557,559,-1,90,559,81,-1,76,192,77,-1,77,192,190,-1,77,190,120,-1,143,13,186,-1,186,13,121,-1,186,121,187,-1,187,121,120,-1,187,120,189,-1,189,120,190,-1,258,72,68,-1,72,258,73,-1,73,258,196,-1,73,196,195,-1,76,74,192,-1,192,74,73,-1,192,73,193,-1,193,73,195,-1,131,104,171,-1,171,104,103,-1,171,103,170,-1,68,105,258,-1,258,105,104,-1,258,104,130,-1,130,104,131,-1,96,164,165,-1,103,123,170,-1,170,123,97,-1,170,97,182,-1,182,97,183,-1,96,165,97,-1,97,165,185,-1,97,185,183,-1,161,160,81,-1,81,160,162,-1,81,162,82,-1,96,95,164,-1,164,95,85,-1,164,85,162,-1,162,85,84,-1,162,84,82,-1,615,614,669,-1,669,614,670,-1,669,670,671,-1,672,600,605,-1,605,600,599,-1,227,240,595,-1,595,240,594,-1,161,581,159,-1,159,581,583,-1,152,158,585,-1,158,157,585,-1,585,157,155,-1,585,155,583,-1,583,155,154,-1,583,154,159,-1,585,586,152,-1,152,586,588,-1,152,588,153,-1,153,588,589,-1,244,145,591,-1,591,145,147,-1,591,147,589,-1,589,147,149,-1,589,149,153,-1,240,239,594,-1,594,239,247,-1,594,247,592,-1,592,247,246,-1,592,246,591,-1,591,246,245,-1,591,245,244,-1,227,595,219,-1,219,595,597,-1,219,597,220,-1,220,597,222,-1,222,597,598,-1,222,598,223,-1,223,598,600,-1,223,600,214,-1,215,214,293,-1,238,237,327,-1,209,324,210,-1,210,324,322,-1,210,322,253,-1,275,143,318,-1,318,143,254,-1,318,254,319,-1,319,254,253,-1,319,253,321,-1,321,253,322,-1,209,207,324,-1,324,207,206,-1,324,206,325,-1,325,206,205,-1,325,205,327,-1,327,205,201,-1,327,201,238,-1,236,302,303,-1,259,386,237,-1,237,386,328,-1,237,328,327,-1,236,303,237,-1,237,303,260,-1,237,260,259,-1,229,296,297,-1,236,256,302,-1,302,256,230,-1,302,230,314,-1,314,230,315,-1,229,297,230,-1,230,297,317,-1,230,317,315,-1,229,228,296,-1,296,228,218,-1,296,218,294,-1,294,218,292,-1,292,218,293,-1,293,218,217,-1,293,217,215,-1,635,634,673,-1,673,634,674,-1,675,676,677,-1,677,676,678,-1,679,680,681,-1,681,680,682,-1,681,682,683,-1,684,685,686,-1,686,685,687,-1,688,633,689,-1,689,633,632,-1,293,614,291,-1,291,614,616,-1,291,616,286,-1,286,616,287,-1,284,290,618,-1,618,290,616,-1,616,290,289,-1,616,289,287,-1,618,619,284,-1,284,619,621,-1,284,621,285,-1,285,621,622,-1,624,370,369,-1,369,277,624,-1,624,277,279,-1,624,279,622,-1,622,279,281,-1,622,281,285,-1,370,624,371,-1,371,624,625,-1,371,625,372,-1,372,625,627,-1,372,627,367,-1,367,627,368,-1,368,627,628,-1,368,628,352,-1,352,628,351,-1,351,628,630,-1,351,630,350,-1,350,630,348,-1,348,630,631,-1,348,631,346,-1,346,631,633,-1,346,633,344,-1,341,340,474,-1,384,336,477,-1,445,444,344,-1,344,444,446,-1,344,446,345,-1,345,446,448,-1,345,448,358,-1,358,448,359,-1,359,448,360,-1,360,448,449,-1,360,449,356,-1,356,449,469,-1,356,469,467,-1,467,466,356,-1,356,466,454,-1,356,454,357,-1,413,364,455,-1,455,364,362,-1,455,362,454,-1,454,362,363,-1,454,363,357,-1,413,412,364,-1,364,412,539,-1,364,539,538,-1,538,537,364,-1,364,537,536,-1,364,536,365,-1,365,536,366,-1,477,336,536,-1,536,336,335,-1,536,335,366,-1,384,477,337,-1,337,477,476,-1,337,476,340,-1,340,476,475,-1,340,475,474,-1,534,387,275,-1,341,474,275,-1,275,474,535,-1,275,535,534,-1,501,517,648,-1,445,634,443,-1,443,634,636,-1,443,636,438,-1,438,636,439,-1,436,442,638,-1,638,442,636,-1,636,442,441,-1,636,441,439,-1,638,639,436,-1,436,639,641,-1,436,641,437,-1,437,641,642,-1,645,520,644,-1,644,520,519,-1,644,519,518,-1,518,429,644,-1,644,429,431,-1,644,431,642,-1,642,431,433,-1,642,433,437,-1,648,517,647,-1,647,517,516,-1,647,516,645,-1,645,516,521,-1,645,521,520,-1,501,648,500,-1,500,648,650,-1,500,650,499,-1,499,650,497,-1,497,650,651,-1,497,651,495,-1,495,651,653,-1,495,653,493,-1,633,688,344,-1,344,688,685,-1,685,684,344,-1,344,684,679,-1,344,679,445,-1,445,679,681,-1,445,681,676,-1,676,675,445,-1,445,675,674,-1,445,674,634,-1,214,600,672,-1,214,672,293,-1,293,672,670,-1,293,670,614,-1,559,668,81,-1,81,668,667,-1,667,666,81,-1,81,666,664,-1,81,664,161,-1,161,664,662,-1,161,662,660,-1,660,659,161,-1,161,659,658,-1,161,658,581,-1,493,653,656,-1,493,656,31,-1,31,656,654,-1,31,654,540,-1,
        ]
    }
}
Shape{
    appearance Appearance {
        material  Material 	{
            diffuseColor 0.4117647058823529 0.4117647058823529 0.4117647058823529
            specularColor 0.16470588235294117 0.16470588235294117 0.16470588235294117
            ambientIntensity 0.4118
            transparency 0.0
            shininess 0.5
        }
    }
    geometry IndexedFaceSet {
        ccw TRUE
        solid FALSE
        coord DEF co Coordinate {
            point [
                0.4859 0.4048 0.2756, 0.4859 0.4048 0.2953, 0.4835 0.423 0.2756, 0.4835 0.423 0.2953, 0.4765 0.4399 0.2756, 0.4765 0.4399 0.2953, 0.4653 0.4544 0.2756, 0.4653 0.4544 0.2953, 0.4508 0.4655 0.2756, 0.4508 0.4655 0.2953, 0.4339 0.4725 0.2756, 0.4339 0.4725 0.2953, 0.4158 0.4749 0.2756, 0.4158 0.4749 0.2953, 0.3976 0.4725 0.2756, 0.3976 0.4725 0.2953, 0.3807 0.4655 0.2756, 0.3807 0.4655 0.2953, 0.3662 0.4544 0.2756, 0.3662 0.4544 0.2953, 0.3551 0.4399 0.2756, 0.3551 0.4399 0.2953, 0.3481 0.423 0.2756, 0.3481 0.423 0.2953, 0.3457 0.4048 0.2756, 0.3457 0.4048 0.2953, 0.3481 0.3867 0.2756, 0.3481 0.3867 0.2953, 0.3551 0.3698 0.2756, 0.3551 0.3698 0.2953, 0.3662 0.3553 0.2756, 0.3662 0.3553 0.2953, 0.3807 0.3442 0.2756, 0.3807 0.3442 0.2953, 0.3976 0.3372 0.2756, 0.3976 0.3372 0.2953, 0.4158 0.3348 0.2756, 0.4158 0.3348 0.2953, 0.4339 0.3372 0.2756, 0.4339 0.3372 0.2953, 0.4508 0.3442 0.2756, 0.4508 0.3442 0.2953, 0.4653 0.3553 0.2756, 0.4653 0.3553 0.2953, 0.4765 0.3698 0.2756, 0.4765 0.3698 0.2953, 0.4835 0.3867 0.2756, 0.4835 0.3867 0.2953, 0.4158 0.4048 0.2756
            ]
        }
        coordIndex [
            0,1,2,-1,2,1,3,-1,2,3,4,-1,4,3,5,-1,4,5,6,-1,6,5,7,-1,6,7,8,-1,8,7,9,-1,8,9,10,-1,10,9,11,-1,10,11,12,-1,12,11,13,-1,12,13,14,-1,14,13,15,-1,14,15,16,-1,16,15,17,-1,16,17,18,-1,18,17,19,-1,18,19,20,-1,20,19,21,-1,20,21,22,-1,22,21,23,-1,22,23,24,-1,24,23,25,-1,24,25,26,-1,26,25,27,-1,26,27,28,-1,28,27,29,-1,28,29,30,-1,30,29,31,-1,30,31,32,-1,32,31,33,-1,32,33,34,-1,34,33,35,-1,34,35,36,-1,36,35,37,-1,36,37,38,-1,38,37,39,-1,38,39,40,-1,40,39,41,-1,40,41,42,-1,42,41,43,-1,42,43,44,-1,44,43,45,-1,44,45,46,-1,46,45,47,-1,46,47,0,-1,0,47,1,-1,44,46,48,-1,48,46,0,-1,48,0,2,-1,38,40,48,-1,48,40,42,-1,48,42,44,-1,32,34,48,-1,48,34,36,-1,48,36,38,-1,26,28,48,-1,48,28,30,-1,48,30,32,-1,20,22,48,-1,48,22,24,-1,48,24,26,-1,14,16,48,-1,48,16,18,-1,48,18,20,-1,8,10,48,-1,48,10,12,-1,48,12,14,-1,2,4,48,-1,48,4,6,-1,48,6,8,-1,
        ]
    }
}
Shape{
    appearance Appearance {
        material  Material 	{
            diffuseColor 0.9686274509803922 0.8784313725490196 0.6
            specularColor 0.6784313725490196 0.615686274509804 0.4196078431372549
            ambientIntensity 0.8737
            transparency 0.0
            shininess 0.5
        }
    }
    geometry IndexedFaceSet {
        ccw TRUE
        solid FALSE
        coord DEF co Coordinate {
            point [
                0.0295 0.3405 0.0197, 0.0295 0.3405 0.0, 0.0315 0.3461 0.0197, 0.0315 0.3461 0.0, 0.0214 0.3405 0.0197, 0.0214 0.3405 0.0, 0.0195 0.3461 0.0197, 0.0195 0.3461 0.0, 0.0166 0.3461 0.0197, 0.0166 0.3461 0.0, 0.0241 0.3264 0.0197, 0.0241 0.3264 0.0, 0.0267 0.3264 0.0197, 0.0267 0.3264 0.0, 0.0344 0.3461 0.0197, 0.0344 0.3461 0.0, 0.022 0.3384 0.0197, 0.0286 0.3384 0.0197, 0.025 0.3302 0.0197, 0.0252 0.3295 0.0197, 0.0253 0.3288 0.0197, 0.0253 0.3288 0.0197, 0.0255 0.3295 0.0197, 0.0257 0.3302 0.0197, 0.0253 0.3288 0.0, 0.0255 0.3295 0.0, 0.0257 0.3302 0.0, 0.0253 0.3288 0.0, 0.025 0.3302 0.0, 0.0252 0.3295 0.0, 0.022 0.3384 0.0, 0.0286 0.3384 0.0, 0.0049 0.3264 0.0197, 0.0049 0.3264 0.0, -0.0007 0.3264 0.0197, -0.0007 0.3264 0.0, 0.0152 0.336 0.0197, 0.0152 0.336 0.0, 0.0151 0.335 0.0, 0.0151 0.335 0.0197, 0.0148 0.3329 0.0, 0.0148 0.3329 0.0197, 0.0139 0.331 0.0, 0.0139 0.331 0.0197, 0.0127 0.3295 0.0, 0.0127 0.3295 0.0197, 0.012 0.3288 0.0, 0.012 0.3288 0.0197, 0.01 0.3275 0.0, 0.01 0.3275 0.0197, 0.0077 0.3267 0.0, 0.0077 0.3267 0.0197, 0.0047 0.3461 0.0197, 0.0047 0.3461 0.0, 0.0072 0.3458 0.0, 0.0072 0.3458 0.0197, 0.0094 0.3452 0.0, 0.0094 0.3452 0.0197, 0.0115 0.344 0.0, 0.0115 0.344 0.0197, 0.0131 0.3424 0.0, 0.0131 0.3424 0.0197, 0.0142 0.3407 0.0, 0.0142 0.3407 0.0197, 0.0149 0.3386 0.0, 0.0149 0.3386 0.0197, -0.0007 0.3461 0.0197, -0.0007 0.3461 0.0, 0.0125 0.336 0.0197, 0.0124 0.3341 0.0197, 0.0119 0.3325 0.0197, 0.0112 0.3313 0.0197, 0.0103 0.3303 0.0197, 0.0088 0.3294 0.0197, 0.0072 0.3288 0.0197, 0.0049 0.3285 0.0197, 0.002 0.3285 0.0197, 0.002 0.3439 0.0197, 0.0048 0.3439 0.0197, 0.0068 0.3437 0.0197, 0.0085 0.3432 0.0197, 0.0098 0.3424 0.0197, 0.0109 0.3413 0.0197, 0.0118 0.34 0.0197, 0.0123 0.3384 0.0197, 0.0048 0.3439 0.0, 0.002 0.3439 0.0, 0.0125 0.336 0.0, 0.0123 0.3384 0.0, 0.0118 0.34 0.0, 0.0109 0.3413 0.0, 0.0098 0.3424 0.0, 0.0085 0.3432 0.0, 0.0068 0.3437 0.0, 0.0049 0.3285 0.0, 0.0072 0.3288 0.0, 0.0088 0.3294 0.0, 0.0103 0.3303 0.0, 0.0112 0.3313 0.0, 0.0119 0.3325 0.0, 0.0124 0.3341 0.0, 0.002 0.3285 0.0, -0.0151 0.3264 0.0197, -0.0151 0.3264 0.0, -0.0151 0.3461 0.0197, -0.0151 0.3461 0.0, -0.005 0.3264 0.0197, -0.005 0.3264 0.0, -0.005 0.3285 0.0197, -0.005 0.3285 0.0, -0.0124 0.3285 0.0197, -0.0124 0.3285 0.0, -0.0124 0.335 0.0197, -0.0124 0.335 0.0, -0.0055 0.335 0.0197, -0.0055 0.335 0.0, -0.0055 0.3372 0.0197, -0.0055 0.3372 0.0, -0.0124 0.3372 0.0197, -0.0124 0.3372 0.0, -0.0124 0.3439 0.0197, -0.0124 0.3439 0.0, -0.0045 0.3439 0.0197, -0.0045 0.3439 0.0, -0.0045 0.3461 0.0197, -0.0045 0.3461 0.0, -0.0336 0.3366 0.0197, -0.0336 0.3366 0.0, -0.0334 0.3389 0.0, -0.0334 0.3389 0.0197, -0.0328 0.341 0.0, -0.0328 0.341 0.0197, -0.0317 0.3429 0.0, -0.0317 0.3429 0.0197, -0.0303 0.3444 0.0, -0.0303 0.3444 0.0197, -0.0287 0.3454 0.0, -0.0287 0.3454 0.0197, -0.0268 0.3461 0.0, -0.0268 0.3461 0.0197, -0.0243 0.3463 0.0, -0.0243 0.3463 0.0197, -0.0236 0.3261 0.0, -0.0249 0.3263 0.0, -0.0236 0.3261 0.0197, -0.0256 0.3263 0.0197, -0.0256 0.3263 0.0, -0.0278 0.327 0.0, -0.0278 0.327 0.0197, -0.0296 0.328 0.0, -0.0296 0.328 0.0197, -0.0313 0.3297 0.0, -0.0313 0.3297 0.0197, -0.0325 0.3316 0.0, -0.0325 0.3316 0.0197, -0.0333 0.3338 0.0, -0.0333 0.3338 0.0197, -0.0218 0.3263 0.0, -0.0212 0.3263 0.0197, -0.0212 0.3263 0.0, -0.0189 0.3269 0.0197, -0.0189 0.3269 0.0, -0.0189 0.3296 0.0197, -0.0189 0.3296 0.0, -0.0235 0.3283 0.0197, -0.0235 0.3283 0.0, -0.0211 0.3286 0.0, -0.0211 0.3286 0.0197, -0.0309 0.3364 0.0197, -0.0309 0.3364 0.0, -0.0308 0.335 0.0, -0.0308 0.335 0.0197, -0.0303 0.3328 0.0, -0.0303 0.3328 0.0197, -0.0295 0.3313 0.0, -0.0295 0.3313 0.0197, -0.0283 0.33 0.0, -0.0283 0.33 0.0197, -0.0269 0.3291 0.0, -0.0269 0.3291 0.0197, -0.0255 0.3285 0.0, -0.0255 0.3285 0.0197, -0.024 0.3442 0.0197, -0.024 0.3442 0.0, -0.0258 0.3439 0.0, -0.0258 0.3439 0.0197, -0.0272 0.3434 0.0, -0.0272 0.3434 0.0197, -0.0285 0.3426 0.0, -0.0285 0.3426 0.0197, -0.0294 0.3416 0.0, -0.0294 0.3416 0.0197, -0.0302 0.3403 0.0, -0.0302 0.3403 0.0197, -0.0307 0.3386 0.0, -0.0307 0.3386 0.0197, -0.0189 0.3429 0.0197, -0.0189 0.3429 0.0, -0.0193 0.3431 0.0, -0.0193 0.3431 0.0197, -0.0214 0.3439 0.0, -0.0214 0.3439 0.0197, -0.0189 0.3451 0.0197, -0.0189 0.3451 0.0, -0.0238 0.3463 0.0, -0.0238 0.3463 0.0197, -0.021 0.3459 0.0, -0.021 0.3459 0.0197, -0.0453 0.3264 0.0197, -0.0453 0.3264 0.0, -0.0453 0.3461 0.0197, -0.0453 0.3461 0.0, -0.0427 0.3264 0.0197, -0.0427 0.3264 0.0, -0.0427 0.3439 0.0197, -0.0427 0.3439 0.0, -0.0352 0.3439 0.0197, -0.0352 0.3439 0.0, -0.0352 0.3461 0.0197, -0.0352 0.3461 0.0
            ]
        }
        coordIndex [
            0,1,2,-1,2,1,3,-1,4,5,0,-1,0,5,1,-1,6,7,4,-1,4,7,5,-1,8,9,6,-1,6,9,7,-1,10,11,8,-1,8,11,9,-1,12,13,10,-1,10,13,11,-1,14,15,12,-1,12,15,13,-1,14,2,15,-1,15,2,3,-1,16,4,17,-1,17,4,0,-1,18,10,16,-1,16,10,8,-1,16,8,4,-1,4,8,6,-1,18,19,10,-1,10,19,20,-1,10,20,12,-1,12,20,21,-1,12,21,22,-1,22,23,12,-1,12,23,17,-1,12,17,14,-1,14,17,0,-1,14,0,2,-1,21,24,25,-1,21,25,22,-1,22,25,26,-1,22,26,23,-1,20,27,21,-1,21,27,24,-1,18,28,29,-1,18,29,19,-1,19,29,27,-1,19,27,20,-1,16,30,18,-1,18,30,28,-1,17,31,16,-1,16,31,30,-1,26,31,23,-1,23,31,17,-1,32,33,34,-1,34,33,35,-1,36,37,38,-1,36,38,39,-1,39,38,40,-1,39,40,41,-1,41,40,42,-1,41,42,43,-1,43,42,44,-1,43,44,45,-1,45,44,46,-1,45,46,47,-1,47,46,48,-1,47,48,49,-1,49,48,50,-1,49,50,51,-1,51,50,33,-1,51,33,32,-1,52,53,54,-1,52,54,55,-1,55,54,56,-1,55,56,57,-1,57,56,58,-1,57,58,59,-1,59,58,60,-1,59,60,61,-1,61,60,62,-1,61,62,63,-1,63,62,64,-1,63,64,65,-1,65,64,37,-1,65,37,36,-1,66,67,52,-1,52,67,53,-1,66,34,67,-1,67,34,35,-1,65,36,68,-1,68,36,39,-1,68,39,69,-1,69,39,41,-1,69,41,70,-1,70,41,43,-1,70,43,71,-1,71,43,45,-1,71,45,72,-1,72,45,47,-1,72,47,73,-1,73,47,49,-1,73,49,74,-1,74,49,51,-1,74,51,75,-1,75,51,32,-1,75,32,76,-1,76,32,34,-1,76,34,77,-1,77,34,66,-1,77,66,78,-1,78,66,52,-1,78,52,79,-1,79,52,55,-1,79,55,80,-1,80,55,57,-1,80,57,81,-1,81,57,59,-1,81,59,82,-1,82,59,61,-1,82,61,83,-1,83,61,63,-1,83,63,84,-1,84,63,65,-1,84,65,68,-1,78,85,77,-1,77,85,86,-1,68,87,88,-1,68,88,84,-1,84,88,89,-1,84,89,83,-1,83,89,90,-1,83,90,82,-1,82,90,91,-1,82,91,81,-1,81,91,92,-1,81,92,80,-1,80,92,93,-1,80,93,79,-1,79,93,85,-1,79,85,78,-1,75,94,95,-1,75,95,74,-1,74,95,96,-1,74,96,73,-1,73,96,97,-1,73,97,72,-1,72,97,98,-1,72,98,71,-1,71,98,99,-1,71,99,70,-1,70,99,100,-1,70,100,69,-1,69,100,87,-1,69,87,68,-1,76,101,75,-1,75,101,94,-1,86,101,77,-1,77,101,76,-1,102,103,104,-1,104,103,105,-1,106,107,102,-1,102,107,103,-1,108,109,106,-1,106,109,107,-1,110,111,108,-1,108,111,109,-1,112,113,110,-1,110,113,111,-1,114,115,112,-1,112,115,113,-1,116,117,114,-1,114,117,115,-1,118,119,116,-1,116,119,117,-1,120,121,118,-1,118,121,119,-1,122,123,120,-1,120,123,121,-1,124,125,122,-1,122,125,123,-1,124,104,125,-1,125,104,105,-1,104,124,122,-1,122,120,104,-1,104,120,118,-1,104,118,102,-1,108,106,110,-1,110,106,102,-1,110,102,112,-1,112,102,118,-1,112,118,114,-1,114,118,116,-1,126,127,128,-1,126,128,129,-1,129,128,130,-1,129,130,131,-1,131,130,132,-1,131,132,133,-1,133,132,134,-1,133,134,135,-1,135,134,136,-1,135,136,137,-1,137,136,138,-1,137,138,139,-1,139,138,140,-1,139,140,141,-1,142,143,144,-1,144,143,145,-1,143,146,145,-1,145,146,147,-1,145,147,148,-1,148,147,149,-1,148,149,150,-1,150,149,151,-1,150,151,152,-1,152,151,153,-1,152,153,154,-1,154,153,155,-1,154,155,156,-1,156,155,127,-1,156,127,126,-1,142,144,157,-1,157,144,158,-1,157,158,159,-1,159,158,160,-1,159,160,161,-1,162,163,160,-1,160,163,161,-1,164,165,166,-1,164,166,167,-1,167,166,163,-1,167,163,162,-1,168,169,170,-1,168,170,171,-1,171,170,172,-1,171,172,173,-1,173,172,174,-1,173,174,175,-1,175,174,176,-1,175,176,177,-1,177,176,178,-1,177,178,179,-1,179,178,180,-1,179,180,181,-1,181,180,165,-1,181,165,164,-1,182,183,184,-1,182,184,185,-1,185,184,186,-1,185,186,187,-1,187,186,188,-1,187,188,189,-1,189,188,190,-1,189,190,191,-1,191,190,192,-1,191,192,193,-1,193,192,194,-1,193,194,195,-1,195,194,169,-1,195,169,168,-1,196,197,198,-1,196,198,199,-1,199,198,200,-1,199,200,201,-1,201,200,183,-1,201,183,182,-1,202,203,196,-1,196,203,197,-1,141,140,204,-1,141,204,205,-1,205,204,206,-1,205,206,207,-1,207,206,203,-1,207,203,202,-1,185,141,182,-1,182,141,205,-1,182,205,201,-1,201,205,207,-1,201,207,199,-1,199,207,202,-1,199,202,196,-1,162,160,167,-1,167,160,158,-1,167,158,164,-1,164,158,144,-1,164,144,181,-1,181,144,145,-1,181,145,179,-1,179,145,148,-1,179,148,177,-1,177,148,150,-1,177,150,175,-1,175,150,152,-1,175,152,173,-1,173,152,154,-1,173,154,171,-1,171,154,156,-1,171,156,168,-1,168,156,126,-1,168,126,195,-1,195,126,129,-1,195,129,193,-1,193,129,131,-1,193,131,191,-1,191,131,133,-1,191,133,189,-1,189,133,135,-1,189,135,187,-1,187,135,137,-1,187,137,185,-1,185,137,139,-1,185,139,141,-1,208,209,210,-1,210,209,211,-1,212,213,208,-1,208,213,209,-1,214,215,212,-1,212,215,213,-1,216,217,214,-1,214,217,215,-1,218,219,216,-1,216,219,217,-1,218,210,219,-1,219,210,211,-1,212,208,214,-1,214,208,210,-1,214,210,216,-1,216,210,218,-1,
        ]
    }
}
Shape{
    appearance Appearance {
        material  Material 	{
            diffuseColor 0.10980392156862745 0.10980392156862745 0.10980392156862745
            specularColor 0.0784313725490196 0.0784313725490196 0.0784313725490196
            ambientIntensity 0.1098
            transparency 0.0
            shininess 0.5
        }
    }
    geometry IndexedFaceSet {
        ccw TRUE
        solid FALSE
        coord DEF co Coordinate {
            point [
                0.022 0.3384 0.0, 0.0286 0.3384 0.0, 0.025 0.3302 0.0, 0.0257 0.3302 0.0, 0.0252 0.3295 0.0, 0.0255 0.3295 0.0, 0.0253 0.3288 0.0, 0.0253 0.3288 0.0, 0.002 0.3285 0.0, 0.002 0.3439 0.0, 0.0049 0.3285 0.0, 0.0048 0.3439 0.0, 0.0123 0.3384 0.0, 0.0125 0.336 0.0, 0.0124 0.3341 0.0, 0.0119 0.3325 0.0, 0.0072 0.3288 0.0, 0.0068 0.3437 0.0, 0.0085 0.3432 0.0, 0.0098 0.3424 0.0, 0.0112 0.3313 0.0, 0.0103 0.3303 0.0, 0.0088 0.3294 0.0, 0.0109 0.3413 0.0, 0.0118 0.34 0.0
            ]
        }
        coordIndex [
            0,1,2,-1,2,1,3,-1,2,3,4,-1,4,3,5,-1,4,5,6,-1,6,5,7,-1,8,9,10,-1,10,9,11,-1,12,13,10,-1,13,14,10,-1,10,14,15,-1,10,15,16,-1,11,17,10,-1,10,17,18,-1,10,18,19,-1,20,21,15,-1,15,21,22,-1,15,22,16,-1,19,23,10,-1,10,23,24,-1,10,24,12,-1,
        ]
    }
}
Shape{
    appearance Appearance {
        material  Material 	{
            diffuseColor 0.7764705882352941 0.7568627450980392 0.7372549019607844
            specularColor 0.38823529411764707 0.3764705882352941 0.3686274509803922
            ambientIntensity 0.7605
            transparency 0.0
            shininess 0.5
        }
    }
    geometry IndexedFaceSet {
        ccw TRUE
        solid FALSE
        coord DEF co Coordinate {
            point [
                -0.3248 -0.6102 0.0591, -0.3248 -0.6102 0.0, -0.4429 -0.6102 0.0591, -0.4429 -0.6102 0.0, -0.3248 -0.6594 0.0, -0.4429 -0.6594 0.0, -0.3248 -0.6594 0.0591, -0.4429 -0.6594 0.0591, 0.4429 -0.6102 0.0591, 0.4429 -0.6102 0.0, 0.3248 -0.6102 0.0591, 0.3248 -0.6102 0.0, 0.4429 -0.6594 0.0, 0.3248 -0.6594 0.0, 0.4429 -0.6594 0.0591, 0.3248 -0.6594 0.0591, 0.0689 0.6102 0.0591, 0.187 0.6102 0.0591, 0.0689 0.6102 0.0, 0.187 0.6102 0.0, 0.0689 0.502 0.0591, 0.187 0.502 0.0591, 0.187 0.502 0.0, 0.0689 0.502 0.0, -0.187 0.6102 0.0591, -0.0689 0.6102 0.0591, -0.187 0.6102 0.0, -0.0689 0.6102 0.0, -0.187 0.502 0.0591, -0.0689 0.502 0.0591, -0.0689 0.502 0.0, -0.187 0.502 0.0, 0.187 -0.6102 0.0591, 0.187 -0.6102 0.0, 0.0689 -0.6102 0.0591, 0.0689 -0.6102 0.0, 0.187 -0.6594 0.0, 0.0689 -0.6594 0.0, 0.187 -0.6594 0.0591, 0.0689 -0.6594 0.0591, 0.6201 0.0256 0.0591, 0.6201 -0.0256 0.0591, 0.6201 0.0256 0.0, 0.6201 -0.0256 0.0, 0.187 -0.502 0.0591, 0.3248 -0.502 0.0591, 0.4902 0.2382 0.0591, 0.0689 0.2382 0.0591, 0.4902 0.0837 0.0591, 0.5499 0.0511 0.0591, 0.5417 0.0545 0.0591, 0.5586 -0.0256 0.0591, 0.5586 0.0256 0.0591, 0.4429 -0.502 0.0591, 0.4902 -0.502 0.0591, 0.4902 -0.0837 0.0591, 0.5348 0.0598 0.0591, 0.5294 0.0668 0.0591, 0.526 0.0749 0.0591, 0.5249 0.0837 0.0591, 0.5348 -0.0598 0.0591, 0.5294 -0.0668 0.0591, 0.526 -0.0749 0.0591, 0.5249 -0.0837 0.0591, 0.5586 0.05 0.0591, 0.5417 -0.0545 0.0591, 0.5499 -0.0511 0.0591, 0.5586 -0.05 0.0591, 0.0689 0.2382 0.0, 0.187 -0.502 0.0, 0.3248 -0.502 0.0, 0.4429 -0.502 0.0, 0.4902 -0.502 0.0, 0.4902 -0.0837 0.0, 0.5249 -0.0837 0.0, 0.526 -0.0749 0.0, 0.5294 -0.0668 0.0, 0.5348 -0.0598 0.0, 0.5417 -0.0545 0.0, 0.5499 -0.0511 0.0, 0.5586 -0.05 0.0, 0.5586 -0.0256 0.0, 0.5586 0.0256 0.0, 0.5586 0.05 0.0, 0.5499 0.0511 0.0, 0.5417 0.0545 0.0, 0.5348 0.0598 0.0, 0.5294 0.0668 0.0, 0.526 0.0749 0.0, 0.5249 0.0837 0.0, 0.4902 0.0837 0.0, 0.4902 0.2382 0.0, -0.6201 -0.0256 0.0, -0.6201 -0.0256 0.0591, -0.6201 0.0256 0.0, -0.6201 0.0256 0.0591, -0.0689 -0.6102 0.0, -0.0689 -0.6102 0.0591, -0.187 -0.6102 0.0, -0.187 -0.6102 0.0591, -0.5499 0.0511 0.0591, -0.5586 0.05 0.0591, -0.5586 0.0256 0.0591, -0.187 -0.502 0.0591, -0.0689 0.2382 0.0591, -0.4902 0.2382 0.0591, -0.4902 0.0837 0.0591, -0.526 -0.0749 0.0591, -0.5249 -0.0837 0.0591, -0.4902 -0.0837 0.0591, -0.5294 0.0668 0.0591, -0.5348 0.0598 0.0591, -0.5417 0.0545 0.0591, -0.526 0.0749 0.0591, -0.5249 0.0837 0.0591, -0.4902 -0.502 0.0591, -0.4429 -0.502 0.0591, -0.5499 -0.0511 0.0591, -0.5417 -0.0545 0.0591, -0.5348 -0.0598 0.0591, -0.5294 -0.0668 0.0591, -0.3248 -0.502 0.0591, -0.5586 -0.05 0.0591, -0.5586 -0.0256 0.0591, -0.5586 0.0256 0.0, -0.5586 -0.0256 0.0, -0.5586 -0.05 0.0, -0.5499 -0.0511 0.0, -0.5417 -0.0545 0.0, -0.5348 -0.0598 0.0, -0.5294 -0.0668 0.0, -0.526 -0.0749 0.0, -0.5249 -0.0837 0.0, -0.4902 -0.0837 0.0, -0.4902 -0.502 0.0, -0.4429 -0.502 0.0, -0.3248 -0.502 0.0, -0.187 -0.502 0.0, -0.0689 0.2382 0.0, -0.4902 0.2382 0.0, -0.4902 0.0837 0.0, -0.5249 0.0837 0.0, -0.526 0.0749 0.0, -0.5294 0.0668 0.0, -0.5348 0.0598 0.0, -0.5417 0.0545 0.0, -0.5499 0.0511 0.0, -0.5586 0.05 0.0, -0.187 0.6594 0.0, -0.0689 0.6594 0.0, -0.187 0.6594 0.0591, -0.0689 0.6594 0.0591, -0.4429 0.6102 0.0591, -0.4429 0.6102 0.0, -0.3248 0.6102 0.0591, -0.3248 0.6102 0.0, -0.4429 0.6594 0.0, -0.3248 0.6594 0.0, -0.4429 0.6594 0.0591, -0.3248 0.6594 0.0591, 0.4429 0.6102 0.0591, 0.3248 0.6102 0.0591, 0.4429 0.6102 0.0, 0.3248 0.6102 0.0, 0.3248 0.6594 0.0, 0.4429 0.6594 0.0, 0.3248 0.6594 0.0591, 0.4429 0.6594 0.0591, 0.0689 0.6594 0.0, 0.187 0.6594 0.0, 0.0689 0.6594 0.0591, 0.187 0.6594 0.0591, 0.6791 0.0256 0.0, 0.6791 -0.0256 0.0, 0.6791 0.0256 0.0591, 0.6791 -0.0256 0.0591, -0.6791 -0.0256 0.0, -0.6791 0.0256 0.0, -0.6791 -0.0256 0.0591, -0.6791 0.0256 0.0591
            ]
        }
        coordIndex [
            0,1,2,-1,2,1,3,-1,4,5,1,-1,1,5,3,-1,0,6,1,-1,1,6,4,-1,6,7,4,-1,4,7,5,-1,5,7,3,-1,3,7,2,-1,7,6,2,-1,2,6,0,-1,8,9,10,-1,10,9,11,-1,12,13,9,-1,9,13,11,-1,8,14,9,-1,9,14,12,-1,14,15,12,-1,12,15,13,-1,13,15,11,-1,11,15,10,-1,15,14,10,-1,10,14,8,-1,16,17,18,-1,18,17,19,-1,16,20,17,-1,17,20,21,-1,17,21,19,-1,19,21,22,-1,23,20,18,-1,18,20,16,-1,21,20,22,-1,22,20,23,-1,23,18,22,-1,22,18,19,-1,24,25,26,-1,26,25,27,-1,24,28,25,-1,25,28,29,-1,25,29,27,-1,27,29,30,-1,31,28,26,-1,26,28,24,-1,29,28,30,-1,30,28,31,-1,31,26,30,-1,30,26,27,-1,32,33,34,-1,34,33,35,-1,36,37,33,-1,33,37,35,-1,32,38,33,-1,33,38,36,-1,38,39,36,-1,36,39,37,-1,37,39,35,-1,35,39,34,-1,39,38,34,-1,34,38,32,-1,33,32,35,-1,35,32,34,-1,9,8,11,-1,11,8,10,-1,40,41,42,-1,42,41,43,-1,34,32,44,-1,45,10,8,-1,46,47,48,-1,48,47,34,-1,49,50,34,-1,41,40,51,-1,51,40,52,-1,53,54,55,-1,50,56,34,-1,34,56,57,-1,34,57,48,-1,48,57,58,-1,48,58,59,-1,60,52,61,-1,61,52,55,-1,61,55,62,-1,62,55,63,-1,8,53,45,-1,45,53,55,-1,45,55,44,-1,44,55,52,-1,44,52,34,-1,34,52,64,-1,34,64,49,-1,60,65,52,-1,52,65,66,-1,52,66,51,-1,51,66,67,-1,34,47,35,-1,35,47,68,-1,69,44,33,-1,33,44,32,-1,45,44,70,-1,70,44,69,-1,10,45,11,-1,11,45,70,-1,71,53,9,-1,9,53,8,-1,54,53,72,-1,72,53,71,-1,55,54,73,-1,73,54,72,-1,63,55,74,-1,74,55,73,-1,63,74,62,-1,62,74,75,-1,62,75,61,-1,61,75,76,-1,61,76,60,-1,60,76,77,-1,60,77,65,-1,65,77,78,-1,65,78,66,-1,66,78,79,-1,66,79,67,-1,67,79,80,-1,51,67,81,-1,81,67,80,-1,41,51,43,-1,43,51,81,-1,82,52,42,-1,42,52,40,-1,64,52,83,-1,83,52,82,-1,64,83,49,-1,49,83,84,-1,49,84,50,-1,50,84,85,-1,50,85,56,-1,56,85,86,-1,56,86,57,-1,57,86,87,-1,57,87,58,-1,58,87,88,-1,58,88,59,-1,59,88,89,-1,48,59,90,-1,90,59,89,-1,46,48,91,-1,91,48,90,-1,47,46,68,-1,68,46,91,-1,69,33,35,-1,84,83,82,-1,75,74,73,-1,68,91,35,-1,35,91,90,-1,87,86,35,-1,35,86,85,-1,73,72,71,-1,87,35,88,-1,88,35,90,-1,88,90,89,-1,85,84,35,-1,35,84,82,-1,35,82,69,-1,69,82,73,-1,69,73,70,-1,70,73,71,-1,70,71,11,-1,11,71,9,-1,79,78,82,-1,82,78,77,-1,82,77,73,-1,73,77,76,-1,73,76,75,-1,80,79,81,-1,81,79,82,-1,81,82,43,-1,43,82,42,-1,92,93,94,-1,94,93,95,-1,1,0,3,-1,3,0,2,-1,96,97,98,-1,98,97,99,-1,100,101,102,-1,103,99,97,-1,104,105,97,-1,97,105,106,-1,107,108,109,-1,110,111,97,-1,97,111,112,-1,110,97,113,-1,113,97,106,-1,113,106,114,-1,109,115,116,-1,117,118,102,-1,102,118,119,-1,102,119,109,-1,109,119,120,-1,109,120,107,-1,112,100,97,-1,97,100,102,-1,97,102,103,-1,103,102,109,-1,103,109,121,-1,121,109,116,-1,121,116,0,-1,0,116,2,-1,122,117,123,-1,123,117,102,-1,123,102,93,-1,93,102,95,-1,95,102,94,-1,94,102,124,-1,125,123,92,-1,92,123,93,-1,122,123,126,-1,126,123,125,-1,122,126,117,-1,117,126,127,-1,117,127,118,-1,118,127,128,-1,118,128,119,-1,119,128,129,-1,119,129,120,-1,120,129,130,-1,120,130,107,-1,107,130,131,-1,107,131,108,-1,108,131,132,-1,109,108,133,-1,133,108,132,-1,115,109,134,-1,134,109,133,-1,116,115,135,-1,135,115,134,-1,2,116,3,-1,3,116,135,-1,136,121,1,-1,1,121,0,-1,103,121,137,-1,137,121,136,-1,99,103,98,-1,98,103,137,-1,138,104,96,-1,96,104,97,-1,105,104,139,-1,139,104,138,-1,106,105,140,-1,140,105,139,-1,114,106,141,-1,141,106,140,-1,114,141,113,-1,113,141,142,-1,113,142,110,-1,110,142,143,-1,110,143,111,-1,111,143,144,-1,111,144,112,-1,112,144,145,-1,112,145,100,-1,100,145,146,-1,100,146,101,-1,101,146,147,-1,102,101,124,-1,124,101,147,-1,139,138,140,-1,140,138,96,-1,130,129,124,-1,92,94,125,-1,125,94,124,-1,133,137,136,-1,124,147,96,-1,96,147,146,-1,96,146,145,-1,145,144,96,-1,96,144,143,-1,96,143,140,-1,140,143,142,-1,140,142,141,-1,134,133,135,-1,135,133,136,-1,135,136,3,-1,3,136,1,-1,133,132,131,-1,131,130,133,-1,133,130,124,-1,133,124,137,-1,137,124,96,-1,137,96,98,-1,129,128,124,-1,124,128,127,-1,124,127,125,-1,125,127,126,-1,25,24,27,-1,27,24,26,-1,148,149,26,-1,26,149,27,-1,24,150,26,-1,26,150,148,-1,150,151,148,-1,148,151,149,-1,149,151,27,-1,27,151,25,-1,151,150,25,-1,25,150,24,-1,152,153,154,-1,154,153,155,-1,156,157,153,-1,153,157,155,-1,152,158,153,-1,153,158,156,-1,158,159,156,-1,156,159,157,-1,157,159,155,-1,155,159,154,-1,159,158,154,-1,154,158,152,-1,160,161,162,-1,162,161,163,-1,164,165,163,-1,163,165,162,-1,161,166,163,-1,163,166,164,-1,166,167,164,-1,164,167,165,-1,165,167,162,-1,162,167,160,-1,167,166,160,-1,160,166,161,-1,17,16,19,-1,19,16,18,-1,168,169,18,-1,18,169,19,-1,16,170,18,-1,18,170,168,-1,170,171,168,-1,168,171,169,-1,169,171,19,-1,19,171,17,-1,171,170,17,-1,17,170,16,-1,41,40,43,-1,43,40,42,-1,172,173,42,-1,42,173,43,-1,40,174,42,-1,42,174,172,-1,174,175,172,-1,172,175,173,-1,173,175,43,-1,43,175,41,-1,175,174,41,-1,41,174,40,-1,93,92,95,-1,95,92,94,-1,176,177,92,-1,92,177,94,-1,93,178,92,-1,92,178,176,-1,178,179,176,-1,176,179,177,-1,177,179,94,-1,94,179,95,-1,179,178,95,-1,95,178,93,-1,
        ]
    }
}