#VRML V2.0 utf8
# 3D model generated by easyeda2kicad.py (https://github.com/uPesy/easyeda2kicad.py)

Shape{
    appearance Appearance {
        material  Material 	{
            diffuseColor 0.6666666666666666 0.6666666666666666 0.6666666666666666
            specularColor 0.4666666666666667 0.4666666666666667 0.4666666666666667
            ambientIntensity 0.6667
            transparency 0.0
            shininess 0.5
        }
    }
    geometry IndexedFaceSet {
        ccw TRUE
        solid FALSE
        coord DEF co Coordinate {
            point [
                -0.311 -0.1374 0.0, -0.311 -0.0189 0.0, -0.1354 -0.0189 0.0, -0.2323 -0.2161 0.0, -0.1354 0.2169 0.0, -0.1277 -0.0098 0.0, -0.1277 -0.0184 0.0, -0.0855 -0.0184 0.0, -0.0701 -0.0143 0.0, -0.0701 -0.0057 0.0, -0.0855 0.0603 0.0, -0.096 0.0517 0.0, -0.096 0.0258 0.0, -0.1258 0.0517 0.0, -0.1239 0.0258 0.0, -0.0387 -0.0184 0.0, -0.0311 -0.0157 0.0, -0.0048 -0.0184 0.0, 0.0728 -0.0189 0.0, 0.0355 -0.0184 0.0, 0.0355 0.0603 0.0, -0.096 0.0171 0.0, -0.096 -0.0098 0.0, -0.1239 0.0171 0.0, -0.0438 -0.0189 0.0, -0.1258 0.0603 0.0, -0.0157 0.0396 0.0, -0.0203 0.047 0.0, 0.0249 0.0603 0.0, -0.0439 0.0518 0.0, -0.038 0.0497 0.0, -0.0687 -0.0065 0.0, -0.0326 0.046 0.0, -0.0278 0.0408 0.0, -0.0221 0.0201 0.0, -0.0229 0.0116 0.0, -0.025 0.0048 0.0, -0.0426 -0.0099 0.0, -0.0499 -0.0107 0.0, -0.0368 -0.0078 0.0, -0.032 -0.0045 0.0, -0.0283 -0.0006 0.0, -0.0604 -0.0096 0.0, -0.0246 0.0347 0.0, -0.0225 0.0262 0.0, -0.0275 0.0538 0.0, 0.0728 0.2169 0.0, -0.0248 -0.0117 0.0, -0.0189 -0.0055 0.0, -0.0048 -0.0098 0.0, -0.0147 0.002 0.0, 0.0249 -0.0098 0.0, -0.0123 0.0104 0.0, -0.0115 0.0195 0.0, -0.0127 0.0307 0.0, -0.0349 0.0581 0.0, -0.0437 0.0607 0.0, -0.0516 0.0613 0.0, -0.061 0.0606 0.0, -0.0701 0.0582 0.0, -0.0701 0.0476 0.0, -0.0612 0.0514 0.0, -0.0517 0.0526 0.0, -0.0538 -0.0189 0.0, -0.0506 -0.0193 0.0, -0.1354 -0.2161 0.0, -0.0617 -0.0178 0.0, 0.0728 -0.2161 0.0, -0.0485 -0.0194 0.0, -0.2638 0.0037 0.0, -0.2313 0.0037 0.0, -0.2718 -0.0184 0.0, -0.2238 -0.0184 0.0, -0.2122 -0.0184 0.0, -0.2025 0.0032 0.0, -0.198 -0.0039 0.0, -0.2833 -0.0184 0.0, -0.2526 0.0603 0.0, -0.311 0.2169 0.0, -0.242 0.0603 0.0, -0.1915 -0.0101 0.0, -0.1833 -0.0149 0.0, -0.1742 -0.0176 0.0, -0.1645 -0.0184 0.0, -0.1431 -0.0184 0.0, -0.1431 0.0603 0.0, -0.1653 0.0603 0.0, -0.1946 0.05 0.0, -0.2001 0.0439 0.0, -0.2038 0.0371 0.0, -0.1767 0.0591 0.0, -0.1859 0.0559 0.0, -0.1945 0.0501 0.0, -0.2059 0.0293 0.0, -0.2065 0.022 0.0, -0.2054 0.0114 0.0
            ]
        }
        coordIndex [
            0,1,2,-1,0,2,3,-1,4,5,2,-1,2,5,6,-1,2,6,7,-1,8,7,9,-1,9,7,10,-1,11,12,13,-1,13,12,14,-1,15,16,17,-1,18,19,20,-1,21,22,23,-1,23,22,5,-1,19,18,17,-1,17,18,24,-1,17,24,15,-1,10,25,4,-1,4,25,13,-1,4,13,5,-1,5,13,14,-1,5,14,23,-1,26,27,28,-1,29,30,31,-1,31,30,32,-1,31,32,33,-1,34,35,31,-1,31,35,36,-1,37,38,39,-1,39,38,40,-1,36,41,31,-1,31,41,40,-1,31,40,42,-1,42,40,38,-1,33,43,31,-1,31,43,44,-1,31,44,34,-1,27,45,28,-1,28,45,4,-1,28,4,20,-1,20,4,46,-1,20,46,18,-1,16,47,17,-1,17,47,48,-1,17,48,49,-1,49,48,50,-1,49,50,51,-1,50,52,51,-1,51,52,53,-1,51,53,28,-1,28,53,54,-1,28,54,26,-1,45,55,4,-1,4,55,56,-1,4,56,57,-1,57,58,4,-1,4,58,59,-1,4,59,10,-1,10,59,60,-1,10,60,9,-1,9,60,61,-1,9,61,31,-1,31,61,62,-1,31,62,29,-1,63,64,65,-1,8,66,7,-1,7,66,63,-1,7,63,2,-1,2,63,65,-1,2,65,3,-1,18,67,24,-1,24,67,65,-1,24,65,68,-1,68,65,64,-1,69,70,71,-1,71,70,72,-1,73,74,75,-1,76,1,77,-1,77,1,78,-1,77,78,79,-1,79,78,4,-1,75,80,73,-1,73,80,81,-1,73,81,82,-1,83,84,2,-1,2,84,85,-1,2,85,4,-1,4,85,86,-1,87,88,79,-1,79,88,89,-1,86,90,4,-1,4,90,91,-1,4,91,79,-1,79,91,92,-1,79,92,87,-1,82,83,73,-1,73,83,2,-1,73,2,72,-1,72,2,1,-1,72,1,71,-1,71,1,76,-1,89,93,79,-1,79,93,94,-1,79,94,73,-1,73,94,95,-1,73,95,74,-1,
        ]
    }
}
Shape{
    appearance Appearance {
        material  Material 	{
            diffuseColor 0.20784313725490197 0.20784313725490197 0.20784313725490197
            specularColor 0.01568627450980392 0.01568627450980392 0.01568627450980392
            ambientIntensity 0.298
            transparency 0.0
            shininess 0.5
        }
    }
    geometry IndexedFaceSet {
        ccw TRUE
        solid FALSE
        coord DEF co Coordinate {
            point [
                0.3071 0.3154 0.0079, 0.3071 0.3937 0.0079, 0.3858 0.3937 0.0079, -0.4016 0.3937 0.0079, -0.311 0.2169 0.0079, -0.4016 -0.3937 0.0079, -0.311 -0.1374 0.0079, -0.3228 -0.3154 0.0079, -0.3228 -0.3937 0.0079, 0.1895 -0.311 0.0079, 0.189 -0.3154 0.0079, 0.0728 -0.2161 0.0079, -0.3228 0.3937 0.0079, -0.3228 0.3154 0.0079, -0.3154 -0.3 0.0079, -0.3117 -0.2976 0.0079, -0.2323 -0.2161 0.0079, -0.3185 -0.3031 0.0079, -0.3209 -0.3068 0.0079, -0.3223 -0.311 0.0079, -0.2052 -0.311 0.0079, -0.2067 -0.3068 0.0079, 0.3268 0.128 0.0079, 0.3268 -0.128 0.0079, 0.3858 -0.3937 0.0079, 0.0315 0.2957 0.0079, 0.0359 0.2962 0.0079, 0.0728 0.2169 0.0079, -0.209 -0.3031 0.0079, -0.2121 -0.3 0.0079, -0.2159 -0.2976 0.0079, -0.22 -0.2962 0.0079, -0.2244 -0.2957 0.0079, 0.3071 -0.3937 0.0079, 0.3071 -0.3154 0.0079, 0.3066 -0.311 0.0079, 0.3051 -0.3068 0.0079, 0.3028 -0.3031 0.0079, 0.2997 -0.3 0.0079, 0.2959 -0.2976 0.0079, 0.2001 -0.2976 0.0079, 0.1964 -0.3 0.0079, -0.3223 0.311 0.0079, -0.3209 0.3068 0.0079, -0.3185 0.3031 0.0079, -0.3154 0.3 0.0079, 0.0438 -0.3 0.0079, 0.04 -0.2976 0.0079, 0.0359 -0.2962 0.0079, 0.0315 -0.2957 0.0079, -0.065 -0.3068 0.0079, -0.0626 -0.3031 0.0079, -0.0595 -0.3 0.0079, -0.3031 -0.2957 0.0079, -0.3075 -0.2962 0.0079, 0.1933 -0.3031 0.0079, 0.1909 -0.3068 0.0079, 0.0512 0.3154 0.0079, 0.0512 0.3937 0.0079, 0.189 0.3937 0.0079, 0.2997 0.3 0.0079, 0.2959 0.2976 0.0079, 0.2918 0.2962 0.0079, -0.3117 0.2976 0.0079, -0.3075 0.2962 0.0079, -0.3031 0.2957 0.0079, 0.189 -0.3937 0.0079, 0.0512 -0.3937 0.0079, 0.0512 -0.3154 0.0079, -0.0472 -0.2957 0.0079, -0.0516 -0.2962 0.0079, -0.0558 -0.2976 0.0079, 0.2043 -0.2962 0.0079, 0.2087 -0.128 0.0079, 0.2087 0.128 0.0079, 0.04 0.2976 0.0079, 0.0438 0.3 0.0079, 0.1895 0.311 0.0079, 0.0469 0.3031 0.0079, 0.0492 0.3068 0.0079, 0.0507 0.311 0.0079, 0.189 0.3154 0.0079, -0.2244 0.2957 0.0079, -0.22 0.2962 0.0079, -0.2159 0.2976 0.0079, -0.2121 0.3 0.0079, -0.0595 0.3 0.0079, -0.209 0.3031 0.0079, 0.0507 -0.311 0.0079, 0.0492 -0.3068 0.0079, 0.0469 -0.3031 0.0079, -0.0669 -0.3154 0.0079, -0.0669 -0.3937 0.0079, -0.2047 -0.3937 0.0079, 0.2918 -0.2962 0.0079, 0.2874 -0.2957 0.0079, 0.2087 -0.2957 0.0079, 0.1909 0.3068 0.0079, 0.1933 0.3031 0.0079, 0.1964 0.3 0.0079, 0.2001 0.2976 0.0079, 0.3028 0.3031 0.0079, 0.3051 0.3068 0.0079, 0.3066 0.311 0.0079, -0.0558 0.2976 0.0079, -0.0516 0.2962 0.0079, -0.0472 0.2957 0.0079, -0.0664 -0.311 0.0079, -0.2047 -0.3154 0.0079, -0.2067 0.3068 0.0079, -0.2052 0.311 0.0079, -0.0626 0.3031 0.0079, -0.065 0.3068 0.0079, 0.2043 0.2962 0.0079, 0.2087 0.2957 0.0079, 0.2874 0.2957 0.0079, -0.2047 0.3937 0.0079, -0.0669 0.3937 0.0079, -0.2047 0.3154 0.0079, -0.0669 0.3154 0.0079, -0.0664 0.311 0.0079, 0.189 0.3937 0.0799, 0.0512 0.3937 0.0799, -0.0669 0.3937 0.0799, -0.4016 0.3937 0.2736, 0.3071 0.3937 0.0799, 0.3858 0.3937 0.2736, -0.3228 0.3937 0.0799, -0.2047 0.3937 0.0799, 0.3858 -0.3937 0.2736, -0.4016 -0.3937 0.2736, -0.2047 -0.3937 0.0799, -0.0669 -0.3937 0.0799, 0.0512 -0.3937 0.0799, -0.3228 -0.3937 0.0799, 0.3071 -0.3937 0.0799, 0.189 -0.3937 0.0799, -0.3214 -0.3364 0.2736, -0.3221 -0.3418 0.2736, -0.3242 -0.3467 0.2736, -0.342 -0.3571 0.2736, -0.3474 -0.3563 0.2736, -0.3523 -0.3543 0.2736, -0.3274 -0.351 0.2736, -0.3317 -0.3543 0.2736, -0.3367 -0.3563 0.2736, -0.3566 -0.351 0.2736, -0.3599 -0.3467 0.2736, -0.3619 -0.3418 0.2736, -0.3474 -0.3165 0.2736, -0.3523 -0.3186 0.2736, -0.3566 -0.3218 0.2736, -0.3627 -0.3364 0.2736, -0.3619 -0.3311 0.2736, -0.3599 -0.3261 0.2736, -0.342 -0.3158 0.2736, -0.3367 -0.3165 0.2736, -0.3317 -0.3186 0.2736, -0.3274 -0.3218 0.2736, -0.3242 -0.3261 0.2736, -0.3221 -0.3311 0.2736
            ]
        }
        coordIndex [
            0,1,2,-1,3,4,5,-1,5,4,6,-1,7,8,5,-1,9,10,11,-1,3,12,13,-1,14,6,15,-1,15,6,16,-1,14,17,6,-1,6,17,18,-1,6,18,5,-1,5,18,19,-1,5,19,7,-1,11,20,21,-1,22,2,23,-1,23,2,24,-1,25,26,27,-1,21,28,11,-1,11,28,29,-1,11,29,16,-1,29,30,16,-1,16,30,31,-1,16,31,32,-1,33,34,24,-1,24,34,35,-1,24,35,23,-1,23,35,36,-1,36,37,23,-1,23,37,38,-1,23,38,39,-1,40,41,11,-1,13,42,3,-1,3,42,43,-1,3,43,4,-1,4,43,44,-1,4,44,45,-1,46,47,11,-1,11,47,48,-1,11,48,49,-1,50,20,51,-1,51,20,52,-1,32,53,16,-1,16,53,54,-1,16,54,15,-1,41,55,11,-1,11,55,56,-1,11,56,9,-1,57,58,59,-1,60,22,61,-1,61,22,62,-1,45,63,4,-1,4,63,64,-1,4,64,65,-1,66,67,10,-1,10,67,68,-1,49,69,11,-1,11,69,70,-1,11,70,20,-1,20,70,71,-1,20,71,52,-1,72,40,73,-1,73,40,11,-1,73,11,74,-1,74,11,27,-1,74,27,75,-1,75,27,26,-1,75,76,77,-1,77,76,78,-1,77,78,79,-1,79,80,77,-1,77,80,57,-1,77,57,81,-1,81,57,59,-1,65,82,4,-1,4,82,83,-1,4,83,27,-1,27,83,84,-1,27,84,85,-1,86,85,87,-1,68,88,10,-1,10,88,89,-1,10,89,11,-1,11,89,90,-1,11,90,46,-1,91,92,93,-1,39,94,23,-1,23,94,95,-1,23,95,73,-1,73,95,96,-1,73,96,72,-1,77,97,75,-1,75,97,98,-1,75,98,74,-1,74,98,99,-1,74,99,100,-1,60,101,22,-1,22,101,102,-1,22,102,2,-1,2,102,103,-1,2,103,0,-1,86,104,85,-1,85,104,105,-1,85,105,27,-1,27,105,106,-1,27,106,25,-1,50,107,20,-1,20,107,91,-1,20,91,108,-1,108,91,93,-1,87,109,86,-1,86,109,110,-1,86,110,111,-1,111,110,112,-1,100,113,74,-1,74,113,114,-1,74,114,22,-1,22,114,115,-1,22,115,62,-1,116,117,118,-1,118,117,119,-1,118,119,110,-1,110,119,120,-1,110,120,112,-1,121,59,58,-1,122,123,124,-1,58,122,121,-1,121,122,124,-1,121,124,125,-1,125,124,126,-1,125,126,1,-1,1,126,2,-1,12,3,127,-1,127,3,124,-1,127,124,128,-1,128,124,123,-1,128,123,116,-1,116,123,117,-1,126,129,2,-1,2,129,24,-1,130,124,5,-1,5,124,3,-1,131,93,92,-1,132,133,129,-1,92,132,131,-1,131,132,129,-1,131,129,134,-1,134,129,130,-1,134,130,8,-1,8,130,5,-1,33,24,135,-1,135,24,129,-1,135,129,136,-1,136,129,133,-1,136,133,66,-1,66,133,67,-1,137,138,129,-1,129,138,139,-1,140,141,130,-1,130,141,142,-1,139,143,129,-1,129,143,144,-1,129,144,130,-1,130,144,145,-1,130,145,140,-1,142,146,130,-1,130,146,147,-1,130,147,148,-1,149,124,150,-1,150,124,151,-1,148,152,130,-1,130,152,153,-1,130,153,124,-1,124,153,154,-1,124,154,151,-1,149,155,124,-1,124,155,156,-1,124,156,126,-1,126,156,157,-1,157,158,126,-1,126,158,159,-1,126,159,129,-1,129,159,160,-1,129,160,137,-1,
        ]
    }
}
Shape{
    appearance Appearance {
        material  Material 	{
            diffuseColor 0.34901960784313724 0.34901960784313724 0.34901960784313724
            specularColor 0.023529411764705882 0.023529411764705882 0.023529411764705882
            ambientIntensity 0.498
            transparency 0.0
            shininess 0.5
        }
    }
    geometry IndexedFaceSet {
        ccw TRUE
        solid FALSE
        coord DEF co Coordinate {
            point [
                -0.3214 -0.3364 0.2657, -0.3214 -0.3364 0.2736, -0.3221 -0.3311 0.2657, -0.3221 -0.3311 0.2736, -0.3242 -0.3261 0.2657, -0.3242 -0.3261 0.2736, -0.3274 -0.3218 0.2657, -0.3274 -0.3218 0.2736, -0.3317 -0.3186 0.2657, -0.3317 -0.3186 0.2736, -0.3367 -0.3165 0.2657, -0.3367 -0.3165 0.2736, -0.342 -0.3158 0.2657, -0.342 -0.3158 0.2736, -0.3474 -0.3165 0.2657, -0.3474 -0.3165 0.2736, -0.3523 -0.3186 0.2657, -0.3523 -0.3186 0.2736, -0.3566 -0.3218 0.2657, -0.3566 -0.3218 0.2736, -0.3599 -0.3261 0.2657, -0.3599 -0.3261 0.2736, -0.3619 -0.3311 0.2657, -0.3619 -0.3311 0.2736, -0.3627 -0.3364 0.2657, -0.3627 -0.3364 0.2736, -0.3619 -0.3418 0.2657, -0.3619 -0.3418 0.2736, -0.3599 -0.3467 0.2657, -0.3599 -0.3467 0.2736, -0.3566 -0.351 0.2657, -0.3566 -0.351 0.2736, -0.3523 -0.3543 0.2657, -0.3523 -0.3543 0.2736, -0.3474 -0.3563 0.2657, -0.3474 -0.3563 0.2736, -0.342 -0.3571 0.2657, -0.342 -0.3571 0.2736, -0.3367 -0.3563 0.2657, -0.3367 -0.3563 0.2736, -0.3317 -0.3543 0.2657, -0.3317 -0.3543 0.2736, -0.3274 -0.351 0.2657, -0.3274 -0.351 0.2736, -0.3242 -0.3467 0.2657, -0.3242 -0.3467 0.2736, -0.3221 -0.3418 0.2657, -0.3221 -0.3418 0.2736, -0.342 -0.3364 0.2657
            ]
        }
        coordIndex [
            0,1,2,-1,2,1,3,-1,2,3,4,-1,4,3,5,-1,4,5,6,-1,6,5,7,-1,6,7,8,-1,8,7,9,-1,8,9,10,-1,10,9,11,-1,10,11,12,-1,12,11,13,-1,12,13,14,-1,14,13,15,-1,14,15,16,-1,16,15,17,-1,16,17,18,-1,18,17,19,-1,18,19,20,-1,20,19,21,-1,20,21,22,-1,22,21,23,-1,22,23,24,-1,24,23,25,-1,24,25,26,-1,26,25,27,-1,26,27,28,-1,28,27,29,-1,28,29,30,-1,30,29,31,-1,30,31,32,-1,32,31,33,-1,32,33,34,-1,34,33,35,-1,34,35,36,-1,36,35,37,-1,36,37,38,-1,38,37,39,-1,38,39,40,-1,40,39,41,-1,40,41,42,-1,42,41,43,-1,42,43,44,-1,44,43,45,-1,44,45,46,-1,46,45,47,-1,46,47,0,-1,0,47,1,-1,44,46,48,-1,48,46,0,-1,48,0,2,-1,38,40,48,-1,48,40,42,-1,48,42,44,-1,32,34,48,-1,48,34,36,-1,48,36,38,-1,26,28,48,-1,48,28,30,-1,48,30,32,-1,20,22,48,-1,48,22,24,-1,48,24,26,-1,14,16,48,-1,48,16,18,-1,48,18,20,-1,8,10,48,-1,48,10,12,-1,48,12,14,-1,2,4,48,-1,48,4,6,-1,48,6,8,-1,
        ]
    }
}
Shape{
    appearance Appearance {
        material  Material 	{
            diffuseColor 0.6666666666666666 0.6666666666666666 0.6666666666666666
            specularColor 0.4666666666666667 0.4666666666666667 0.4666666666666667
            ambientIntensity 0.6667
            transparency 0.0
            shininess 0.5
        }
    }
    geometry IndexedFaceSet {
        ccw TRUE
        solid FALSE
        coord DEF co Coordinate {
            point [
                0.189 -0.3937 0.0799, 0.189 -0.3941 0.0799, 0.3071 -0.3937 0.0799, 0.3071 -0.3941 0.0799, 0.189 -0.3937 0.0079, 0.189 -0.3154 0.0079, 0.189 -0.3154 0.0, 0.189 -0.3941 0.0, 0.3071 -0.3937 0.0079, 0.3071 -0.3941 0.0, 0.3071 -0.3154 0.0079, 0.3071 -0.3154 0.0, 0.3066 -0.311 0.0, 0.3066 -0.311 0.0079, 0.3051 -0.3068 0.0, 0.3051 -0.3068 0.0079, 0.3028 -0.3031 0.0, 0.3028 -0.3031 0.0079, 0.2997 -0.3 0.0, 0.2997 -0.3 0.0079, 0.2959 -0.2976 0.0, 0.2959 -0.2976 0.0079, 0.2918 -0.2962 0.0, 0.2918 -0.2962 0.0079, 0.2874 -0.2957 0.0, 0.2874 -0.2957 0.0079, 0.2087 -0.2957 0.0079, 0.2087 -0.2957 0.0, 0.2043 -0.2962 0.0, 0.2043 -0.2962 0.0079, 0.2001 -0.2976 0.0, 0.2001 -0.2976 0.0079, 0.1964 -0.3 0.0, 0.1964 -0.3 0.0079, 0.1933 -0.3031 0.0, 0.1933 -0.3031 0.0079, 0.1909 -0.3068 0.0, 0.1909 -0.3068 0.0079, 0.1895 -0.311 0.0, 0.1895 -0.311 0.0079, -0.0669 -0.3937 0.0799, -0.0669 -0.3941 0.0799, 0.0512 -0.3937 0.0799, 0.0512 -0.3941 0.0799, -0.0669 -0.3937 0.0079, -0.0669 -0.3154 0.0079, -0.0669 -0.3154 0.0, -0.0669 -0.3941 0.0, 0.0512 -0.3937 0.0079, 0.0512 -0.3941 0.0, 0.0512 -0.3154 0.0079, 0.0512 -0.3154 0.0, 0.0507 -0.311 0.0, 0.0507 -0.311 0.0079, 0.0492 -0.3068 0.0, 0.0492 -0.3068 0.0079, 0.0469 -0.3031 0.0, 0.0469 -0.3031 0.0079, 0.0438 -0.3 0.0, 0.0438 -0.3 0.0079, 0.04 -0.2976 0.0, 0.04 -0.2976 0.0079, 0.0359 -0.2962 0.0, 0.0359 -0.2962 0.0079, 0.0315 -0.2957 0.0, 0.0315 -0.2957 0.0079, -0.0472 -0.2957 0.0079, -0.0472 -0.2957 0.0, -0.0516 -0.2962 0.0, -0.0516 -0.2962 0.0079, -0.0558 -0.2976 0.0, -0.0558 -0.2976 0.0079, -0.0595 -0.3 0.0, -0.0595 -0.3 0.0079, -0.0626 -0.3031 0.0, -0.0626 -0.3031 0.0079, -0.065 -0.3068 0.0, -0.065 -0.3068 0.0079, -0.0664 -0.311 0.0, -0.0664 -0.311 0.0079, -0.3228 -0.3937 0.0799, -0.3228 -0.3941 0.0799, -0.2047 -0.3937 0.0799, -0.2047 -0.3941 0.0799, -0.3228 -0.3937 0.0079, -0.3228 -0.3154 0.0079, -0.3228 -0.3154 0.0, -0.3228 -0.3941 0.0, -0.2047 -0.3937 0.0079, -0.2047 -0.3941 0.0, -0.2047 -0.3154 0.0079, -0.2047 -0.3154 0.0, -0.2052 -0.311 0.0, -0.2052 -0.311 0.0079, -0.2067 -0.3068 0.0, -0.2067 -0.3068 0.0079, -0.209 -0.3031 0.0, -0.209 -0.3031 0.0079, -0.2121 -0.3 0.0, -0.2121 -0.3 0.0079, -0.2159 -0.2976 0.0, -0.2159 -0.2976 0.0079, -0.22 -0.2962 0.0, -0.22 -0.2962 0.0079, -0.2244 -0.2957 0.0, -0.2244 -0.2957 0.0079, -0.3031 -0.2957 0.0079, -0.3031 -0.2957 0.0, -0.3075 -0.2962 0.0, -0.3075 -0.2962 0.0079, -0.3117 -0.2976 0.0, -0.3117 -0.2976 0.0079, -0.3154 -0.3 0.0, -0.3154 -0.3 0.0079, -0.3185 -0.3031 0.0, -0.3185 -0.3031 0.0079, -0.3209 -0.3068 0.0, -0.3209 -0.3068 0.0079, -0.3223 -0.311 0.0, -0.3223 -0.311 0.0079, 0.3071 0.3937 0.0799, 0.3071 0.3941 0.0799, 0.189 0.3937 0.0799, 0.189 0.3941 0.0799, 0.189 0.3937 0.0079, 0.189 0.3941 0.0, 0.189 0.3154 0.0079, 0.189 0.3154 0.0, 0.3071 0.3937 0.0079, 0.3071 0.3154 0.0079, 0.3071 0.3154 0.0, 0.3071 0.3941 0.0, 0.1895 0.311 0.0, 0.1895 0.311 0.0079, 0.1909 0.3068 0.0, 0.1909 0.3068 0.0079, 0.1933 0.3031 0.0, 0.1933 0.3031 0.0079, 0.1964 0.3 0.0, 0.1964 0.3 0.0079, 0.2001 0.2976 0.0, 0.2001 0.2976 0.0079, 0.2043 0.2962 0.0, 0.2043 0.2962 0.0079, 0.2087 0.2957 0.0, 0.2087 0.2957 0.0079, 0.2874 0.2957 0.0, 0.2874 0.2957 0.0079, 0.2918 0.2962 0.0, 0.2918 0.2962 0.0079, 0.2959 0.2976 0.0, 0.2959 0.2976 0.0079, 0.2997 0.3 0.0, 0.2997 0.3 0.0079, 0.3028 0.3031 0.0, 0.3028 0.3031 0.0079, 0.3051 0.3068 0.0, 0.3051 0.3068 0.0079, 0.3066 0.311 0.0, 0.3066 0.311 0.0079, 0.0512 0.3937 0.0799, 0.0512 0.3941 0.0799, -0.0669 0.3937 0.0799, -0.0669 0.3941 0.0799, -0.0669 0.3937 0.0079, -0.0669 0.3941 0.0, -0.0669 0.3154 0.0079, -0.0669 0.3154 0.0, 0.0512 0.3937 0.0079, 0.0512 0.3154 0.0079, 0.0512 0.3154 0.0, 0.0512 0.3941 0.0, -0.0664 0.311 0.0, -0.0664 0.311 0.0079, -0.065 0.3068 0.0, -0.065 0.3068 0.0079, -0.0626 0.3031 0.0, -0.0626 0.3031 0.0079, -0.0595 0.3 0.0, -0.0595 0.3 0.0079, -0.0558 0.2976 0.0, -0.0558 0.2976 0.0079, -0.0516 0.2962 0.0, -0.0516 0.2962 0.0079, -0.0472 0.2957 0.0, -0.0472 0.2957 0.0079, 0.0315 0.2957 0.0, 0.0315 0.2957 0.0079, 0.0359 0.2962 0.0, 0.0359 0.2962 0.0079, 0.04 0.2976 0.0, 0.04 0.2976 0.0079, 0.0438 0.3 0.0, 0.0438 0.3 0.0079, 0.0469 0.3031 0.0, 0.0469 0.3031 0.0079, 0.0492 0.3068 0.0, 0.0492 0.3068 0.0079, 0.0507 0.311 0.0, 0.0507 0.311 0.0079, -0.2047 0.3937 0.0799, -0.2047 0.3941 0.0799, -0.3228 0.3937 0.0799, -0.3228 0.3941 0.0799, -0.3228 0.3937 0.0079, -0.3228 0.3941 0.0, -0.3228 0.3154 0.0079, -0.3228 0.3154 0.0, -0.2047 0.3937 0.0079, -0.2047 0.3154 0.0079, -0.2047 0.3154 0.0, -0.2047 0.3941 0.0, -0.3223 0.311 0.0, -0.3223 0.311 0.0079, -0.3209 0.3068 0.0, -0.3209 0.3068 0.0079, -0.3185 0.3031 0.0, -0.3185 0.3031 0.0079, -0.3154 0.3 0.0, -0.3154 0.3 0.0079, -0.3117 0.2976 0.0, -0.3117 0.2976 0.0079, -0.3075 0.2962 0.0, -0.3075 0.2962 0.0079, -0.3031 0.2957 0.0, -0.3031 0.2957 0.0079, -0.2244 0.2957 0.0, -0.2244 0.2957 0.0079, -0.22 0.2962 0.0, -0.22 0.2962 0.0079, -0.2159 0.2976 0.0, -0.2159 0.2976 0.0079, -0.2121 0.3 0.0, -0.2121 0.3 0.0079, -0.209 0.3031 0.0, -0.209 0.3031 0.0079, -0.2067 0.3068 0.0, -0.2067 0.3068 0.0079, -0.2052 0.311 0.0, -0.2052 0.311 0.0079, 0.2087 0.128 0.0, 0.2087 -0.128 0.0, 0.2087 0.128 0.0079, 0.2087 -0.128 0.0079, 0.3268 0.128 0.0, 0.3268 0.128 0.0079, 0.3268 -0.128 0.0, 0.3268 -0.128 0.0079, -0.311 -0.1374 0.0, -0.311 -0.1374 0.0079, -0.311 -0.0189 0.0, -0.311 0.2169 0.0079, -0.311 0.2169 0.0, -0.1354 0.2169 0.0, 0.0728 0.2169 0.0079, 0.0728 0.2169 0.0, 0.0728 -0.0189 0.0, 0.0728 -0.2161 0.0079, 0.0728 -0.2161 0.0, -0.1354 -0.2161 0.0, -0.2323 -0.2161 0.0079, -0.2323 -0.2161 0.0
            ]
        }
        coordIndex [
            0,1,2,-1,2,1,3,-1,1,0,4,-1,5,6,4,-1,4,6,7,-1,4,7,1,-1,2,3,8,-1,8,3,9,-1,8,9,10,-1,10,9,11,-1,9,3,7,-1,7,3,1,-1,10,11,12,-1,10,12,13,-1,13,12,14,-1,13,14,15,-1,15,14,16,-1,15,16,17,-1,17,16,18,-1,17,18,19,-1,19,18,20,-1,19,20,21,-1,21,20,22,-1,21,22,23,-1,23,22,24,-1,23,24,25,-1,25,24,26,-1,26,24,27,-1,26,27,28,-1,26,28,29,-1,29,28,30,-1,29,30,31,-1,31,30,32,-1,31,32,33,-1,33,32,34,-1,33,34,35,-1,35,34,36,-1,35,36,37,-1,37,36,38,-1,37,38,39,-1,39,38,6,-1,39,6,5,-1,6,38,27,-1,27,38,36,-1,27,36,34,-1,34,32,27,-1,27,32,30,-1,27,30,28,-1,22,11,24,-1,24,11,9,-1,24,9,27,-1,27,9,7,-1,27,7,6,-1,18,16,14,-1,22,20,11,-1,11,20,18,-1,11,18,12,-1,12,18,14,-1,40,41,42,-1,42,41,43,-1,41,40,44,-1,45,46,44,-1,44,46,47,-1,44,47,41,-1,42,43,48,-1,48,43,49,-1,48,49,50,-1,50,49,51,-1,49,43,47,-1,47,43,41,-1,50,51,52,-1,50,52,53,-1,53,52,54,-1,53,54,55,-1,55,54,56,-1,55,56,57,-1,57,56,58,-1,57,58,59,-1,59,58,60,-1,59,60,61,-1,61,60,62,-1,61,62,63,-1,63,62,64,-1,63,64,65,-1,65,64,66,-1,66,64,67,-1,66,67,68,-1,66,68,69,-1,69,68,70,-1,69,70,71,-1,71,70,72,-1,71,72,73,-1,73,72,74,-1,73,74,75,-1,75,74,76,-1,75,76,77,-1,77,76,78,-1,77,78,79,-1,79,78,46,-1,79,46,45,-1,67,47,46,-1,60,58,51,-1,78,70,46,-1,46,70,68,-1,46,68,67,-1,78,76,70,-1,70,76,74,-1,70,74,72,-1,47,67,49,-1,49,67,64,-1,49,64,51,-1,51,64,62,-1,51,62,60,-1,58,56,51,-1,51,56,54,-1,51,54,52,-1,80,81,82,-1,82,81,83,-1,81,80,84,-1,85,86,84,-1,84,86,87,-1,84,87,81,-1,82,83,88,-1,88,83,89,-1,88,89,90,-1,90,89,91,-1,89,83,87,-1,87,83,81,-1,90,91,92,-1,90,92,93,-1,93,92,94,-1,93,94,95,-1,95,94,96,-1,95,96,97,-1,97,96,98,-1,97,98,99,-1,99,98,100,-1,99,100,101,-1,101,100,102,-1,101,102,103,-1,103,102,104,-1,103,104,105,-1,105,104,106,-1,106,104,107,-1,106,107,108,-1,106,108,109,-1,109,108,110,-1,109,110,111,-1,111,110,112,-1,111,112,113,-1,113,112,114,-1,113,114,115,-1,115,114,116,-1,115,116,117,-1,117,116,118,-1,117,118,119,-1,119,118,86,-1,119,86,85,-1,86,118,107,-1,107,118,116,-1,107,116,114,-1,114,112,107,-1,107,112,110,-1,107,110,108,-1,102,91,104,-1,104,91,89,-1,104,89,107,-1,107,89,87,-1,107,87,86,-1,98,96,94,-1,102,100,91,-1,91,100,98,-1,91,98,92,-1,92,98,94,-1,120,121,122,-1,122,121,123,-1,122,123,124,-1,124,123,125,-1,124,125,126,-1,126,125,127,-1,121,120,128,-1,129,130,128,-1,128,130,131,-1,128,131,121,-1,126,127,132,-1,126,132,133,-1,133,132,134,-1,133,134,135,-1,135,134,136,-1,135,136,137,-1,137,136,138,-1,137,138,139,-1,139,138,140,-1,139,140,141,-1,141,140,142,-1,141,142,143,-1,143,142,144,-1,143,144,145,-1,144,146,145,-1,145,146,147,-1,147,146,148,-1,147,148,149,-1,149,148,150,-1,149,150,151,-1,151,150,152,-1,151,152,153,-1,153,152,154,-1,153,154,155,-1,155,154,156,-1,155,156,157,-1,157,156,158,-1,157,158,159,-1,159,158,130,-1,159,130,129,-1,125,123,131,-1,131,123,121,-1,125,131,127,-1,127,131,130,-1,158,156,154,-1,158,154,130,-1,130,154,152,-1,130,152,150,-1,144,136,134,-1,144,142,136,-1,136,142,140,-1,136,140,138,-1,150,148,130,-1,130,148,146,-1,130,146,127,-1,127,146,144,-1,127,144,132,-1,132,144,134,-1,160,161,162,-1,162,161,163,-1,162,163,164,-1,164,163,165,-1,164,165,166,-1,166,165,167,-1,161,160,168,-1,169,170,168,-1,168,170,171,-1,168,171,161,-1,166,167,172,-1,166,172,173,-1,173,172,174,-1,173,174,175,-1,175,174,176,-1,175,176,177,-1,177,176,178,-1,177,178,179,-1,179,178,180,-1,179,180,181,-1,181,180,182,-1,181,182,183,-1,183,182,184,-1,183,184,185,-1,184,186,185,-1,185,186,187,-1,187,186,188,-1,187,188,189,-1,189,188,190,-1,189,190,191,-1,191,190,192,-1,191,192,193,-1,193,192,194,-1,193,194,195,-1,195,194,196,-1,195,196,197,-1,197,196,198,-1,197,198,199,-1,199,198,170,-1,199,170,169,-1,165,163,171,-1,171,163,161,-1,188,186,170,-1,184,165,186,-1,186,165,171,-1,186,171,170,-1,174,172,184,-1,184,172,167,-1,184,167,165,-1,194,170,196,-1,196,170,198,-1,194,192,170,-1,170,192,190,-1,170,190,188,-1,180,178,176,-1,174,184,176,-1,176,184,182,-1,176,182,180,-1,200,201,202,-1,202,201,203,-1,202,203,204,-1,204,203,205,-1,204,205,206,-1,206,205,207,-1,201,200,208,-1,209,210,208,-1,208,210,211,-1,208,211,201,-1,206,207,212,-1,206,212,213,-1,213,212,214,-1,213,214,215,-1,215,214,216,-1,215,216,217,-1,217,216,218,-1,217,218,219,-1,219,218,220,-1,219,220,221,-1,221,220,222,-1,221,222,223,-1,223,222,224,-1,223,224,225,-1,224,226,225,-1,225,226,227,-1,227,226,228,-1,227,228,229,-1,229,228,230,-1,229,230,231,-1,231,230,232,-1,231,232,233,-1,233,232,234,-1,233,234,235,-1,235,234,236,-1,235,236,237,-1,237,236,238,-1,237,238,239,-1,239,238,210,-1,239,210,209,-1,205,203,211,-1,211,203,201,-1,205,211,207,-1,207,211,210,-1,238,236,234,-1,238,234,210,-1,210,234,232,-1,210,232,230,-1,224,216,214,-1,224,222,216,-1,216,222,220,-1,216,220,218,-1,230,228,210,-1,210,228,226,-1,210,226,207,-1,207,226,224,-1,207,224,212,-1,212,224,214,-1,240,241,242,-1,242,241,243,-1,244,240,245,-1,245,240,242,-1,246,244,247,-1,247,244,245,-1,241,246,243,-1,243,246,247,-1,244,246,240,-1,240,246,241,-1,248,249,250,-1,250,249,251,-1,250,251,252,-1,252,251,253,-1,253,251,254,-1,253,254,255,-1,255,254,256,-1,256,254,257,-1,256,257,258,-1,258,257,259,-1,259,257,260,-1,259,260,261,-1,248,261,249,-1,249,261,260,-1,
        ]
    }
}
Shape{
    appearance Appearance {
        material  Material 	{
            diffuseColor 1.0 1.0 1.0
            specularColor 0.8784313725490196 0.8784313725490196 0.8784313725490196
            ambientIntensity 1.0
            transparency 0.0
            shininess 0.5
        }
    }
    geometry IndexedFaceSet {
        ccw TRUE
        solid FALSE
        coord DEF co Coordinate {
            point [
                -0.2526 0.0603 0.0039, -0.2833 -0.0184 0.0039, -0.2526 0.0603 0.0, -0.2833 -0.0184 0.0, -0.2718 -0.0184 0.0039, -0.2718 -0.0184 0.0, -0.2638 0.0037 0.0039, -0.2638 0.0037 0.0, -0.2313 0.0037 0.0039, -0.2313 0.0037 0.0, -0.2238 -0.0184 0.0039, -0.2238 -0.0184 0.0, -0.2122 -0.0184 0.0039, -0.2122 -0.0184 0.0, -0.242 0.0603 0.0039, -0.242 0.0603 0.0, -0.2339 0.0123 0.0039, -0.2603 0.0123 0.0039, -0.2457 0.0452 0.0039, -0.2464 0.0479 0.0039, -0.2469 0.0507 0.0039, -0.2472 0.0507 0.0039, -0.2477 0.0479 0.0039, -0.2484 0.0452 0.0039, -0.2339 0.0123 0.0, -0.2603 0.0123 0.0, -0.2457 0.0452 0.0, -0.2464 0.0479 0.0, -0.2469 0.0507 0.0, -0.2472 0.0507 0.0, -0.2477 0.0479 0.0, -0.2484 0.0452 0.0, -0.1645 -0.0184 0.0039, -0.1431 -0.0184 0.0039, -0.1645 -0.0184 0.0, -0.1431 -0.0184 0.0, -0.1431 0.0603 0.0039, -0.1431 0.0603 0.0, -0.1653 0.0603 0.0039, -0.1653 0.0603 0.0, -0.2065 0.022 0.0039, -0.2065 0.022 0.0, -0.2059 0.0293 0.0, -0.2059 0.0293 0.0039, -0.2038 0.0371 0.0, -0.2038 0.0371 0.0039, -0.2001 0.0439 0.0, -0.2001 0.0439 0.0039, -0.1946 0.05 0.0, -0.1946 0.05 0.0039, -0.1945 0.0501 0.0, -0.1945 0.0501 0.0039, -0.1859 0.0559 0.0, -0.1859 0.0559 0.0039, -0.1767 0.0591 0.0, -0.1767 0.0591 0.0039, -0.1742 -0.0176 0.0, -0.1742 -0.0176 0.0039, -0.1833 -0.0149 0.0, -0.1833 -0.0149 0.0039, -0.1915 -0.0101 0.0, -0.1915 -0.0101 0.0039, -0.198 -0.0039 0.0, -0.198 -0.0039 0.0039, -0.2025 0.0032 0.0, -0.2025 0.0032 0.0039, -0.2054 0.0114 0.0, -0.2054 0.0114 0.0039, -0.1907 0.0406 0.0039, -0.1868 0.0447 0.0039, -0.1811 0.0484 0.0039, -0.1746 0.0507 0.0039, -0.1653 0.0517 0.0039, -0.1537 0.0517 0.0039, -0.1537 -0.0098 0.0039, -0.1648 -0.0098 0.0039, -0.1731 -0.009 0.0039, -0.1798 -0.0069 0.0039, -0.1851 -0.0037 0.0039, -0.1896 0.0006 0.0039, -0.1929 0.0061 0.0039, -0.1952 0.0135 0.0039, -0.1959 0.0217 0.0039, -0.1952 0.0296 0.0039, -0.1934 0.0358 0.0039, -0.1653 0.0517 0.0, -0.1537 0.0517 0.0, -0.1746 0.0507 0.0, -0.1811 0.0484 0.0, -0.1868 0.0447 0.0, -0.1907 0.0406 0.0, -0.1934 0.0358 0.0, -0.1952 0.0296 0.0, -0.1959 0.0217 0.0, -0.1952 0.0135 0.0, -0.1929 0.0061 0.0, -0.1896 0.0006 0.0, -0.1851 -0.0037 0.0, -0.1798 -0.0069 0.0, -0.1731 -0.009 0.0, -0.1648 -0.0098 0.0, -0.1537 -0.0098 0.0, -0.1277 -0.0098 0.0039, -0.1277 -0.0184 0.0039, -0.1277 -0.0098 0.0, -0.1277 -0.0184 0.0, -0.0855 -0.0184 0.0039, -0.0855 -0.0184 0.0, -0.0855 0.0603 0.0039, -0.0855 0.0603 0.0, -0.1258 0.0603 0.0039, -0.1258 0.0603 0.0, -0.1258 0.0517 0.0039, -0.1258 0.0517 0.0, -0.096 0.0517 0.0039, -0.096 0.0517 0.0, -0.096 0.0258 0.0039, -0.096 0.0258 0.0, -0.1239 0.0258 0.0039, -0.1239 0.0258 0.0, -0.1239 0.0171 0.0039, -0.1239 0.0171 0.0, -0.096 0.0171 0.0039, -0.096 0.0171 0.0, -0.096 -0.0098 0.0039, -0.096 -0.0098 0.0, -0.0701 -0.0057 0.0039, -0.0701 -0.0143 0.0039, -0.0701 -0.0057 0.0, -0.0701 -0.0143 0.0, -0.0617 -0.0178 0.0039, -0.0485 -0.0194 0.0039, -0.0485 -0.0194 0.0, -0.0506 -0.0193 0.0, -0.0506 -0.0193 0.0039, -0.0538 -0.0189 0.0, -0.0617 -0.0178 0.0, -0.0115 0.0195 0.0039, -0.0115 0.0195 0.0, -0.0123 0.0104 0.0, -0.0123 0.0104 0.0039, -0.0147 0.002 0.0, -0.0147 0.002 0.0039, -0.0189 -0.0055 0.0, -0.0189 -0.0055 0.0039, -0.0248 -0.0117 0.0, -0.0248 -0.0117 0.0039, -0.0311 -0.0157 0.0, -0.0311 -0.0157 0.0039, -0.0387 -0.0184 0.0, -0.0387 -0.0184 0.0039, -0.0438 -0.0189 0.0, -0.0516 0.0613 0.0039, -0.0516 0.0613 0.0, -0.0437 0.0607 0.0, -0.0437 0.0607 0.0039, -0.0349 0.0581 0.0, -0.0349 0.0581 0.0039, -0.0275 0.0538 0.0, -0.0275 0.0538 0.0039, -0.0203 0.047 0.0, -0.0203 0.047 0.0039, -0.0157 0.0396 0.0, -0.0157 0.0396 0.0039, -0.0127 0.0307 0.0, -0.0127 0.0307 0.0039, -0.0701 0.0582 0.0039, -0.0701 0.0582 0.0, -0.061 0.0606 0.0, -0.061 0.0606 0.0039, -0.0701 0.0476 0.0039, -0.0701 0.0476 0.0, -0.0517 0.0526 0.0039, -0.0517 0.0526 0.0, -0.0612 0.0514 0.0, -0.0612 0.0514 0.0039, -0.0221 0.0201 0.0039, -0.0221 0.0201 0.0, -0.0225 0.0262 0.0, -0.0225 0.0262 0.0039, -0.0246 0.0347 0.0, -0.0246 0.0347 0.0039, -0.0278 0.0408 0.0, -0.0278 0.0408 0.0039, -0.0326 0.046 0.0, -0.0326 0.046 0.0039, -0.038 0.0497 0.0, -0.038 0.0497 0.0039, -0.0439 0.0518 0.0, -0.0439 0.0518 0.0039, -0.0499 -0.0107 0.0039, -0.0499 -0.0107 0.0, -0.0426 -0.0099 0.0, -0.0426 -0.0099 0.0039, -0.0368 -0.0078 0.0, -0.0368 -0.0078 0.0039, -0.032 -0.0045 0.0, -0.032 -0.0045 0.0039, -0.0283 -0.0006 0.0, -0.0283 -0.0006 0.0039, -0.025 0.0048 0.0, -0.025 0.0048 0.0039, -0.0229 0.0116 0.0, -0.0229 0.0116 0.0039, -0.0687 -0.0065 0.0, -0.0687 -0.0065 0.0039, -0.0604 -0.0096 0.0, -0.0604 -0.0096 0.0039, -0.0048 -0.0098 0.0039, -0.0048 -0.0184 0.0039, -0.0048 -0.0098 0.0, -0.0048 -0.0184 0.0, 0.0355 -0.0184 0.0039, 0.0355 -0.0184 0.0, 0.0355 0.0603 0.0039, 0.0355 0.0603 0.0, 0.0249 0.0603 0.0039, 0.0249 0.0603 0.0, 0.0249 -0.0098 0.0039, 0.0249 -0.0098 0.0
            ]
        }
        coordIndex [
            0,1,2,-1,2,1,3,-1,1,4,3,-1,3,4,5,-1,4,6,5,-1,5,6,7,-1,6,8,7,-1,7,8,9,-1,8,10,9,-1,9,10,11,-1,10,12,11,-1,11,12,13,-1,12,14,13,-1,13,14,15,-1,14,0,15,-1,15,0,2,-1,16,8,17,-1,17,8,6,-1,18,14,16,-1,16,14,12,-1,16,12,8,-1,8,12,10,-1,18,19,14,-1,14,19,20,-1,14,20,0,-1,0,20,21,-1,0,21,22,-1,22,23,0,-1,0,23,17,-1,0,17,1,-1,1,17,6,-1,1,6,4,-1,16,17,24,-1,24,17,25,-1,18,16,26,-1,26,16,24,-1,18,26,27,-1,18,27,19,-1,19,27,28,-1,19,28,20,-1,21,20,29,-1,29,20,28,-1,21,29,30,-1,21,30,22,-1,22,30,31,-1,22,31,23,-1,17,23,25,-1,25,23,31,-1,32,33,34,-1,34,33,35,-1,33,36,35,-1,35,36,37,-1,36,38,37,-1,37,38,39,-1,40,41,42,-1,40,42,43,-1,43,42,44,-1,43,44,45,-1,45,44,46,-1,45,46,47,-1,47,46,48,-1,47,48,49,-1,49,48,50,-1,49,50,51,-1,51,50,52,-1,51,52,53,-1,53,52,54,-1,53,54,55,-1,55,54,39,-1,55,39,38,-1,32,34,56,-1,32,56,57,-1,57,56,58,-1,57,58,59,-1,59,58,60,-1,59,60,61,-1,61,60,62,-1,61,62,63,-1,63,62,64,-1,63,64,65,-1,65,64,66,-1,65,66,67,-1,67,66,41,-1,67,41,40,-1,45,47,68,-1,68,47,49,-1,68,49,69,-1,69,49,51,-1,69,51,70,-1,70,51,53,-1,70,53,71,-1,71,53,55,-1,71,55,72,-1,72,55,38,-1,72,38,73,-1,73,38,36,-1,73,36,74,-1,74,36,33,-1,74,33,75,-1,75,33,32,-1,75,32,76,-1,76,32,57,-1,76,57,77,-1,77,57,59,-1,77,59,78,-1,78,59,61,-1,78,61,79,-1,79,61,63,-1,79,63,80,-1,80,63,65,-1,80,65,81,-1,81,65,67,-1,81,67,82,-1,82,67,40,-1,82,40,83,-1,83,40,43,-1,83,43,84,-1,84,43,45,-1,84,45,68,-1,72,73,85,-1,85,73,86,-1,72,85,87,-1,72,87,71,-1,71,87,88,-1,71,88,70,-1,70,88,89,-1,70,89,69,-1,69,89,90,-1,69,90,68,-1,68,90,91,-1,68,91,84,-1,84,91,92,-1,84,92,83,-1,83,92,93,-1,83,93,82,-1,82,93,94,-1,82,94,81,-1,81,94,95,-1,81,95,80,-1,80,95,96,-1,80,96,79,-1,79,96,97,-1,79,97,78,-1,78,97,98,-1,78,98,77,-1,77,98,99,-1,77,99,76,-1,76,99,100,-1,76,100,75,-1,74,75,101,-1,101,75,100,-1,73,74,86,-1,86,74,101,-1,102,103,104,-1,104,103,105,-1,103,106,105,-1,105,106,107,-1,106,108,107,-1,107,108,109,-1,108,110,109,-1,109,110,111,-1,110,112,111,-1,111,112,113,-1,112,114,113,-1,113,114,115,-1,114,116,115,-1,115,116,117,-1,116,118,117,-1,117,118,119,-1,118,120,119,-1,119,120,121,-1,120,122,121,-1,121,122,123,-1,122,124,123,-1,123,124,125,-1,124,102,125,-1,125,102,104,-1,106,103,102,-1,102,124,106,-1,106,124,122,-1,106,122,108,-1,112,110,114,-1,114,110,108,-1,114,108,116,-1,116,108,122,-1,116,122,118,-1,118,122,120,-1,126,127,128,-1,128,127,129,-1,129,127,130,-1,131,132,133,-1,131,133,134,-1,134,133,135,-1,134,135,130,-1,130,135,136,-1,130,136,129,-1,137,138,139,-1,137,139,140,-1,140,139,141,-1,140,141,142,-1,142,141,143,-1,142,143,144,-1,144,143,145,-1,144,145,146,-1,146,145,147,-1,146,147,148,-1,148,147,149,-1,148,149,150,-1,150,149,131,-1,131,149,151,-1,131,151,132,-1,152,153,154,-1,152,154,155,-1,155,154,156,-1,155,156,157,-1,157,156,158,-1,157,158,159,-1,159,158,160,-1,159,160,161,-1,161,160,162,-1,161,162,163,-1,163,162,164,-1,163,164,165,-1,165,164,138,-1,165,138,137,-1,166,167,168,-1,166,168,169,-1,169,168,153,-1,169,153,152,-1,166,170,167,-1,167,170,171,-1,172,173,174,-1,172,174,175,-1,175,174,171,-1,175,171,170,-1,176,177,178,-1,176,178,179,-1,179,178,180,-1,179,180,181,-1,181,180,182,-1,181,182,183,-1,183,182,184,-1,183,184,185,-1,185,184,186,-1,185,186,187,-1,187,186,188,-1,187,188,189,-1,189,188,173,-1,189,173,172,-1,190,191,192,-1,190,192,193,-1,193,192,194,-1,193,194,195,-1,195,194,196,-1,195,196,197,-1,197,196,198,-1,197,198,199,-1,199,198,200,-1,199,200,201,-1,201,200,202,-1,201,202,203,-1,203,202,177,-1,203,177,176,-1,126,128,204,-1,126,204,205,-1,205,204,206,-1,205,206,207,-1,207,206,191,-1,207,191,190,-1,193,131,190,-1,190,131,134,-1,190,134,207,-1,207,134,130,-1,207,130,205,-1,205,130,127,-1,205,127,126,-1,170,166,175,-1,175,166,169,-1,175,169,172,-1,172,169,152,-1,172,152,189,-1,189,152,155,-1,189,155,187,-1,187,155,157,-1,187,157,185,-1,185,157,159,-1,185,159,183,-1,183,159,161,-1,183,161,181,-1,181,161,163,-1,181,163,179,-1,179,163,165,-1,179,165,176,-1,176,165,137,-1,176,137,203,-1,203,137,140,-1,203,140,201,-1,201,140,142,-1,201,142,199,-1,199,142,144,-1,199,144,197,-1,197,144,146,-1,197,146,195,-1,195,146,148,-1,195,148,193,-1,193,148,150,-1,193,150,131,-1,208,209,210,-1,210,209,211,-1,209,212,211,-1,211,212,213,-1,212,214,213,-1,213,214,215,-1,214,216,215,-1,215,216,217,-1,216,218,217,-1,217,218,219,-1,218,208,219,-1,219,208,210,-1,216,214,218,-1,218,214,212,-1,218,212,208,-1,208,212,209,-1,
        ]
    }
}
Shape{
    appearance Appearance {
        material  Material 	{
            diffuseColor 0.6666666666666666 0.6666666666666666 0.6666666666666666
            specularColor 0.4666666666666667 0.4666666666666667 0.4666666666666667
            ambientIntensity 0.6667
            transparency 0.0
            shininess 0.5
        }
    }
    geometry IndexedFaceSet {
        ccw TRUE
        solid FALSE
        coord DEF co Coordinate {
            point [
                -0.2339 0.0123 0.0, -0.2603 0.0123 0.0, -0.2457 0.0452 0.0, -0.2484 0.0452 0.0, -0.2464 0.0479 0.0, -0.2477 0.0479 0.0, -0.2469 0.0507 0.0, -0.2472 0.0507 0.0, -0.1537 0.0517 0.0, -0.1537 -0.0098 0.0, -0.1653 0.0517 0.0, -0.1648 -0.0098 0.0, -0.1731 -0.009 0.0, -0.1959 0.0217 0.0, -0.1952 0.0296 0.0, -0.1934 0.0358 0.0, -0.1746 0.0507 0.0, -0.1798 -0.0069 0.0, -0.1851 -0.0037 0.0, -0.1896 0.0006 0.0, -0.1929 0.0061 0.0, -0.1952 0.0135 0.0, -0.1907 0.0406 0.0, -0.1868 0.0447 0.0, -0.1811 0.0484 0.0
            ]
        }
        coordIndex [
            0,1,2,-1,2,1,3,-1,2,3,4,-1,4,3,5,-1,4,5,6,-1,6,5,7,-1,8,9,10,-1,10,9,11,-1,10,11,12,-1,13,14,10,-1,10,14,15,-1,10,15,16,-1,12,17,10,-1,10,17,18,-1,10,18,19,-1,19,20,10,-1,10,20,21,-1,10,21,13,-1,22,23,15,-1,15,23,24,-1,15,24,16,-1,
        ]
    }
}