#VRML V2.0 utf8
# 3D model generated by easyeda2kicad.py (https://github.com/uPesy/easyeda2kicad.py)

Shape{
    appearance Appearance {
        material  Material 	{
            diffuseColor 0.25098039215686274 0.25098039215686274 0.25098039215686274
            specularColor 0.12549019607843137 0.12549019607843137 0.12549019607843137
            ambientIntensity 0.251
            transparency 0.0
            shininess 0.5
        }
    }
    geometry IndexedFaceSet {
        ccw TRUE
        solid FALSE
        coord DEF co Coordinate {
            point [
                0.3937 0.2794 0.0416, 0.3937 0.0355 0.0416, 0.3937 0.2794 0.0213, 0.3937 0.0355 0.0213, 0.3937 0.5906 0.0079, 0.3937 -0.2794 0.0213, 0.3937 -0.0355 0.0213, 0.3937 -0.2794 0.0416, 0.3937 -0.0355 0.0416, 0.3937 -0.5906 0.1575, 0.3937 0.5906 0.1575, 0.3937 0.3505 0.0416, 0.3937 0.3505 0.0213, 0.3937 -0.5906 0.0079, 0.3937 -0.3505 0.0213, 0.3937 -0.3505 0.0416, -0.1458 -0.5906 0.1575, -0.1605 -0.5906 0.1575, -0.2461 -0.5906 0.0579, -0.1668 -0.5906 0.1575, -0.2461 -0.5906 0.0079, -0.1476 -0.5906 0.0079, -0.1476 -0.5906 0.0579, -0.0492 -0.5906 0.0079, 0.0492 -0.5906 0.0079, -0.0492 -0.5906 0.0579, 0.0492 -0.5906 0.0579, 0.1476 -0.5906 0.0579, -0.179 -0.5906 0.1575, -0.2015 -0.5906 0.1575, -0.2031 -0.5906 0.1575, -0.1271 -0.5906 0.1575, -0.1355 -0.5906 0.1575, 0.3445 -0.5906 0.0079, 0.3445 -0.5906 0.0579, 0.2461 -0.5906 0.0579, 0.2461 -0.5906 0.0079, 0.1476 -0.5906 0.0079, -0.3937 -0.5906 0.0079, -0.3445 -0.5906 0.0079, -0.3937 -0.5906 0.1575, -0.3445 -0.5906 0.0579, -0.3449 -0.5906 0.1575, -0.2227 -0.5906 0.1575, -0.3937 0.5906 0.0079, -0.3445 0.5906 0.0079, -0.3445 0.4173 0.0079, -0.2461 0.4173 0.0079, -0.2461 0.5906 0.0079, -0.1476 0.5906 0.0079, 0.315 0.0394 0.0079, -0.1476 0.4173 0.0079, -0.0492 0.4173 0.0079, -0.0492 0.5906 0.0079, 0.0492 0.5906 0.0079, 0.0492 0.4173 0.0079, 0.1476 0.4173 0.0079, -0.3445 -0.4173 0.0079, 0.3445 0.5906 0.0079, 0.3445 0.4173 0.0079, 0.3445 -0.4173 0.0079, 0.1476 0.5906 0.0079, 0.2461 0.5906 0.0079, 0.2461 0.4173 0.0079, 0.315 -0.0394 0.0079, -0.2559 -0.0394 0.0079, 0.2461 -0.4173 0.0079, 0.0492 -0.4173 0.0079, -0.0492 -0.4173 0.0079, 0.1476 -0.4173 0.0079, -0.315 0.0197 0.0079, -0.1476 -0.4173 0.0079, -0.315 0.0394 0.0079, -0.2461 -0.4173 0.0079, -0.2145 0.5425 0.1575, -0.2145 0.5189 0.1575, -0.2038 0.5189 0.1575, -0.1476 0.4925 0.1575, -0.1552 0.4732 0.1575, -0.1458 0.4732 0.1575, -0.1723 0.4734 0.1575, -0.1734 0.4732 0.1575, -0.1668 0.4732 0.1575, -0.1929 0.5425 0.1575, -0.1909 0.5427 0.1575, -0.2015 0.5427 0.1575, -0.2179 0.4735 0.1575, -0.2179 0.4966 0.1575, -0.2227 0.4966 0.1575, -0.2398 0.4999 0.1575, -0.2402 0.4966 0.1575, -0.3486 0.501 0.1575, -0.3473 0.4966 0.1575, -0.3449 0.4966 0.1575, -0.3322 0.4941 0.1575, -0.3288 0.4966 0.1575, -0.3087 0.4956 0.1575, -0.3054 0.4925 0.1575, -0.2977 0.4966 0.1575, -0.3594 0.5127 0.1575, -0.3581 0.5156 0.1575, -0.3937 0.5156 0.1575, -0.2773 0.5455 0.1575, -0.2732 0.5427 0.1575, -0.2227 0.5427 0.1575, -0.2688 0.5398 0.1575, -0.268 0.5391 0.1575, -0.262 0.5317 0.1575, -0.2585 0.5248 0.1575, -0.2576 0.5245 0.1575, -0.2868 0.5488 0.1575, -0.2227 0.5906 0.1575, -0.2946 0.5497 0.1575, -0.3449 0.5906 0.1575, -0.3027 0.5488 0.1575, -0.3504 0.5266 0.1575, -0.3449 0.5304 0.1575, -0.3449 0.5427 0.1575, -0.3443 0.5308 0.1575, -0.3218 0.5384 0.1575, -0.3174 0.5423 0.1575, -0.3166 0.5427 0.1575, -0.3115 0.5457 0.1575, -0.3373 0.5334 0.1575, -0.3301 0.5343 0.1575, -0.3279 0.5342 0.1575, -0.3257 0.5339 0.1575, -0.3937 0.5427 0.1575, -0.3564 0.5195 0.1575, -0.3519 0.5252 0.1575, -0.3937 0.4966 0.1575, -0.36 0.4966 0.1575, -0.3608 0.5035 0.1575, -0.3608 0.5056 0.1575, -0.3449 0.4768 0.1575, -0.3472 0.478 0.1575, -0.3937 0.4732 0.1575, -0.3529 0.4829 0.1575, -0.3573 0.4893 0.1575, -0.36 0.4964 0.1575, -0.3377 0.4738 0.1575, -0.3404 0.4746 0.1575, -0.3449 0.4732 0.1575, -0.3292 0.4634 0.1575, -0.333 0.4662 0.1575, -0.3449 0.4627 0.1575, -0.3358 0.4697 0.1575, -0.3374 0.4732 0.1575, -0.2276 -0.4946 0.1575, -0.2293 -0.5077 0.1575, -0.2424 -0.4588 0.1575, -0.2227 0.4627 0.1575, -0.2529 -0.4507 0.1575, -0.2651 -0.4457 0.1575, -0.2344 -0.4693 0.1575, -0.2293 -0.4815 0.1575, -0.3221 -0.4693 0.1575, -0.314 -0.4588 0.1575, -0.3036 -0.4507 0.1575, -0.2913 -0.4457 0.1575, -0.2344 -0.5199 0.1575, -0.2424 -0.5304 0.1575, -0.2529 -0.5385 0.1575, -0.2913 -0.5435 0.1575, -0.2782 -0.5453 0.1575, -0.2651 -0.5435 0.1575, -0.3036 -0.5385 0.1575, -0.314 -0.5304 0.1575, -0.3221 -0.5199 0.1575, -0.3272 -0.5077 0.1575, -0.3289 -0.4946 0.1575, -0.3272 -0.4815 0.1575, -0.2782 -0.4439 0.1575, -0.3118 0.4627 0.1575, -0.3151 0.4614 0.1575, -0.3196 0.4609 0.1575, -0.3204 0.4609 0.1575, -0.3249 0.4616 0.1575, -0.3275 0.4627 0.1575, -0.3019 0.4732 0.1575, -0.3019 0.4732 0.1575, -0.3041 0.469 0.1575, -0.307 0.4657 0.1575, -0.3108 0.463 0.1575, -0.2776 0.4844 0.1575, -0.2763 0.485 0.1575, -0.2741 0.4958 0.1575, -0.2788 0.4836 0.1575, -0.2749 0.4851 0.1575, -0.2747 0.4851 0.1575, -0.2741 0.485 0.1575, -0.2406 0.4932 0.1575, -0.243 0.4872 0.1575, -0.2227 0.4732 0.1575, -0.2468 0.4819 0.1575, -0.2519 0.4775 0.1575, -0.2807 0.4793 0.1575, -0.2807 0.48 0.1575, -0.3007 0.4817 0.1575, -0.2803 0.4815 0.1575, -0.2796 0.4827 0.1575, -0.2554 0.4897 0.1575, -0.2533 0.4927 0.1575, -0.2763 0.4735 0.1575, -0.2776 0.474 0.1575, -0.2788 0.4749 0.1575, -0.2792 0.4754 0.1575, -0.2801 0.4766 0.1575, -0.2806 0.4778 0.1575, -0.3008 0.4779 0.1575, -0.3007 0.4798 0.1575, -0.2577 0.4747 0.1575, -0.264 0.4734 0.1575, -0.2752 0.4734 0.1575, -0.2737 0.485 0.1575, -0.2652 0.485 0.1575, -0.2618 0.4856 0.1575, -0.2584 0.4871 0.1575, -0.2556 0.4894 0.1575, -0.3173 0.4989 0.1575, -0.3128 0.4977 0.1575, -0.2681 0.5156 0.1575, -0.3284 0.4968 0.1575, -0.3242 0.4984 0.1575, -0.3447 0.5156 0.1575, -0.3196 0.499 0.1575, -0.252 0.4961 0.1575, -0.2519 0.4966 0.1575, -0.2746 0.4966 0.1575, -0.2515 0.4998 0.1575, -0.2516 0.5014 0.1575, -0.2565 0.5108 0.1575, -0.2594 0.5128 0.1575, -0.2525 0.505 0.1575, -0.2543 0.5083 0.1575, -0.2678 0.5146 0.1575, -0.28 0.5058 0.1575, -0.2663 0.5146 0.1575, -0.2627 0.5141 0.1575, -0.3106 0.4966 0.1575, -0.3416 0.489 0.1575, -0.3375 0.4865 0.1575, -0.3354 0.4906 0.1575, -0.3449 0.4923 0.1575, -0.3473 0.4964 0.1575, -0.345 0.4925 0.1575, -0.3449 0.5154 0.1575, -0.3467 0.5127 0.1575, -0.3483 0.5085 0.1575, -0.3489 0.5039 0.1575, -0.2719 0.5259 0.1575, -0.2762 0.5311 0.1575, -0.3198 0.5201 0.1575, -0.2767 0.5315 0.1575, -0.282 0.5352 0.1575, -0.3169 0.5261 0.1575, -0.3212 0.5208 0.1575, -0.269 0.5198 0.1575, -0.3255 0.5224 0.1575, -0.3299 0.5229 0.1575, -0.3319 0.5228 0.1575, -0.3127 0.5311 0.1575, -0.288 0.5375 0.1575, -0.3076 0.5349 0.1575, -0.2944 0.5383 0.1575, -0.3014 0.5374 0.1575, -0.3365 0.5217 0.1575, -0.3408 0.5195 0.1575, -0.3441 0.5165 0.1575, -0.2406 0.5061 0.1575, -0.252 0.5217 0.1575, -0.2468 0.5173 0.1575, -0.2227 0.5156 0.1575, -0.2456 0.5156 0.1575, -0.2429 0.5119 0.1575, -0.0839 0.4808 0.1575, -0.095 0.4808 0.1575, -0.0976 0.4735 0.1575, -0.1043 0.4934 0.1575, -0.1033 0.4908 0.1575, -0.0926 0.4966 0.1575, -0.1059 0.4957 0.1575, -0.0812 0.4735 0.1575, -0.1271 0.4732 0.1575, -0.0774 0.4735 0.1575, 0.3937 0.4732 0.1575, -0.0862 0.4966 0.1575, 0.3937 0.4966 0.1575, -0.0875 0.5002 0.1575, -0.1049 0.4796 0.1575, -0.1069 0.4772 0.1575, -0.1014 0.4735 0.1575, -0.1097 0.4752 0.1575, -0.1127 0.474 0.1575, -0.1172 0.4735 0.1575, -0.1029 0.4872 0.1575, -0.1029 0.4855 0.1575, -0.1036 0.4823 0.1575, -0.1246 0.4735 0.1575, -0.1246 0.4966 0.1575, -0.1271 0.4966 0.1575, -0.1246 0.5002 0.1575, -0.1271 0.5156 0.1575, -0.117 0.5002 0.1575, -0.1129 0.4997 0.1575, 0.3937 0.5156 0.1575, -0.0912 0.5002 0.1575, -0.1097 0.4985 0.1575, -0.1069 0.4966 0.1575, -0.1068 0.4966 0.1575, -0.2145 0.4966 0.1575, -0.2145 0.4885 0.1575, -0.2031 0.4966 0.1575, -0.2049 0.4885 0.1575, -0.2049 0.4855 0.1575, -0.2145 0.4855 0.1575, -0.2145 0.4765 0.1575, -0.2035 0.4765 0.1575, -0.2031 0.4732 0.1575, -0.2035 0.4735 0.1575, -0.2179 0.5002 0.1575, -0.2145 0.4971 0.1575, -0.2042 0.4971 0.1575, -0.2042 0.5002 0.1575, -0.2031 0.5156 0.1575, -0.1173 0.5231 0.1575, -0.1271 0.5231 0.1575, -0.1146 0.5158 0.1575, -0.1108 0.5158 0.1575, -0.121 0.5425 0.1575, 0.3937 0.5427 0.1575, -0.1271 0.5427 0.1575, -0.1284 0.5231 0.1575, -0.131 0.5158 0.1575, -0.1355 0.5156 0.1575, -0.1348 0.5158 0.1575, -0.1355 0.5427 0.1575, -0.1271 0.536 0.1575, -0.1246 0.5425 0.1575, -0.1668 0.5278 0.1575, -0.174 0.5278 0.1575, -0.1668 0.5189 0.1575, -0.174 0.5189 0.1575, -0.1605 0.5427 0.1575, -0.1668 0.5427 0.1575, -0.1637 0.5425 0.1575, -0.1668 0.5425 0.1575, -0.1644 0.5278 0.1575, -0.1631 0.5189 0.1575, -0.1644 0.5309 0.1575, -0.1637 0.5394 0.1575, -0.1668 0.5309 0.1575, -0.1668 0.5394 0.1575, -0.174 0.5394 0.1575, -0.174 0.5309 0.1575, -0.1774 0.5158 0.1575, -0.179 0.5156 0.1575, -0.1668 0.5156 0.1575, -0.1605 0.5156 0.1575, -0.1631 0.5158 0.1575, -0.1668 0.5158 0.1575, -0.1774 0.5425 0.1575, -0.179 0.5427 0.1575, -0.1862 0.5427 0.1575, -0.1856 0.5427 0.1575, -0.1827 0.5419 0.1575, -0.1827 0.5383 0.1575, -0.1827 0.5202 0.1575, -0.1827 0.5169 0.1575, -0.1832 0.5167 0.1575, -0.1861 0.5157 0.1575, -0.1878 0.5156 0.1575, -0.1858 0.5394 0.1575, -0.189 0.5398 0.1575, -0.183 0.5384 0.1575, -0.1904 0.5398 0.1575, -0.1927 0.5392 0.1575, -0.1948 0.5382 0.1575, -0.1963 0.5369 0.1575, -0.1965 0.5367 0.1575, -0.1978 0.5348 0.1575, -0.1987 0.5325 0.1575, -0.1991 0.5289 0.1575, -0.1991 0.5275 0.1575, -0.1986 0.5249 0.1575, -0.1884 0.5185 0.1575, -0.1854 0.519 0.1575, -0.1942 0.5195 0.1575, -0.1923 0.5187 0.1575, -0.1896 0.5184 0.1575, -0.1977 0.5228 0.1575, -0.1965 0.5212 0.1575, -0.196 0.5207 0.1575, -0.2008 0.5365 0.1575, -0.1989 0.539 0.1575, -0.1982 0.5396 0.1575, -0.1957 0.5414 0.1575, -0.2031 0.5427 0.1575, -0.2021 0.5335 0.1575, -0.2015 0.5348 0.1575, -0.2015 0.5226 0.1575, -0.2022 0.5243 0.1575, -0.2027 0.5286 0.1575, -0.2027 0.53 0.1575, -0.1946 0.516 0.1575, -0.1972 0.5172 0.1575, -0.2015 0.5156 0.1575, -0.1993 0.519 0.1575, -0.1995 0.5192 0.1575, -0.2011 0.5215 0.1575, -0.1925 0.5156 0.1575, -0.2015 0.4966 0.1575, -0.1918 0.5154 0.1575, -0.1901 0.5154 0.1575, -0.179 0.4966 0.1575, -0.137 0.5247 0.1575, -0.1383 0.5219 0.1575, -0.1458 0.5427 0.1575, -0.1458 0.5419 0.1575, -0.1431 0.5409 0.1575, -0.1458 0.5165 0.1575, -0.1458 0.5156 0.1575, -0.1431 0.5176 0.1575, -0.1403 0.5195 0.1575, -0.1403 0.539 0.1575, -0.1394 0.538 0.1575, -0.1377 0.5357 0.1575, -0.1367 0.5332 0.1575, -0.1363 0.5295 0.1575, -0.1364 0.5278 0.1575, -0.1504 0.5425 0.1575, -0.1463 0.542 0.1575, -0.1461 0.5164 0.1575, -0.1507 0.5158 0.1575, -0.158 0.5158 0.1575, -0.158 0.5425 0.1575, -0.1912 0.4737 0.1575, -0.1925 0.4732 0.1575, -0.1884 0.4735 0.1575, -0.1985 0.4879 0.1575, -0.1985 0.4912 0.1575, -0.1911 0.4901 0.1575, -0.1922 0.4903 0.1575, -0.194 0.4848 0.1575, -0.1902 0.4743 0.1575, -0.1963 0.4732 0.1575, -0.1976 0.4737 0.1575, -0.2015 0.4732 0.1575, -0.1991 0.4824 0.1575, -0.1981 0.4833 0.1575, -0.1968 0.4841 0.1575, -0.1962 0.4894 0.1575, -0.1941 0.4901 0.1575, -0.1987 0.4745 0.1575, -0.1991 0.4749 0.1575, -0.1998 0.4759 0.1575, -0.1884 0.4764 0.1575, -0.1885 0.4764 0.1575, -0.1891 0.4754 0.1575, -0.2002 0.477 0.1575, -0.2003 0.4786 0.1575, -0.2002 0.4801 0.1575, -0.1998 0.4813 0.1575, -0.1795 0.4844 0.1575, -0.18 0.4851 0.1575, -0.185 0.4857 0.1575, -0.1803 0.4861 0.1575, -0.1854 0.4885 0.1575, -0.1805 0.4874 0.1575, -0.1884 0.4856 0.1575, -0.1885 0.4871 0.1575, -0.1888 0.4883 0.1575, -0.1892 0.4889 0.1575, -0.1896 0.4927 0.1575, -0.1883 0.4923 0.1575, -0.1793 0.4906 0.1575, -0.1872 0.4916 0.1575, -0.179 0.4838 0.1575, -0.1805 0.4776 0.1575, -0.179 0.4838 0.1575, -0.1791 0.4767 0.1575, -0.179 0.4767 0.1575, -0.1978 0.4916 0.1575, -0.1953 0.4926 0.1575, -0.1919 0.493 0.1575, -0.1803 0.4886 0.1575, -0.1799 0.4897 0.1575, -0.1859 0.49 0.1575, -0.1866 0.491 0.1575, -0.1897 0.4895 0.1575, -0.1903 0.4899 0.1575, -0.1925 0.4732 0.1575, -0.179 0.4627 0.1575, -0.2015 0.4627 0.1575, -0.1943 0.473 0.1575, -0.1962 0.4732 0.1575, -0.1805 0.4741 0.1575, -0.185 0.4735 0.1575, -0.179 0.4736 0.1575, -0.179 0.4732 0.1575, -0.1781 0.4733 0.1575, -0.1775 0.4732 0.1575, -0.1753 0.473 0.1575, -0.1668 0.4966 0.1575, -0.1685 0.4921 0.1575, -0.1685 0.4889 0.1575, -0.1687 0.4818 0.1575, -0.1681 0.4809 0.1575, -0.1783 0.4915 0.1575, -0.1775 0.492 0.1575, -0.179 0.4909 0.1575, -0.1678 0.4799 0.1575, -0.1676 0.4787 0.1575, -0.1678 0.4773 0.1575, -0.1682 0.4763 0.1575, -0.1688 0.4754 0.1575, -0.1757 0.4926 0.1575, -0.1731 0.493 0.1575, -0.1707 0.4928 0.1575, -0.1698 0.4745 0.1575, -0.1706 0.4741 0.1575, -0.1734 0.4903 0.1575, -0.1744 0.4902 0.1575, -0.177 0.4877 0.1575, -0.1753 0.4899 0.1575, -0.176 0.4895 0.1575, -0.177 0.4872 0.1575, -0.1769 0.4867 0.1575, -0.1766 0.4863 0.1575, -0.1763 0.4859 0.1575, -0.1751 0.4852 0.1575, -0.1714 0.49 0.1575, -0.1731 0.4843 0.1575, -0.1695 0.4894 0.1575, -0.1718 0.4838 0.1575, -0.1695 0.4825 0.1575, -0.1765 0.4891 0.1575, -0.1768 0.4887 0.1575, -0.177 0.4882 0.1575, -0.1769 0.476 0.1575, -0.1754 0.4818 0.1575, -0.1774 0.4828 0.1575, -0.175 0.4757 0.1575, -0.1749 0.4757 0.1575, -0.1732 0.4809 0.1575, -0.1731 0.4759 0.1575, -0.1711 0.4783 0.1575, -0.1711 0.4787 0.1575, -0.1723 0.4763 0.1575, -0.172 0.4764 0.1575, -0.1716 0.4768 0.1575, -0.1713 0.4772 0.1575, -0.1711 0.4777 0.1575, -0.1712 0.4793 0.1575, -0.1715 0.4797 0.1575, -0.1719 0.4801 0.1575, -0.1572 0.4782 0.1575, -0.1568 0.4766 0.1575, -0.1567 0.4766 0.1575, -0.1458 0.4966 0.1575, -0.1605 0.4966 0.1575, -0.1511 0.4925 0.1575, -0.1605 0.4879 0.1575, -0.1563 0.4782 0.1575, -0.1565 0.4773 0.1575, -0.1605 0.4732 0.1575, -0.1605 0.4789 0.1575, -0.1659 0.4925 0.1575, -0.1621 0.4925 0.1575, -0.1584 0.4735 0.1575, -0.1585 0.4732 0.1575, -0.1599 0.47 0.1575, -0.1668 0.4627 0.1575, -0.1652 0.4648 0.1575, -0.1652 0.4677 0.1575, -0.1612 0.4681 0.1575, -0.1605 0.4688 0.1575, -0.1605 0.4688 0.1575, -0.1645 0.4675 0.1575, -0.1633 0.4674 0.1575, -0.1605 0.4651 0.1575, -0.1617 0.4646 0.1575, -0.1605 0.4627 0.1575, -0.163 0.4645 0.1575, -0.1638 0.4645 0.1575, -0.1624 0.4675 0.1575, -0.1617 0.4678 0.1575, -0.1562 0.4706 0.1575, -0.1578 0.4676 0.1575, -0.1458 0.4627 0.1575, -0.159 0.4662 0.1575, -0.1592 0.466 0.1575, -0.1604 0.4651 0.1575, -0.1405 0.4855 0.1575, -0.1405 0.4765 0.1575, -0.1355 0.4765 0.1575, -0.1296 0.4765 0.1575, -0.1296 0.4735 0.1575, -0.1355 0.4732 0.1575, -0.131 0.4855 0.1575, -0.1355 0.4855 0.1575, -0.1405 0.4966 0.1575, -0.1405 0.4885 0.1575, -0.1355 0.4885 0.1575, -0.1405 0.4971 0.1575, -0.1355 0.4966 0.1575, -0.131 0.4885 0.1575, -0.144 0.4735 0.1575, -0.144 0.4966 0.1575, -0.144 0.5002 0.1575, -0.1355 0.4735 0.1575, -0.179 0.5906 0.1575, -0.1668 0.5906 0.1575, -0.1605 0.5906 0.1575, -0.1458 0.5906 0.1575, -0.1355 0.5906 0.1575, -0.1271 0.5906 0.1575, -0.2031 0.5906 0.1575, -0.2015 0.5906 0.1575, -0.1891 0.5429 0.1575, -0.3937 0.5906 0.1575, -0.2179 0.5158 0.1575, -0.2179 0.5425 0.1575, -0.2038 0.5158 0.1575, -0.1355 0.5002 0.1575, -0.1302 0.5002 0.1575, -0.1302 0.4971 0.1575, -0.1355 0.4971 0.1575, -0.1355 0.4627 0.1575, -0.1271 0.4627 0.1575, 0.3937 0.4627 0.1575, -0.2031 0.4627 0.1575, -0.3937 0.4627 0.1575, -0.3445 0.5906 0.0579, 0.2461 0.5906 0.0579, 0.1476 0.5906 0.0579, 0.3445 0.5906 0.0579, 0.0492 0.5906 0.0579, -0.0492 0.5906 0.0579, -0.2461 0.5906 0.0579, -0.1476 0.5906 0.0579, -0.3937 0.2794 0.0213, -0.3937 0.3505 0.0213, -0.3937 0.0355 0.0213, -0.3937 0.0355 0.0416, -0.3937 0.2794 0.0416, -0.3937 0.3505 0.0416, -0.3937 -0.0355 0.0416, -0.3937 -0.0355 0.0213, -0.3937 -0.2794 0.0213, -0.3937 -0.2794 0.0416, -0.3937 -0.3505 0.0416, -0.3937 -0.3505 0.0213
            ]
        }
        coordIndex [
            0,1,2,-1,2,1,3,-1,2,3,4,-1,5,6,7,-1,7,6,8,-1,7,8,9,-1,8,1,9,-1,9,1,0,-1,9,0,10,-1,10,0,11,-1,10,11,4,-1,4,11,12,-1,4,12,2,-1,3,6,4,-1,4,6,5,-1,4,5,13,-1,13,5,14,-1,13,14,9,-1,9,14,15,-1,9,15,7,-1,16,17,18,-1,18,17,19,-1,20,21,18,-1,18,21,22,-1,18,22,16,-1,23,24,25,-1,25,24,26,-1,26,27,9,-1,19,28,18,-1,18,28,29,-1,18,29,30,-1,26,9,25,-1,25,9,31,-1,25,31,22,-1,22,31,32,-1,22,32,16,-1,33,13,34,-1,34,13,9,-1,34,9,35,-1,35,9,27,-1,35,27,36,-1,36,27,37,-1,38,39,40,-1,40,39,41,-1,40,41,42,-1,42,41,18,-1,42,18,43,-1,43,18,30,-1,44,45,46,-1,47,48,49,-1,50,51,52,-1,53,54,52,-1,52,54,55,-1,52,55,50,-1,50,55,56,-1,57,39,38,-1,58,4,59,-1,59,4,13,-1,59,13,60,-1,60,13,33,-1,61,62,56,-1,56,62,63,-1,56,63,50,-1,50,63,59,-1,50,59,64,-1,64,59,60,-1,64,60,65,-1,65,60,66,-1,24,23,67,-1,67,23,68,-1,36,37,66,-1,66,37,69,-1,66,69,65,-1,65,69,67,-1,65,67,70,-1,70,67,68,-1,70,68,71,-1,49,51,47,-1,47,51,50,-1,47,50,46,-1,46,50,72,-1,46,72,44,-1,44,72,70,-1,38,44,57,-1,57,44,70,-1,57,70,73,-1,73,70,71,-1,73,71,20,-1,20,71,21,-1,74,75,76,-1,77,78,79,-1,80,81,82,-1,83,84,85,-1,86,87,88,-1,89,90,88,-1,91,92,93,-1,94,95,93,-1,96,97,98,-1,99,100,101,-1,102,103,104,-1,104,103,105,-1,104,105,106,-1,106,107,104,-1,104,107,108,-1,104,108,109,-1,110,102,111,-1,110,111,112,-1,112,111,113,-1,112,113,114,-1,115,116,117,-1,117,116,118,-1,119,120,117,-1,117,120,121,-1,117,121,113,-1,113,121,122,-1,113,122,114,-1,118,123,117,-1,117,123,124,-1,117,124,119,-1,119,124,125,-1,119,125,126,-1,101,100,127,-1,127,100,128,-1,127,128,129,-1,130,131,132,-1,130,132,101,-1,101,132,133,-1,101,133,99,-1,134,135,136,-1,135,137,136,-1,136,137,138,-1,136,138,130,-1,130,138,139,-1,130,139,131,-1,140,141,142,-1,143,144,145,-1,145,144,146,-1,145,146,142,-1,142,146,147,-1,142,147,140,-1,43,148,149,-1,150,151,152,-1,152,151,153,-1,150,154,151,-1,151,154,155,-1,151,155,148,-1,156,157,145,-1,145,157,158,-1,145,158,159,-1,149,160,43,-1,43,160,161,-1,43,161,162,-1,163,42,164,-1,164,42,43,-1,164,43,165,-1,165,43,162,-1,163,166,42,-1,42,166,167,-1,42,167,168,-1,168,169,42,-1,42,169,170,-1,42,170,145,-1,145,170,171,-1,145,171,156,-1,153,151,172,-1,172,151,173,-1,172,173,159,-1,159,173,174,-1,159,174,175,-1,175,176,159,-1,159,176,177,-1,159,177,145,-1,145,177,178,-1,145,178,143,-1,179,180,151,-1,151,180,181,-1,181,182,151,-1,151,182,183,-1,151,183,173,-1,184,185,186,-1,184,186,187,-1,185,188,186,-1,186,188,189,-1,186,189,190,-1,191,192,193,-1,193,192,194,-1,193,194,195,-1,196,197,198,-1,198,197,199,-1,198,199,186,-1,186,199,200,-1,186,200,187,-1,186,201,202,-1,203,204,179,-1,179,204,205,-1,179,205,206,-1,206,207,179,-1,179,207,208,-1,179,208,209,-1,209,208,196,-1,209,196,210,-1,210,196,198,-1,195,211,193,-1,193,211,212,-1,193,212,179,-1,179,212,213,-1,179,213,203,-1,190,214,186,-1,186,214,215,-1,186,215,216,-1,216,217,186,-1,186,217,218,-1,186,218,201,-1,219,220,221,-1,222,223,224,-1,222,224,95,-1,219,221,225,-1,202,226,186,-1,186,226,227,-1,186,227,228,-1,228,227,229,-1,228,229,230,-1,228,231,232,-1,230,233,228,-1,228,233,234,-1,228,234,231,-1,235,236,237,-1,237,236,228,-1,237,228,238,-1,238,228,232,-1,235,221,236,-1,236,221,220,-1,236,220,98,-1,98,220,239,-1,98,239,96,-1,240,241,242,-1,94,93,242,-1,242,93,243,-1,242,243,240,-1,92,244,93,-1,93,244,245,-1,93,245,243,-1,95,224,93,-1,93,224,246,-1,93,246,247,-1,247,248,93,-1,93,248,249,-1,93,249,91,-1,250,251,252,-1,251,253,252,-1,252,253,254,-1,252,254,255,-1,224,252,256,-1,223,225,224,-1,224,225,221,-1,224,221,252,-1,252,221,257,-1,252,257,250,-1,256,258,224,-1,224,258,259,-1,224,259,260,-1,255,254,261,-1,261,254,262,-1,261,262,263,-1,263,262,264,-1,263,264,265,-1,266,267,260,-1,260,267,268,-1,260,268,224,-1,89,88,269,-1,109,270,104,-1,104,270,271,-1,104,271,272,-1,272,271,273,-1,272,273,274,-1,275,276,277,-1,278,279,280,-1,278,280,281,-1,282,283,284,-1,284,283,285,-1,284,285,286,-1,286,285,287,-1,286,287,288,-1,289,290,291,-1,291,290,292,-1,291,292,293,-1,293,294,291,-1,291,294,283,-1,291,283,277,-1,277,283,282,-1,277,282,275,-1,279,295,280,-1,280,295,296,-1,280,296,291,-1,291,296,297,-1,291,297,289,-1,298,299,300,-1,300,299,301,-1,300,301,302,-1,302,301,303,-1,302,303,304,-1,287,305,288,-1,288,305,302,-1,288,302,306,-1,306,302,304,-1,304,307,306,-1,306,307,308,-1,306,308,280,-1,280,308,309,-1,280,309,281,-1,310,311,312,-1,312,311,313,-1,312,313,314,-1,315,316,314,-1,314,316,317,-1,314,317,312,-1,312,317,318,-1,317,319,318,-1,318,319,86,-1,318,86,193,-1,193,86,88,-1,193,88,191,-1,191,88,90,-1,274,269,272,-1,272,269,88,-1,272,88,320,-1,320,88,87,-1,321,310,322,-1,322,310,312,-1,322,312,323,-1,323,312,324,-1,323,324,320,-1,325,326,327,-1,327,326,302,-1,327,302,328,-1,328,302,305,-1,328,305,329,-1,329,305,330,-1,329,330,331,-1,326,332,302,-1,302,332,333,-1,302,333,334,-1,334,333,335,-1,334,335,336,-1,336,335,337,-1,336,337,331,-1,331,337,338,-1,331,338,329,-1,339,340,341,-1,341,340,342,-1,343,344,345,-1,345,344,346,-1,339,341,347,-1,347,341,348,-1,347,348,349,-1,349,348,350,-1,349,350,351,-1,350,352,351,-1,351,352,353,-1,351,353,354,-1,355,356,357,-1,345,350,343,-1,343,350,348,-1,343,348,358,-1,358,348,359,-1,358,359,357,-1,357,359,360,-1,357,360,355,-1,346,344,361,-1,361,344,362,-1,361,362,355,-1,363,364,362,-1,362,364,365,-1,362,365,366,-1,367,368,356,-1,368,369,356,-1,356,369,370,-1,356,370,371,-1,372,373,367,-1,355,362,356,-1,356,362,366,-1,356,366,367,-1,367,366,374,-1,367,374,372,-1,373,375,367,-1,367,375,376,-1,367,376,377,-1,377,378,367,-1,367,378,379,-1,367,379,380,-1,380,381,367,-1,367,381,382,-1,367,382,383,-1,384,385,383,-1,383,385,386,-1,383,386,367,-1,387,388,389,-1,384,390,385,-1,385,390,391,-1,385,391,389,-1,389,391,392,-1,389,392,387,-1,85,393,394,-1,394,395,85,-1,85,395,396,-1,85,396,83,-1,397,398,85,-1,85,398,399,-1,85,399,393,-1,400,401,324,-1,324,401,402,-1,324,402,397,-1,397,402,403,-1,397,403,398,-1,404,405,406,-1,405,407,406,-1,406,407,408,-1,406,408,409,-1,404,406,410,-1,410,406,411,-1,410,411,412,-1,412,411,413,-1,413,411,414,-1,413,414,371,-1,415,416,334,-1,417,418,336,-1,336,418,419,-1,420,421,422,-1,422,421,334,-1,422,334,423,-1,423,334,416,-1,419,424,336,-1,336,424,425,-1,336,425,426,-1,426,427,336,-1,336,427,428,-1,336,428,334,-1,334,428,429,-1,334,429,415,-1,343,430,417,-1,417,430,431,-1,417,431,418,-1,420,432,421,-1,421,432,433,-1,421,433,358,-1,358,433,434,-1,358,434,343,-1,343,434,435,-1,343,435,430,-1,436,437,438,-1,439,440,411,-1,441,442,443,-1,436,438,444,-1,445,446,447,-1,448,449,439,-1,439,449,450,-1,439,450,451,-1,451,450,443,-1,451,443,452,-1,452,443,442,-1,446,453,447,-1,447,453,454,-1,447,454,455,-1,456,457,438,-1,438,457,458,-1,438,458,444,-1,455,459,447,-1,447,459,460,-1,447,460,411,-1,411,460,461,-1,411,461,439,-1,439,461,462,-1,439,462,448,-1,463,464,465,-1,465,464,466,-1,465,466,467,-1,467,466,468,-1,469,470,443,-1,443,470,471,-1,443,471,472,-1,473,474,475,-1,475,474,476,-1,477,478,479,-1,479,478,480,-1,479,480,481,-1,440,482,411,-1,411,482,483,-1,411,483,484,-1,468,485,467,-1,467,485,486,-1,467,486,487,-1,487,486,475,-1,487,475,488,-1,488,475,476,-1,472,489,443,-1,443,489,490,-1,443,490,441,-1,437,491,492,-1,492,491,493,-1,493,491,494,-1,493,494,495,-1,477,463,478,-1,478,463,465,-1,478,465,496,-1,496,465,497,-1,496,497,498,-1,498,497,499,-1,498,499,500,-1,500,499,501,-1,502,501,492,-1,492,501,499,-1,492,499,437,-1,437,499,497,-1,437,497,438,-1,503,504,505,-1,506,507,505,-1,508,509,414,-1,484,473,411,-1,411,473,475,-1,411,475,414,-1,414,475,510,-1,414,510,508,-1,511,512,82,-1,512,513,82,-1,82,513,514,-1,82,514,515,-1,509,516,414,-1,414,516,517,-1,414,517,503,-1,503,517,518,-1,503,518,504,-1,515,519,82,-1,82,519,520,-1,82,520,80,-1,521,522,523,-1,523,522,524,-1,523,524,525,-1,523,526,521,-1,521,526,527,-1,521,527,528,-1,528,529,521,-1,521,529,530,-1,521,530,531,-1,531,530,532,-1,531,532,533,-1,533,532,534,-1,533,534,505,-1,505,534,535,-1,505,535,506,-1,536,537,525,-1,525,537,538,-1,525,538,523,-1,539,540,481,-1,481,540,541,-1,481,541,479,-1,539,542,540,-1,540,542,543,-1,540,543,544,-1,544,543,545,-1,544,546,547,-1,545,548,544,-1,544,548,549,-1,544,549,550,-1,550,551,544,-1,544,551,552,-1,544,552,546,-1,547,553,544,-1,544,553,554,-1,544,554,555,-1,556,557,558,-1,559,560,561,-1,561,560,562,-1,561,562,563,-1,563,562,556,-1,563,556,564,-1,564,556,558,-1,565,566,82,-1,82,566,567,-1,507,511,505,-1,505,511,82,-1,505,82,503,-1,503,82,567,-1,503,567,560,-1,560,567,568,-1,560,568,562,-1,569,566,570,-1,570,566,565,-1,570,565,571,-1,572,573,574,-1,575,576,565,-1,565,576,577,-1,565,577,571,-1,502,492,81,-1,81,492,572,-1,81,572,82,-1,82,572,574,-1,82,574,565,-1,565,574,578,-1,565,578,579,-1,580,581,582,-1,582,581,583,-1,582,583,572,-1,572,583,584,-1,572,584,573,-1,579,585,565,-1,565,585,586,-1,565,586,575,-1,587,588,589,-1,587,589,78,-1,588,590,589,-1,589,590,591,-1,589,591,582,-1,582,591,592,-1,582,592,580,-1,593,594,595,-1,596,597,283,-1,283,597,598,-1,294,298,283,-1,283,298,300,-1,283,300,596,-1,596,300,599,-1,596,599,595,-1,595,599,600,-1,595,600,593,-1,601,602,603,-1,604,601,605,-1,605,601,603,-1,605,603,300,-1,300,603,606,-1,300,606,599,-1,607,608,559,-1,559,608,609,-1,597,610,598,-1,598,610,607,-1,598,607,79,-1,79,607,559,-1,79,559,77,-1,77,559,561,-1,363,362,611,-1,611,362,344,-1,611,344,612,-1,612,344,343,-1,612,343,613,-1,613,343,417,-1,613,417,614,-1,614,417,336,-1,614,336,615,-1,615,336,331,-1,615,331,616,-1,616,331,330,-1,616,330,10,-1,102,104,111,-1,111,104,397,-1,111,397,617,-1,617,397,85,-1,617,85,618,-1,618,85,84,-1,618,84,611,-1,611,84,619,-1,611,619,363,-1,113,620,117,-1,117,620,127,-1,117,127,115,-1,115,127,129,-1,320,324,272,-1,272,324,621,-1,272,621,104,-1,621,622,104,-1,104,622,74,-1,104,74,397,-1,397,74,76,-1,397,76,324,-1,324,76,623,-1,324,623,621,-1,371,414,356,-1,356,414,503,-1,356,503,357,-1,357,503,560,-1,357,560,358,-1,358,560,559,-1,358,559,421,-1,421,559,609,-1,421,609,334,-1,334,609,624,-1,334,624,302,-1,302,624,625,-1,302,625,300,-1,300,625,626,-1,300,626,605,-1,605,626,627,-1,605,627,604,-1,409,400,406,-1,406,400,324,-1,406,324,411,-1,411,324,312,-1,411,312,447,-1,447,312,318,-1,78,589,79,-1,79,589,628,-1,79,628,598,-1,598,628,629,-1,598,629,283,-1,283,629,630,-1,283,630,285,-1,179,151,193,-1,193,151,631,-1,193,631,318,-1,318,631,493,-1,318,493,447,-1,447,493,495,-1,447,495,445,-1,148,43,151,-1,151,43,30,-1,151,30,631,-1,631,30,29,-1,631,29,493,-1,493,29,28,-1,493,28,492,-1,492,28,19,-1,492,19,572,-1,572,19,17,-1,572,17,582,-1,582,17,16,-1,582,16,589,-1,589,16,32,-1,589,32,628,-1,628,32,31,-1,628,31,629,-1,629,31,9,-1,629,9,630,-1,141,134,142,-1,142,134,136,-1,142,136,145,-1,145,136,632,-1,145,632,42,-1,42,632,40,-1,633,45,44,-1,10,4,58,-1,62,61,634,-1,634,61,635,-1,58,636,10,-1,10,636,634,-1,10,634,616,-1,616,634,635,-1,54,53,637,-1,637,53,638,-1,48,639,49,-1,49,639,640,-1,44,620,633,-1,633,620,113,-1,633,113,639,-1,639,113,111,-1,639,111,640,-1,640,111,617,-1,640,617,618,-1,618,611,640,-1,640,611,612,-1,640,612,613,-1,613,614,640,-1,640,614,615,-1,640,615,638,-1,638,615,616,-1,638,616,637,-1,637,616,635,-1,38,641,44,-1,44,641,642,-1,44,642,620,-1,643,644,645,-1,642,646,620,-1,620,646,645,-1,620,645,40,-1,40,645,644,-1,40,644,647,-1,645,641,643,-1,643,641,38,-1,643,38,648,-1,648,38,649,-1,648,649,647,-1,647,649,650,-1,647,650,40,-1,40,650,651,-1,40,651,38,-1,38,651,652,-1,38,652,649,-1,
        ]
    }
}
Shape{
    appearance Appearance {
        material  Material 	{
            diffuseColor 0.0 0.0 0.0
            specularColor 0.0 0.0 0.0
            ambientIntensity 0.0
            transparency 0.0
            shininess 0.5
        }
    }
    geometry IndexedFaceSet {
        ccw TRUE
        solid FALSE
        coord DEF co Coordinate {
            point [
                -0.2276 -0.4946 0.1535, -0.2276 -0.4946 0.1575, -0.2293 -0.4815 0.1535, -0.2293 -0.4815 0.1575, -0.2344 -0.4693 0.1535, -0.2344 -0.4693 0.1575, -0.2424 -0.4588 0.1535, -0.2424 -0.4588 0.1575, -0.2529 -0.4507 0.1535, -0.2529 -0.4507 0.1575, -0.2651 -0.4457 0.1535, -0.2651 -0.4457 0.1575, -0.2782 -0.4439 0.1535, -0.2782 -0.4439 0.1575, -0.2913 -0.4457 0.1535, -0.2913 -0.4457 0.1575, -0.3036 -0.4507 0.1535, -0.3036 -0.4507 0.1575, -0.314 -0.4588 0.1535, -0.314 -0.4588 0.1575, -0.3221 -0.4693 0.1535, -0.3221 -0.4693 0.1575, -0.3272 -0.4815 0.1535, -0.3272 -0.4815 0.1575, -0.3289 -0.4946 0.1535, -0.3289 -0.4946 0.1575, -0.3272 -0.5077 0.1535, -0.3272 -0.5077 0.1575, -0.3221 -0.5199 0.1535, -0.3221 -0.5199 0.1575, -0.314 -0.5304 0.1535, -0.314 -0.5304 0.1575, -0.3036 -0.5385 0.1535, -0.3036 -0.5385 0.1575, -0.2913 -0.5435 0.1535, -0.2913 -0.5435 0.1575, -0.2782 -0.5453 0.1535, -0.2782 -0.5453 0.1575, -0.2651 -0.5435 0.1535, -0.2651 -0.5435 0.1575, -0.2529 -0.5385 0.1535, -0.2529 -0.5385 0.1575, -0.2424 -0.5304 0.1535, -0.2424 -0.5304 0.1575, -0.2344 -0.5199 0.1535, -0.2344 -0.5199 0.1575, -0.2293 -0.5077 0.1535, -0.2293 -0.5077 0.1575, -0.2782 -0.4946 0.1535
            ]
        }
        coordIndex [
            0,1,2,-1,2,1,3,-1,2,3,4,-1,4,3,5,-1,4,5,6,-1,6,5,7,-1,6,7,8,-1,8,7,9,-1,8,9,10,-1,10,9,11,-1,10,11,12,-1,12,11,13,-1,12,13,14,-1,14,13,15,-1,14,15,16,-1,16,15,17,-1,16,17,18,-1,18,17,19,-1,18,19,20,-1,20,19,21,-1,20,21,22,-1,22,21,23,-1,22,23,24,-1,24,23,25,-1,24,25,26,-1,26,25,27,-1,26,27,28,-1,28,27,29,-1,28,29,30,-1,30,29,31,-1,30,31,32,-1,32,31,33,-1,32,33,34,-1,34,33,35,-1,34,35,36,-1,36,35,37,-1,36,37,38,-1,38,37,39,-1,38,39,40,-1,40,39,41,-1,40,41,42,-1,42,41,43,-1,42,43,44,-1,44,43,45,-1,44,45,46,-1,46,45,47,-1,46,47,0,-1,0,47,1,-1,44,46,48,-1,48,46,0,-1,48,0,2,-1,38,40,48,-1,48,40,42,-1,48,42,44,-1,32,34,48,-1,48,34,36,-1,48,36,38,-1,26,28,48,-1,48,28,30,-1,48,30,32,-1,20,22,48,-1,48,22,24,-1,48,24,26,-1,14,16,48,-1,48,16,18,-1,48,18,20,-1,8,10,48,-1,48,10,12,-1,48,12,14,-1,2,4,48,-1,48,4,6,-1,48,6,8,-1,
        ]
    }
}
Shape{
    appearance Appearance {
        material  Material 	{
            diffuseColor 0.7529411764705882 0.7529411764705882 0.7529411764705882
            specularColor 0.3764705882352941 0.3764705882352941 0.3764705882352941
            ambientIntensity 0.7529
            transparency 0.0
            shininess 0.5
        }
    }
    geometry IndexedFaceSet {
        ccw TRUE
        solid FALSE
        coord DEF co Coordinate {
            point [
                -0.315 0.0197 0.0079, -0.315 0.0394 0.0079, -0.315 0.0197 0.0, -0.315 0.0394 0.0, -0.2559 -0.0394 0.0, 0.315 -0.0394 0.0, -0.2559 -0.0394 0.0079, 0.315 -0.0394 0.0079, 0.315 0.0394 0.0, 0.315 0.0394 0.0079
            ]
        }
        coordIndex [
            0,1,2,-1,2,1,3,-1,4,5,6,-1,6,5,7,-1,5,8,7,-1,7,8,9,-1,8,3,9,-1,9,3,1,-1,5,4,8,-1,8,4,2,-1,8,2,3,-1,
        ]
    }
}
Shape{
    appearance Appearance {
        material  Material 	{
            diffuseColor 1.0 1.0 1.0
            specularColor 0.5019607843137255 0.5019607843137255 0.5019607843137255
            ambientIntensity 1.0
            transparency 0.0
            shininess 0.5
        }
    }
    geometry IndexedFaceSet {
        ccw TRUE
        solid FALSE
        coord DEF co Coordinate {
            point [
                -0.2038 0.5189 0.1614, -0.2038 0.5158 0.1614, -0.2038 0.5189 0.1575, -0.2038 0.5158 0.1575, -0.2145 0.5189 0.1614, -0.2145 0.5189 0.1575, -0.2145 0.5425 0.1614, -0.2145 0.5425 0.1575, -0.2179 0.5425 0.1614, -0.2179 0.5425 0.1575, -0.2179 0.5158 0.1614, -0.2179 0.5158 0.1575, -0.1901 0.5154 0.1575, -0.1878 0.5156 0.1575, -0.1901 0.5154 0.1614, -0.1861 0.5157 0.1614, -0.1861 0.5157 0.1575, -0.1832 0.5167 0.1575, -0.1832 0.5167 0.1614, -0.1827 0.5169 0.1575, -0.1827 0.5169 0.1614, -0.1827 0.5202 0.1614, -0.1827 0.5202 0.1575, -0.1854 0.519 0.1575, -0.1854 0.519 0.1614, -0.1884 0.5185 0.1575, -0.1884 0.5185 0.1614, -0.1896 0.5184 0.1575, -0.1896 0.5184 0.1614, -0.1923 0.5187 0.1575, -0.1923 0.5187 0.1614, -0.1942 0.5195 0.1575, -0.1942 0.5195 0.1614, -0.196 0.5207 0.1575, -0.196 0.5207 0.1614, -0.1965 0.5212 0.1575, -0.1965 0.5212 0.1614, -0.1977 0.5228 0.1575, -0.1977 0.5228 0.1614, -0.1986 0.5249 0.1575, -0.1986 0.5249 0.1614, -0.1991 0.5275 0.1575, -0.1991 0.5275 0.1614, -0.1991 0.5289 0.1575, -0.1991 0.5289 0.1614, -0.1987 0.5325 0.1575, -0.1987 0.5325 0.1614, -0.1978 0.5348 0.1575, -0.1978 0.5348 0.1614, -0.1965 0.5367 0.1575, -0.1965 0.5367 0.1614, -0.1963 0.5369 0.1575, -0.1963 0.5369 0.1614, -0.1948 0.5382 0.1575, -0.1948 0.5382 0.1614, -0.1927 0.5392 0.1575, -0.1927 0.5392 0.1614, -0.1904 0.5398 0.1575, -0.1904 0.5398 0.1614, -0.189 0.5398 0.1575, -0.189 0.5398 0.1614, -0.1858 0.5394 0.1575, -0.1858 0.5394 0.1614, -0.183 0.5384 0.1575, -0.183 0.5384 0.1614, -0.1827 0.5383 0.1575, -0.1827 0.5383 0.1614, -0.1827 0.5419 0.1614, -0.1827 0.5419 0.1575, -0.1891 0.5429 0.1575, -0.1891 0.5429 0.1614, -0.1862 0.5427 0.1575, -0.1856 0.5427 0.1614, -0.1856 0.5427 0.1575, -0.1909 0.5427 0.1575, -0.1929 0.5425 0.1614, -0.1929 0.5425 0.1575, -0.1957 0.5414 0.1575, -0.1957 0.5414 0.1614, -0.1982 0.5396 0.1575, -0.1982 0.5396 0.1614, -0.1989 0.539 0.1575, -0.1989 0.539 0.1614, -0.2008 0.5365 0.1575, -0.2008 0.5365 0.1614, -0.2015 0.5348 0.1575, -0.2021 0.5335 0.1614, -0.2021 0.5335 0.1575, -0.2027 0.53 0.1575, -0.2027 0.53 0.1614, -0.2027 0.5286 0.1575, -0.2027 0.5286 0.1614, -0.2022 0.5243 0.1575, -0.2022 0.5243 0.1614, -0.2015 0.5226 0.1575, -0.2011 0.5215 0.1614, -0.2011 0.5215 0.1575, -0.1995 0.5192 0.1575, -0.1995 0.5192 0.1614, -0.1993 0.519 0.1575, -0.1993 0.519 0.1614, -0.1918 0.5154 0.1614, -0.1972 0.5172 0.1575, -0.1972 0.5172 0.1614, -0.1946 0.516 0.1575, -0.1946 0.516 0.1614, -0.1925 0.5156 0.1575, -0.1918 0.5154 0.1575, -0.1631 0.5189 0.1614, -0.1631 0.5158 0.1614, -0.1631 0.5189 0.1575, -0.1631 0.5158 0.1575, -0.174 0.5189 0.1575, -0.174 0.5189 0.1614, -0.1668 0.5189 0.1575, -0.174 0.5278 0.1614, -0.174 0.5278 0.1575, -0.1644 0.5278 0.1614, -0.1668 0.5278 0.1575, -0.1644 0.5278 0.1575, -0.1644 0.5309 0.1614, -0.1644 0.5309 0.1575, -0.174 0.5309 0.1575, -0.174 0.5309 0.1614, -0.1668 0.5309 0.1575, -0.174 0.5394 0.1614, -0.174 0.5394 0.1575, -0.1637 0.5394 0.1614, -0.1668 0.5394 0.1575, -0.1637 0.5394 0.1575, -0.1637 0.5425 0.1614, -0.1637 0.5425 0.1575, -0.1774 0.5425 0.1575, -0.1774 0.5425 0.1614, -0.1668 0.5425 0.1575, -0.1774 0.5158 0.1614, -0.1774 0.5158 0.1575, -0.1668 0.5158 0.1575, -0.1403 0.5195 0.1614, -0.1431 0.5214 0.1614, -0.1431 0.5176 0.1614, -0.1448 0.5202 0.1614, -0.1461 0.5164 0.1614, -0.147 0.5193 0.1614, -0.1507 0.5158 0.1614, -0.1507 0.5189 0.1614, -0.158 0.5158 0.1614, -0.1546 0.5189 0.1614, -0.158 0.5425 0.1614, -0.1546 0.5394 0.1614, -0.1504 0.5425 0.1614, -0.1505 0.5394 0.1614, -0.1495 0.5394 0.1614, -0.1463 0.542 0.1614, -0.1467 0.539 0.1614, -0.1431 0.5409 0.1614, -0.1445 0.5381 0.1614, -0.1403 0.539 0.1614, -0.1428 0.5369 0.1614, -0.1394 0.538 0.1614, -0.1421 0.5362 0.1614, -0.1377 0.5357 0.1614, -0.1411 0.5347 0.1614, -0.1367 0.5332 0.1614, -0.1403 0.5328 0.1614, -0.1363 0.5295 0.1614, -0.1399 0.5294 0.1614, -0.1364 0.5278 0.1614, -0.14 0.5274 0.1614, -0.137 0.5247 0.1614, -0.1406 0.525 0.1614, -0.1383 0.5219 0.1614, -0.1415 0.5231 0.1614, -0.1428 0.5216 0.1614, -0.1507 0.5158 0.1575, -0.158 0.5158 0.1575, -0.1403 0.5195 0.1575, -0.1461 0.5164 0.1575, -0.1458 0.5165 0.1575, -0.1431 0.5176 0.1575, -0.1383 0.5219 0.1575, -0.137 0.5247 0.1575, -0.1364 0.5278 0.1575, -0.1363 0.5295 0.1575, -0.1367 0.5332 0.1575, -0.1377 0.5357 0.1575, -0.1394 0.538 0.1575, -0.1403 0.539 0.1575, -0.1504 0.5425 0.1575, -0.1431 0.5409 0.1575, -0.1458 0.5419 0.1575, -0.1463 0.542 0.1575, -0.158 0.5425 0.1575, -0.1505 0.5394 0.1575, -0.1546 0.5394 0.1575, -0.1546 0.5189 0.1575, -0.1507 0.5189 0.1575, -0.1428 0.5216 0.1575, -0.1431 0.5214 0.1575, -0.1448 0.5202 0.1575, -0.147 0.5193 0.1575, -0.1399 0.5294 0.1575, -0.14 0.5274 0.1575, -0.1406 0.525 0.1575, -0.1415 0.5231 0.1575, -0.1428 0.5369 0.1575, -0.1421 0.5362 0.1575, -0.1411 0.5347 0.1575, -0.1403 0.5328 0.1575, -0.1495 0.5394 0.1575, -0.1467 0.539 0.1575, -0.1445 0.5381 0.1575
            ]
        }
        coordIndex [
            0,1,2,-1,2,1,3,-1,4,0,5,-1,5,0,2,-1,6,4,7,-1,7,4,5,-1,8,6,9,-1,9,6,7,-1,10,8,11,-1,11,8,9,-1,1,10,3,-1,3,10,11,-1,6,8,4,-1,4,8,10,-1,4,10,0,-1,0,10,1,-1,12,13,14,-1,14,13,15,-1,13,16,15,-1,15,16,17,-1,15,17,18,-1,18,17,19,-1,18,19,20,-1,21,20,22,-1,22,20,19,-1,21,22,23,-1,21,23,24,-1,24,23,25,-1,24,25,26,-1,26,25,27,-1,26,27,28,-1,28,27,29,-1,28,29,30,-1,30,29,31,-1,30,31,32,-1,32,31,33,-1,32,33,34,-1,34,33,35,-1,34,35,36,-1,36,35,37,-1,36,37,38,-1,38,37,39,-1,38,39,40,-1,40,39,41,-1,40,41,42,-1,42,41,43,-1,42,43,44,-1,44,43,45,-1,44,45,46,-1,46,45,47,-1,46,47,48,-1,48,47,49,-1,48,49,50,-1,50,49,51,-1,50,51,52,-1,52,51,53,-1,52,53,54,-1,54,53,55,-1,54,55,56,-1,56,55,57,-1,56,57,58,-1,58,57,59,-1,58,59,60,-1,60,59,61,-1,60,61,62,-1,62,61,63,-1,62,63,64,-1,64,63,65,-1,64,65,66,-1,67,66,68,-1,68,66,65,-1,69,70,71,-1,71,70,72,-1,71,72,73,-1,73,72,67,-1,73,67,68,-1,70,69,74,-1,70,74,75,-1,74,76,75,-1,75,76,77,-1,75,77,78,-1,78,77,79,-1,78,79,80,-1,80,79,81,-1,80,81,82,-1,82,81,83,-1,82,83,84,-1,84,83,85,-1,84,85,86,-1,85,87,86,-1,86,87,88,-1,86,88,89,-1,89,88,90,-1,89,90,91,-1,91,90,92,-1,91,92,93,-1,93,92,94,-1,93,94,95,-1,94,96,95,-1,95,96,97,-1,95,97,98,-1,98,97,99,-1,98,99,100,-1,12,14,101,-1,100,99,102,-1,100,102,103,-1,103,102,104,-1,103,104,105,-1,105,104,106,-1,105,106,101,-1,101,106,107,-1,101,107,12,-1,54,56,75,-1,46,48,84,-1,84,48,82,-1,75,56,70,-1,56,58,70,-1,70,58,60,-1,70,60,72,-1,72,60,62,-1,72,62,67,-1,67,62,64,-1,67,64,66,-1,20,21,18,-1,18,21,24,-1,18,24,15,-1,15,24,26,-1,15,26,14,-1,14,26,28,-1,14,28,101,-1,101,28,30,-1,101,30,105,-1,105,30,32,-1,105,32,103,-1,103,32,34,-1,103,34,100,-1,100,34,36,-1,100,36,98,-1,98,36,38,-1,98,38,95,-1,91,44,89,-1,89,44,46,-1,89,46,86,-1,86,46,84,-1,48,50,82,-1,82,50,52,-1,82,52,80,-1,80,52,54,-1,80,54,78,-1,78,54,75,-1,95,38,93,-1,93,38,40,-1,93,40,91,-1,91,40,42,-1,91,42,44,-1,108,109,110,-1,110,109,111,-1,112,113,114,-1,114,113,108,-1,114,108,110,-1,115,113,116,-1,116,113,112,-1,115,116,117,-1,117,116,118,-1,117,118,119,-1,120,117,121,-1,121,117,119,-1,122,123,124,-1,124,123,120,-1,124,120,121,-1,125,123,126,-1,126,123,122,-1,125,126,127,-1,127,126,128,-1,127,128,129,-1,130,127,131,-1,131,127,129,-1,132,133,134,-1,134,133,130,-1,134,130,131,-1,135,133,136,-1,136,133,132,-1,135,136,109,-1,109,136,137,-1,109,137,111,-1,135,109,108,-1,108,113,135,-1,135,113,115,-1,135,115,133,-1,127,130,125,-1,125,130,133,-1,125,133,123,-1,123,133,115,-1,123,115,120,-1,120,115,117,-1,138,139,140,-1,140,139,141,-1,140,141,142,-1,142,141,143,-1,142,143,144,-1,144,143,145,-1,144,145,146,-1,146,145,147,-1,146,147,148,-1,148,147,149,-1,148,149,150,-1,149,151,150,-1,150,151,152,-1,150,152,153,-1,153,152,154,-1,153,154,155,-1,155,154,156,-1,155,156,157,-1,157,156,158,-1,157,158,159,-1,159,158,160,-1,159,160,161,-1,161,160,162,-1,161,162,163,-1,163,162,164,-1,163,164,165,-1,165,164,166,-1,165,166,167,-1,167,166,168,-1,167,168,169,-1,169,168,170,-1,169,170,171,-1,171,170,172,-1,171,172,138,-1,138,172,173,-1,138,173,139,-1,144,146,174,-1,174,146,175,-1,176,138,140,-1,144,174,177,-1,144,177,142,-1,142,177,178,-1,142,178,140,-1,140,178,179,-1,140,179,176,-1,138,176,180,-1,138,180,171,-1,171,180,181,-1,171,181,169,-1,169,181,182,-1,169,182,167,-1,167,182,183,-1,167,183,165,-1,165,183,184,-1,165,184,163,-1,163,184,185,-1,163,185,161,-1,161,185,186,-1,161,186,159,-1,159,186,187,-1,159,187,157,-1,188,150,153,-1,157,187,189,-1,157,189,155,-1,155,189,190,-1,155,190,153,-1,153,190,191,-1,153,191,188,-1,148,150,192,-1,192,150,188,-1,146,148,175,-1,175,148,192,-1,151,149,193,-1,193,149,194,-1,149,147,194,-1,194,147,195,-1,147,145,195,-1,195,145,196,-1,173,197,198,-1,173,198,139,-1,139,198,199,-1,139,199,141,-1,141,199,200,-1,141,200,143,-1,143,200,196,-1,143,196,145,-1,166,201,202,-1,166,202,168,-1,168,202,203,-1,168,203,170,-1,170,203,204,-1,170,204,172,-1,172,204,197,-1,172,197,173,-1,158,205,206,-1,158,206,160,-1,160,206,207,-1,160,207,162,-1,162,207,208,-1,162,208,164,-1,164,208,201,-1,164,201,166,-1,151,193,209,-1,151,209,152,-1,152,209,210,-1,152,210,154,-1,154,210,211,-1,154,211,156,-1,156,211,205,-1,156,205,158,-1,
        ]
    }
}
Shape{
    appearance Appearance {
        material  Material 	{
            diffuseColor 0.25098039215686274 0.25098039215686274 0.25098039215686274
            specularColor 0.12549019607843137 0.12549019607843137 0.12549019607843137
            ambientIntensity 0.251
            transparency 0.0
            shininess 0.5
        }
    }
    geometry IndexedFaceSet {
        ccw TRUE
        solid FALSE
        coord DEF co Coordinate {
            point [
                -0.1505 0.5394 0.1575, -0.1546 0.5394 0.1575, -0.1546 0.5189 0.1575, -0.1406 0.525 0.1575, -0.14 0.5274 0.1575, -0.1495 0.5394 0.1575, -0.1507 0.5189 0.1575, -0.147 0.5193 0.1575, -0.1448 0.5202 0.1575, -0.1431 0.5214 0.1575, -0.1428 0.5216 0.1575, -0.1415 0.5231 0.1575, -0.1428 0.5369 0.1575, -0.1399 0.5294 0.1575, -0.1445 0.5381 0.1575, -0.1467 0.539 0.1575, -0.1403 0.5328 0.1575, -0.1411 0.5347 0.1575, -0.1421 0.5362 0.1575
            ]
        }
        coordIndex [
            0,1,2,-1,3,4,5,-1,2,6,0,-1,0,6,7,-1,0,7,8,-1,8,9,0,-1,0,9,10,-1,0,10,5,-1,5,10,11,-1,5,11,3,-1,12,4,13,-1,12,14,4,-1,4,14,15,-1,4,15,5,-1,16,17,13,-1,13,17,18,-1,13,18,12,-1,
        ]
    }
}
Shape{
    appearance Appearance {
        material  Material 	{
            diffuseColor 1.0 1.0 1.0
            specularColor 0.5019607843137255 0.5019607843137255 0.5019607843137255
            ambientIntensity 1.0
            transparency 0.0
            shininess 0.5
        }
    }
    geometry IndexedFaceSet {
        ccw TRUE
        solid FALSE
        coord DEF co Coordinate {
            point [
                -0.1273 0.5261 0.1614, -0.1284 0.5231 0.1614, -0.1184 0.5261 0.1614, -0.1173 0.5231 0.1614, -0.1233 0.5372 0.1614, -0.1246 0.5425 0.1614, -0.1348 0.5158 0.1614, -0.131 0.5158 0.1614, -0.1231 0.538 0.1614, -0.1229 0.5391 0.1614, -0.121 0.5425 0.1614, -0.1228 0.5391 0.1614, -0.1226 0.538 0.1614, -0.1224 0.5372 0.1614, -0.1108 0.5158 0.1614, -0.1146 0.5158 0.1614, -0.121 0.5425 0.1575, -0.1108 0.5158 0.1575, -0.1246 0.5425 0.1575, -0.1348 0.5158 0.1575, -0.1271 0.536 0.1575, -0.131 0.5158 0.1575, -0.1284 0.5231 0.1575, -0.1173 0.5231 0.1575, -0.1271 0.5231 0.1575, -0.1146 0.5158 0.1575, -0.1273 0.5261 0.1575, -0.1184 0.5261 0.1575, -0.1224 0.5372 0.1575, -0.1228 0.5391 0.1575, -0.1226 0.538 0.1575, -0.1229 0.5391 0.1575, -0.1233 0.5372 0.1575, -0.1231 0.538 0.1575
            ]
        }
        coordIndex [
            0,1,2,-1,2,1,3,-1,4,5,0,-1,0,5,6,-1,0,6,1,-1,1,6,7,-1,4,8,5,-1,5,8,9,-1,5,9,10,-1,10,9,11,-1,10,11,12,-1,12,13,10,-1,10,13,2,-1,10,2,14,-1,14,2,3,-1,14,3,15,-1,10,14,16,-1,16,14,17,-1,5,10,18,-1,18,10,16,-1,19,6,20,-1,20,6,5,-1,20,5,18,-1,7,6,21,-1,21,6,19,-1,1,7,22,-1,22,7,21,-1,23,3,24,-1,24,3,1,-1,24,1,22,-1,15,3,25,-1,25,3,23,-1,14,15,17,-1,17,15,25,-1,0,2,26,-1,26,2,27,-1,2,13,27,-1,27,13,28,-1,11,29,30,-1,11,30,12,-1,12,30,28,-1,12,28,13,-1,11,9,29,-1,29,9,31,-1,4,32,33,-1,4,33,8,-1,8,33,31,-1,8,31,9,-1,4,0,32,-1,32,0,26,-1,
        ]
    }
}
Shape{
    appearance Appearance {
        material  Material 	{
            diffuseColor 0.25098039215686274 0.25098039215686274 0.25098039215686274
            specularColor 0.12549019607843137 0.12549019607843137 0.12549019607843137
            ambientIntensity 0.251
            transparency 0.0
            shininess 0.5
        }
    }
    geometry IndexedFaceSet {
        ccw TRUE
        solid FALSE
        coord DEF co Coordinate {
            point [
                -0.1228 0.5391 0.1575, -0.1229 0.5391 0.1575, -0.1226 0.538 0.1575, -0.1231 0.538 0.1575, -0.1224 0.5372 0.1575, -0.1233 0.5372 0.1575, -0.1184 0.5261 0.1575, -0.1273 0.5261 0.1575
            ]
        }
        coordIndex [
            0,1,2,-1,2,1,3,-1,2,3,4,-1,4,3,5,-1,4,5,6,-1,6,5,7,-1,
        ]
    }
}
Shape{
    appearance Appearance {
        material  Material 	{
            diffuseColor 1.0 1.0 1.0
            specularColor 0.5019607843137255 0.5019607843137255 0.5019607843137255
            ambientIntensity 1.0
            transparency 0.0
            shininess 0.5
        }
    }
    geometry IndexedFaceSet {
        ccw TRUE
        solid FALSE
        coord DEF co Coordinate {
            point [
                -0.2035 0.4765 0.1614, -0.2035 0.4735 0.1614, -0.2035 0.4765 0.1575, -0.2035 0.4735 0.1575, -0.2145 0.4765 0.1614, -0.2145 0.4765 0.1575, -0.2145 0.4855 0.1614, -0.2145 0.4855 0.1575, -0.2049 0.4855 0.1614, -0.2049 0.4855 0.1575, -0.2049 0.4885 0.1614, -0.2049 0.4885 0.1575, -0.2145 0.4885 0.1614, -0.2145 0.4885 0.1575, -0.2145 0.4971 0.1575, -0.2145 0.4971 0.1614, -0.2145 0.4966 0.1575, -0.2042 0.4971 0.1614, -0.2042 0.4971 0.1575, -0.2042 0.5002 0.1614, -0.2042 0.5002 0.1575, -0.2179 0.5002 0.1614, -0.2179 0.5002 0.1575, -0.2179 0.4735 0.1575, -0.2179 0.4735 0.1614, -0.2179 0.4966 0.1575, -0.1884 0.4735 0.1614, -0.185 0.4735 0.1614, -0.1884 0.4764 0.1614, -0.185 0.4857 0.1614, -0.1885 0.4764 0.1614, -0.1902 0.4769 0.1614, -0.1891 0.4754 0.1614, -0.1912 0.4763 0.1614, -0.195 0.4819 0.1614, -0.1928 0.4824 0.1614, -0.1884 0.483 0.1614, -0.1884 0.4812 0.1614, -0.1884 0.481 0.1614, -0.1886 0.4795 0.1614, -0.1891 0.4783 0.1614, -0.1898 0.4773 0.1614, -0.1896 0.4927 0.1614, -0.1903 0.4899 0.1614, -0.1883 0.4923 0.1614, -0.1897 0.4895 0.1614, -0.1957 0.4815 0.1614, -0.1884 0.4856 0.1614, -0.1885 0.4871 0.1614, -0.1854 0.4885 0.1614, -0.1888 0.4883 0.1614, -0.1859 0.49 0.1614, -0.1892 0.4889 0.1614, -0.1866 0.491 0.1614, -0.1872 0.4916 0.1614, -0.1985 0.4912 0.1614, -0.1985 0.4879 0.1614, -0.1978 0.4916 0.1614, -0.1962 0.4894 0.1614, -0.1953 0.4926 0.1614, -0.1941 0.4901 0.1614, -0.1919 0.493 0.1614, -0.1922 0.4903 0.1614, -0.1911 0.4901 0.1614, -0.1963 0.4769 0.1614, -0.1987 0.4745 0.1614, -0.196 0.4766 0.1614, -0.1976 0.4737 0.1614, -0.1953 0.4762 0.1614, -0.1963 0.4732 0.1614, -0.1946 0.4759 0.1614, -0.1943 0.473 0.1614, -0.1934 0.4758 0.1614, -0.1925 0.4732 0.1614, -0.1922 0.4759 0.1614, -0.1912 0.4737 0.1614, -0.1902 0.4743 0.1614, -0.194 0.4848 0.1614, -0.1968 0.4841 0.1614, -0.1961 0.4813 0.1614, -0.1981 0.4833 0.1614, -0.1965 0.4808 0.1614, -0.1991 0.4824 0.1614, -0.1968 0.4801 0.1614, -0.1998 0.4813 0.1614, -0.1969 0.4794 0.1614, -0.2002 0.4801 0.1614, -0.197 0.4788 0.1614, -0.2003 0.4786 0.1614, -0.1969 0.4781 0.1614, -0.2002 0.477 0.1614, -0.1966 0.4775 0.1614, -0.1998 0.4759 0.1614, -0.1991 0.4749 0.1614, -0.1919 0.493 0.1575, -0.1953 0.4926 0.1575, -0.1978 0.4916 0.1575, -0.1985 0.4912 0.1575, -0.1985 0.4879 0.1575, -0.1962 0.4894 0.1575, -0.1941 0.4901 0.1575, -0.1922 0.4903 0.1575, -0.1911 0.4901 0.1575, -0.1903 0.4899 0.1575, -0.1897 0.4895 0.1575, -0.1892 0.4889 0.1575, -0.1888 0.4883 0.1575, -0.1885 0.4871 0.1575, -0.1884 0.4856 0.1575, -0.194 0.4848 0.1575, -0.1968 0.4841 0.1575, -0.1981 0.4833 0.1575, -0.1991 0.4824 0.1575, -0.1998 0.4813 0.1575, -0.2002 0.4801 0.1575, -0.2003 0.4786 0.1575, -0.2002 0.477 0.1575, -0.1998 0.4759 0.1575, -0.1991 0.4749 0.1575, -0.1987 0.4745 0.1575, -0.1943 0.473 0.1575, -0.1962 0.4732 0.1575, -0.1963 0.4732 0.1575, -0.1976 0.4737 0.1575, -0.1925 0.4732 0.1575, -0.1925 0.4732 0.1575, -0.1912 0.4737 0.1575, -0.1902 0.4743 0.1575, -0.1891 0.4754 0.1575, -0.1885 0.4764 0.1575, -0.1884 0.4764 0.1575, -0.1884 0.4735 0.1575, -0.185 0.4735 0.1575, -0.185 0.4857 0.1575, -0.1854 0.4885 0.1575, -0.1859 0.49 0.1575, -0.1866 0.491 0.1575, -0.1872 0.4916 0.1575, -0.1883 0.4923 0.1575, -0.1896 0.4927 0.1575, -0.1961 0.4813 0.1575, -0.1957 0.4815 0.1575, -0.195 0.4819 0.1575, -0.1928 0.4824 0.1575, -0.197 0.4788 0.1575, -0.1969 0.4794 0.1575, -0.1968 0.4801 0.1575, -0.1965 0.4808 0.1575, -0.196 0.4766 0.1575, -0.1963 0.4769 0.1575, -0.1966 0.4775 0.1575, -0.1969 0.4781 0.1575, -0.1934 0.4758 0.1575, -0.1946 0.4759 0.1575, -0.1953 0.4762 0.1575, -0.1898 0.4773 0.1575, -0.1902 0.4769 0.1575, -0.1912 0.4763 0.1575, -0.1922 0.4759 0.1575, -0.1884 0.4812 0.1575, -0.1884 0.481 0.1575, -0.1886 0.4795 0.1575, -0.1891 0.4783 0.1575, -0.1884 0.483 0.1575
            ]
        }
        coordIndex [
            0,1,2,-1,2,1,3,-1,4,0,5,-1,5,0,2,-1,6,4,7,-1,7,4,5,-1,8,6,9,-1,9,6,7,-1,10,8,11,-1,11,8,9,-1,12,10,13,-1,13,10,11,-1,14,15,16,-1,16,15,12,-1,16,12,13,-1,17,15,18,-1,18,15,14,-1,19,17,20,-1,20,17,18,-1,21,19,22,-1,22,19,20,-1,23,24,25,-1,25,24,21,-1,25,21,22,-1,1,24,3,-1,3,24,23,-1,24,1,0,-1,0,4,24,-1,24,4,6,-1,24,6,21,-1,17,19,15,-1,15,19,21,-1,15,21,12,-1,12,21,6,-1,12,6,10,-1,10,6,8,-1,26,27,28,-1,28,27,29,-1,30,31,32,-1,32,31,33,-1,34,35,29,-1,29,35,36,-1,29,36,37,-1,37,38,29,-1,29,38,39,-1,29,39,28,-1,28,39,40,-1,28,40,30,-1,30,40,41,-1,30,41,31,-1,42,43,44,-1,44,43,45,-1,46,34,47,-1,47,34,29,-1,47,29,48,-1,48,29,49,-1,48,49,50,-1,50,49,51,-1,50,51,52,-1,52,51,53,-1,52,53,45,-1,45,53,54,-1,45,54,44,-1,55,56,57,-1,57,56,58,-1,57,58,59,-1,59,58,60,-1,59,60,61,-1,61,60,62,-1,61,62,42,-1,42,62,63,-1,42,63,43,-1,64,65,66,-1,66,65,67,-1,66,67,68,-1,68,67,69,-1,68,69,70,-1,70,69,71,-1,70,71,72,-1,72,71,73,-1,72,73,74,-1,74,73,75,-1,74,75,33,-1,33,75,76,-1,33,76,32,-1,47,77,46,-1,46,77,78,-1,46,78,79,-1,79,78,80,-1,79,80,81,-1,81,80,82,-1,81,82,83,-1,83,82,84,-1,83,84,85,-1,85,84,86,-1,85,86,87,-1,87,86,88,-1,87,88,89,-1,89,88,90,-1,89,90,91,-1,91,90,92,-1,91,92,64,-1,64,92,93,-1,64,93,65,-1,61,94,95,-1,61,95,59,-1,59,95,96,-1,59,96,57,-1,57,96,97,-1,57,97,55,-1,56,55,98,-1,98,55,97,-1,56,98,99,-1,56,99,58,-1,58,99,100,-1,58,100,60,-1,60,100,101,-1,60,101,62,-1,62,101,102,-1,62,102,63,-1,63,102,103,-1,63,103,43,-1,43,103,104,-1,43,104,45,-1,45,104,105,-1,45,105,52,-1,52,105,106,-1,52,106,50,-1,50,106,107,-1,50,107,48,-1,48,107,108,-1,48,108,47,-1,77,47,109,-1,109,47,108,-1,77,109,110,-1,77,110,78,-1,78,110,111,-1,78,111,80,-1,80,111,112,-1,80,112,82,-1,82,112,113,-1,82,113,84,-1,84,113,114,-1,84,114,86,-1,86,114,115,-1,86,115,88,-1,88,115,116,-1,88,116,90,-1,90,116,117,-1,90,117,92,-1,92,117,118,-1,92,118,93,-1,93,118,119,-1,93,119,65,-1,120,71,121,-1,121,71,69,-1,121,69,122,-1,122,69,67,-1,122,67,123,-1,123,67,65,-1,123,65,119,-1,71,120,124,-1,71,124,73,-1,73,124,125,-1,73,125,75,-1,125,126,75,-1,75,126,127,-1,75,127,76,-1,76,127,128,-1,76,128,32,-1,32,128,129,-1,32,129,30,-1,28,30,130,-1,130,30,129,-1,26,28,131,-1,131,28,130,-1,27,26,132,-1,132,26,131,-1,29,27,133,-1,133,27,132,-1,29,133,134,-1,29,134,49,-1,49,134,135,-1,49,135,51,-1,51,135,136,-1,51,136,53,-1,53,136,137,-1,53,137,54,-1,54,137,138,-1,54,138,44,-1,44,138,139,-1,44,139,42,-1,42,139,94,-1,42,94,61,-1,79,140,141,-1,79,141,46,-1,46,141,142,-1,46,142,34,-1,34,142,143,-1,34,143,35,-1,87,144,145,-1,87,145,85,-1,85,145,146,-1,85,146,83,-1,83,146,147,-1,83,147,81,-1,81,147,140,-1,81,140,79,-1,66,148,149,-1,66,149,64,-1,64,149,150,-1,64,150,91,-1,91,150,151,-1,91,151,89,-1,89,151,144,-1,89,144,87,-1,72,152,153,-1,72,153,70,-1,70,153,154,-1,70,154,68,-1,68,154,148,-1,68,148,66,-1,41,155,156,-1,41,156,31,-1,31,156,157,-1,31,157,33,-1,33,157,158,-1,33,158,74,-1,74,158,152,-1,74,152,72,-1,37,159,160,-1,37,160,38,-1,38,160,161,-1,38,161,39,-1,39,161,162,-1,39,162,40,-1,40,162,155,-1,40,155,41,-1,37,36,159,-1,159,36,163,-1,36,35,163,-1,163,35,143,-1,
        ]
    }
}
Shape{
    appearance Appearance {
        material  Material 	{
            diffuseColor 0.25098039215686274 0.25098039215686274 0.25098039215686274
            specularColor 0.12549019607843137 0.12549019607843137 0.12549019607843137
            ambientIntensity 0.251
            transparency 0.0
            shininess 0.5
        }
    }
    geometry IndexedFaceSet {
        ccw TRUE
        solid FALSE
        coord DEF co Coordinate {
            point [
                -0.1884 0.481 0.1575, -0.1884 0.4812 0.1575, -0.1961 0.4813 0.1575, -0.1884 0.483 0.1575, -0.1928 0.4824 0.1575, -0.195 0.4819 0.1575, -0.1957 0.4815 0.1575, -0.1886 0.4795 0.1575, -0.1965 0.4808 0.1575, -0.1891 0.4783 0.1575, -0.1963 0.4769 0.1575, -0.196 0.4766 0.1575, -0.1902 0.4769 0.1575, -0.1966 0.4775 0.1575, -0.1912 0.4763 0.1575, -0.1922 0.4759 0.1575, -0.1934 0.4758 0.1575, -0.1968 0.4801 0.1575, -0.1969 0.4794 0.1575, -0.1898 0.4773 0.1575, -0.197 0.4788 0.1575, -0.1969 0.4781 0.1575, -0.1953 0.4762 0.1575, -0.1946 0.4759 0.1575
            ]
        }
        coordIndex [
            0,1,2,-1,1,3,4,-1,4,5,1,-1,1,5,6,-1,1,6,2,-1,0,2,7,-1,7,2,8,-1,7,8,9,-1,10,11,12,-1,10,12,13,-1,14,12,15,-1,15,12,16,-1,8,17,9,-1,9,17,18,-1,9,18,19,-1,19,18,20,-1,19,20,12,-1,12,20,21,-1,12,21,13,-1,11,22,12,-1,12,22,23,-1,12,23,16,-1,
        ]
    }
}
Shape{
    appearance Appearance {
        material  Material 	{
            diffuseColor 1.0 1.0 1.0
            specularColor 0.5019607843137255 0.5019607843137255 0.5019607843137255
            ambientIntensity 1.0
            transparency 0.0
            shininess 0.5
        }
    }
    geometry IndexedFaceSet {
        ccw TRUE
        solid FALSE
        coord DEF co Coordinate {
            point [
                -0.1805 0.4776 0.1575, -0.1805 0.4776 0.1614, -0.1791 0.4767 0.1614, -0.175 0.4757 0.1614, -0.175 0.4757 0.1575, -0.1769 0.476 0.1575, -0.1769 0.476 0.1614, -0.179 0.4767 0.1575, -0.1791 0.4767 0.1575, -0.1805 0.4741 0.1614, -0.1805 0.4741 0.1575, -0.179 0.4736 0.1575, -0.1781 0.4733 0.1614, -0.1753 0.473 0.1575, -0.1753 0.473 0.1614, -0.1775 0.4732 0.1575, -0.1781 0.4733 0.1575, -0.1734 0.4732 0.1575, -0.1723 0.4734 0.1614, -0.1723 0.4734 0.1575, -0.1706 0.4741 0.1575, -0.1706 0.4741 0.1614, -0.1698 0.4745 0.1575, -0.1698 0.4745 0.1614, -0.1688 0.4754 0.1575, -0.1688 0.4754 0.1614, -0.1682 0.4763 0.1575, -0.1682 0.4763 0.1614, -0.1678 0.4773 0.1575, -0.1678 0.4773 0.1614, -0.1676 0.4787 0.1575, -0.1676 0.4787 0.1614, -0.1678 0.4799 0.1575, -0.1678 0.4799 0.1614, -0.1681 0.4809 0.1575, -0.1681 0.4809 0.1614, -0.1687 0.4818 0.1575, -0.1687 0.4818 0.1614, -0.1695 0.4825 0.1575, -0.1695 0.4825 0.1614, -0.1718 0.4838 0.1575, -0.1718 0.4838 0.1614, -0.1731 0.4843 0.1575, -0.1731 0.4843 0.1614, -0.1751 0.4852 0.1575, -0.1751 0.4852 0.1614, -0.1763 0.4859 0.1575, -0.1763 0.4859 0.1614, -0.1766 0.4863 0.1575, -0.1766 0.4863 0.1614, -0.1769 0.4867 0.1575, -0.1769 0.4867 0.1614, -0.177 0.4872 0.1575, -0.177 0.4872 0.1614, -0.177 0.4877 0.1575, -0.177 0.4877 0.1614, -0.177 0.4882 0.1575, -0.177 0.4882 0.1614, -0.1768 0.4887 0.1575, -0.1768 0.4887 0.1614, -0.1765 0.4891 0.1575, -0.1765 0.4891 0.1614, -0.176 0.4895 0.1575, -0.176 0.4895 0.1614, -0.1753 0.4899 0.1575, -0.1753 0.4899 0.1614, -0.1744 0.4902 0.1575, -0.1744 0.4902 0.1614, -0.1734 0.4903 0.1575, -0.1734 0.4903 0.1614, -0.1714 0.49 0.1575, -0.1714 0.49 0.1614, -0.1695 0.4894 0.1575, -0.1695 0.4894 0.1614, -0.1685 0.4889 0.1575, -0.1685 0.4889 0.1614, -0.1685 0.4921 0.1614, -0.1685 0.4921 0.1575, -0.1707 0.4928 0.1575, -0.1707 0.4928 0.1614, -0.1731 0.493 0.1575, -0.1731 0.493 0.1614, -0.1757 0.4926 0.1575, -0.1757 0.4926 0.1614, -0.1775 0.492 0.1575, -0.1775 0.492 0.1614, -0.1783 0.4915 0.1575, -0.1783 0.4915 0.1614, -0.179 0.4909 0.1575, -0.1793 0.4906 0.1614, -0.1793 0.4906 0.1575, -0.1799 0.4897 0.1575, -0.1799 0.4897 0.1614, -0.1803 0.4886 0.1575, -0.1803 0.4886 0.1614, -0.1805 0.4874 0.1575, -0.1805 0.4874 0.1614, -0.1803 0.4861 0.1575, -0.1803 0.4861 0.1614, -0.18 0.4851 0.1575, -0.18 0.4851 0.1614, -0.1795 0.4844 0.1575, -0.1795 0.4844 0.1614, -0.1754 0.4818 0.1575, -0.1754 0.4818 0.1614, -0.1774 0.4828 0.1614, -0.179 0.4838 0.1575, -0.179 0.4838 0.1614, -0.179 0.4838 0.1575, -0.1774 0.4828 0.1575, -0.1732 0.4809 0.1575, -0.1732 0.4809 0.1614, -0.1719 0.4801 0.1575, -0.1719 0.4801 0.1614, -0.1715 0.4797 0.1575, -0.1715 0.4797 0.1614, -0.1712 0.4793 0.1575, -0.1712 0.4793 0.1614, -0.1711 0.4787 0.1575, -0.1711 0.4787 0.1614, -0.1711 0.4783 0.1575, -0.1711 0.4783 0.1614, -0.1711 0.4777 0.1575, -0.1711 0.4777 0.1614, -0.1713 0.4772 0.1575, -0.1713 0.4772 0.1614, -0.1716 0.4768 0.1575, -0.1716 0.4768 0.1614, -0.172 0.4764 0.1575, -0.172 0.4764 0.1614, -0.1723 0.4763 0.1575, -0.1723 0.4763 0.1614, -0.1731 0.4759 0.1575, -0.1731 0.4759 0.1614, -0.1749 0.4757 0.1575, -0.1749 0.4757 0.1614, -0.1511 0.4925 0.1614, -0.1476 0.4925 0.1614, -0.1511 0.4925 0.1575, -0.1476 0.4925 0.1575, -0.1563 0.4782 0.1614, -0.1563 0.4782 0.1575, -0.1565 0.4773 0.1575, -0.1565 0.4773 0.1614, -0.1567 0.4766 0.1575, -0.1567 0.4766 0.1614, -0.1568 0.4766 0.1614, -0.1568 0.4766 0.1575, -0.1572 0.4782 0.1614, -0.1572 0.4782 0.1575, -0.1621 0.4925 0.1614, -0.1605 0.4879 0.1575, -0.1621 0.4925 0.1575, -0.1659 0.4925 0.1614, -0.1659 0.4925 0.1575, -0.1584 0.4735 0.1614, -0.1605 0.4789 0.1575, -0.1584 0.4735 0.1575, -0.1599 0.47 0.1575, -0.1599 0.47 0.1614, -0.1585 0.4732 0.1575, -0.1605 0.4688 0.1575, -0.1605 0.4688 0.1614, -0.1605 0.4688 0.1575, -0.1612 0.4681 0.1575, -0.1612 0.4681 0.1614, -0.1617 0.4678 0.1575, -0.1617 0.4678 0.1614, -0.1624 0.4675 0.1575, -0.1624 0.4675 0.1614, -0.1633 0.4674 0.1575, -0.1633 0.4674 0.1614, -0.1645 0.4675 0.1575, -0.1645 0.4675 0.1614, -0.1652 0.4677 0.1575, -0.1652 0.4677 0.1614, -0.1652 0.4648 0.1614, -0.1652 0.4648 0.1575, -0.1638 0.4645 0.1575, -0.1638 0.4645 0.1614, -0.163 0.4645 0.1575, -0.163 0.4645 0.1614, -0.1617 0.4646 0.1575, -0.1617 0.4646 0.1614, -0.1605 0.4651 0.1575, -0.1604 0.4651 0.1614, -0.1604 0.4651 0.1575, -0.1592 0.466 0.1575, -0.1592 0.466 0.1614, -0.159 0.4662 0.1575, -0.159 0.4662 0.1614, -0.1578 0.4676 0.1575, -0.1578 0.4676 0.1614, -0.1562 0.4706 0.1575, -0.1562 0.4706 0.1614, -0.1552 0.4732 0.1575, -0.1296 0.4765 0.1614, -0.1296 0.4735 0.1614, -0.1296 0.4765 0.1575, -0.1296 0.4735 0.1575, -0.1405 0.4765 0.1614, -0.1355 0.4765 0.1575, -0.1405 0.4765 0.1575, -0.1405 0.4855 0.1614, -0.1405 0.4855 0.1575, -0.131 0.4855 0.1614, -0.1355 0.4855 0.1575, -0.131 0.4855 0.1575, -0.131 0.4885 0.1614, -0.131 0.4885 0.1575, -0.1405 0.4885 0.1575, -0.1405 0.4885 0.1614, -0.1355 0.4885 0.1575, -0.1405 0.4971 0.1575, -0.1405 0.4971 0.1614, -0.1405 0.4966 0.1575, -0.1302 0.4971 0.1575, -0.1302 0.4971 0.1614, -0.1355 0.4971 0.1575, -0.1302 0.5002 0.1614, -0.1302 0.5002 0.1575, -0.144 0.5002 0.1575, -0.144 0.5002 0.1614, -0.1355 0.5002 0.1575, -0.144 0.4735 0.1575, -0.144 0.4735 0.1614, -0.144 0.4966 0.1575, -0.1355 0.4735 0.1575, -0.1069 0.4772 0.1614, -0.1096 0.479 0.1614, -0.1097 0.4752 0.1614, -0.1114 0.4778 0.1614, -0.1127 0.474 0.1614, -0.1136 0.477 0.1614, -0.1172 0.4735 0.1614, -0.1173 0.4765 0.1614, -0.1246 0.4735 0.1614, -0.1211 0.4765 0.1614, -0.1246 0.5002 0.1614, -0.1211 0.4971 0.1614, -0.117 0.5002 0.1614, -0.1171 0.4971 0.1614, -0.1161 0.4971 0.1614, -0.1129 0.4997 0.1614, -0.1133 0.4966 0.1614, -0.1097 0.4985 0.1614, -0.1111 0.4957 0.1614, -0.1069 0.4966 0.1614, -0.1094 0.4946 0.1614, -0.1059 0.4957 0.1614, -0.1087 0.4939 0.1614, -0.1043 0.4934 0.1614, -0.1076 0.4924 0.1614, -0.1033 0.4908 0.1614, -0.1069 0.4904 0.1614, -0.1029 0.4872 0.1614, -0.1065 0.4871 0.1614, -0.1029 0.4855 0.1614, -0.1066 0.4851 0.1614, -0.1036 0.4823 0.1614, -0.1072 0.4827 0.1614, -0.1049 0.4796 0.1614, -0.1081 0.4808 0.1614, -0.1093 0.4793 0.1614, -0.1172 0.4735 0.1575, -0.1246 0.4735 0.1575, -0.1127 0.474 0.1575, -0.1097 0.4752 0.1575, -0.1069 0.4772 0.1575, -0.1049 0.4796 0.1575, -0.1036 0.4823 0.1575, -0.1029 0.4855 0.1575, -0.1029 0.4872 0.1575, -0.1069 0.4966 0.1575, -0.1068 0.4966 0.1575, -0.1059 0.4957 0.1575, -0.1043 0.4934 0.1575, -0.1033 0.4908 0.1575, -0.1097 0.4985 0.1575, -0.1129 0.4997 0.1575, -0.117 0.5002 0.1575, -0.1246 0.5002 0.1575, -0.1246 0.4966 0.1575, -0.1171 0.4971 0.1575, -0.1211 0.4971 0.1575, -0.1211 0.4765 0.1575, -0.1173 0.4765 0.1575, -0.1093 0.4793 0.1575, -0.1096 0.479 0.1575, -0.1114 0.4778 0.1575, -0.1136 0.477 0.1575, -0.1065 0.4871 0.1575, -0.1066 0.4851 0.1575, -0.1072 0.4827 0.1575, -0.1081 0.4808 0.1575, -0.1094 0.4946 0.1575, -0.1087 0.4939 0.1575, -0.1076 0.4924 0.1575, -0.1069 0.4904 0.1575, -0.1161 0.4971 0.1575, -0.1133 0.4966 0.1575, -0.1111 0.4957 0.1575
            ]
        }
        coordIndex [
            0,1,2,-1,3,4,5,-1,3,5,6,-1,6,5,7,-1,6,7,2,-1,2,7,8,-1,2,8,0,-1,9,1,10,-1,10,1,0,-1,10,11,9,-1,9,11,12,-1,13,14,15,-1,15,14,12,-1,15,12,16,-1,16,12,11,-1,13,17,14,-1,14,17,18,-1,17,19,18,-1,18,19,20,-1,18,20,21,-1,21,20,22,-1,21,22,23,-1,23,22,24,-1,23,24,25,-1,25,24,26,-1,25,26,27,-1,27,26,28,-1,27,28,29,-1,29,28,30,-1,29,30,31,-1,31,30,32,-1,31,32,33,-1,33,32,34,-1,33,34,35,-1,35,34,36,-1,35,36,37,-1,37,36,38,-1,37,38,39,-1,39,38,40,-1,39,40,41,-1,41,40,42,-1,41,42,43,-1,43,42,44,-1,43,44,45,-1,45,44,46,-1,45,46,47,-1,47,46,48,-1,47,48,49,-1,49,48,50,-1,49,50,51,-1,51,50,52,-1,51,52,53,-1,53,52,54,-1,53,54,55,-1,55,54,56,-1,55,56,57,-1,57,56,58,-1,57,58,59,-1,59,58,60,-1,59,60,61,-1,61,60,62,-1,61,62,63,-1,63,62,64,-1,63,64,65,-1,65,64,66,-1,65,66,67,-1,67,66,68,-1,67,68,69,-1,69,68,70,-1,69,70,71,-1,71,70,72,-1,71,72,73,-1,73,72,74,-1,73,74,75,-1,76,75,77,-1,77,75,74,-1,76,77,78,-1,76,78,79,-1,79,78,80,-1,79,80,81,-1,81,80,82,-1,81,82,83,-1,83,82,84,-1,83,84,85,-1,85,84,86,-1,85,86,87,-1,86,88,87,-1,87,88,89,-1,88,90,89,-1,89,90,91,-1,89,91,92,-1,92,91,93,-1,92,93,94,-1,94,93,95,-1,94,95,96,-1,96,95,97,-1,96,97,98,-1,98,97,99,-1,98,99,100,-1,100,99,101,-1,100,101,102,-1,103,104,105,-1,102,101,106,-1,102,106,107,-1,107,106,108,-1,107,108,105,-1,105,108,109,-1,105,109,103,-1,104,103,110,-1,104,110,111,-1,111,110,112,-1,111,112,113,-1,113,112,114,-1,113,114,115,-1,115,114,116,-1,115,116,117,-1,117,116,118,-1,117,118,119,-1,119,118,120,-1,119,120,121,-1,121,120,122,-1,121,122,123,-1,123,122,124,-1,123,124,125,-1,125,124,126,-1,125,126,127,-1,127,126,128,-1,127,128,129,-1,129,128,130,-1,129,130,131,-1,131,130,132,-1,131,132,133,-1,133,132,134,-1,133,134,135,-1,135,134,4,-1,135,4,3,-1,61,63,85,-1,85,63,83,-1,111,43,104,-1,104,43,45,-1,21,23,127,-1,127,23,25,-1,127,25,125,-1,125,25,27,-1,125,27,123,-1,123,27,29,-1,123,29,121,-1,121,29,31,-1,121,31,119,-1,119,31,33,-1,119,33,117,-1,117,33,35,-1,117,35,115,-1,115,35,37,-1,115,37,113,-1,113,37,39,-1,113,39,111,-1,111,39,41,-1,111,41,43,-1,14,3,12,-1,12,3,6,-1,12,6,9,-1,9,6,2,-1,9,2,1,-1,63,65,83,-1,83,65,67,-1,83,67,81,-1,81,67,69,-1,81,69,79,-1,79,69,71,-1,79,71,76,-1,76,71,73,-1,76,73,75,-1,127,129,21,-1,21,129,131,-1,21,131,18,-1,18,131,133,-1,18,133,14,-1,14,133,135,-1,14,135,3,-1,85,87,61,-1,61,87,89,-1,61,89,59,-1,59,89,92,-1,59,92,57,-1,57,92,94,-1,57,94,55,-1,55,94,96,-1,55,96,53,-1,53,96,98,-1,53,98,51,-1,51,98,100,-1,51,100,49,-1,49,100,102,-1,49,102,47,-1,47,102,107,-1,47,107,45,-1,45,107,105,-1,45,105,104,-1,136,137,138,-1,138,137,139,-1,140,136,141,-1,141,136,138,-1,140,141,142,-1,140,142,143,-1,143,142,144,-1,143,144,145,-1,146,145,147,-1,147,145,144,-1,148,146,149,-1,149,146,147,-1,148,149,150,-1,150,149,151,-1,150,151,152,-1,153,150,154,-1,154,150,152,-1,153,154,155,-1,155,154,156,-1,155,156,157,-1,158,159,160,-1,160,159,155,-1,160,155,157,-1,158,161,159,-1,159,161,162,-1,161,163,162,-1,162,163,164,-1,162,164,165,-1,165,164,166,-1,165,166,167,-1,167,166,168,-1,167,168,169,-1,169,168,170,-1,169,170,171,-1,171,170,172,-1,171,172,173,-1,173,172,174,-1,173,174,175,-1,176,175,177,-1,177,175,174,-1,176,177,178,-1,176,178,179,-1,179,178,180,-1,179,180,181,-1,181,180,182,-1,181,182,183,-1,183,182,184,-1,183,184,185,-1,184,186,185,-1,185,186,187,-1,185,187,188,-1,188,187,189,-1,188,189,190,-1,190,189,191,-1,190,191,192,-1,192,191,193,-1,192,193,194,-1,139,137,195,-1,195,137,194,-1,195,194,193,-1,143,145,194,-1,137,136,194,-1,194,136,140,-1,194,140,143,-1,150,153,148,-1,148,153,155,-1,148,155,146,-1,175,176,173,-1,173,176,179,-1,173,179,171,-1,171,179,181,-1,171,181,169,-1,169,181,183,-1,169,183,167,-1,167,183,185,-1,167,185,165,-1,145,146,194,-1,194,146,155,-1,194,155,192,-1,155,159,192,-1,192,159,162,-1,192,162,190,-1,190,162,165,-1,190,165,188,-1,188,165,185,-1,196,197,198,-1,198,197,199,-1,196,198,200,-1,200,198,201,-1,200,201,202,-1,203,200,204,-1,204,200,202,-1,203,204,205,-1,205,204,206,-1,205,206,207,-1,208,205,209,-1,209,205,207,-1,210,211,212,-1,212,211,208,-1,212,208,209,-1,213,214,215,-1,215,214,211,-1,215,211,210,-1,216,217,218,-1,218,217,214,-1,218,214,213,-1,219,217,220,-1,220,217,216,-1,221,222,223,-1,223,222,219,-1,223,219,220,-1,224,225,226,-1,226,225,222,-1,226,222,221,-1,225,224,197,-1,197,224,227,-1,197,227,199,-1,225,197,196,-1,196,200,225,-1,225,200,203,-1,225,203,222,-1,217,219,214,-1,214,219,222,-1,214,222,211,-1,211,222,203,-1,211,203,208,-1,208,203,205,-1,228,229,230,-1,230,229,231,-1,230,231,232,-1,232,231,233,-1,232,233,234,-1,234,233,235,-1,234,235,236,-1,236,235,237,-1,236,237,238,-1,238,237,239,-1,238,239,240,-1,239,241,240,-1,240,241,242,-1,240,242,243,-1,243,242,244,-1,243,244,245,-1,245,244,246,-1,245,246,247,-1,247,246,248,-1,247,248,249,-1,249,248,250,-1,249,250,251,-1,251,250,252,-1,251,252,253,-1,253,252,254,-1,253,254,255,-1,255,254,256,-1,255,256,257,-1,257,256,258,-1,257,258,259,-1,259,258,260,-1,259,260,261,-1,261,260,262,-1,261,262,228,-1,228,262,263,-1,228,263,229,-1,234,236,264,-1,264,236,265,-1,234,264,266,-1,234,266,232,-1,232,266,267,-1,232,267,230,-1,230,267,268,-1,230,268,228,-1,228,268,269,-1,228,269,261,-1,261,269,270,-1,261,270,259,-1,259,270,271,-1,259,271,257,-1,257,271,272,-1,257,272,255,-1,273,247,274,-1,274,247,249,-1,274,249,275,-1,275,249,251,-1,275,251,276,-1,276,251,253,-1,276,253,277,-1,277,253,255,-1,277,255,272,-1,247,273,278,-1,247,278,245,-1,245,278,279,-1,245,279,243,-1,243,279,280,-1,243,280,240,-1,238,240,281,-1,281,240,280,-1,265,236,282,-1,282,236,238,-1,282,238,281,-1,241,239,283,-1,283,239,284,-1,239,237,284,-1,284,237,285,-1,237,235,285,-1,285,235,286,-1,263,287,288,-1,263,288,229,-1,229,288,289,-1,229,289,231,-1,231,289,290,-1,231,290,233,-1,233,290,286,-1,233,286,235,-1,256,291,292,-1,256,292,258,-1,258,292,293,-1,258,293,260,-1,260,293,294,-1,260,294,262,-1,262,294,287,-1,262,287,263,-1,248,295,296,-1,248,296,250,-1,250,296,297,-1,250,297,252,-1,252,297,298,-1,252,298,254,-1,254,298,291,-1,254,291,256,-1,241,283,299,-1,241,299,242,-1,242,299,300,-1,242,300,244,-1,244,300,301,-1,244,301,246,-1,246,301,295,-1,246,295,248,-1,
        ]
    }
}
Shape{
    appearance Appearance {
        material  Material 	{
            diffuseColor 0.25098039215686274 0.25098039215686274 0.25098039215686274
            specularColor 0.12549019607843137 0.12549019607843137 0.12549019607843137
            ambientIntensity 0.251
            transparency 0.0
            shininess 0.5
        }
    }
    geometry IndexedFaceSet {
        ccw TRUE
        solid FALSE
        coord DEF co Coordinate {
            point [
                -0.1171 0.4971 0.1575, -0.1211 0.4971 0.1575, -0.1211 0.4765 0.1575, -0.1072 0.4827 0.1575, -0.1066 0.4851 0.1575, -0.1161 0.4971 0.1575, -0.1173 0.4765 0.1575, -0.1136 0.477 0.1575, -0.1114 0.4778 0.1575, -0.1096 0.479 0.1575, -0.1093 0.4793 0.1575, -0.1081 0.4808 0.1575, -0.1094 0.4946 0.1575, -0.1065 0.4871 0.1575, -0.1111 0.4957 0.1575, -0.1133 0.4966 0.1575, -0.1069 0.4904 0.1575, -0.1076 0.4924 0.1575, -0.1087 0.4939 0.1575
            ]
        }
        coordIndex [
            0,1,2,-1,3,4,5,-1,2,6,0,-1,0,6,7,-1,0,7,8,-1,8,9,0,-1,0,9,10,-1,0,10,5,-1,5,10,11,-1,5,11,3,-1,12,4,13,-1,12,14,4,-1,4,14,15,-1,4,15,5,-1,16,17,13,-1,13,17,18,-1,13,18,12,-1,
        ]
    }
}
Shape{
    appearance Appearance {
        material  Material 	{
            diffuseColor 1.0 1.0 1.0
            specularColor 0.5019607843137255 0.5019607843137255 0.5019607843137255
            ambientIntensity 1.0
            transparency 0.0
            shininess 0.5
        }
    }
    geometry IndexedFaceSet {
        ccw TRUE
        solid FALSE
        coord DEF co Coordinate {
            point [
                -0.0939 0.4838 0.1614, -0.095 0.4808 0.1614, -0.085 0.4838 0.1614, -0.0839 0.4808 0.1614, -0.0899 0.4949 0.1614, -0.0912 0.5002 0.1614, -0.1014 0.4735 0.1614, -0.0976 0.4735 0.1614, -0.0897 0.4957 0.1614, -0.0895 0.4967 0.1614, -0.0875 0.5002 0.1614, -0.0894 0.4967 0.1614, -0.0892 0.4956 0.1614, -0.089 0.4949 0.1614, -0.0774 0.4735 0.1614, -0.0812 0.4735 0.1614, -0.0774 0.4735 0.1575, -0.0862 0.4966 0.1575, -0.0875 0.5002 0.1575, -0.0912 0.5002 0.1575, -0.1014 0.4735 0.1575, -0.0926 0.4966 0.1575, -0.0976 0.4735 0.1575, -0.095 0.4808 0.1575, -0.0839 0.4808 0.1575, -0.0812 0.4735 0.1575, -0.0939 0.4838 0.1575, -0.085 0.4838 0.1575, -0.089 0.4949 0.1575, -0.0894 0.4967 0.1575, -0.0892 0.4956 0.1575, -0.0895 0.4967 0.1575, -0.0899 0.4949 0.1575, -0.0897 0.4957 0.1575
            ]
        }
        coordIndex [
            0,1,2,-1,2,1,3,-1,4,5,0,-1,0,5,6,-1,0,6,1,-1,1,6,7,-1,4,8,5,-1,5,8,9,-1,5,9,10,-1,10,9,11,-1,10,11,12,-1,12,13,10,-1,10,13,2,-1,10,2,14,-1,14,2,3,-1,14,3,15,-1,14,16,10,-1,10,16,17,-1,10,17,18,-1,5,10,19,-1,19,10,18,-1,20,6,21,-1,21,6,5,-1,21,5,19,-1,7,6,22,-1,22,6,20,-1,1,7,23,-1,23,7,22,-1,3,1,24,-1,24,1,23,-1,15,3,25,-1,25,3,24,-1,14,15,16,-1,16,15,25,-1,0,2,26,-1,26,2,27,-1,2,13,27,-1,27,13,28,-1,11,29,30,-1,11,30,12,-1,12,30,28,-1,12,28,13,-1,11,9,29,-1,29,9,31,-1,4,32,33,-1,4,33,8,-1,8,33,31,-1,8,31,9,-1,4,0,32,-1,32,0,26,-1,
        ]
    }
}
Shape{
    appearance Appearance {
        material  Material 	{
            diffuseColor 0.25098039215686274 0.25098039215686274 0.25098039215686274
            specularColor 0.12549019607843137 0.12549019607843137 0.12549019607843137
            ambientIntensity 0.251
            transparency 0.0
            shininess 0.5
        }
    }
    geometry IndexedFaceSet {
        ccw TRUE
        solid FALSE
        coord DEF co Coordinate {
            point [
                -0.0894 0.4967 0.1575, -0.0895 0.4967 0.1575, -0.0892 0.4956 0.1575, -0.0897 0.4957 0.1575, -0.089 0.4949 0.1575, -0.0899 0.4949 0.1575, -0.085 0.4838 0.1575, -0.0939 0.4838 0.1575
            ]
        }
        coordIndex [
            0,1,2,-1,2,1,3,-1,2,3,4,-1,4,3,5,-1,4,5,6,-1,6,5,7,-1,
        ]
    }
}
Shape{
    appearance Appearance {
        material  Material 	{
            diffuseColor 1.0 1.0 1.0
            specularColor 0.5019607843137255 0.5019607843137255 0.5019607843137255
            ambientIntensity 1.0
            transparency 0.0
            shininess 0.5
        }
    }
    geometry IndexedFaceSet {
        ccw TRUE
        solid FALSE
        coord DEF co Coordinate {
            point [
                -0.3358 0.4697 0.1614, -0.333 0.4662 0.1614, -0.3375 0.4865 0.1614, -0.269 0.5198 0.1614, -0.2678 0.5146 0.1614, -0.2585 0.5248 0.1614, -0.3408 0.5195 0.1614, -0.3365 0.5217 0.1614, -0.3373 0.5334 0.1614, -0.3007 0.4798 0.1614, -0.3007 0.4817 0.1614, -0.3167 0.4863 0.1614, -0.3185 0.4869 0.1614, -0.3301 0.5343 0.1614, -0.3139 0.484 0.1614, -0.313 0.4825 0.1614, -0.3008 0.4779 0.1614, -0.2741 0.4958 0.1614, -0.28 0.5058 0.1614, -0.3054 0.4925 0.1614, -0.3198 0.487 0.1614, -0.3248 0.4741 0.1614, -0.3233 0.4731 0.1614, -0.3292 0.4634 0.1614, -0.3215 0.4724 0.1614, -0.3215 0.4868 0.1614, -0.3242 0.4984 0.1614, -0.3232 0.4862 0.1614, -0.3284 0.4968 0.1614, -0.3247 0.4852 0.1614, -0.3322 0.4941 0.1614, -0.3259 0.4839 0.1614, -0.3354 0.4906 0.1614, -0.3268 0.4823 0.1614, -0.3272 0.4805 0.1614, -0.3416 0.489 0.1614, -0.3404 0.4746 0.1614, -0.3377 0.4738 0.1614, -0.3151 0.4853 0.1614, -0.3128 0.4977 0.1614, -0.3173 0.4989 0.1614, -0.3196 0.499 0.1614, -0.2663 0.5146 0.1614, -0.2627 0.5141 0.1614, -0.2576 0.5245 0.1614, -0.2594 0.5128 0.1614, -0.252 0.5217 0.1614, -0.2468 0.5173 0.1614, -0.3076 0.5349 0.1614, -0.3174 0.5423 0.1614, -0.3127 0.5311 0.1614, -0.3218 0.5384 0.1614, -0.3169 0.5261 0.1614, -0.3257 0.5339 0.1614, -0.3198 0.5201 0.1614, -0.3319 0.5228 0.1614, -0.3299 0.5229 0.1614, -0.3279 0.5342 0.1614, -0.3255 0.5224 0.1614, -0.3212 0.5208 0.1614, -0.2468 0.4819 0.1614, -0.2556 0.4894 0.1614, -0.2519 0.4775 0.1614, -0.2584 0.4871 0.1614, -0.2577 0.4747 0.1614, -0.2618 0.4856 0.1614, -0.264 0.4734 0.1614, -0.2652 0.485 0.1614, -0.2752 0.4734 0.1614, -0.2737 0.485 0.1614, -0.2763 0.4735 0.1614, -0.3483 0.5085 0.1614, -0.3608 0.5056 0.1614, -0.3489 0.5039 0.1614, -0.3608 0.5035 0.1614, -0.3486 0.501 0.1614, -0.36 0.4964 0.1614, -0.3473 0.4964 0.1614, -0.3573 0.4893 0.1614, -0.345 0.4925 0.1614, -0.3529 0.4829 0.1614, -0.3472 0.478 0.1614, -0.3087 0.4956 0.1614, -0.2565 0.5108 0.1614, -0.2543 0.5083 0.1614, -0.2429 0.5119 0.1614, -0.2525 0.505 0.1614, -0.2406 0.5061 0.1614, -0.2516 0.5014 0.1614, -0.2398 0.4999 0.1614, -0.2515 0.4998 0.1614, -0.2406 0.4932 0.1614, -0.252 0.4961 0.1614, -0.243 0.4872 0.1614, -0.2533 0.4927 0.1614, -0.2554 0.4897 0.1614, -0.3443 0.5308 0.1614, -0.3504 0.5266 0.1614, -0.3441 0.5165 0.1614, -0.3519 0.5252 0.1614, -0.3467 0.5127 0.1614, -0.3564 0.5195 0.1614, -0.3594 0.5127 0.1614, -0.326 0.4755 0.1614, -0.3268 0.4771 0.1614, -0.3272 0.4788 0.1614, -0.2719 0.5259 0.1614, -0.262 0.5317 0.1614, -0.2762 0.5311 0.1614, -0.268 0.5391 0.1614, -0.2767 0.5315 0.1614, -0.2688 0.5398 0.1614, -0.282 0.5352 0.1614, -0.2773 0.5455 0.1614, -0.288 0.5375 0.1614, -0.2868 0.5488 0.1614, -0.2944 0.5383 0.1614, -0.2946 0.5497 0.1614, -0.3014 0.5374 0.1614, -0.3027 0.5488 0.1614, -0.3115 0.5457 0.1614, -0.3125 0.4807 0.1614, -0.3125 0.4789 0.1614, -0.3019 0.4732 0.1614, -0.3129 0.4771 0.1614, -0.3041 0.469 0.1614, -0.3138 0.4754 0.1614, -0.307 0.4657 0.1614, -0.315 0.474 0.1614, -0.3108 0.463 0.1614, -0.3165 0.4731 0.1614, -0.3151 0.4614 0.1614, -0.3181 0.4724 0.1614, -0.3196 0.4609 0.1614, -0.3198 0.4722 0.1614, -0.3204 0.4609 0.1614, -0.3249 0.4616 0.1614, -0.2747 0.4851 0.1614, -0.2792 0.4754 0.1614, -0.2788 0.4749 0.1614, -0.2741 0.485 0.1614, -0.2776 0.474 0.1614, -0.2807 0.4793 0.1614, -0.2806 0.4778 0.1614, -0.2801 0.4766 0.1614, -0.2763 0.485 0.1614, -0.2776 0.4844 0.1614, -0.2807 0.48 0.1614, -0.2788 0.4836 0.1614, -0.2796 0.4827 0.1614, -0.2803 0.4815 0.1614, -0.2749 0.4851 0.1614, -0.2398 0.4999 0.1575, -0.2406 0.5061 0.1575, -0.2429 0.5119 0.1575, -0.2456 0.5156 0.1575, -0.2468 0.5173 0.1575, -0.252 0.5217 0.1575, -0.2576 0.5245 0.1575, -0.2585 0.5248 0.1575, -0.262 0.5317 0.1575, -0.268 0.5391 0.1575, -0.2688 0.5398 0.1575, -0.2732 0.5427 0.1575, -0.2773 0.5455 0.1575, -0.2868 0.5488 0.1575, -0.2946 0.5497 0.1575, -0.3174 0.5423 0.1575, -0.3166 0.5427 0.1575, -0.3115 0.5457 0.1575, -0.3027 0.5488 0.1575, -0.3218 0.5384 0.1575, -0.3257 0.5339 0.1575, -0.3279 0.5342 0.1575, -0.3301 0.5343 0.1575, -0.3519 0.5252 0.1575, -0.3373 0.5334 0.1575, -0.3443 0.5308 0.1575, -0.3449 0.5304 0.1575, -0.3504 0.5266 0.1575, -0.3564 0.5195 0.1575, -0.3581 0.5156 0.1575, -0.3594 0.5127 0.1575, -0.3608 0.5056 0.1575, -0.3608 0.5035 0.1575, -0.36 0.4966 0.1575, -0.36 0.4964 0.1575, -0.3573 0.4893 0.1575, -0.3529 0.4829 0.1575, -0.3377 0.4738 0.1575, -0.3472 0.478 0.1575, -0.3449 0.4768 0.1575, -0.3404 0.4746 0.1575, -0.3374 0.4732 0.1575, -0.3358 0.4697 0.1575, -0.333 0.4662 0.1575, -0.3292 0.4634 0.1575, -0.3275 0.4627 0.1575, -0.3249 0.4616 0.1575, -0.3204 0.4609 0.1575, -0.3196 0.4609 0.1575, -0.3007 0.4798 0.1575, -0.3151 0.4614 0.1575, -0.3118 0.4627 0.1575, -0.3108 0.463 0.1575, -0.307 0.4657 0.1575, -0.3041 0.469 0.1575, -0.3019 0.4732 0.1575, -0.3019 0.4732 0.1575, -0.3008 0.4779 0.1575, -0.3007 0.4817 0.1575, -0.2741 0.4958 0.1575, -0.28 0.5058 0.1575, -0.2746 0.4966 0.1575, -0.2977 0.4966 0.1575, -0.3054 0.4925 0.1575, -0.3087 0.4956 0.1575, -0.3106 0.4966 0.1575, -0.3128 0.4977 0.1575, -0.3173 0.4989 0.1575, -0.3196 0.499 0.1575, -0.3242 0.4984 0.1575, -0.3284 0.4968 0.1575, -0.3288 0.4966 0.1575, -0.3322 0.4941 0.1575, -0.3354 0.4906 0.1575, -0.3375 0.4865 0.1575, -0.3489 0.5039 0.1575, -0.3416 0.489 0.1575, -0.3449 0.4923 0.1575, -0.345 0.4925 0.1575, -0.3473 0.4964 0.1575, -0.3473 0.4966 0.1575, -0.3486 0.501 0.1575, -0.3483 0.5085 0.1575, -0.3467 0.5127 0.1575, -0.3449 0.5154 0.1575, -0.3447 0.5156 0.1575, -0.3441 0.5165 0.1575, -0.3408 0.5195 0.1575, -0.3365 0.5217 0.1575, -0.3319 0.5228 0.1575, -0.3299 0.5229 0.1575, -0.3255 0.5224 0.1575, -0.3212 0.5208 0.1575, -0.3198 0.5201 0.1575, -0.3169 0.5261 0.1575, -0.3127 0.5311 0.1575, -0.3076 0.5349 0.1575, -0.3014 0.5374 0.1575, -0.2944 0.5383 0.1575, -0.2678 0.5146 0.1575, -0.2681 0.5156 0.1575, -0.269 0.5198 0.1575, -0.2719 0.5259 0.1575, -0.2762 0.5311 0.1575, -0.2767 0.5315 0.1575, -0.282 0.5352 0.1575, -0.288 0.5375 0.1575, -0.2663 0.5146 0.1575, -0.2627 0.5141 0.1575, -0.2594 0.5128 0.1575, -0.2565 0.5108 0.1575, -0.2543 0.5083 0.1575, -0.2525 0.505 0.1575, -0.2516 0.5014 0.1575, -0.2515 0.4998 0.1575, -0.2519 0.4966 0.1575, -0.252 0.4961 0.1575, -0.2533 0.4927 0.1575, -0.2554 0.4897 0.1575, -0.2556 0.4894 0.1575, -0.2584 0.4871 0.1575, -0.2618 0.4856 0.1575, -0.2652 0.485 0.1575, -0.2737 0.485 0.1575, -0.2741 0.485 0.1575, -0.2747 0.4851 0.1575, -0.2749 0.4851 0.1575, -0.2763 0.485 0.1575, -0.2776 0.4844 0.1575, -0.2788 0.4836 0.1575, -0.2796 0.4827 0.1575, -0.2803 0.4815 0.1575, -0.2807 0.48 0.1575, -0.2807 0.4793 0.1575, -0.2806 0.4778 0.1575, -0.2801 0.4766 0.1575, -0.2792 0.4754 0.1575, -0.2788 0.4749 0.1575, -0.2776 0.474 0.1575, -0.2763 0.4735 0.1575, -0.2752 0.4734 0.1575, -0.264 0.4734 0.1575, -0.2577 0.4747 0.1575, -0.2519 0.4775 0.1575, -0.2468 0.4819 0.1575, -0.243 0.4872 0.1575, -0.2406 0.4932 0.1575, -0.2402 0.4966 0.1575, -0.3198 0.487 0.1575, -0.3185 0.4869 0.1575, -0.3167 0.4863 0.1575, -0.3151 0.4853 0.1575, -0.3139 0.484 0.1575, -0.313 0.4825 0.1575, -0.3125 0.4807 0.1575, -0.3125 0.4789 0.1575, -0.3129 0.4771 0.1575, -0.3138 0.4754 0.1575, -0.315 0.474 0.1575, -0.3165 0.4731 0.1575, -0.3181 0.4724 0.1575, -0.3198 0.4722 0.1575, -0.3215 0.4724 0.1575, -0.3233 0.4731 0.1575, -0.3248 0.4741 0.1575, -0.326 0.4755 0.1575, -0.3268 0.4771 0.1575, -0.3272 0.4788 0.1575, -0.3272 0.4805 0.1575, -0.3268 0.4823 0.1575, -0.3259 0.4839 0.1575, -0.3247 0.4852 0.1575, -0.3232 0.4862 0.1575, -0.3215 0.4868 0.1575
            ]
        }
        coordIndex [
            0,1,2,-1,3,4,5,-1,6,7,8,-1,9,10,11,-1,11,10,12,-1,8,7,13,-1,14,15,16,-1,17,18,10,-1,10,18,19,-1,10,19,12,-1,12,19,20,-1,21,1,22,-1,22,1,23,-1,22,23,24,-1,25,26,27,-1,27,26,28,-1,27,28,29,-1,29,28,30,-1,29,30,31,-1,31,30,32,-1,31,32,33,-1,33,32,2,-1,33,2,34,-1,35,36,2,-1,2,36,37,-1,2,37,0,-1,9,11,16,-1,16,11,38,-1,16,38,14,-1,39,40,25,-1,25,40,41,-1,25,41,26,-1,4,42,5,-1,5,42,43,-1,5,43,44,-1,44,43,45,-1,44,45,46,-1,46,45,47,-1,48,49,50,-1,50,49,51,-1,50,51,52,-1,52,51,53,-1,52,53,54,-1,7,55,13,-1,13,55,56,-1,13,56,57,-1,57,56,58,-1,57,58,53,-1,53,58,59,-1,53,59,54,-1,60,61,62,-1,62,61,63,-1,62,63,64,-1,64,63,65,-1,64,65,66,-1,66,65,67,-1,66,67,68,-1,68,67,69,-1,68,69,70,-1,71,72,73,-1,73,72,74,-1,73,74,75,-1,75,74,76,-1,75,76,77,-1,77,76,78,-1,77,78,79,-1,79,78,80,-1,79,80,35,-1,35,80,81,-1,35,81,36,-1,20,19,25,-1,25,19,82,-1,25,82,39,-1,45,83,47,-1,47,83,84,-1,47,84,85,-1,85,84,86,-1,85,86,87,-1,87,86,88,-1,87,88,89,-1,89,88,90,-1,89,90,91,-1,91,90,92,-1,91,92,93,-1,93,92,94,-1,93,94,60,-1,60,94,95,-1,60,95,61,-1,8,96,6,-1,6,96,97,-1,6,97,98,-1,98,97,99,-1,98,99,100,-1,100,99,101,-1,100,101,71,-1,71,101,102,-1,71,102,72,-1,21,103,1,-1,1,103,104,-1,1,104,2,-1,2,104,105,-1,2,105,34,-1,3,5,106,-1,106,5,107,-1,106,107,108,-1,108,107,109,-1,108,109,110,-1,110,109,111,-1,110,111,112,-1,112,111,113,-1,112,113,114,-1,114,113,115,-1,114,115,116,-1,116,115,117,-1,116,117,118,-1,118,117,119,-1,118,119,48,-1,48,119,120,-1,48,120,49,-1,15,121,16,-1,16,121,122,-1,16,122,123,-1,123,122,124,-1,123,124,125,-1,125,124,126,-1,125,126,127,-1,127,126,128,-1,127,128,129,-1,129,128,130,-1,129,130,131,-1,131,130,132,-1,131,132,133,-1,133,132,134,-1,133,134,135,-1,135,134,24,-1,135,24,136,-1,136,24,23,-1,137,138,139,-1,69,140,70,-1,70,140,137,-1,70,137,141,-1,141,137,139,-1,142,143,137,-1,137,143,144,-1,137,144,138,-1,145,146,147,-1,146,148,147,-1,147,148,149,-1,147,149,150,-1,142,137,147,-1,147,137,151,-1,147,151,145,-1,89,152,153,-1,89,153,87,-1,87,153,154,-1,87,154,85,-1,85,154,155,-1,85,155,47,-1,155,156,47,-1,47,156,157,-1,47,157,46,-1,46,157,158,-1,46,158,44,-1,44,158,159,-1,44,159,5,-1,5,159,160,-1,5,160,107,-1,107,160,161,-1,107,161,109,-1,109,161,162,-1,109,162,111,-1,111,162,113,-1,113,162,163,-1,163,164,113,-1,113,164,165,-1,113,165,115,-1,115,165,166,-1,115,166,117,-1,167,49,168,-1,168,49,120,-1,168,120,169,-1,169,120,119,-1,169,119,170,-1,170,119,117,-1,170,117,166,-1,49,167,171,-1,49,171,51,-1,51,171,172,-1,51,172,53,-1,53,172,173,-1,53,173,57,-1,57,173,174,-1,57,174,13,-1,175,99,97,-1,13,174,176,-1,13,176,8,-1,8,176,177,-1,8,177,96,-1,96,177,178,-1,96,178,97,-1,97,178,179,-1,97,179,175,-1,99,175,180,-1,181,102,180,-1,180,102,101,-1,180,101,99,-1,181,182,102,-1,102,182,183,-1,102,183,72,-1,72,183,184,-1,72,184,74,-1,184,185,74,-1,74,185,76,-1,185,186,76,-1,76,186,187,-1,76,187,78,-1,78,187,188,-1,78,188,80,-1,189,37,36,-1,80,188,190,-1,80,190,81,-1,81,190,191,-1,81,191,36,-1,36,191,192,-1,36,192,189,-1,37,189,193,-1,37,193,0,-1,193,194,0,-1,0,194,195,-1,0,195,1,-1,1,195,196,-1,1,196,23,-1,23,196,197,-1,23,197,136,-1,197,198,136,-1,136,198,199,-1,136,199,135,-1,135,199,200,-1,135,200,133,-1,201,9,16,-1,133,200,202,-1,133,202,131,-1,131,202,203,-1,131,203,129,-1,203,204,129,-1,129,204,205,-1,129,205,127,-1,127,205,206,-1,127,206,125,-1,125,206,207,-1,125,207,123,-1,123,207,208,-1,123,208,16,-1,16,208,209,-1,16,209,201,-1,10,9,210,-1,210,9,201,-1,17,10,211,-1,211,10,210,-1,212,18,213,-1,213,18,17,-1,213,17,211,-1,18,212,19,-1,19,212,214,-1,19,214,215,-1,19,215,216,-1,19,216,82,-1,82,216,217,-1,82,217,39,-1,217,218,39,-1,39,218,219,-1,39,219,40,-1,40,219,220,-1,40,220,41,-1,41,220,221,-1,41,221,26,-1,26,221,222,-1,26,222,28,-1,28,222,223,-1,28,223,30,-1,223,224,30,-1,30,224,225,-1,30,225,32,-1,32,225,226,-1,32,226,2,-1,227,73,75,-1,2,226,228,-1,2,228,35,-1,35,228,229,-1,35,229,79,-1,229,230,79,-1,79,230,231,-1,79,231,77,-1,77,231,232,-1,77,232,75,-1,75,232,233,-1,75,233,227,-1,73,227,234,-1,73,234,71,-1,71,234,235,-1,71,235,100,-1,100,235,98,-1,98,235,236,-1,98,236,237,-1,237,238,98,-1,98,238,239,-1,98,239,6,-1,6,239,240,-1,6,240,7,-1,7,240,241,-1,7,241,55,-1,55,241,242,-1,55,242,56,-1,56,242,243,-1,56,243,58,-1,58,243,244,-1,58,244,59,-1,59,244,245,-1,59,245,54,-1,54,245,246,-1,54,246,52,-1,52,246,247,-1,52,247,50,-1,50,247,248,-1,50,248,48,-1,48,248,249,-1,48,249,118,-1,118,249,250,-1,118,250,116,-1,251,4,252,-1,252,4,3,-1,252,3,253,-1,253,3,106,-1,253,106,254,-1,254,106,108,-1,254,108,255,-1,255,108,110,-1,255,110,256,-1,256,110,112,-1,256,112,257,-1,257,112,114,-1,257,114,258,-1,258,114,116,-1,258,116,250,-1,42,4,259,-1,259,4,251,-1,42,259,260,-1,42,260,43,-1,43,260,261,-1,43,261,45,-1,45,261,262,-1,45,262,83,-1,83,262,263,-1,83,263,84,-1,84,263,264,-1,84,264,86,-1,86,264,265,-1,86,265,88,-1,88,265,266,-1,88,266,90,-1,266,267,90,-1,90,267,92,-1,267,268,92,-1,92,268,269,-1,92,269,94,-1,94,269,270,-1,94,270,95,-1,95,270,271,-1,95,271,61,-1,61,271,272,-1,61,272,63,-1,63,272,273,-1,63,273,65,-1,65,273,274,-1,65,274,67,-1,69,67,275,-1,275,67,274,-1,69,275,276,-1,69,276,140,-1,140,276,277,-1,140,277,137,-1,137,277,278,-1,137,278,151,-1,151,278,279,-1,151,279,145,-1,145,279,280,-1,145,280,146,-1,146,280,281,-1,146,281,148,-1,148,281,282,-1,148,282,149,-1,149,282,283,-1,149,283,150,-1,150,283,284,-1,150,284,147,-1,147,284,285,-1,147,285,142,-1,142,285,286,-1,142,286,143,-1,143,286,287,-1,143,287,144,-1,144,287,288,-1,144,288,138,-1,138,288,289,-1,138,289,139,-1,139,289,290,-1,139,290,141,-1,141,290,291,-1,141,291,70,-1,70,291,292,-1,70,292,68,-1,66,68,293,-1,293,68,292,-1,66,293,294,-1,66,294,64,-1,64,294,295,-1,64,295,62,-1,62,295,296,-1,62,296,60,-1,60,296,297,-1,60,297,93,-1,93,297,298,-1,93,298,91,-1,91,298,89,-1,89,298,299,-1,89,299,152,-1,20,300,301,-1,20,301,12,-1,12,301,302,-1,12,302,11,-1,11,302,303,-1,11,303,38,-1,38,303,304,-1,38,304,14,-1,14,304,305,-1,14,305,15,-1,15,305,306,-1,15,306,121,-1,121,306,307,-1,121,307,122,-1,122,307,308,-1,122,308,124,-1,124,308,309,-1,124,309,126,-1,126,309,310,-1,126,310,128,-1,128,310,311,-1,128,311,130,-1,130,311,312,-1,130,312,132,-1,132,312,313,-1,132,313,134,-1,134,313,314,-1,134,314,24,-1,24,314,315,-1,24,315,22,-1,22,315,316,-1,22,316,21,-1,21,316,317,-1,21,317,103,-1,103,317,318,-1,103,318,104,-1,104,318,319,-1,104,319,105,-1,105,319,320,-1,105,320,34,-1,34,320,321,-1,34,321,33,-1,33,321,322,-1,33,322,31,-1,31,322,323,-1,31,323,29,-1,29,323,324,-1,29,324,27,-1,27,324,325,-1,27,325,25,-1,25,325,300,-1,25,300,20,-1,
        ]
    }
}
Shape{
    appearance Appearance {
        material  Material 	{
            diffuseColor 0.25098039215686274 0.25098039215686274 0.25098039215686274
            specularColor 0.12549019607843137 0.12549019607843137 0.12549019607843137
            ambientIntensity 0.251
            transparency 0.0
            shininess 0.5
        }
    }
    geometry IndexedFaceSet {
        ccw TRUE
        solid FALSE
        coord DEF co Coordinate {
            point [
                -0.3198 0.487 0.1575, -0.3198 0.4722 0.1575, -0.3185 0.4869 0.1575, -0.3181 0.4724 0.1575, -0.3259 0.4839 0.1575, -0.3268 0.4823 0.1575, -0.3272 0.4805 0.1575, -0.3272 0.4788 0.1575, -0.3215 0.4868 0.1575, -0.3232 0.4862 0.1575, -0.3247 0.4852 0.1575, -0.3268 0.4771 0.1575, -0.326 0.4755 0.1575, -0.3248 0.4741 0.1575, -0.315 0.474 0.1575, -0.3139 0.484 0.1575, -0.3151 0.4853 0.1575, -0.3233 0.4731 0.1575, -0.3215 0.4724 0.1575, -0.3165 0.4731 0.1575, -0.3167 0.4863 0.1575, -0.3129 0.4771 0.1575, -0.3125 0.4789 0.1575, -0.3138 0.4754 0.1575, -0.3125 0.4807 0.1575, -0.313 0.4825 0.1575
            ]
        }
        coordIndex [
            0,1,2,-1,2,1,3,-1,4,5,6,-1,7,0,6,-1,6,0,8,-1,8,9,6,-1,6,9,10,-1,6,10,4,-1,7,11,0,-1,0,11,12,-1,0,12,13,-1,14,15,16,-1,13,17,0,-1,0,17,18,-1,0,18,1,-1,3,19,2,-1,2,19,14,-1,2,14,20,-1,20,14,16,-1,21,22,23,-1,23,22,24,-1,23,24,14,-1,14,24,25,-1,14,25,15,-1,
        ]
    }
}
Shape{
    appearance Appearance {
        material  Material 	{
            diffuseColor 0.7529411764705882 0.7529411764705882 0.7529411764705882
            specularColor 0.3764705882352941 0.3764705882352941 0.3764705882352941
            ambientIntensity 0.7529
            transparency 0.0
            shininess 0.5
        }
    }
    geometry IndexedFaceSet {
        ccw TRUE
        solid FALSE
        coord DEF co Coordinate {
            point [
                -0.315 0.0197 0.0, -0.2559 -0.0394 0.0, -0.315 0.0197 0.0079, -0.2559 -0.0394 0.0079, 0.3445 0.5945 0.0579, 0.2461 0.5945 0.0579, 0.3445 0.5906 0.0579, 0.2461 0.5906 0.0579, 0.2461 0.5906 0.0079, 0.2461 0.5945 0.0, 0.2461 0.4173 0.0079, 0.2461 0.4173 0.0, 0.3445 0.4173 0.0, 0.3445 0.4173 0.0079, 0.3445 0.5906 0.0079, 0.3445 0.5945 0.0, 0.1476 0.5945 0.0579, 0.0492 0.5945 0.0579, 0.1476 0.5906 0.0579, 0.0492 0.5906 0.0579, 0.0492 0.5906 0.0079, 0.0492 0.5945 0.0, 0.0492 0.4173 0.0079, 0.0492 0.4173 0.0, 0.1476 0.4173 0.0, 0.1476 0.4173 0.0079, 0.1476 0.5906 0.0079, 0.1476 0.5945 0.0, -0.0492 0.5945 0.0579, -0.1476 0.5945 0.0579, -0.0492 0.5906 0.0579, -0.1476 0.5906 0.0579, -0.1476 0.5906 0.0079, -0.1476 0.5945 0.0, -0.1476 0.4173 0.0079, -0.1476 0.4173 0.0, -0.0492 0.4173 0.0, -0.0492 0.4173 0.0079, -0.0492 0.5906 0.0079, -0.0492 0.5945 0.0, -0.2461 0.5945 0.0579, -0.3445 0.5945 0.0579, -0.2461 0.5906 0.0579, -0.3445 0.5906 0.0579, -0.3445 0.5906 0.0079, -0.3445 0.5945 0.0, -0.3445 0.4173 0.0079, -0.3445 0.4173 0.0, -0.2461 0.4173 0.0, -0.2461 0.4173 0.0079, -0.2461 0.5906 0.0079, -0.2461 0.5945 0.0, 0.2461 -0.5945 0.0579, 0.3445 -0.5945 0.0579, 0.2461 -0.5906 0.0579, 0.3445 -0.5906 0.0579, 0.2461 -0.4173 0.0079, 0.2461 -0.4173 0.0, 0.2461 -0.5906 0.0079, 0.2461 -0.5945 0.0, 0.3445 -0.5906 0.0079, 0.3445 -0.5945 0.0, 0.3445 -0.4173 0.0079, 0.3445 -0.4173 0.0, 0.0492 -0.5945 0.0579, 0.1476 -0.5945 0.0579, 0.0492 -0.5906 0.0579, 0.1476 -0.5906 0.0579, 0.0492 -0.4173 0.0079, 0.0492 -0.4173 0.0, 0.0492 -0.5906 0.0079, 0.0492 -0.5945 0.0, 0.1476 -0.5906 0.0079, 0.1476 -0.5945 0.0, 0.1476 -0.4173 0.0079, 0.1476 -0.4173 0.0, -0.1476 -0.5945 0.0579, -0.0492 -0.5945 0.0579, -0.1476 -0.5906 0.0579, -0.0492 -0.5906 0.0579, -0.1476 -0.4173 0.0079, -0.1476 -0.4173 0.0, -0.1476 -0.5906 0.0079, -0.1476 -0.5945 0.0, -0.0492 -0.5906 0.0079, -0.0492 -0.5945 0.0, -0.0492 -0.4173 0.0079, -0.0492 -0.4173 0.0, -0.3445 -0.5945 0.0579, -0.2461 -0.5945 0.0579, -0.3445 -0.5906 0.0579, -0.2461 -0.5906 0.0579, -0.3445 -0.4173 0.0079, -0.3445 -0.4173 0.0, -0.3445 -0.5906 0.0079, -0.3445 -0.5945 0.0, -0.2461 -0.5906 0.0079, -0.2461 -0.5945 0.0, -0.2461 -0.4173 0.0079, -0.2461 -0.4173 0.0, 0.3976 0.0355 0.0213, 0.3976 -0.0355 0.0213, 0.3937 0.0355 0.0213, 0.3937 -0.0355 0.0213, 0.3976 0.0355 0.0416, 0.3937 0.0355 0.0416, 0.3976 -0.0355 0.0416, 0.3937 -0.0355 0.0416, 0.3976 0.3505 0.0213, 0.3976 0.2794 0.0213, 0.3937 0.3505 0.0213, 0.3937 0.2794 0.0213, 0.3976 0.3505 0.0416, 0.3937 0.3505 0.0416, 0.3976 0.2794 0.0416, 0.3937 0.2794 0.0416, 0.3976 -0.2794 0.0213, 0.3976 -0.3505 0.0213, 0.3937 -0.2794 0.0213, 0.3937 -0.3505 0.0213, 0.3976 -0.2794 0.0416, 0.3937 -0.2794 0.0416, 0.3976 -0.3505 0.0416, 0.3937 -0.3505 0.0416, -0.3976 -0.0355 0.0213, -0.3976 0.0355 0.0213, -0.3937 -0.0355 0.0213, -0.3937 0.0355 0.0213, -0.3976 -0.0355 0.0416, -0.3937 -0.0355 0.0416, -0.3976 0.0355 0.0416, -0.3937 0.0355 0.0416, -0.3976 -0.3505 0.0213, -0.3976 -0.2794 0.0213, -0.3937 -0.3505 0.0213, -0.3937 -0.2794 0.0213, -0.3976 -0.3505 0.0416, -0.3937 -0.3505 0.0416, -0.3976 -0.2794 0.0416, -0.3937 -0.2794 0.0416, -0.3976 0.2794 0.0213, -0.3976 0.3505 0.0213, -0.3937 0.2794 0.0213, -0.3937 0.3505 0.0213, -0.3976 0.2794 0.0416, -0.3937 0.2794 0.0416, -0.3976 0.3505 0.0416, -0.3937 0.3505 0.0416
            ]
        }
        coordIndex [
            0,1,2,-1,2,1,3,-1,4,5,6,-1,6,5,7,-1,7,5,8,-1,8,5,9,-1,8,9,10,-1,10,9,11,-1,11,12,10,-1,10,12,13,-1,13,12,14,-1,14,12,15,-1,14,15,6,-1,6,15,4,-1,9,5,15,-1,15,5,4,-1,15,12,9,-1,9,12,11,-1,16,17,18,-1,18,17,19,-1,19,17,20,-1,20,17,21,-1,20,21,22,-1,22,21,23,-1,23,24,22,-1,22,24,25,-1,25,24,26,-1,26,24,27,-1,26,27,18,-1,18,27,16,-1,21,17,27,-1,27,17,16,-1,27,24,21,-1,21,24,23,-1,28,29,30,-1,30,29,31,-1,31,29,32,-1,32,29,33,-1,32,33,34,-1,34,33,35,-1,35,36,34,-1,34,36,37,-1,37,36,38,-1,38,36,39,-1,38,39,30,-1,30,39,28,-1,33,29,39,-1,39,29,28,-1,39,36,33,-1,33,36,35,-1,40,41,42,-1,42,41,43,-1,43,41,44,-1,44,41,45,-1,44,45,46,-1,46,45,47,-1,47,48,46,-1,46,48,49,-1,49,48,50,-1,50,48,51,-1,50,51,42,-1,42,51,40,-1,45,41,51,-1,51,41,40,-1,51,48,45,-1,45,48,47,-1,52,53,54,-1,54,53,55,-1,56,57,58,-1,58,57,59,-1,58,59,54,-1,54,59,52,-1,55,53,60,-1,60,53,61,-1,60,61,62,-1,62,61,63,-1,62,63,56,-1,56,63,57,-1,61,53,59,-1,59,53,52,-1,63,61,57,-1,57,61,59,-1,64,65,66,-1,66,65,67,-1,68,69,70,-1,70,69,71,-1,70,71,66,-1,66,71,64,-1,67,65,72,-1,72,65,73,-1,72,73,74,-1,74,73,75,-1,74,75,68,-1,68,75,69,-1,73,65,71,-1,71,65,64,-1,75,73,69,-1,69,73,71,-1,76,77,78,-1,78,77,79,-1,80,81,82,-1,82,81,83,-1,82,83,78,-1,78,83,76,-1,79,77,84,-1,84,77,85,-1,84,85,86,-1,86,85,87,-1,86,87,80,-1,80,87,81,-1,85,77,83,-1,83,77,76,-1,87,85,81,-1,81,85,83,-1,88,89,90,-1,90,89,91,-1,92,93,94,-1,94,93,95,-1,94,95,90,-1,90,95,88,-1,91,89,96,-1,96,89,97,-1,96,97,98,-1,98,97,99,-1,98,99,92,-1,92,99,93,-1,97,89,95,-1,95,89,88,-1,99,97,93,-1,93,97,95,-1,100,101,102,-1,102,101,103,-1,104,100,105,-1,105,100,102,-1,106,104,107,-1,107,104,105,-1,101,106,103,-1,103,106,107,-1,104,106,100,-1,100,106,101,-1,108,109,110,-1,110,109,111,-1,112,108,113,-1,113,108,110,-1,114,112,115,-1,115,112,113,-1,109,114,111,-1,111,114,115,-1,112,114,108,-1,108,114,109,-1,116,117,118,-1,118,117,119,-1,120,116,121,-1,121,116,118,-1,122,120,123,-1,123,120,121,-1,117,122,119,-1,119,122,123,-1,120,122,116,-1,116,122,117,-1,124,125,126,-1,126,125,127,-1,128,124,129,-1,129,124,126,-1,130,128,131,-1,131,128,129,-1,125,130,127,-1,127,130,131,-1,128,130,124,-1,124,130,125,-1,132,133,134,-1,134,133,135,-1,136,132,137,-1,137,132,134,-1,138,136,139,-1,139,136,137,-1,133,138,135,-1,135,138,139,-1,136,138,132,-1,132,138,133,-1,140,141,142,-1,142,141,143,-1,144,140,145,-1,145,140,142,-1,146,144,147,-1,147,144,145,-1,141,146,143,-1,143,146,147,-1,144,146,140,-1,140,146,141,-1,
        ]
    }
}