#VRML V2.0 utf8
# 3D model generated by easyeda2kicad.py (https://github.com/uPesy/easyeda2kicad.py)

Shape{
    appearance Appearance {
        material  Material 	{
            diffuseColor 0.5019607843137255 0.5019607843137255 0.5019607843137255
            specularColor 0.25098039215686274 0.25098039215686274 0.25098039215686274
            ambientIntensity 0.502
            transparency 0.0
            shininess 0.5
        }
    }
    geometry IndexedFaceSet {
        ccw TRUE
        solid FALSE
        coord DEF co Coordinate {
            point [
                0.3937 -0.2362 0.0236, 0.3937 -0.2362 0.0551, 0.3937 -0.3898 0.2756, 0.3937 -0.1575 0.0551, 0.3937 0.1575 0.0236, 0.3937 0.1575 0.0551, 0.3937 0.2362 0.0551, 0.3937 0.2362 0.0236, 0.3937 0.2582 0.0039, 0.3937 0.2173 0.0039, 0.3937 -0.1575 0.0236, 0.3937 -0.1722 0.0039, 0.3937 -0.3898 0.0039, 0.3937 0.3898 0.2756, 0.3937 0.3898 0.0039, 0.3937 0.2184 0.0039, -0.0394 0.2953 0.0039, -0.0114 0.2953 0.0039, -0.0114 0.2582 0.0039, 0.0174 0.2953 0.0039, 0.0709 0.2165 0.0039, 0.0522 0.2165 0.0039, 0.0522 0.2173 0.0039, 0.0212 0.2207 0.0039, 0.0174 0.2184 0.0039, 0.0212 0.225 0.0039, 0.0174 0.2582 0.0039, 0.027 0.2582 0.0039, 0.0258 0.2581 0.0039, 0.0212 0.2569 0.0039, 0.0212 0.2516 0.0039, 0.0256 0.2535 0.0039, 0.0219 0.2246 0.0039, 0.0304 0.2541 0.0039, 0.0343 0.2537 0.0039, 0.0373 0.2526 0.0039, 0.04 0.2508 0.0039, 0.0424 0.2482 0.0039, 0.0452 0.2379 0.0039, 0.0448 0.2336 0.0039, 0.0438 0.2302 0.0039, 0.035 0.2229 0.0039, 0.0313 0.2225 0.0039, 0.0379 0.2239 0.0039, 0.0403 0.2256 0.0039, 0.0421 0.2275 0.0039, 0.0261 0.223 0.0039, 0.044 0.2452 0.0039, 0.045 0.2409 0.0039, 0.0438 0.2958 0.0039, 0.0479 0.2972 0.0039, 0.0522 0.2582 0.0039, 0.0369 0.2186 0.0039, 0.0407 0.2199 0.0039, 0.0522 0.2184 0.0039, 0.0439 0.222 0.0039, 0.0468 0.2251 0.0039, 0.0461 0.2513 0.0039, 0.0426 0.2547 0.0039, 0.0388 0.2569 0.0039, 0.0505 0.2376 0.0039, 0.0499 0.2432 0.0039, 0.0484 0.2476 0.0039, 0.0394 0.2953 0.0039, 0.0334 0.2582 0.0039, 0.0344 0.2581 0.0039, 0.0489 0.2288 0.0039, 0.0501 0.233 0.0039, 0.031 0.2182 0.0039, 0.0174 0.2173 0.0039, 0.0294 0.2184 0.0039, 0.0254 0.2189 0.0039, 0.0344 0.2184 0.0039, 0.032 0.2181 0.0039, -0.315 -0.315 0.0039, -0.3937 -0.3898 0.0039, -0.3145 -0.3106 0.0039, -0.3937 -0.1722 0.0039, -0.313 -0.3064 0.0039, -0.3038 -0.2972 0.0039, -0.3075 -0.2996 0.0039, -0.3107 -0.3027 0.0039, -0.2687 -0.1722 0.0039, -0.2244 -0.2165 0.0039, -0.2997 -0.2958 0.0039, -0.315 -0.3937 0.0039, -0.3898 -0.3937 0.0039, -0.3906 -0.3936 0.0039, -0.0114 -0.2165 0.0039, -0.0438 -0.2958 0.0039, -0.0479 -0.2972 0.0039, -0.0516 -0.2996 0.0039, -0.0548 -0.3027 0.0039, -0.0571 -0.3064 0.0039, -0.0586 -0.3106 0.0039, -0.1988 -0.3064 0.0039, -0.2011 -0.3027 0.0039, -0.2043 -0.2996 0.0039, -0.208 -0.2972 0.0039, -0.2122 -0.2958 0.0039, -0.2165 -0.2953 0.0039, -0.2953 -0.2953 0.0039, -0.3915 -0.3933 0.0039, -0.3922 -0.3928 0.0039, -0.3928 -0.3922 0.0039, -0.0591 -0.3937 0.0039, -0.1969 -0.3937 0.0039, -0.0591 -0.315 0.0039, -0.1969 -0.315 0.0039, -0.1973 -0.3106 0.0039, -0.3933 -0.3915 0.0039, -0.3936 -0.3906 0.0039, -0.3937 0.2173 0.0039, -0.3031 0.2165 0.0039, -0.3031 -0.1378 0.0039, 0.0174 0.2165 0.0039, 0.1354 -0.3937 0.0039, 0.0591 -0.3937 0.0039, 0.0591 -0.315 0.0039, 0.0586 -0.3106 0.0039, 0.0709 -0.2165 0.0039, 0.1354 -0.1722 0.0039, 0.0709 -0.1722 0.0039, 0.1354 0.2173 0.0039, 0.0516 -0.2996 0.0039, 0.0479 -0.2972 0.0039, 0.0522 -0.2165 0.0039, 0.0571 -0.3064 0.0039, 0.0548 -0.3027 0.0039, 0.0522 -0.3001 0.0039, 0.0438 -0.2958 0.0039, 0.0394 -0.2953 0.0039, 0.0174 -0.2165 0.0039, 0.0174 -0.2953 0.0039, -0.0114 -0.2953 0.0039, -0.0394 -0.2953 0.0039, 0.3145 -0.3106 0.0039, 0.313 -0.3064 0.0039, 0.3543 -0.1722 0.0039, 0.2122 -0.2958 0.0039, 0.208 -0.2972 0.0039, 0.2043 -0.2996 0.0039, 0.2011 -0.3027 0.0039, 0.1988 -0.3064 0.0039, 0.1973 -0.3106 0.0039, 0.1969 -0.315 0.0039, 0.1969 -0.3937 0.0039, 0.3107 -0.3027 0.0039, 0.3075 -0.2996 0.0039, 0.3038 -0.2972 0.0039, 0.315 -0.315 0.0039, 0.3543 -0.3937 0.0039, 0.315 -0.3937 0.0039, 0.2997 -0.2958 0.0039, 0.2953 -0.2953 0.0039, 0.2165 -0.2953 0.0039, 0.3936 0.3908 0.0039, 0.3898 0.3937 0.0039, 0.3543 0.3937 0.0039, 0.3908 0.3936 0.0039, 0.3917 0.3932 0.0039, 0.3932 0.3917 0.0039, 0.3925 0.3925 0.0039, 0.1973 0.3106 0.0039, 0.1988 0.3064 0.0039, 0.1354 0.2582 0.0039, 0.2011 0.3027 0.0039, 0.2953 0.2953 0.0039, 0.2997 0.2958 0.0039, 0.3543 0.2582 0.0039, 0.2165 0.2953 0.0039, 0.3038 0.2972 0.0039, 0.3075 0.2996 0.0039, 0.3107 0.3027 0.0039, 0.1354 0.3937 0.0039, 0.1969 0.3937 0.0039, 0.1969 0.315 0.0039, 0.2043 0.2996 0.0039, 0.208 0.2972 0.0039, 0.2122 0.2958 0.0039, 0.313 0.3064 0.0039, 0.3145 0.3106 0.0039, 0.315 0.315 0.0039, 0.0516 0.2996 0.0039, 0.0522 0.3001 0.0039, 0.0548 0.3027 0.0039, 0.0571 0.3064 0.0039, 0.0591 0.3937 0.0039, 0.0591 0.315 0.0039, 0.0586 0.3106 0.0039, -0.3937 0.2582 0.0039, -0.3145 0.3106 0.0039, -0.313 0.3064 0.0039, -0.3107 0.3027 0.0039, -0.3075 0.2996 0.0039, -0.3038 0.2972 0.0039, -0.2165 0.2953 0.0039, -0.2122 0.2958 0.0039, -0.208 0.2972 0.0039, -0.2043 0.2996 0.0039, -0.0571 0.3064 0.0039, -0.0548 0.3027 0.0039, -0.0586 0.3106 0.0039, -0.2011 0.3027 0.0039, -0.1988 0.3064 0.0039, -0.0516 0.2996 0.0039, -0.0479 0.2972 0.0039, -0.0438 0.2958 0.0039, -0.3925 0.3925 0.0039, -0.3917 0.3932 0.0039, -0.3932 0.3917 0.0039, -0.3908 0.3936 0.0039, -0.3936 0.3908 0.0039, -0.3898 0.3937 0.0039, -0.3937 0.3898 0.0039, -0.315 0.3937 0.0039, -0.315 0.315 0.0039, -0.2997 0.2958 0.0039, -0.2953 0.2953 0.0039, -0.1969 0.315 0.0039, -0.1969 0.3937 0.0039, -0.0591 0.3937 0.0039, -0.1973 0.3106 0.0039, -0.0591 0.315 0.0039, -0.0854 0.2186 0.0039, -0.0796 0.2186 0.0039, -0.0114 0.2184 0.0039, -0.0647 0.258 0.0039, -0.07 0.258 0.0039, -0.0498 0.2186 0.0039, -0.045 0.2294 0.0039, -0.0427 0.2259 0.0039, -0.0395 0.2228 0.0039, -0.0354 0.2204 0.0039, -0.0309 0.219 0.0039, -0.3937 0.2184 0.0039, -0.026 0.2186 0.0039, -0.0556 0.2186 0.0039, -0.0594 0.2297 0.0039, -0.0756 0.2297 0.0039, -0.0367 0.2558 0.0039, -0.041 0.2529 0.0039, -0.0153 0.2186 0.0039, -0.0153 0.258 0.0039, -0.0264 0.258 0.0039, -0.0321 0.2574 0.0039, -0.041 0.2528 0.0039, -0.0438 0.2498 0.0039, -0.0456 0.2464 0.0039, -0.0467 0.2425 0.0039, -0.047 0.2388 0.0039, -0.0464 0.2335 0.0039, -0.0076 0.2229 0.0039, -0.0076 0.2186 0.0039, 0.0135 0.2186 0.0039, 0.0135 0.258 0.0039, -0.0066 0.258 0.0039, -0.0066 0.2537 0.0039, 0.0305 0.2585 0.0039, 0.0082 0.2364 0.0039, 0.0082 0.2229 0.0039, -0.0057 0.2364 0.0039, -0.0057 0.2407 0.0039, 0.0082 0.2407 0.0039, 0.0082 0.2537 0.0039, 0.0539 0.2229 0.0039, 0.0539 0.2186 0.0039, 0.0687 0.2229 0.0039, 0.0687 0.258 0.0039, 0.074 0.258 0.0039, 0.074 0.2186 0.0039, 0.1354 0.2184 0.0039, -0.0114 0.2173 0.0039, -0.0114 0.2165 0.0039, 0.3543 0.2184 0.0039, 0.3543 0.2173 0.0039, 0.315 -0.128 0.0039, 0.1969 -0.128 0.0039, 0.1969 0.128 0.0039, 0.315 0.128 0.0039, 0.3925 -0.3925 0.0039, 0.3917 -0.3932 0.0039, 0.3932 -0.3917 0.0039, 0.3908 -0.3936 0.0039, 0.3936 -0.3908 0.0039, 0.3898 -0.3937 0.0039, 0.315 0.3937 0.0039, -0.3898 -0.3937 0.2756, -0.315 -0.3937 0.0799, 0.3898 -0.3937 0.2756, -0.1969 -0.3937 0.0799, 0.1969 -0.3937 0.0799, 0.315 -0.3937 0.0799, -0.0591 -0.3937 0.0799, 0.0591 -0.3937 0.0799, 0.315 0.3937 0.0799, 0.1969 0.3937 0.0799, 0.0591 0.3937 0.0799, -0.0591 0.3937 0.0799, -0.3898 0.3937 0.2756, 0.3898 0.3937 0.2756, -0.315 0.3937 0.0799, -0.1969 0.3937 0.0799, -0.3937 -0.1575 0.0236, -0.3937 0.1575 0.0551, -0.3937 0.1575 0.0236, -0.3937 0.3898 0.2756, -0.3937 -0.1575 0.0551, -0.3937 -0.3898 0.2756, -0.3937 -0.2362 0.0551, -0.3937 -0.2362 0.0236, -0.3937 0.2362 0.0236, -0.3937 0.2362 0.0551, -0.2243 -0.2914 0.2795, -0.2271 -0.3021 0.2795, 0.3898 -0.3898 0.2795, -0.2324 -0.3118 0.2795, -0.24 -0.3199 0.2795, -0.2819 -0.3279 0.2795, -0.2919 -0.3232 0.2795, -0.3898 -0.3898 0.2795, -0.2819 -0.2437 0.2795, -0.3898 0.3898 0.2795, -0.2919 -0.2485 0.2795, -0.3005 -0.2555 0.2795, -0.271 -0.2417 0.2795, -0.2599 -0.2424 0.2795, 0.3898 0.3898 0.2795, -0.2494 -0.2458 0.2795, -0.24 -0.2517 0.2795, -0.2494 -0.3258 0.2795, -0.2599 -0.3293 0.2795, -0.271 -0.33 0.2795, -0.3005 -0.3161 0.2795, -0.307 -0.3071 0.2795, -0.3111 -0.2968 0.2795, -0.2324 -0.2598 0.2795, -0.2271 -0.2695 0.2795, -0.2243 -0.2803 0.2795, -0.3125 -0.2858 0.2795, -0.3111 -0.2748 0.2795, -0.307 -0.2645 0.2795
            ]
        }
        coordIndex [
            0,1,2,-1,3,4,5,-1,6,7,8,-1,9,10,11,-1,11,10,0,-1,11,0,12,-1,12,0,2,-1,1,3,2,-1,2,3,5,-1,2,5,13,-1,13,5,6,-1,13,6,14,-1,14,6,8,-1,3,10,4,-1,4,10,9,-1,4,9,7,-1,7,9,15,-1,7,15,8,-1,16,17,18,-1,18,17,19,-1,20,21,22,-1,23,24,25,-1,25,24,26,-1,26,27,28,-1,28,29,26,-1,26,29,30,-1,26,30,25,-1,25,30,31,-1,25,31,32,-1,32,31,33,-1,32,33,34,-1,34,35,32,-1,32,35,36,-1,32,36,37,-1,38,39,32,-1,32,39,40,-1,41,42,43,-1,43,42,44,-1,40,45,32,-1,32,45,44,-1,32,44,46,-1,46,44,42,-1,37,47,32,-1,32,47,48,-1,32,48,38,-1,49,50,51,-1,52,53,54,-1,54,53,55,-1,54,55,56,-1,57,58,51,-1,51,58,59,-1,60,61,51,-1,51,61,62,-1,51,62,57,-1,63,49,64,-1,64,49,51,-1,64,51,65,-1,65,51,59,-1,56,66,54,-1,54,66,67,-1,54,67,60,-1,68,69,70,-1,70,69,24,-1,70,24,71,-1,71,24,23,-1,52,54,72,-1,72,54,22,-1,72,22,73,-1,74,75,76,-1,76,75,77,-1,76,77,78,-1,79,80,77,-1,77,80,81,-1,77,81,78,-1,82,83,77,-1,77,83,84,-1,77,84,79,-1,85,86,74,-1,74,86,87,-1,88,89,83,-1,83,89,90,-1,83,90,91,-1,91,92,83,-1,83,92,93,-1,83,93,94,-1,95,96,94,-1,94,96,97,-1,94,97,98,-1,98,99,94,-1,94,99,100,-1,94,100,83,-1,83,100,101,-1,83,101,84,-1,87,102,74,-1,74,102,103,-1,74,103,104,-1,105,106,107,-1,107,106,108,-1,107,108,94,-1,94,108,109,-1,94,109,95,-1,104,110,74,-1,74,110,111,-1,74,111,75,-1,112,113,77,-1,77,113,114,-1,77,114,82,-1,68,73,69,-1,69,73,22,-1,69,22,115,-1,115,22,21,-1,116,117,118,-1,118,119,116,-1,116,119,120,-1,116,120,121,-1,121,120,122,-1,121,122,123,-1,124,125,126,-1,119,127,120,-1,120,127,128,-1,120,128,126,-1,126,128,129,-1,126,129,124,-1,125,130,126,-1,126,130,131,-1,126,131,132,-1,131,133,132,-1,132,133,134,-1,132,134,88,-1,88,134,135,-1,88,135,89,-1,136,137,138,-1,139,140,121,-1,121,140,141,-1,121,141,142,-1,142,143,121,-1,121,143,144,-1,121,144,116,-1,116,144,145,-1,116,145,146,-1,137,147,138,-1,138,147,148,-1,138,148,149,-1,136,138,150,-1,150,138,151,-1,150,151,152,-1,149,153,138,-1,138,153,154,-1,138,154,121,-1,121,154,155,-1,121,155,139,-1,156,14,157,-1,157,14,8,-1,157,8,158,-1,157,159,156,-1,156,159,160,-1,156,160,161,-1,161,160,162,-1,163,164,165,-1,165,164,166,-1,167,168,169,-1,167,169,170,-1,168,171,169,-1,169,171,172,-1,169,172,173,-1,174,175,165,-1,165,175,176,-1,165,176,163,-1,166,177,165,-1,165,177,178,-1,165,178,179,-1,173,180,169,-1,169,180,181,-1,169,181,182,-1,50,183,51,-1,51,183,184,-1,51,184,165,-1,165,184,185,-1,165,185,186,-1,187,174,188,-1,188,174,165,-1,188,165,189,-1,189,165,186,-1,190,191,192,-1,192,193,190,-1,190,193,194,-1,190,194,195,-1,196,197,18,-1,18,197,198,-1,18,198,199,-1,199,200,201,-1,200,199,202,-1,202,199,203,-1,202,203,204,-1,201,205,199,-1,199,205,206,-1,199,206,18,-1,18,206,207,-1,18,207,16,-1,208,209,210,-1,210,209,211,-1,210,211,212,-1,212,211,213,-1,212,213,214,-1,214,213,215,-1,214,215,190,-1,190,215,216,-1,190,216,191,-1,195,217,190,-1,190,217,218,-1,190,218,196,-1,219,220,221,-1,204,222,202,-1,202,222,219,-1,202,219,223,-1,223,219,221,-1,224,225,226,-1,227,228,18,-1,229,230,231,-1,231,232,229,-1,229,232,233,-1,229,233,234,-1,196,18,190,-1,190,18,228,-1,190,228,235,-1,234,236,229,-1,229,236,226,-1,229,226,237,-1,237,226,225,-1,237,225,238,-1,238,225,239,-1,227,240,241,-1,242,243,18,-1,18,243,244,-1,18,244,227,-1,227,244,245,-1,227,245,240,-1,241,246,227,-1,227,246,247,-1,227,247,248,-1,248,249,227,-1,227,249,250,-1,227,250,229,-1,229,250,251,-1,229,251,230,-1,252,253,226,-1,24,254,26,-1,26,254,255,-1,26,255,256,-1,236,242,226,-1,226,242,18,-1,226,18,252,-1,252,18,257,-1,64,258,63,-1,63,258,27,-1,63,27,19,-1,19,27,26,-1,19,26,18,-1,18,26,256,-1,18,256,257,-1,259,260,261,-1,261,260,252,-1,261,252,262,-1,262,252,257,-1,262,257,263,-1,263,257,264,-1,60,51,54,-1,54,51,265,-1,54,265,266,-1,267,265,268,-1,268,265,51,-1,268,51,269,-1,269,51,165,-1,269,165,270,-1,270,165,271,-1,228,224,235,-1,235,224,226,-1,235,226,112,-1,112,226,272,-1,112,272,113,-1,113,272,273,-1,253,254,226,-1,226,254,24,-1,226,24,272,-1,272,24,69,-1,272,69,273,-1,273,69,115,-1,266,270,54,-1,54,270,271,-1,54,271,22,-1,22,271,123,-1,22,123,20,-1,20,123,122,-1,179,170,165,-1,165,170,169,-1,165,169,271,-1,271,169,274,-1,271,274,123,-1,123,274,275,-1,276,138,277,-1,277,138,121,-1,277,121,278,-1,278,121,123,-1,278,123,279,-1,279,123,275,-1,279,275,276,-1,276,275,138,-1,280,281,282,-1,282,281,283,-1,282,283,284,-1,284,283,285,-1,284,285,12,-1,12,285,151,-1,12,151,11,-1,11,151,138,-1,11,138,9,-1,9,138,275,-1,9,275,15,-1,15,275,274,-1,15,274,8,-1,8,274,169,-1,8,169,158,-1,158,169,182,-1,158,182,286,-1,86,85,287,-1,287,85,288,-1,287,288,289,-1,289,288,290,-1,116,146,291,-1,291,292,289,-1,106,105,290,-1,290,105,293,-1,290,293,289,-1,289,293,294,-1,289,294,291,-1,291,294,117,-1,291,117,116,-1,292,152,289,-1,289,152,151,-1,289,151,285,-1,158,286,295,-1,296,175,174,-1,297,298,299,-1,157,158,300,-1,300,158,295,-1,300,295,299,-1,299,295,296,-1,299,296,297,-1,297,296,174,-1,297,174,187,-1,215,213,301,-1,301,213,299,-1,301,299,302,-1,302,299,298,-1,302,298,220,-1,220,298,221,-1,303,304,305,-1,306,307,308,-1,308,307,309,-1,308,309,75,-1,75,309,310,-1,75,310,77,-1,190,311,214,-1,214,311,312,-1,214,312,306,-1,306,312,304,-1,306,304,307,-1,307,304,303,-1,190,235,311,-1,311,235,112,-1,311,112,305,-1,305,112,77,-1,305,77,303,-1,303,77,310,-1,313,314,315,-1,315,314,316,-1,315,316,317,-1,318,319,320,-1,321,322,323,-1,323,322,324,-1,321,325,322,-1,322,325,326,-1,322,326,327,-1,327,326,328,-1,327,328,329,-1,317,330,315,-1,315,330,331,-1,315,331,320,-1,320,331,332,-1,320,332,318,-1,319,333,320,-1,320,333,334,-1,320,334,335,-1,329,336,327,-1,327,336,337,-1,327,337,315,-1,315,337,338,-1,315,338,313,-1,335,339,320,-1,320,339,340,-1,320,340,322,-1,322,340,341,-1,322,341,324,-1,
        ]
    }
}
Shape{
    appearance Appearance {
        material  Material 	{
            diffuseColor 1.0 1.0 1.0
            specularColor 0.5019607843137255 0.5019607843137255 0.5019607843137255
            ambientIntensity 1.0
            transparency 0.0
            shininess 0.5
        }
    }
    geometry IndexedFaceSet {
        ccw TRUE
        solid FALSE
        coord DEF co Coordinate {
            point [
                0.0591 0.315 0.0039, 0.0591 0.315 0.0, 0.0591 0.3937 0.0039, 0.0591 0.3976 0.0, 0.0591 0.3937 0.0799, 0.0591 0.3976 0.0799, 0.0586 0.3106 0.0039, 0.0586 0.3106 0.0, 0.0571 0.3064 0.0039, 0.0571 0.3064 0.0, 0.0548 0.3027 0.0039, 0.0548 0.3027 0.0, 0.0522 0.3001 0.0039, 0.0516 0.2996 0.0, 0.0516 0.2996 0.0039, 0.0479 0.2972 0.0039, 0.0479 0.2972 0.0, 0.0438 0.2958 0.0039, 0.0438 0.2958 0.0, 0.0394 0.2953 0.0039, 0.0394 0.2953 0.0, 0.0174 0.2953 0.0039, -0.0114 0.2953 0.0039, -0.0394 0.2953 0.0, -0.0394 0.2953 0.0039, -0.0438 0.2958 0.0039, -0.0438 0.2958 0.0, -0.0479 0.2972 0.0039, -0.0479 0.2972 0.0, -0.0516 0.2996 0.0039, -0.0516 0.2996 0.0, -0.0548 0.3027 0.0039, -0.0548 0.3027 0.0, -0.0571 0.3064 0.0039, -0.0571 0.3064 0.0, -0.0586 0.3106 0.0039, -0.0586 0.3106 0.0, -0.0591 0.315 0.0039, -0.0591 0.315 0.0, -0.0591 0.3937 0.0799, -0.0591 0.3976 0.0799, -0.0591 0.3937 0.0039, -0.0591 0.3976 0.0, 0.315 0.315 0.0039, 0.315 0.315 0.0, 0.315 0.3937 0.0039, 0.315 0.3976 0.0, 0.315 0.3937 0.0799, 0.315 0.3976 0.0799, 0.3145 0.3106 0.0039, 0.3145 0.3106 0.0, 0.313 0.3064 0.0039, 0.313 0.3064 0.0, 0.3107 0.3027 0.0039, 0.3107 0.3027 0.0, 0.3075 0.2996 0.0039, 0.3075 0.2996 0.0, 0.3038 0.2972 0.0039, 0.3038 0.2972 0.0, 0.2997 0.2958 0.0039, 0.2997 0.2958 0.0, 0.2953 0.2953 0.0039, 0.2953 0.2953 0.0, 0.2165 0.2953 0.0, 0.2165 0.2953 0.0039, 0.2122 0.2958 0.0039, 0.2122 0.2958 0.0, 0.208 0.2972 0.0039, 0.208 0.2972 0.0, 0.2043 0.2996 0.0039, 0.2043 0.2996 0.0, 0.2011 0.3027 0.0039, 0.2011 0.3027 0.0, 0.1988 0.3064 0.0039, 0.1988 0.3064 0.0, 0.1973 0.3106 0.0039, 0.1973 0.3106 0.0, 0.1969 0.315 0.0039, 0.1969 0.315 0.0, 0.1969 0.3937 0.0799, 0.1969 0.3976 0.0799, 0.1969 0.3937 0.0039, 0.1969 0.3976 0.0, -0.1969 0.315 0.0039, -0.1969 0.315 0.0, -0.1969 0.3937 0.0039, -0.1969 0.3976 0.0, -0.1969 0.3937 0.0799, -0.1969 0.3976 0.0799, -0.1973 0.3106 0.0039, -0.1973 0.3106 0.0, -0.1988 0.3064 0.0039, -0.1988 0.3064 0.0, -0.2011 0.3027 0.0039, -0.2011 0.3027 0.0, -0.2043 0.2996 0.0039, -0.2043 0.2996 0.0, -0.208 0.2972 0.0039, -0.208 0.2972 0.0, -0.2122 0.2958 0.0039, -0.2122 0.2958 0.0, -0.2165 0.2953 0.0039, -0.2165 0.2953 0.0, -0.2953 0.2953 0.0, -0.2953 0.2953 0.0039, -0.2997 0.2958 0.0039, -0.2997 0.2958 0.0, -0.3038 0.2972 0.0039, -0.3038 0.2972 0.0, -0.3075 0.2996 0.0039, -0.3075 0.2996 0.0, -0.3107 0.3027 0.0039, -0.3107 0.3027 0.0, -0.313 0.3064 0.0039, -0.313 0.3064 0.0, -0.3145 0.3106 0.0039, -0.3145 0.3106 0.0, -0.315 0.315 0.0039, -0.315 0.315 0.0, -0.315 0.3937 0.0799, -0.315 0.3976 0.0799, -0.315 0.3937 0.0039, -0.315 0.3976 0.0, 0.1969 -0.315 0.0, 0.1969 -0.315 0.0039, 0.1973 -0.3106 0.0039, 0.1973 -0.3106 0.0, 0.1988 -0.3064 0.0039, 0.1988 -0.3064 0.0, 0.2011 -0.3027 0.0039, 0.2011 -0.3027 0.0, 0.2043 -0.2996 0.0039, 0.2043 -0.2996 0.0, 0.208 -0.2972 0.0039, 0.208 -0.2972 0.0, 0.2122 -0.2958 0.0039, 0.2122 -0.2958 0.0, 0.2165 -0.2953 0.0039, 0.2165 -0.2953 0.0, 0.2953 -0.2953 0.0, 0.2953 -0.2953 0.0039, 0.2997 -0.2958 0.0039, 0.2997 -0.2958 0.0, 0.3038 -0.2972 0.0039, 0.3038 -0.2972 0.0, 0.3075 -0.2996 0.0039, 0.3075 -0.2996 0.0, 0.3107 -0.3027 0.0039, 0.3107 -0.3027 0.0, 0.313 -0.3064 0.0039, 0.313 -0.3064 0.0, 0.3145 -0.3106 0.0039, 0.3145 -0.3106 0.0, 0.315 -0.315 0.0039, 0.315 -0.315 0.0, 0.315 -0.3937 0.0799, 0.315 -0.3976 0.0799, 0.315 -0.3937 0.0039, 0.315 -0.3976 0.0, 0.1969 -0.3937 0.0039, 0.1969 -0.3976 0.0, 0.1969 -0.3937 0.0799, 0.1969 -0.3976 0.0799, -0.315 -0.315 0.0, -0.315 -0.315 0.0039, -0.3145 -0.3106 0.0039, -0.3145 -0.3106 0.0, -0.313 -0.3064 0.0039, -0.313 -0.3064 0.0, -0.3107 -0.3027 0.0039, -0.3107 -0.3027 0.0, -0.3075 -0.2996 0.0039, -0.3075 -0.2996 0.0, -0.3038 -0.2972 0.0039, -0.3038 -0.2972 0.0, -0.2997 -0.2958 0.0039, -0.2997 -0.2958 0.0, -0.2953 -0.2953 0.0039, -0.2953 -0.2953 0.0, -0.2165 -0.2953 0.0, -0.2165 -0.2953 0.0039, -0.2122 -0.2958 0.0039, -0.2122 -0.2958 0.0, -0.208 -0.2972 0.0039, -0.208 -0.2972 0.0, -0.2043 -0.2996 0.0039, -0.2043 -0.2996 0.0, -0.2011 -0.3027 0.0039, -0.2011 -0.3027 0.0, -0.1988 -0.3064 0.0039, -0.1988 -0.3064 0.0, -0.1973 -0.3106 0.0039, -0.1973 -0.3106 0.0, -0.1969 -0.315 0.0039, -0.1969 -0.315 0.0, -0.1969 -0.3937 0.0799, -0.1969 -0.3976 0.0799, -0.1969 -0.3937 0.0039, -0.1969 -0.3976 0.0, -0.315 -0.3937 0.0039, -0.315 -0.3976 0.0, -0.315 -0.3937 0.0799, -0.315 -0.3976 0.0799, 0.0394 -0.2953 0.0, 0.0394 -0.2953 0.0039, 0.0438 -0.2958 0.0039, 0.0438 -0.2958 0.0, 0.0479 -0.2972 0.0039, 0.0479 -0.2972 0.0, 0.0516 -0.2996 0.0039, 0.0516 -0.2996 0.0, 0.0522 -0.3001 0.0039, 0.0548 -0.3027 0.0, 0.0548 -0.3027 0.0039, 0.0571 -0.3064 0.0039, 0.0571 -0.3064 0.0, 0.0586 -0.3106 0.0039, 0.0586 -0.3106 0.0, 0.0591 -0.315 0.0039, 0.0591 -0.315 0.0, 0.0591 -0.3937 0.0799, 0.0591 -0.3976 0.0799, 0.0591 -0.3937 0.0039, 0.0591 -0.3976 0.0, -0.0591 -0.315 0.0039, -0.0591 -0.315 0.0, -0.0591 -0.3937 0.0039, -0.0591 -0.3976 0.0, -0.0591 -0.3937 0.0799, -0.0591 -0.3976 0.0799, -0.0586 -0.3106 0.0039, -0.0586 -0.3106 0.0, -0.0571 -0.3064 0.0039, -0.0571 -0.3064 0.0, -0.0548 -0.3027 0.0039, -0.0548 -0.3027 0.0, -0.0516 -0.2996 0.0039, -0.0516 -0.2996 0.0, -0.0479 -0.2972 0.0039, -0.0479 -0.2972 0.0, -0.0438 -0.2958 0.0039, -0.0438 -0.2958 0.0, -0.0394 -0.2953 0.0039, -0.0394 -0.2953 0.0, 0.0174 -0.2953 0.0039, -0.0114 -0.2953 0.0039, 0.1969 0.128 0.0, 0.1969 -0.128 0.0, 0.1969 0.128 0.0039, 0.1969 -0.128 0.0039, 0.315 0.128 0.0, 0.315 0.128 0.0039, 0.315 -0.128 0.0, 0.315 -0.128 0.0039, 0.0709 -0.2165 0.0039, 0.0709 -0.2165 0.0, 0.0709 -0.1722 0.0039, 0.0709 0.2165 0.0, 0.0709 0.2165 0.0039, 0.0522 -0.2165 0.0039, -0.2244 -0.2165 0.0039, -0.2244 -0.2165 0.0, -0.0114 -0.2165 0.0039, 0.0174 -0.2165 0.0039, -0.3031 -0.1378 0.0039, -0.3031 -0.1378 0.0, -0.2687 -0.1722 0.0039, -0.3031 0.2165 0.0, -0.3031 0.2165 0.0039, 0.0522 0.2165 0.0039, -0.0114 0.2165 0.0039, 0.0174 0.2165 0.0039
            ]
        }
        coordIndex [
            0,1,2,-1,2,1,3,-1,2,3,4,-1,4,3,5,-1,1,0,6,-1,1,6,7,-1,7,6,8,-1,7,8,9,-1,9,8,10,-1,9,10,11,-1,11,10,12,-1,11,12,13,-1,12,14,13,-1,13,14,15,-1,13,15,16,-1,16,15,17,-1,16,17,18,-1,18,17,19,-1,18,19,20,-1,19,21,20,-1,20,21,22,-1,20,22,23,-1,23,22,24,-1,23,24,25,-1,23,25,26,-1,26,25,27,-1,26,27,28,-1,28,27,29,-1,28,29,30,-1,30,29,31,-1,30,31,32,-1,32,31,33,-1,32,33,34,-1,34,33,35,-1,34,35,36,-1,36,35,37,-1,36,37,38,-1,39,40,41,-1,41,40,42,-1,41,42,37,-1,37,42,38,-1,18,20,1,-1,1,20,3,-1,9,11,13,-1,3,20,42,-1,42,20,23,-1,42,23,38,-1,9,13,7,-1,7,13,1,-1,1,13,16,-1,1,16,18,-1,26,28,23,-1,23,28,30,-1,23,30,32,-1,32,34,23,-1,23,34,36,-1,23,36,38,-1,43,44,45,-1,45,44,46,-1,45,46,47,-1,47,46,48,-1,44,43,49,-1,44,49,50,-1,50,49,51,-1,50,51,52,-1,52,51,53,-1,52,53,54,-1,54,53,55,-1,54,55,56,-1,56,55,57,-1,56,57,58,-1,58,57,59,-1,58,59,60,-1,60,59,61,-1,60,61,62,-1,63,62,64,-1,64,62,61,-1,63,64,65,-1,63,65,66,-1,66,65,67,-1,66,67,68,-1,68,67,69,-1,68,69,70,-1,70,69,71,-1,70,71,72,-1,72,71,73,-1,72,73,74,-1,74,73,75,-1,74,75,76,-1,76,75,77,-1,76,77,78,-1,79,80,81,-1,81,80,82,-1,81,82,77,-1,77,82,78,-1,78,82,63,-1,63,82,62,-1,50,52,54,-1,82,46,62,-1,62,46,44,-1,62,44,60,-1,60,44,58,-1,50,54,44,-1,44,54,56,-1,44,56,58,-1,68,70,76,-1,76,70,72,-1,76,72,74,-1,78,63,76,-1,76,63,66,-1,76,66,68,-1,83,84,85,-1,85,84,86,-1,85,86,87,-1,87,86,88,-1,84,83,89,-1,84,89,90,-1,90,89,91,-1,90,91,92,-1,92,91,93,-1,92,93,94,-1,94,93,95,-1,94,95,96,-1,96,95,97,-1,96,97,98,-1,98,97,99,-1,98,99,100,-1,100,99,101,-1,100,101,102,-1,103,102,104,-1,104,102,101,-1,103,104,105,-1,103,105,106,-1,106,105,107,-1,106,107,108,-1,108,107,109,-1,108,109,110,-1,110,109,111,-1,110,111,112,-1,112,111,113,-1,112,113,114,-1,114,113,115,-1,114,115,116,-1,116,115,117,-1,116,117,118,-1,119,120,121,-1,121,120,122,-1,121,122,117,-1,117,122,118,-1,118,122,103,-1,94,96,98,-1,103,106,118,-1,118,106,108,-1,118,108,110,-1,110,112,118,-1,118,112,114,-1,118,114,116,-1,122,86,103,-1,103,86,84,-1,103,84,102,-1,102,84,90,-1,90,92,102,-1,102,92,94,-1,102,94,100,-1,100,94,98,-1,123,124,125,-1,123,125,126,-1,126,125,127,-1,126,127,128,-1,128,127,129,-1,128,129,130,-1,130,129,131,-1,130,131,132,-1,132,131,133,-1,132,133,134,-1,134,133,135,-1,134,135,136,-1,136,135,137,-1,136,137,138,-1,139,138,140,-1,140,138,137,-1,139,140,141,-1,139,141,142,-1,142,141,143,-1,142,143,144,-1,144,143,145,-1,144,145,146,-1,146,145,147,-1,146,147,148,-1,148,147,149,-1,148,149,150,-1,150,149,151,-1,150,151,152,-1,152,151,153,-1,152,153,154,-1,155,156,157,-1,157,156,158,-1,157,158,153,-1,153,158,154,-1,124,123,159,-1,159,123,160,-1,159,160,161,-1,161,160,162,-1,154,158,139,-1,158,160,139,-1,139,160,123,-1,139,123,138,-1,139,142,154,-1,154,142,144,-1,154,144,146,-1,146,148,154,-1,154,148,150,-1,154,150,152,-1,126,128,123,-1,123,128,130,-1,123,130,132,-1,132,134,123,-1,123,134,136,-1,123,136,138,-1,163,164,165,-1,163,165,166,-1,166,165,167,-1,166,167,168,-1,168,167,169,-1,168,169,170,-1,170,169,171,-1,170,171,172,-1,172,171,173,-1,172,173,174,-1,174,173,175,-1,174,175,176,-1,176,175,177,-1,176,177,178,-1,179,178,180,-1,180,178,177,-1,179,180,181,-1,179,181,182,-1,182,181,183,-1,182,183,184,-1,184,183,185,-1,184,185,186,-1,186,185,187,-1,186,187,188,-1,188,187,189,-1,188,189,190,-1,190,189,191,-1,190,191,192,-1,192,191,193,-1,192,193,194,-1,195,196,197,-1,197,196,198,-1,197,198,193,-1,193,198,194,-1,164,163,199,-1,199,163,200,-1,199,200,201,-1,201,200,202,-1,178,179,194,-1,176,178,163,-1,163,178,194,-1,163,194,200,-1,200,194,198,-1,182,184,179,-1,179,184,186,-1,179,186,188,-1,188,190,179,-1,179,190,192,-1,179,192,194,-1,170,172,168,-1,168,172,166,-1,166,172,163,-1,163,172,174,-1,163,174,176,-1,203,204,205,-1,203,205,206,-1,206,205,207,-1,206,207,208,-1,208,207,209,-1,208,209,210,-1,210,209,211,-1,210,211,212,-1,211,213,212,-1,212,213,214,-1,212,214,215,-1,215,214,216,-1,215,216,217,-1,217,216,218,-1,217,218,219,-1,220,221,222,-1,222,221,223,-1,222,223,218,-1,218,223,219,-1,224,225,226,-1,226,225,227,-1,226,227,228,-1,228,227,229,-1,225,224,230,-1,225,230,231,-1,231,230,232,-1,231,232,233,-1,233,232,234,-1,233,234,235,-1,235,234,236,-1,235,236,237,-1,237,236,238,-1,237,238,239,-1,239,238,240,-1,239,240,241,-1,241,240,242,-1,241,242,243,-1,244,204,203,-1,244,203,245,-1,245,203,243,-1,245,243,242,-1,241,243,225,-1,225,243,203,-1,225,203,227,-1,206,219,203,-1,203,219,223,-1,203,223,227,-1,210,212,215,-1,206,208,219,-1,219,208,210,-1,219,210,217,-1,217,210,215,-1,233,235,237,-1,225,231,241,-1,241,231,233,-1,241,233,239,-1,239,233,237,-1,246,247,248,-1,248,247,249,-1,250,246,251,-1,251,246,248,-1,252,250,253,-1,253,250,251,-1,247,252,249,-1,249,252,253,-1,250,252,246,-1,246,252,247,-1,254,255,256,-1,256,255,257,-1,256,257,258,-1,255,254,259,-1,260,261,262,-1,262,261,255,-1,262,255,263,-1,263,255,259,-1,264,265,266,-1,266,265,261,-1,266,261,260,-1,267,265,268,-1,268,265,264,-1,269,258,257,-1,267,268,270,-1,267,270,257,-1,257,270,271,-1,257,271,269,-1,265,267,261,-1,261,267,257,-1,261,257,255,-1,48,80,47,-1,47,80,79,-1,82,80,46,-1,46,80,48,-1,5,40,4,-1,4,40,39,-1,40,5,42,-1,42,5,3,-1,88,120,87,-1,87,120,119,-1,120,88,122,-1,122,88,86,-1,162,156,161,-1,161,156,155,-1,162,160,156,-1,156,160,158,-1,229,221,228,-1,228,221,220,-1,221,229,223,-1,223,229,227,-1,202,196,201,-1,201,196,195,-1,196,202,198,-1,198,202,200,-1,
        ]
    }
}
Shape{
    appearance Appearance {
        material  Material 	{
            diffuseColor 0.7529411764705882 0.7529411764705882 0.7529411764705882
            specularColor 0.3764705882352941 0.3764705882352941 0.3764705882352941
            ambientIntensity 0.7529
            transparency 0.0
            shininess 0.5
        }
    }
    geometry IndexedFaceSet {
        ccw TRUE
        solid FALSE
        coord DEF co Coordinate {
            point [
                -0.2279 -0.2858 0.2756, -0.2283 -0.2808 0.2756, -0.2682 -0.2858 0.2756, -0.2283 -0.2909 0.2756, -0.2425 -0.3169 0.2756, -0.2356 -0.3095 0.2756, -0.2308 -0.3007 0.2756, -0.2708 -0.326 0.2756, -0.2607 -0.3254 0.2756, -0.2511 -0.3223 0.2756, -0.2976 -0.3134 0.2756, -0.2898 -0.3198 0.2756, -0.2807 -0.3241 0.2756, -0.3085 -0.2858 0.2756, -0.3073 -0.2958 0.2756, -0.3036 -0.3052 0.2756, -0.2976 -0.2582 0.2756, -0.3036 -0.2664 0.2756, -0.3073 -0.2758 0.2756, -0.2708 -0.2456 0.2756, -0.2807 -0.2475 0.2756, -0.2898 -0.2518 0.2756, -0.2425 -0.2548 0.2756, -0.2511 -0.2494 0.2756, -0.2607 -0.2462 0.2756, -0.2308 -0.271 0.2756, -0.2356 -0.2621 0.2756
            ]
        }
        coordIndex [
            0,1,2,-1,0,2,3,-1,4,5,2,-1,2,5,6,-1,2,6,3,-1,7,8,2,-1,2,8,9,-1,2,9,4,-1,10,11,2,-1,2,11,12,-1,2,12,7,-1,13,14,2,-1,2,14,15,-1,2,15,10,-1,16,17,2,-1,2,17,18,-1,2,18,13,-1,19,20,2,-1,2,20,21,-1,2,21,16,-1,22,23,2,-1,2,23,24,-1,2,24,19,-1,1,25,2,-1,2,25,26,-1,2,26,22,-1,
        ]
    }
}
Shape{
    appearance Appearance {
        material  Material 	{
            diffuseColor 1.0 1.0 1.0
            specularColor 0.5019607843137255 0.5019607843137255 0.5019607843137255
            ambientIntensity 1.0
            transparency 0.0
            shininess 0.5
        }
    }
    geometry IndexedFaceSet {
        ccw TRUE
        solid FALSE
        coord DEF co Coordinate {
            point [
                -0.07 0.258 0.0043, -0.0854 0.2186 0.0043, -0.07 0.258 0.0039, -0.0854 0.2186 0.0039, -0.0796 0.2186 0.0043, -0.0796 0.2186 0.0039, -0.0756 0.2297 0.0043, -0.0756 0.2297 0.0039, -0.0594 0.2297 0.0043, -0.0594 0.2297 0.0039, -0.0556 0.2186 0.0043, -0.0556 0.2186 0.0039, -0.0498 0.2186 0.0043, -0.0498 0.2186 0.0039, -0.0647 0.258 0.0043, -0.0647 0.258 0.0039, -0.0607 0.234 0.0043, -0.0739 0.234 0.0043, -0.0666 0.2504 0.0043, -0.0669 0.2518 0.0043, -0.0672 0.2532 0.0043, -0.0673 0.2532 0.0043, -0.0676 0.2518 0.0043, -0.0679 0.2504 0.0043, -0.0607 0.234 0.0039, -0.0739 0.234 0.0039, -0.0666 0.2504 0.0039, -0.0669 0.2518 0.0039, -0.0672 0.2532 0.0039, -0.0673 0.2532 0.0039, -0.0676 0.2518 0.0039, -0.0679 0.2504 0.0039, -0.026 0.2186 0.0043, -0.0153 0.2186 0.0043, -0.026 0.2186 0.0039, -0.0153 0.2186 0.0039, -0.0153 0.258 0.0043, -0.0153 0.258 0.0039, -0.0264 0.258 0.0043, -0.0264 0.258 0.0039, -0.047 0.2388 0.0043, -0.047 0.2388 0.0039, -0.0467 0.2425 0.0039, -0.0467 0.2425 0.0043, -0.0456 0.2464 0.0039, -0.0456 0.2464 0.0043, -0.0438 0.2498 0.0039, -0.0438 0.2498 0.0043, -0.041 0.2528 0.0039, -0.041 0.2528 0.0043, -0.041 0.2529 0.0039, -0.041 0.2529 0.0043, -0.0367 0.2558 0.0039, -0.0367 0.2558 0.0043, -0.0321 0.2574 0.0039, -0.0321 0.2574 0.0043, -0.0309 0.219 0.0039, -0.0309 0.219 0.0043, -0.0354 0.2204 0.0039, -0.0354 0.2204 0.0043, -0.0395 0.2228 0.0039, -0.0395 0.2228 0.0043, -0.0427 0.2259 0.0039, -0.0427 0.2259 0.0043, -0.045 0.2294 0.0039, -0.045 0.2294 0.0043, -0.0464 0.2335 0.0039, -0.0464 0.2335 0.0043, -0.0391 0.2481 0.0043, -0.0372 0.2502 0.0043, -0.0343 0.252 0.0043, -0.031 0.2532 0.0043, -0.0264 0.2537 0.0043, -0.0206 0.2537 0.0043, -0.0206 0.2229 0.0043, -0.0261 0.2229 0.0043, -0.0303 0.2233 0.0043, -0.0336 0.2244 0.0043, -0.0363 0.2259 0.0043, -0.0385 0.2281 0.0043, -0.0402 0.2308 0.0043, -0.0413 0.2345 0.0043, -0.0417 0.2387 0.0043, -0.0413 0.2426 0.0043, -0.0404 0.2457 0.0043, -0.0264 0.2537 0.0039, -0.0206 0.2537 0.0039, -0.031 0.2532 0.0039, -0.0343 0.252 0.0039, -0.0372 0.2502 0.0039, -0.0391 0.2481 0.0039, -0.0404 0.2457 0.0039, -0.0413 0.2426 0.0039, -0.0417 0.2387 0.0039, -0.0413 0.2345 0.0039, -0.0402 0.2308 0.0039, -0.0385 0.2281 0.0039, -0.0363 0.2259 0.0039, -0.0336 0.2244 0.0039, -0.0303 0.2233 0.0039, -0.0261 0.2229 0.0039, -0.0206 0.2229 0.0039, -0.0076 0.2229 0.0043, -0.0076 0.2186 0.0043, -0.0076 0.2229 0.0039, -0.0076 0.2186 0.0039, 0.0135 0.2186 0.0043, 0.0135 0.2186 0.0039, 0.0135 0.258 0.0043, 0.0135 0.258 0.0039, -0.0066 0.258 0.0043, -0.0066 0.258 0.0039, -0.0066 0.2537 0.0043, -0.0066 0.2537 0.0039, 0.0082 0.2537 0.0043, 0.0082 0.2537 0.0039, 0.0082 0.2407 0.0043, 0.0082 0.2407 0.0039, -0.0057 0.2407 0.0043, -0.0057 0.2407 0.0039, -0.0057 0.2364 0.0043, -0.0057 0.2364 0.0039, 0.0082 0.2364 0.0043, 0.0082 0.2364 0.0039, 0.0082 0.2229 0.0043, 0.0082 0.2229 0.0039, 0.0212 0.225 0.0043, 0.0212 0.2207 0.0043, 0.0212 0.225 0.0039, 0.0212 0.2207 0.0039, 0.0254 0.2189 0.0043, 0.032 0.2181 0.0043, 0.032 0.2181 0.0039, 0.031 0.2182 0.0039, 0.031 0.2182 0.0043, 0.0294 0.2184 0.0039, 0.0254 0.2189 0.0039, 0.0344 0.2184 0.0039, 0.0369 0.2186 0.0043, 0.0369 0.2186 0.0039, 0.0407 0.2199 0.0043, 0.0407 0.2199 0.0039, 0.0439 0.222 0.0043, 0.0439 0.222 0.0039, 0.0468 0.2251 0.0043, 0.0468 0.2251 0.0039, 0.0489 0.2288 0.0043, 0.0489 0.2288 0.0039, 0.0501 0.233 0.0043, 0.0501 0.233 0.0039, 0.0505 0.2376 0.0043, 0.0505 0.2376 0.0039, 0.0305 0.2585 0.0043, 0.0305 0.2585 0.0039, 0.0344 0.2581 0.0043, 0.0334 0.2582 0.0039, 0.0344 0.2581 0.0039, 0.0388 0.2569 0.0039, 0.0388 0.2569 0.0043, 0.0426 0.2547 0.0039, 0.0426 0.2547 0.0043, 0.0461 0.2513 0.0039, 0.0461 0.2513 0.0043, 0.0484 0.2476 0.0039, 0.0484 0.2476 0.0043, 0.0499 0.2432 0.0039, 0.0499 0.2432 0.0043, 0.027 0.2582 0.0039, 0.0258 0.2581 0.0043, 0.0258 0.2581 0.0039, 0.0212 0.2569 0.0043, 0.0212 0.2569 0.0039, 0.0212 0.2516 0.0043, 0.0212 0.2516 0.0039, 0.0304 0.2541 0.0043, 0.0304 0.2541 0.0039, 0.0256 0.2535 0.0039, 0.0256 0.2535 0.0043, 0.0452 0.2379 0.0043, 0.0452 0.2379 0.0039, 0.045 0.2409 0.0039, 0.045 0.2409 0.0043, 0.044 0.2452 0.0039, 0.044 0.2452 0.0043, 0.0424 0.2482 0.0039, 0.0424 0.2482 0.0043, 0.04 0.2508 0.0039, 0.04 0.2508 0.0043, 0.0373 0.2526 0.0039, 0.0373 0.2526 0.0043, 0.0343 0.2537 0.0039, 0.0343 0.2537 0.0043, 0.0313 0.2225 0.0043, 0.0313 0.2225 0.0039, 0.035 0.2229 0.0039, 0.035 0.2229 0.0043, 0.0379 0.2239 0.0039, 0.0379 0.2239 0.0043, 0.0403 0.2256 0.0039, 0.0403 0.2256 0.0043, 0.0421 0.2275 0.0039, 0.0421 0.2275 0.0043, 0.0438 0.2302 0.0039, 0.0438 0.2302 0.0043, 0.0448 0.2336 0.0039, 0.0448 0.2336 0.0043, 0.0219 0.2246 0.0039, 0.0219 0.2246 0.0043, 0.0261 0.223 0.0039, 0.0261 0.223 0.0043, 0.0539 0.2229 0.0043, 0.0539 0.2186 0.0043, 0.0539 0.2229 0.0039, 0.0539 0.2186 0.0039, 0.074 0.2186 0.0043, 0.074 0.2186 0.0039, 0.074 0.258 0.0043, 0.074 0.258 0.0039, 0.0687 0.258 0.0043, 0.0687 0.258 0.0039, 0.0687 0.2229 0.0043, 0.0687 0.2229 0.0039
            ]
        }
        coordIndex [
            0,1,2,-1,2,1,3,-1,1,4,3,-1,3,4,5,-1,4,6,5,-1,5,6,7,-1,6,8,7,-1,7,8,9,-1,8,10,9,-1,9,10,11,-1,10,12,11,-1,11,12,13,-1,12,14,13,-1,13,14,15,-1,14,0,15,-1,15,0,2,-1,16,8,17,-1,17,8,6,-1,18,14,16,-1,16,14,12,-1,16,12,8,-1,8,12,10,-1,18,19,14,-1,14,19,20,-1,14,20,0,-1,0,20,21,-1,0,21,22,-1,22,23,0,-1,0,23,17,-1,0,17,1,-1,1,17,6,-1,1,6,4,-1,16,17,24,-1,24,17,25,-1,18,16,26,-1,26,16,24,-1,18,26,27,-1,18,27,19,-1,19,27,28,-1,19,28,20,-1,21,20,29,-1,29,20,28,-1,21,29,30,-1,21,30,22,-1,22,30,31,-1,22,31,23,-1,17,23,25,-1,25,23,31,-1,32,33,34,-1,34,33,35,-1,33,36,35,-1,35,36,37,-1,36,38,37,-1,37,38,39,-1,40,41,42,-1,40,42,43,-1,43,42,44,-1,43,44,45,-1,45,44,46,-1,45,46,47,-1,47,46,48,-1,47,48,49,-1,49,48,50,-1,49,50,51,-1,51,50,52,-1,51,52,53,-1,53,52,54,-1,53,54,55,-1,55,54,39,-1,55,39,38,-1,32,34,56,-1,32,56,57,-1,57,56,58,-1,57,58,59,-1,59,58,60,-1,59,60,61,-1,61,60,62,-1,61,62,63,-1,63,62,64,-1,63,64,65,-1,65,64,66,-1,65,66,67,-1,67,66,41,-1,67,41,40,-1,45,47,68,-1,68,47,49,-1,68,49,69,-1,69,49,51,-1,69,51,70,-1,70,51,53,-1,70,53,71,-1,71,53,55,-1,71,55,72,-1,72,55,38,-1,72,38,73,-1,73,38,36,-1,73,36,74,-1,74,36,33,-1,74,33,75,-1,75,33,32,-1,75,32,76,-1,76,32,57,-1,76,57,77,-1,77,57,59,-1,77,59,78,-1,78,59,61,-1,78,61,79,-1,79,61,63,-1,79,63,80,-1,80,63,65,-1,80,65,81,-1,81,65,67,-1,81,67,82,-1,82,67,40,-1,82,40,83,-1,83,40,43,-1,83,43,84,-1,84,43,45,-1,84,45,68,-1,72,73,85,-1,85,73,86,-1,72,85,87,-1,72,87,71,-1,71,87,88,-1,71,88,70,-1,70,88,89,-1,70,89,69,-1,69,89,90,-1,69,90,68,-1,68,90,91,-1,68,91,84,-1,84,91,92,-1,84,92,83,-1,83,92,93,-1,83,93,82,-1,82,93,94,-1,82,94,81,-1,81,94,95,-1,81,95,80,-1,80,95,96,-1,80,96,79,-1,79,96,97,-1,79,97,78,-1,78,97,98,-1,78,98,77,-1,77,98,99,-1,77,99,76,-1,76,99,100,-1,76,100,75,-1,74,75,101,-1,101,75,100,-1,73,74,86,-1,86,74,101,-1,102,103,104,-1,104,103,105,-1,103,106,105,-1,105,106,107,-1,106,108,107,-1,107,108,109,-1,108,110,109,-1,109,110,111,-1,110,112,111,-1,111,112,113,-1,112,114,113,-1,113,114,115,-1,114,116,115,-1,115,116,117,-1,116,118,117,-1,117,118,119,-1,118,120,119,-1,119,120,121,-1,120,122,121,-1,121,122,123,-1,122,124,123,-1,123,124,125,-1,124,102,125,-1,125,102,104,-1,106,103,102,-1,102,124,106,-1,106,124,122,-1,106,122,108,-1,112,110,114,-1,114,110,108,-1,114,108,116,-1,116,108,122,-1,116,122,118,-1,118,122,120,-1,126,127,128,-1,128,127,129,-1,129,127,130,-1,131,132,133,-1,131,133,134,-1,134,133,135,-1,134,135,130,-1,130,135,136,-1,130,136,129,-1,132,131,137,-1,137,131,138,-1,137,138,139,-1,139,138,140,-1,139,140,141,-1,141,140,142,-1,141,142,143,-1,143,142,144,-1,143,144,145,-1,145,144,146,-1,145,146,147,-1,147,146,148,-1,147,148,149,-1,149,148,150,-1,149,150,151,-1,152,153,154,-1,154,153,155,-1,155,156,154,-1,154,156,157,-1,154,157,158,-1,158,157,159,-1,158,159,160,-1,160,159,161,-1,160,161,162,-1,162,161,163,-1,162,163,164,-1,164,163,165,-1,164,165,166,-1,166,165,151,-1,166,151,150,-1,153,152,167,-1,167,152,168,-1,167,168,169,-1,169,168,170,-1,169,170,171,-1,170,172,171,-1,171,172,173,-1,174,175,176,-1,174,176,177,-1,177,176,173,-1,177,173,172,-1,178,179,180,-1,178,180,181,-1,181,180,182,-1,181,182,183,-1,183,182,184,-1,183,184,185,-1,185,184,186,-1,185,186,187,-1,187,186,188,-1,187,188,189,-1,189,188,190,-1,189,190,191,-1,191,190,175,-1,191,175,174,-1,192,193,194,-1,192,194,195,-1,195,194,196,-1,195,196,197,-1,197,196,198,-1,197,198,199,-1,199,198,200,-1,199,200,201,-1,201,200,202,-1,201,202,203,-1,203,202,204,-1,203,204,205,-1,205,204,179,-1,205,179,178,-1,126,128,206,-1,126,206,207,-1,207,206,208,-1,207,208,209,-1,209,208,193,-1,209,193,192,-1,195,131,192,-1,192,131,134,-1,192,134,209,-1,209,134,130,-1,209,130,207,-1,207,130,127,-1,207,127,126,-1,172,170,177,-1,177,170,168,-1,177,168,174,-1,174,168,152,-1,174,152,191,-1,191,152,154,-1,191,154,189,-1,189,154,158,-1,189,158,187,-1,187,158,160,-1,187,160,185,-1,185,160,162,-1,185,162,183,-1,183,162,164,-1,183,164,181,-1,181,164,166,-1,181,166,178,-1,178,166,150,-1,178,150,205,-1,205,150,148,-1,205,148,203,-1,203,148,146,-1,203,146,201,-1,201,146,144,-1,201,144,199,-1,199,144,142,-1,199,142,197,-1,197,142,140,-1,197,140,195,-1,195,140,138,-1,195,138,131,-1,210,211,212,-1,212,211,213,-1,211,214,213,-1,213,214,215,-1,214,216,215,-1,215,216,217,-1,216,218,217,-1,217,218,219,-1,218,220,219,-1,219,220,221,-1,220,210,221,-1,221,210,212,-1,218,216,220,-1,220,216,214,-1,220,214,210,-1,210,214,211,-1,
        ]
    }
}
Shape{
    appearance Appearance {
        material  Material 	{
            diffuseColor 0.5019607843137255 0.5019607843137255 0.5019607843137255
            specularColor 0.25098039215686274 0.25098039215686274 0.25098039215686274
            ambientIntensity 0.502
            transparency 0.0
            shininess 0.5
        }
    }
    geometry IndexedFaceSet {
        ccw TRUE
        solid FALSE
        coord DEF co Coordinate {
            point [
                -0.0607 0.234 0.0039, -0.0739 0.234 0.0039, -0.0666 0.2504 0.0039, -0.0679 0.2504 0.0039, -0.0669 0.2518 0.0039, -0.0676 0.2518 0.0039, -0.0672 0.2532 0.0039, -0.0673 0.2532 0.0039, -0.0206 0.2537 0.0039, -0.0206 0.2229 0.0039, -0.0264 0.2537 0.0039, -0.0261 0.2229 0.0039, -0.0303 0.2233 0.0039, -0.0417 0.2387 0.0039, -0.0413 0.2426 0.0039, -0.0404 0.2457 0.0039, -0.031 0.2532 0.0039, -0.0336 0.2244 0.0039, -0.0363 0.2259 0.0039, -0.0385 0.2281 0.0039, -0.0402 0.2308 0.0039, -0.0413 0.2345 0.0039, -0.0391 0.2481 0.0039, -0.0372 0.2502 0.0039, -0.0343 0.252 0.0039
            ]
        }
        coordIndex [
            0,1,2,-1,2,1,3,-1,2,3,4,-1,4,3,5,-1,4,5,6,-1,6,5,7,-1,8,9,10,-1,10,9,11,-1,10,11,12,-1,13,14,10,-1,10,14,15,-1,10,15,16,-1,12,17,10,-1,10,17,18,-1,10,18,19,-1,19,20,10,-1,10,20,21,-1,10,21,13,-1,22,23,15,-1,15,23,24,-1,15,24,16,-1,
        ]
    }
}
Shape{
    appearance Appearance {
        material  Material 	{
            diffuseColor 1.0 1.0 0.0
            specularColor 0.5019607843137255 0.5019607843137255 0.0
            ambientIntensity 0.886
            transparency 0.0
            shininess 0.5
        }
    }
    geometry IndexedFaceSet {
        ccw TRUE
        solid FALSE
        coord DEF co Coordinate {
            point [
                0.3976 0.1575 0.0551, 0.3976 0.2362 0.0551, 0.3937 0.1575 0.0551, 0.3937 0.2362 0.0551, 0.3976 0.1575 0.0236, 0.3937 0.1575 0.0236, 0.3976 0.2362 0.0236, 0.3937 0.2362 0.0236, 0.3976 -0.1575 0.0236, 0.3976 -0.2362 0.0236, 0.3937 -0.1575 0.0236, 0.3937 -0.2362 0.0236, 0.3976 -0.1575 0.0551, 0.3937 -0.1575 0.0551, 0.3976 -0.2362 0.0551, 0.3937 -0.2362 0.0551, -0.3976 0.2362 0.0551, -0.3976 0.1575 0.0551, -0.3937 0.2362 0.0551, -0.3937 0.1575 0.0551, -0.3976 0.2362 0.0236, -0.3937 0.2362 0.0236, -0.3976 0.1575 0.0236, -0.3937 0.1575 0.0236, -0.3976 -0.2362 0.0236, -0.3976 -0.1575 0.0236, -0.3937 -0.2362 0.0236, -0.3937 -0.1575 0.0236, -0.3976 -0.2362 0.0551, -0.3937 -0.2362 0.0551, -0.3976 -0.1575 0.0551, -0.3937 -0.1575 0.0551
            ]
        }
        coordIndex [
            0,1,2,-1,2,1,3,-1,4,0,5,-1,5,0,2,-1,6,4,7,-1,7,4,5,-1,1,6,3,-1,3,6,7,-1,4,6,0,-1,0,6,1,-1,8,9,10,-1,10,9,11,-1,12,8,13,-1,13,8,10,-1,14,12,15,-1,15,12,13,-1,9,14,11,-1,11,14,15,-1,12,14,8,-1,8,14,9,-1,16,17,18,-1,18,17,19,-1,20,16,21,-1,21,16,18,-1,22,20,23,-1,23,20,21,-1,17,22,19,-1,19,22,23,-1,20,22,16,-1,16,22,17,-1,24,25,26,-1,26,25,27,-1,28,24,29,-1,29,24,26,-1,30,28,31,-1,31,28,29,-1,25,30,27,-1,27,30,31,-1,28,30,24,-1,24,30,25,-1,
        ]
    }
}
Shape{
    appearance Appearance {
        material  Material 	{
            diffuseColor 0.5019607843137255 0.5019607843137255 0.5019607843137255
            specularColor 0.25098039215686274 0.25098039215686274 0.25098039215686274
            ambientIntensity 0.502
            transparency 0.0
            shininess 0.5
        }
    }
    geometry IndexedFaceSet {
        ccw TRUE
        solid FALSE
        coord DEF co Coordinate {
            point [
                0.3937 -0.3898 0.0039, 0.3937 -0.3898 0.2756, 0.3936 -0.3908 0.2756, 0.3936 -0.3908 0.0039, 0.3932 -0.3917 0.2756, 0.3932 -0.3917 0.0039, 0.3925 -0.3925 0.2756, 0.3925 -0.3925 0.0039, 0.3917 -0.3932 0.2756, 0.3917 -0.3932 0.0039, 0.3908 -0.3936 0.2756, 0.3908 -0.3936 0.0039, 0.3898 -0.3937 0.2756, 0.3898 -0.3937 0.0039, 0.3898 -0.3898 0.2795, -0.3898 -0.3898 0.2795, -0.3898 -0.3908 0.2794, 0.3898 -0.3908 0.2794, -0.3898 -0.3917 0.279, 0.3898 -0.3917 0.279, -0.3898 -0.3925 0.2784, 0.3898 -0.3925 0.2784, -0.3898 -0.3932 0.2776, 0.3898 -0.3932 0.2776, -0.3898 -0.3936 0.2766, 0.3898 -0.3936 0.2766, -0.3898 -0.3937 0.2756, -0.3915 -0.3933 0.0039, -0.3906 -0.3936 0.0039, -0.3906 -0.3936 0.2756, -0.3898 -0.3937 0.0039, -0.3908 -0.3936 0.2756, -0.3915 -0.3933 0.2756, -0.3922 -0.3928 0.0039, -0.3917 -0.3932 0.2756, -0.3922 -0.3928 0.2756, -0.3925 -0.3925 0.2756, -0.3928 -0.3922 0.0039, -0.3928 -0.3922 0.2756, -0.3932 -0.3917 0.2756, -0.3933 -0.3915 0.0039, -0.3933 -0.3915 0.2756, -0.3936 -0.3908 0.2756, -0.3936 -0.3906 0.0039, -0.3936 -0.3906 0.2756, -0.3937 -0.3898 0.2756, -0.3937 -0.3898 0.0039, 0.3936 -0.3898 0.2766, 0.3934 -0.3907 0.2766, 0.3915 -0.3907 0.279, 0.3906 -0.3903 0.2794, 0.3905 -0.3905 0.2794, 0.39 -0.3907 0.2794, 0.3907 -0.39 0.2794, 0.3917 -0.3903 0.279, 0.3925 -0.3905 0.2784, 0.3908 -0.3898 0.2794, 0.3912 -0.3912 0.279, 0.3903 -0.3906 0.2794, 0.3907 -0.3915 0.279, 0.3903 -0.3917 0.279, 0.3917 -0.3898 0.279, 0.3925 -0.3898 0.2784, 0.3932 -0.3898 0.2776, 0.3922 -0.3912 0.2784, 0.3917 -0.3917 0.2784, 0.3912 -0.3922 0.2784, 0.3905 -0.3925 0.2784, 0.3931 -0.3906 0.2776, 0.3927 -0.3915 0.2776, 0.3922 -0.3922 0.2776, 0.3915 -0.3927 0.2776, 0.3906 -0.3931 0.2776, 0.3931 -0.3917 0.2766, 0.3925 -0.3925 0.2766, 0.3917 -0.3931 0.2766, 0.3907 -0.3934 0.2766, -0.3934 -0.3907 0.2766, -0.3931 -0.3917 0.2766, -0.3925 -0.3925 0.2766, -0.3917 -0.3931 0.2766, -0.3907 -0.3934 0.2766, -0.3906 -0.3931 0.2776, -0.3905 -0.3925 0.2784, -0.3903 -0.3917 0.279, -0.39 -0.3907 0.2794, -0.3915 -0.3927 0.2776, -0.3912 -0.3922 0.2784, -0.3907 -0.3915 0.279, -0.3903 -0.3906 0.2794, -0.3922 -0.3922 0.2776, -0.3917 -0.3917 0.2784, -0.3912 -0.3912 0.279, -0.3905 -0.3905 0.2794, -0.3927 -0.3915 0.2776, -0.3922 -0.3912 0.2784, -0.3915 -0.3907 0.279, -0.3906 -0.3903 0.2794, -0.3931 -0.3906 0.2776, -0.3925 -0.3905 0.2784, -0.3917 -0.3903 0.279, -0.3907 -0.39 0.2794, -0.3936 -0.3898 0.2766, -0.3932 -0.3898 0.2776, -0.3925 -0.3898 0.2784, -0.3917 -0.3898 0.279, -0.3908 -0.3898 0.2794, 0.3898 0.3937 0.0039, 0.3898 0.3937 0.2756, 0.3908 0.3936 0.2756, 0.3908 0.3936 0.0039, 0.3917 0.3932 0.2756, 0.3917 0.3932 0.0039, 0.3925 0.3925 0.2756, 0.3925 0.3925 0.0039, 0.3932 0.3917 0.2756, 0.3932 0.3917 0.0039, 0.3936 0.3908 0.2756, 0.3936 0.3908 0.0039, 0.3937 0.3898 0.2756, 0.3937 0.3898 0.0039, 0.3898 0.3898 0.2795, 0.3908 0.3898 0.2794, 0.3917 0.3898 0.279, 0.3925 0.3898 0.2784, 0.3932 0.3898 0.2776, 0.3936 0.3898 0.2766, -0.3898 0.3898 0.2795, -0.3908 0.3898 0.2794, -0.3917 0.3898 0.279, -0.3925 0.3898 0.2784, -0.3932 0.3898 0.2776, -0.3936 0.3898 0.2766, -0.3937 0.3898 0.2756, -0.3937 0.3898 0.0039, -0.3936 0.3908 0.2756, -0.3936 0.3908 0.0039, -0.3932 0.3917 0.2756, -0.3932 0.3917 0.0039, -0.3925 0.3925 0.2756, -0.3925 0.3925 0.0039, -0.3917 0.3932 0.2756, -0.3917 0.3932 0.0039, -0.3908 0.3936 0.2756, -0.3908 0.3936 0.0039, -0.3898 0.3937 0.2756, -0.3898 0.3937 0.0039, 0.3898 0.3936 0.2766, 0.3907 0.3934 0.2766, 0.3907 0.3915 0.279, 0.3903 0.3906 0.2794, 0.3905 0.3905 0.2794, 0.3907 0.39 0.2794, 0.39 0.3907 0.2794, 0.3903 0.3917 0.279, 0.3905 0.3925 0.2784, 0.3898 0.3908 0.2794, 0.3912 0.3912 0.279, 0.3906 0.3903 0.2794, 0.3915 0.3907 0.279, 0.3917 0.3903 0.279, 0.3898 0.3917 0.279, 0.3898 0.3925 0.2784, 0.3898 0.3932 0.2776, 0.3912 0.3922 0.2784, 0.3917 0.3917 0.2784, 0.3922 0.3912 0.2784, 0.3925 0.3905 0.2784, 0.3906 0.3931 0.2776, 0.3915 0.3927 0.2776, 0.3922 0.3922 0.2776, 0.3927 0.3915 0.2776, 0.3931 0.3906 0.2776, 0.3917 0.3931 0.2766, 0.3925 0.3925 0.2766, 0.3931 0.3917 0.2766, 0.3934 0.3907 0.2766, -0.3934 0.3907 0.2766, -0.3915 0.3907 0.279, -0.3906 0.3903 0.2794, -0.3905 0.3905 0.2794, -0.3898 0.3908 0.2794, -0.39 0.3907 0.2794, -0.3907 0.39 0.2794, -0.3917 0.3903 0.279, -0.3925 0.3905 0.2784, -0.3912 0.3912 0.279, -0.3903 0.3906 0.2794, -0.3907 0.3915 0.279, -0.3903 0.3917 0.279, -0.3898 0.3917 0.279, -0.3922 0.3912 0.2784, -0.3917 0.3917 0.2784, -0.3912 0.3922 0.2784, -0.3905 0.3925 0.2784, -0.3898 0.3925 0.2784, -0.3931 0.3906 0.2776, -0.3927 0.3915 0.2776, -0.3922 0.3922 0.2776, -0.3915 0.3927 0.2776, -0.3906 0.3931 0.2776, -0.3898 0.3932 0.2776, -0.3931 0.3917 0.2766, -0.3925 0.3925 0.2766, -0.3917 0.3931 0.2766, -0.3907 0.3934 0.2766, -0.3898 0.3936 0.2766, -0.3125 -0.2858 0.2795, -0.3101 -0.2751 0.2794, -0.3111 -0.2748 0.2795, -0.3061 -0.265 0.2794, -0.307 -0.2645 0.2795, -0.2997 -0.2562 0.2794, -0.3005 -0.2555 0.2795, -0.2914 -0.2493 0.2794, -0.2919 -0.2485 0.2795, -0.2816 -0.2447 0.2794, -0.2819 -0.2437 0.2795, -0.271 -0.2427 0.2794, -0.271 -0.2417 0.2795, -0.2601 -0.2434 0.2794, -0.2599 -0.2424 0.2795, -0.2498 -0.2467 0.2794, -0.2494 -0.2458 0.2795, -0.2407 -0.2525 0.2794, -0.24 -0.2517 0.2795, -0.2333 -0.2604 0.2794, -0.2324 -0.2598 0.2795, -0.2281 -0.2699 0.2794, -0.2271 -0.2695 0.2795, -0.2254 -0.2804 0.2794, -0.2243 -0.2803 0.2795, -0.2254 -0.2912 0.2794, -0.2243 -0.2914 0.2795, -0.2281 -0.3017 0.2794, -0.2271 -0.3021 0.2795, -0.2333 -0.3112 0.2794, -0.2324 -0.3118 0.2795, -0.2407 -0.3191 0.2794, -0.24 -0.3199 0.2795, -0.2498 -0.3249 0.2794, -0.2494 -0.3258 0.2795, -0.2601 -0.3283 0.2794, -0.2599 -0.3293 0.2795, -0.271 -0.329 0.2794, -0.271 -0.33 0.2795, -0.2816 -0.3269 0.2794, -0.2819 -0.3279 0.2795, -0.2914 -0.3223 0.2794, -0.2919 -0.3232 0.2795, -0.2997 -0.3154 0.2794, -0.3005 -0.3161 0.2795, -0.3061 -0.3066 0.2794, -0.307 -0.3071 0.2795, -0.3101 -0.2966 0.2794, -0.3111 -0.2968 0.2795, -0.3115 -0.2858 0.2794, -0.3092 -0.2753 0.279, -0.3053 -0.2655 0.279, -0.2991 -0.2569 0.279, -0.2909 -0.2501 0.279, -0.2813 -0.2456 0.279, -0.2709 -0.2436 0.279, -0.2603 -0.2443 0.279, -0.2502 -0.2476 0.279, -0.2413 -0.2532 0.279, -0.234 -0.261 0.279, -0.2289 -0.2703 0.279, -0.2263 -0.2805 0.279, -0.2263 -0.2911 0.279, -0.2289 -0.3014 0.279, -0.234 -0.3107 0.279, -0.2413 -0.3184 0.279, -0.2502 -0.3241 0.279, -0.2603 -0.3273 0.279, -0.2709 -0.328 0.279, -0.2813 -0.326 0.279, -0.2909 -0.3215 0.279, -0.2991 -0.3148 0.279, -0.3053 -0.3062 0.279, -0.3092 -0.2963 0.279, -0.3105 -0.2858 0.279, -0.3084 -0.2755 0.2784, -0.3046 -0.2658 0.2784, -0.2985 -0.2574 0.2784, -0.2905 -0.2508 0.2784, -0.281 -0.2464 0.2784, -0.2708 -0.2444 0.2784, -0.2605 -0.2451 0.2784, -0.2506 -0.2483 0.2784, -0.2418 -0.2539 0.2784, -0.2347 -0.2615 0.2784, -0.2297 -0.2706 0.2784, -0.2271 -0.2806 0.2784, -0.2271 -0.291 0.2784, -0.2297 -0.3011 0.2784, -0.2347 -0.3102 0.2784, -0.2418 -0.3178 0.2784, -0.2506 -0.3233 0.2784, -0.2605 -0.3265 0.2784, -0.2708 -0.3272 0.2784, -0.281 -0.3252 0.2784, -0.2905 -0.3208 0.2784, -0.2985 -0.3142 0.2784, -0.3046 -0.3058 0.2784, -0.3084 -0.2961 0.2784, -0.3097 -0.2858 0.2784, -0.3078 -0.2757 0.2776, -0.304 -0.2661 0.2776, -0.298 -0.2579 0.2776, -0.2901 -0.2513 0.2776, -0.2809 -0.247 0.2776, -0.2708 -0.2451 0.2776, -0.2606 -0.2457 0.2776, -0.2509 -0.2489 0.2776, -0.2422 -0.2544 0.2776, -0.2352 -0.2618 0.2776, -0.2303 -0.2708 0.2776, -0.2277 -0.2807 0.2776, -0.2277 -0.2909 0.2776, -0.2303 -0.3008 0.2776, -0.2352 -0.3098 0.2776, -0.2422 -0.3173 0.2776, -0.2509 -0.3228 0.2776, -0.2606 -0.3259 0.2776, -0.2708 -0.3266 0.2776, -0.2809 -0.3247 0.2776, -0.2901 -0.3203 0.2776, -0.298 -0.3138 0.2776, -0.304 -0.3055 0.2776, -0.3078 -0.296 0.2776, -0.3091 -0.2858 0.2776, -0.3074 -0.2758 0.2766, -0.3037 -0.2663 0.2766, -0.2977 -0.2581 0.2766, -0.2899 -0.2517 0.2766, -0.2807 -0.2474 0.2766, -0.2708 -0.2455 0.2766, -0.2607 -0.2461 0.2766, -0.251 -0.2492 0.2766, -0.2425 -0.2547 0.2766, -0.2355 -0.262 0.2766, -0.2306 -0.2709 0.2766, -0.2281 -0.2807 0.2766, -0.2281 -0.2909 0.2766, -0.2306 -0.3007 0.2766, -0.2355 -0.3096 0.2766, -0.2425 -0.317 0.2766, -0.251 -0.3224 0.2766, -0.2607 -0.3255 0.2766, -0.2708 -0.3262 0.2766, -0.2807 -0.3243 0.2766, -0.2899 -0.32 0.2766, -0.2977 -0.3135 0.2766, -0.3037 -0.3053 0.2766, -0.3074 -0.2959 0.2766, -0.3087 -0.2858 0.2766, -0.2279 -0.2858 0.2756, -0.2283 -0.2909 0.2756, -0.2308 -0.3007 0.2756, -0.2356 -0.3095 0.2756, -0.2425 -0.3169 0.2756, -0.2511 -0.3223 0.2756, -0.2607 -0.3254 0.2756, -0.2708 -0.326 0.2756, -0.2807 -0.3241 0.2756, -0.2898 -0.3198 0.2756, -0.2976 -0.3134 0.2756, -0.3036 -0.3052 0.2756, -0.3073 -0.2958 0.2756, -0.3085 -0.2858 0.2756, -0.3073 -0.2758 0.2756, -0.3036 -0.2664 0.2756, -0.2976 -0.2582 0.2756, -0.2898 -0.2518 0.2756, -0.2807 -0.2475 0.2756, -0.2708 -0.2456 0.2756, -0.2607 -0.2462 0.2756, -0.2511 -0.2494 0.2756, -0.2425 -0.2548 0.2756, -0.2356 -0.2621 0.2756, -0.2308 -0.271 0.2756, -0.2283 -0.2808 0.2756
            ]
        }
        coordIndex [
            0,1,2,-1,0,2,3,-1,3,2,4,-1,3,4,5,-1,5,4,6,-1,5,6,7,-1,7,6,8,-1,7,8,9,-1,9,8,10,-1,9,10,11,-1,11,10,12,-1,11,12,13,-1,14,15,16,-1,14,16,17,-1,17,16,18,-1,17,18,19,-1,19,18,20,-1,19,20,21,-1,21,20,22,-1,21,22,23,-1,23,22,24,-1,23,24,25,-1,25,24,26,-1,25,26,12,-1,27,28,29,-1,29,28,30,-1,29,30,26,-1,29,31,27,-1,27,31,32,-1,27,32,33,-1,33,32,34,-1,34,35,33,-1,33,35,36,-1,33,36,37,-1,36,38,37,-1,37,38,39,-1,37,39,40,-1,39,41,40,-1,40,41,42,-1,40,42,43,-1,42,44,43,-1,43,44,45,-1,43,45,46,-1,1,47,48,-1,49,50,51,-1,14,17,52,-1,51,50,14,-1,53,14,50,-1,53,50,54,-1,54,50,49,-1,54,49,55,-1,56,14,53,-1,57,58,59,-1,59,58,52,-1,59,52,60,-1,60,52,17,-1,60,17,19,-1,56,53,61,-1,61,53,54,-1,61,54,62,-1,62,54,55,-1,62,55,63,-1,64,57,65,-1,65,57,59,-1,65,59,66,-1,66,59,60,-1,66,60,67,-1,67,60,19,-1,67,19,21,-1,68,64,69,-1,69,64,65,-1,69,65,70,-1,70,65,66,-1,70,66,71,-1,71,66,67,-1,71,67,72,-1,72,67,21,-1,72,21,23,-1,47,68,48,-1,48,68,69,-1,48,69,73,-1,73,69,70,-1,73,70,74,-1,74,70,71,-1,74,71,75,-1,75,71,72,-1,75,72,76,-1,76,72,23,-1,76,23,25,-1,1,48,2,-1,2,48,73,-1,2,73,4,-1,4,73,74,-1,4,74,6,-1,6,74,75,-1,6,75,8,-1,8,75,76,-1,8,76,10,-1,10,76,25,-1,10,25,12,-1,58,14,52,-1,47,63,68,-1,68,63,55,-1,68,55,64,-1,64,55,49,-1,64,49,57,-1,57,49,51,-1,57,51,58,-1,58,51,14,-1,44,42,77,-1,41,39,78,-1,38,36,79,-1,35,34,80,-1,32,31,81,-1,29,26,24,-1,31,29,81,-1,81,29,24,-1,81,24,82,-1,82,24,22,-1,82,22,83,-1,83,22,20,-1,83,20,84,-1,84,20,18,-1,84,18,85,-1,85,18,16,-1,85,16,15,-1,34,32,80,-1,80,32,81,-1,80,81,86,-1,86,81,82,-1,86,82,87,-1,87,82,83,-1,87,83,88,-1,88,83,84,-1,88,84,89,-1,89,84,85,-1,89,85,15,-1,36,35,79,-1,79,35,80,-1,79,80,90,-1,90,80,86,-1,90,86,91,-1,91,86,87,-1,91,87,92,-1,92,87,88,-1,92,88,93,-1,93,88,89,-1,93,89,15,-1,39,38,78,-1,78,38,79,-1,78,79,94,-1,94,79,90,-1,94,90,95,-1,95,90,91,-1,95,91,96,-1,96,91,92,-1,96,92,97,-1,97,92,93,-1,97,93,15,-1,42,41,77,-1,77,41,78,-1,77,78,98,-1,98,78,94,-1,98,94,99,-1,99,94,95,-1,99,95,100,-1,100,95,96,-1,100,96,101,-1,101,96,97,-1,101,97,15,-1,45,44,102,-1,102,44,77,-1,102,77,103,-1,103,77,98,-1,103,98,104,-1,104,98,99,-1,104,99,105,-1,105,99,100,-1,105,100,106,-1,106,100,101,-1,106,101,15,-1,107,108,109,-1,107,109,110,-1,110,109,111,-1,110,111,112,-1,112,111,113,-1,112,113,114,-1,114,113,115,-1,114,115,116,-1,116,115,117,-1,116,117,118,-1,118,117,119,-1,118,119,120,-1,121,14,56,-1,121,56,122,-1,122,56,61,-1,122,61,123,-1,123,61,62,-1,123,62,124,-1,124,62,63,-1,124,63,125,-1,125,63,47,-1,125,47,126,-1,126,47,1,-1,126,1,119,-1,15,127,128,-1,15,128,106,-1,106,128,129,-1,106,129,105,-1,105,129,130,-1,105,130,104,-1,104,130,131,-1,104,131,103,-1,103,131,132,-1,103,132,102,-1,102,132,133,-1,102,133,45,-1,134,133,135,-1,134,135,136,-1,136,135,137,-1,136,137,138,-1,138,137,139,-1,138,139,140,-1,140,139,141,-1,140,141,142,-1,142,141,143,-1,142,143,144,-1,144,143,145,-1,144,145,146,-1,108,147,148,-1,149,150,151,-1,121,122,152,-1,151,150,121,-1,153,121,150,-1,153,150,154,-1,154,150,149,-1,154,149,155,-1,156,121,153,-1,157,158,159,-1,159,158,152,-1,159,152,160,-1,160,152,122,-1,160,122,123,-1,156,153,161,-1,161,153,154,-1,161,154,162,-1,162,154,155,-1,162,155,163,-1,164,157,165,-1,165,157,159,-1,165,159,166,-1,166,159,160,-1,166,160,167,-1,167,160,123,-1,167,123,124,-1,168,164,169,-1,169,164,165,-1,169,165,170,-1,170,165,166,-1,170,166,171,-1,171,166,167,-1,171,167,172,-1,172,167,124,-1,172,124,125,-1,147,168,148,-1,148,168,169,-1,148,169,173,-1,173,169,170,-1,173,170,174,-1,174,170,171,-1,174,171,175,-1,175,171,172,-1,175,172,176,-1,176,172,125,-1,176,125,126,-1,108,148,109,-1,109,148,173,-1,109,173,111,-1,111,173,174,-1,111,174,113,-1,113,174,175,-1,113,175,115,-1,115,175,176,-1,115,176,117,-1,117,176,126,-1,117,126,119,-1,158,121,152,-1,147,163,168,-1,168,163,155,-1,168,155,164,-1,164,155,149,-1,164,149,157,-1,157,149,151,-1,157,151,158,-1,158,151,121,-1,133,132,177,-1,178,179,180,-1,127,181,182,-1,180,179,127,-1,183,127,179,-1,183,179,184,-1,184,179,178,-1,184,178,185,-1,128,127,183,-1,186,187,188,-1,188,187,182,-1,188,182,189,-1,189,182,181,-1,189,181,190,-1,128,183,129,-1,129,183,184,-1,129,184,130,-1,130,184,185,-1,130,185,131,-1,191,186,192,-1,192,186,188,-1,192,188,193,-1,193,188,189,-1,193,189,194,-1,194,189,190,-1,194,190,195,-1,196,191,197,-1,197,191,192,-1,197,192,198,-1,198,192,193,-1,198,193,199,-1,199,193,194,-1,199,194,200,-1,200,194,195,-1,200,195,201,-1,132,196,177,-1,177,196,197,-1,177,197,202,-1,202,197,198,-1,202,198,203,-1,203,198,199,-1,203,199,204,-1,204,199,200,-1,204,200,205,-1,205,200,201,-1,205,201,206,-1,133,177,135,-1,135,177,202,-1,135,202,137,-1,137,202,203,-1,137,203,139,-1,139,203,204,-1,139,204,141,-1,141,204,205,-1,141,205,143,-1,143,205,206,-1,143,206,145,-1,187,127,182,-1,132,131,196,-1,196,131,185,-1,196,185,191,-1,191,185,178,-1,191,178,186,-1,186,178,180,-1,186,180,187,-1,187,180,127,-1,127,121,156,-1,127,156,181,-1,181,156,161,-1,181,161,190,-1,190,161,162,-1,190,162,195,-1,195,162,163,-1,195,163,201,-1,201,163,147,-1,201,147,206,-1,206,147,108,-1,206,108,145,-1,207,208,209,-1,209,208,210,-1,209,210,211,-1,211,210,212,-1,211,212,213,-1,213,212,214,-1,213,214,215,-1,215,214,216,-1,215,216,217,-1,217,216,218,-1,217,218,219,-1,219,218,220,-1,219,220,221,-1,221,220,222,-1,221,222,223,-1,223,222,224,-1,223,224,225,-1,225,224,226,-1,225,226,227,-1,227,226,228,-1,227,228,229,-1,229,228,230,-1,229,230,231,-1,231,230,232,-1,231,232,233,-1,233,232,234,-1,233,234,235,-1,235,234,236,-1,235,236,237,-1,237,236,238,-1,237,238,239,-1,239,238,240,-1,239,240,241,-1,241,240,242,-1,241,242,243,-1,243,242,244,-1,243,244,245,-1,245,244,246,-1,245,246,247,-1,247,246,248,-1,247,248,249,-1,249,248,250,-1,249,250,251,-1,251,250,252,-1,251,252,253,-1,253,252,254,-1,253,254,255,-1,255,254,256,-1,255,256,207,-1,207,256,208,-1,256,257,208,-1,208,257,258,-1,208,258,210,-1,210,258,259,-1,210,259,212,-1,212,259,260,-1,212,260,214,-1,214,260,261,-1,214,261,216,-1,216,261,262,-1,216,262,218,-1,218,262,263,-1,218,263,220,-1,220,263,264,-1,220,264,222,-1,222,264,265,-1,222,265,224,-1,224,265,266,-1,224,266,226,-1,226,266,267,-1,226,267,228,-1,228,267,268,-1,228,268,230,-1,230,268,269,-1,230,269,232,-1,232,269,270,-1,232,270,234,-1,234,270,271,-1,234,271,236,-1,236,271,272,-1,236,272,238,-1,238,272,273,-1,238,273,240,-1,240,273,274,-1,240,274,242,-1,242,274,275,-1,242,275,244,-1,244,275,276,-1,244,276,246,-1,246,276,277,-1,246,277,248,-1,248,277,278,-1,248,278,250,-1,250,278,279,-1,250,279,252,-1,252,279,280,-1,252,280,254,-1,254,280,281,-1,254,281,256,-1,256,281,257,-1,281,282,257,-1,257,282,283,-1,257,283,258,-1,258,283,284,-1,258,284,259,-1,259,284,285,-1,259,285,260,-1,260,285,286,-1,260,286,261,-1,261,286,287,-1,261,287,262,-1,262,287,288,-1,262,288,263,-1,263,288,289,-1,263,289,264,-1,264,289,290,-1,264,290,265,-1,265,290,291,-1,265,291,266,-1,266,291,292,-1,266,292,267,-1,267,292,293,-1,267,293,268,-1,268,293,294,-1,268,294,269,-1,269,294,295,-1,269,295,270,-1,270,295,296,-1,270,296,271,-1,271,296,297,-1,271,297,272,-1,272,297,298,-1,272,298,273,-1,273,298,299,-1,273,299,274,-1,274,299,300,-1,274,300,275,-1,275,300,301,-1,275,301,276,-1,276,301,302,-1,276,302,277,-1,277,302,303,-1,277,303,278,-1,278,303,304,-1,278,304,279,-1,279,304,305,-1,279,305,280,-1,280,305,306,-1,280,306,281,-1,281,306,282,-1,306,307,282,-1,282,307,308,-1,282,308,283,-1,283,308,309,-1,283,309,284,-1,284,309,310,-1,284,310,285,-1,285,310,311,-1,285,311,286,-1,286,311,312,-1,286,312,287,-1,287,312,313,-1,287,313,288,-1,288,313,314,-1,288,314,289,-1,289,314,315,-1,289,315,290,-1,290,315,316,-1,290,316,291,-1,291,316,317,-1,291,317,292,-1,292,317,318,-1,292,318,293,-1,293,318,319,-1,293,319,294,-1,294,319,320,-1,294,320,295,-1,295,320,321,-1,295,321,296,-1,296,321,322,-1,296,322,297,-1,297,322,323,-1,297,323,298,-1,298,323,324,-1,298,324,299,-1,299,324,325,-1,299,325,300,-1,300,325,326,-1,300,326,301,-1,301,326,327,-1,301,327,302,-1,302,327,328,-1,302,328,303,-1,303,328,329,-1,303,329,304,-1,304,329,330,-1,304,330,305,-1,305,330,331,-1,305,331,306,-1,306,331,307,-1,331,332,307,-1,307,332,333,-1,307,333,308,-1,308,333,334,-1,308,334,309,-1,309,334,335,-1,309,335,310,-1,310,335,336,-1,310,336,311,-1,311,336,337,-1,311,337,312,-1,312,337,338,-1,312,338,313,-1,313,338,339,-1,313,339,314,-1,314,339,340,-1,314,340,315,-1,315,340,341,-1,315,341,316,-1,316,341,342,-1,316,342,317,-1,317,342,343,-1,317,343,318,-1,318,343,344,-1,318,344,319,-1,319,344,345,-1,319,345,320,-1,320,345,346,-1,320,346,321,-1,321,346,347,-1,321,347,322,-1,322,347,348,-1,322,348,323,-1,323,348,349,-1,323,349,324,-1,324,349,350,-1,324,350,325,-1,325,350,351,-1,325,351,326,-1,326,351,352,-1,326,352,327,-1,327,352,353,-1,327,353,328,-1,328,353,354,-1,328,354,329,-1,329,354,355,-1,329,355,330,-1,330,355,356,-1,330,356,331,-1,331,356,332,-1,357,358,344,-1,344,358,359,-1,344,359,345,-1,345,359,360,-1,345,360,346,-1,346,360,361,-1,346,361,347,-1,347,361,362,-1,347,362,348,-1,348,362,363,-1,348,363,349,-1,349,363,364,-1,349,364,350,-1,350,364,365,-1,350,365,351,-1,351,365,366,-1,351,366,352,-1,352,366,367,-1,352,367,353,-1,353,367,368,-1,353,368,354,-1,354,368,369,-1,354,369,355,-1,355,369,370,-1,355,370,356,-1,356,370,371,-1,356,371,332,-1,332,371,372,-1,332,372,333,-1,333,372,373,-1,333,373,334,-1,334,373,374,-1,334,374,335,-1,335,374,375,-1,335,375,336,-1,336,375,376,-1,336,376,337,-1,337,376,377,-1,337,377,338,-1,338,377,378,-1,338,378,339,-1,339,378,379,-1,339,379,340,-1,340,379,380,-1,340,380,341,-1,341,380,381,-1,341,381,342,-1,342,381,382,-1,342,382,343,-1,343,382,357,-1,343,357,344,-1,
        ]
    }
}