#VRML V2.0 utf8
# 3D model generated by easyeda2kicad.py (https://github.com/uPesy/easyeda2kicad.py)

Shape{
    appearance Appearance {
        material  Material 	{
            diffuseColor 0.8549019607843137 0.8549019607843137 0.8549019607843137
            specularColor 0.42745098039215684 0.42745098039215684 0.42745098039215684
            ambientIntensity 0.8549
            transparency 0.0
            shininess 0.5
        }
    }
    geometry IndexedFaceSet {
        ccw TRUE
        solid FALSE
        coord DEF co Coordinate {
            point [
                -0.4173 -0.3248 0.0787, -0.4173 -0.187 0.0787, -0.4173 -0.3248 0.0, -0.4173 -0.187 0.0, -0.2795 -0.3248 0.0787, -0.2795 -0.3248 0.0, -0.2795 -0.187 0.0787, -0.2795 -0.187 0.0, -0.4173 0.187 0.0787, -0.4173 0.3248 0.0787, -0.4173 0.187 0.0, -0.4173 0.3248 0.0, -0.2795 0.187 0.0787, -0.2795 0.187 0.0, -0.2795 0.3248 0.0787, -0.2795 0.3248 0.0, -0.4173 -0.0689 0.0787, -0.4173 0.0689 0.0787, -0.4173 -0.0689 0.0, -0.4173 0.0689 0.0, -0.2795 -0.0689 0.0787, -0.2795 -0.0689 0.0, -0.2795 0.0689 0.0787, -0.2795 0.0689 0.0
            ]
        }
        coordIndex [
            0,1,2,-1,2,1,3,-1,4,0,5,-1,5,0,2,-1,6,4,7,-1,7,4,5,-1,1,6,3,-1,3,6,7,-1,4,6,0,-1,0,6,1,-1,7,5,3,-1,3,5,2,-1,8,9,10,-1,10,9,11,-1,12,8,13,-1,13,8,10,-1,14,12,15,-1,15,12,13,-1,9,14,11,-1,11,14,15,-1,12,14,8,-1,8,14,9,-1,15,13,11,-1,11,13,10,-1,16,17,18,-1,18,17,19,-1,20,16,21,-1,21,16,18,-1,22,20,23,-1,23,20,21,-1,17,22,19,-1,19,22,23,-1,20,22,16,-1,16,22,17,-1,23,21,19,-1,19,21,18,-1,
        ]
    }
}
Shape{
    appearance Appearance {
        material  Material 	{
            diffuseColor 0.25098039215686274 0.25098039215686274 0.25098039215686274
            specularColor 0.12549019607843137 0.12549019607843137 0.12549019607843137
            ambientIntensity 0.251
            transparency 0.0
            shininess 0.5
        }
    }
    geometry IndexedFaceSet {
        ccw TRUE
        solid FALSE
        coord DEF co Coordinate {
            point [
                -0.4134 -0.0463 0.0039, -0.0476 -0.1193 0.0039, -0.4134 -0.4134 0.0039, -0.0476 -0.1596 0.0039, 0.0316 -0.4134 0.0039, 0.0316 -0.0656 0.0039, 0.0314 -0.0631 0.0039, 0.0316 -0.0463 0.0039, 0.029 -0.054 0.0039, 0.0184 -0.054 0.0039, 0.0234 -0.0725 0.0039, -0.0357 -0.0554 0.0039, 0.0222 -0.0629 0.0039, -0.0349 -0.054 0.0039, 0.0226 -0.0802 0.0039, 0.0204 -0.0861 0.0039, 0.0167 -0.0916 0.0039, 0.0114 -0.0964 0.0039, 0.0053 -0.0996 0.0039, -0.0032 -0.1017 0.0039, -0.0091 -0.102 0.0039, -0.0176 -0.1012 0.0039, -0.0244 -0.0991 0.0039, -0.0399 -0.0742 0.0039, -0.0337 -0.0922 0.0039, -0.0391 -0.0815 0.0039, -0.037 -0.0873 0.0039, -0.0299 -0.0958 0.0039, -0.0388 -0.0638 0.0039, -0.0408 -0.0995 0.0039, -0.039 -0.1193 0.0039, -0.0449 -0.0931 0.0039, -0.0476 -0.0854 0.0039, 0.0104 -0.1084 0.0039, 0.0178 -0.1038 0.0039, 0.0311 -0.1491 0.0039, 0.0244 -0.097 0.0039, 0.0287 -0.0896 0.0039, -0.0435 -0.054 0.0039, -0.047 -0.0624 0.0039, -0.0485 -0.0735 0.0039, -0.0345 -0.1054 0.0039, -0.027 -0.1095 0.0039, -0.039 -0.1491 0.0039, 0.0313 -0.081 0.0039, 0.0316 -0.078 0.0039, 0.0311 -0.1596 0.0039, -0.0486 -0.0757 0.0039, -0.0187 -0.1119 0.0039, -0.0097 -0.1126 0.0039, 0.0014 -0.1115 0.0039, 0.2795 -0.0689 0.0039, 0.0321 -0.0725 0.0039, 0.2795 -0.0463 0.0039, 0.2795 0.0689 0.0039, 0.4134 -0.3248 0.0039, 0.4134 -0.4134 0.0039, 0.2795 -0.3248 0.0039, 0.2795 -0.187 0.0039, 0.4134 -0.187 0.0039, 0.4134 -0.0689 0.0039, 0.4134 0.4134 0.0039, 0.4134 0.3248 0.0039, 0.0316 0.4134 0.0039, 0.2795 0.3248 0.0039, 0.2795 0.187 0.0039, -0.0178 0.0812 0.0039, -0.026 0.0784 0.0039, -0.0476 0.0881 0.0039, -0.0476 0.0036 0.0039, -0.0476 -0.0387 0.0039, 0.0311 -0.0387 0.0039, 0.0311 0.0017 0.0039, -0.0255 0.1397 0.0039, -0.0255 0.1071 0.0039, -0.0476 0.1476 0.0039, -0.0476 0.0996 0.0039, -0.4134 0.4134 0.0039, -0.0331 0.0739 0.0039, -0.0393 0.0674 0.0039, -0.0441 0.0592 0.0039, -0.0476 0.019 0.0039, 0.0311 0.019 0.0039, 0.0225 0.0017 0.0039, -0.0121 -0.0002 0.0039, -0.0034 -0.0002 0.0039, -0.0034 -0.0281 0.0039, 0.0225 -0.0281 0.0039, 0.0311 0.1284 0.0039, -0.0476 0.1592 0.0039, 0.0125 0.0774 0.0039, 0.0048 0.0807 0.0039, 0.0311 0.1179 0.0039, -0.0034 0.0822 0.0039, -0.0073 0.0823 0.0039, 0.4134 0.187 0.0039, 0.4134 0.0689 0.0039, -0.0468 0.0501 0.0039, -0.0476 0.0404 0.0039, -0.039 0.0036 0.0039, -0.039 -0.0281 0.0039, -0.0121 -0.0281 0.0039, 0.0267 0.0618 0.0039, 0.0216 0.0696 0.0039, 0.0188 0.0726 0.0039, 0.0311 0.0412 0.0039, 0.0299 0.0526 0.0039, 0.4134 -0.4134 0.3189, 0.4134 -0.187 0.0787, 0.4134 -0.0689 0.0787, 0.4134 0.4134 0.3189, 0.4134 0.2115 0.3189, 0.4134 0.0689 0.0787, 0.4134 0.1137 0.3189, 0.4134 0.3248 0.0787, 0.4134 0.187 0.0787, 0.4134 -0.3248 0.0787, 0.4134 -0.2928 0.3189, 0.4134 -0.013 0.3189, 0.4134 0.0287 0.3189, 0.1625 -0.013 0.3189, 0.313 -0.013 0.3189, 0.313 0.0287 0.3189, 0.313 -0.4134 0.3189, -0.4134 -0.4134 0.3189, -0.2546 -0.4134 0.3189, -0.2546 -0.2928 0.3189, 0.21 0.1137 0.3189, 0.313 0.1137 0.3189, 0.313 0.2115 0.3189, -0.0586 -0.0994 0.3189, -0.06 -0.1031 0.3189, -0.06 -0.2928 0.3189, -0.0972 0.0287 0.3189, -0.1055 0.028 0.3189, -0.06 -0.013 0.3189, -0.154 -0.013 0.3189, -0.1127 0.0287 0.3189, -0.154 0.0287 0.3189, -0.0719 0.0427 0.3189, -0.079 0.0359 0.3189, -0.06 0.0287 0.3189, -0.0867 0.0315 0.3189, -0.0955 0.0289 0.3189, -0.0962 0.1137 0.3189, -0.0928 0.1134 0.3189, -0.06 0.1137 0.3189, -0.0841 0.1106 0.3189, -0.0769 0.1062 0.3189, -0.0625 0.0716 0.3189, -0.0637 0.0599 0.3189, -0.0669 0.0504 0.3189, -0.071 0.1002 0.3189, -0.0665 0.0927 0.3189, -0.0638 0.0841 0.3189, -0.1387 0.0992 0.3189, -0.1325 0.1055 0.3189, -0.154 0.1137 0.3189, -0.1243 0.1104 0.3189, -0.1153 0.1133 0.3189, -0.1111 0.1137 0.3189, -0.1166 0.0291 0.3189, -0.1256 0.0322 0.3189, -0.1329 0.0368 0.3189, -0.1475 0.0703 0.3189, -0.1464 0.0821 0.3189, -0.1433 0.0916 0.3189, -0.1389 0.0428 0.3189, -0.1437 0.0509 0.3189, -0.1465 0.0597 0.3189, 0.1478 0.0669 0.3189, 0.0901 0.0669 0.3189, 0.091 0.0598 0.3189, 0.1478 0.0744 0.3189, 0.1524 0.0287 0.3189, 0.142 0.037 0.3189, 0.1337 0.032 0.3189, 0.1241 0.029 0.3189, 0.0929 0.0541 0.3189, 0.1087 0.0418 0.3189, 0.1166 0.041 0.3189, 0.1265 0.0422 0.3189, 0.1354 0.0457 0.3189, 0.142 0.05 0.3189, 0.1201 0.1137 0.3189, 0.122 0.1135 0.3189, 0.1524 0.1137 0.3189, 0.1291 0.1112 0.3189, 0.1349 0.1074 0.3189, 0.0957 0.0497 0.3189, 0.0992 0.0462 0.3189, 0.1035 0.0435 0.3189, 0.1395 0.1027 0.3189, 0.1435 0.0963 0.3189, 0.1466 0.0868 0.3189, 0.113 0.1144 0.3189, 0.1524 0.2115 0.3189, 0.1074 0.1141 0.3189, 0.0696 0.2115 0.3189, 0.1061 0.1137 0.3189, 0.0789 0.0924 0.3189, 0.0845 0.1011 0.3189, 0.0696 0.1137 0.3189, 0.0919 0.1079 0.3189, 0.0991 0.1119 0.3189, 0.0949 0.0316 0.3189, 0.0696 0.0287 0.3189, 0.1027 0.029 0.3189, 0.1056 0.0287 0.3189, 0.0885 0.0356 0.3189, 0.0827 0.0415 0.3189, 0.0785 0.0486 0.3189, 0.0753 0.0592 0.3189, 0.0743 0.0708 0.3189, 0.0755 0.0828 0.3189, 0.121 0.0287 0.3189, 0.1128 0.028 0.3189, 0.1524 -0.013 0.3189, 0.0696 -0.013 0.3189, 0.1524 -0.0541 0.3189, 0.1542 -0.0541 0.3189, 0.1524 -0.2928 0.3189, 0.1625 -0.2928 0.3189, 0.1571 -0.1722 0.3189, 0.0696 -0.2928 0.3189, 0.0894 -0.1722 0.3189, 0.1524 -0.1722 0.3189, 0.137 -0.1722 0.3189, 0.0897 -0.1143 0.3189, 0.0894 -0.1143 0.3189, 0.0909 -0.1166 0.3189, 0.0923 -0.1187 0.3189, 0.0923 -0.1051 0.3189, 0.1355 -0.0541 0.3189, 0.0894 -0.0541 0.3189, 0.0736 -0.0541 0.3189, 0.0736 -0.1722 0.3189, 0.0894 -0.1094 0.3189, 0.0897 -0.1094 0.3189, 0.091 -0.1072 0.3189, -0.1 -0.1275 0.3189, -0.1151 -0.1275 0.3189, -0.1151 -0.1722 0.3189, -0.1309 -0.1722 0.3189, -0.154 -0.2928 0.3189, -0.0614 -0.107 0.3189, -0.0662 -0.114 0.3189, -0.0733 -0.1203 0.3189, -0.082 -0.1248 0.3189, -0.0914 -0.1271 0.3189, -0.086 -0.055 0.3189, -0.077 -0.0577 0.3189, -0.0701 -0.0616 0.3189, -0.0658 -0.0654 0.3189, -0.1309 -0.0541 0.3189, -0.0976 -0.0541 0.3189, -0.0616 -0.0713 0.3189, -0.06 -0.0752 0.3189, -0.0557 -0.013 0.3189, -0.0589 -0.0779 0.3189, -0.0575 -0.0873 0.3189, -0.0575 -0.0894 0.3189, -0.0557 -0.2928 0.3189, -0.2181 0.0295 0.3189, -0.2339 0.0295 0.3189, -0.2546 0.0287 0.3189, -0.1605 0.1143 0.3189, -0.1605 0.1137 0.3189, -0.1605 0.1122 0.3189, -0.1616 0.1023 0.3189, -0.1644 0.0947 0.3189, -0.1692 0.0876 0.3189, -0.1763 0.0814 0.3189, -0.185 0.0768 0.3189, -0.1943 0.0745 0.3189, -0.203 0.0741 0.3189, -0.2181 0.0741 0.3189, -0.2339 0.1476 0.3189, -0.2546 0.2115 0.3189, -0.2546 0.1137 0.3189, -0.2339 0.1137 0.3189, -0.189 0.1466 0.3189, -0.18 0.144 0.3189, -0.154 0.2115 0.3189, -0.1645 0.1304 0.3189, -0.1619 0.1238 0.3189, -0.1036 0.1144 0.3189, -0.06 0.2115 0.3189, -0.1731 0.1401 0.3189, -0.1688 0.1363 0.3189, -0.2005 0.1476 0.3189, 0.2126 0.0982 0.3189, 0.2126 0.1126 0.3189, 0.2113 0.1133 0.3189, 0.1679 0.0295 0.3189, 0.1679 0.113 0.3189, 0.1625 0.1137 0.3189, 0.1823 0.113 0.3189, 0.1895 0.1083 0.3189, 0.1938 0.1116 0.3189, 0.1823 0.0965 0.3189, 0.1826 0.0965 0.3189, 0.1859 0.1035 0.3189, 0.2059 0.1012 0.3189, 0.1828 0.0792 0.3189, 0.2096 0.1001 0.3189, 0.2023 0.1015 0.3189, 0.1981 0.101 0.3189, 0.1946 0.0996 0.3189, 0.1915 0.0974 0.3189, 0.188 0.0934 0.3189, 0.1849 0.0876 0.3189, 0.199 0.1137 0.3189, 0.2034 0.1144 0.3189, 0.1625 0.2115 0.3189, 0.2047 0.1144 0.3189, 0.2088 0.1141 0.3189, 0.061 0.097 0.3189, 0.0412 0.0295 0.3189, 0.061 0.0287 0.3189, 0.0253 0.0295 0.3189, -0.0557 0.0287 0.3189, -0.028 0.0295 0.3189, -0.0539 0.113 0.3189, -0.0557 0.1137 0.3189, -0.038 0.113 0.3189, 0.0069 0.0957 0.3189, 0.0066 0.0957 0.3189, 0.0074 0.0917 0.3189, 0.006 0.0918 0.3189, 0.0083 0.0877 0.3189, 0.0048 0.0879 0.3189, -0.0136 0.0295 0.3189, -0.0208 0.0439 0.3189, -0.0193 0.0439 0.3189, -0.0211 0.0477 0.3189, -0.0188 0.0478 0.3189, -0.0219 0.0514 0.3189, -0.0179 0.0517 0.3189, -0.0006 0.113 0.3189, 0.0138 0.113 0.3189, 0.0332 0.0439 0.3189, 0.0339 0.0439 0.3189, 0.0327 0.0477 0.3189, 0.0343 0.0477 0.3189, 0.0319 0.0515 0.3189, 0.0352 0.0515 0.3189, 0.0513 0.113 0.3189, 0.061 0.1137 0.3189, 0.0657 0.113 0.3189, 0.061 0.113 0.3189, -0.154 -0.4134 0.3189, -0.06 -0.4134 0.3189, 0.313 -0.2928 0.3189, 0.1625 -0.4134 0.3189, 0.1524 -0.4134 0.3189, 0.0696 -0.4134 0.3189, 0.061 -0.4134 0.3189, 0.061 -0.2928 0.3189, -0.0557 -0.4134 0.3189, 0.0563 -0.1722 0.3189, 0.039 -0.1722 0.3189, 0.0102 -0.0541 0.3189, 0.061 -0.013 0.3189, -0.0056 -0.0541 0.3189, -0.0503 -0.1722 0.3189, -0.033 -0.1722 0.3189, 0.0271 -0.1391 0.3189, -0.0217 -0.1391 0.3189, 0.1524 -0.1668 0.3189, 0.1524 -0.0561 0.3189, 0.1038 -0.1107 0.3189, -0.2546 -0.013 0.3189, 0.1625 0.0287 0.3189, 0.1823 0.0295 0.3189, 0.1823 0.072 0.3189, 0.061 0.2115 0.3189, -0.0557 0.2115 0.3189, 0.1985 0.1136 0.3189, -0.3348 0.3493 0.3189, -0.3252 0.3532 0.3189, -0.4134 0.4134 0.3189, -0.2546 0.4134 0.3189, -0.2754 0.315 0.3189, -0.2767 0.3047 0.3189, -0.2807 0.2952 0.3189, -0.287 0.287 0.3189, -0.315 0.3546 0.3189, -0.3047 0.3532 0.3189, -0.2952 0.3493 0.3189, -0.287 0.343 0.3189, -0.2807 0.3348 0.3189, -0.2767 0.3252 0.3189, -0.2952 0.2807 0.3189, -0.3047 0.2767 0.3189, -0.315 0.2754 0.3189, -0.3252 0.2767 0.3189, -0.3348 0.2807 0.3189, -0.4134 0.2115 0.3189, -0.343 0.287 0.3189, -0.4134 -0.2928 0.3189, -0.4134 -0.013 0.3189, -0.4134 0.0287 0.3189, -0.4134 0.1137 0.3189, -0.3532 0.3252 0.3189, -0.3493 0.3348 0.3189, -0.343 0.343 0.3189, -0.3493 0.2952 0.3189, -0.3532 0.3047 0.3189, -0.3546 0.315 0.3189, 0.313 0.4134 0.3189, 0.1625 0.4134 0.3189, 0.1524 0.4134 0.3189, 0.0696 0.4134 0.3189, 0.061 0.4134 0.3189, -0.0557 0.4134 0.3189, -0.06 0.4134 0.3189, -0.154 0.4134 0.3189
            ]
        }
        coordIndex [
            0,1,2,-1,2,1,3,-1,2,3,4,-1,5,6,7,-1,7,6,8,-1,7,8,9,-1,10,11,12,-1,12,11,13,-1,12,13,9,-1,10,14,11,-1,11,14,15,-1,11,15,16,-1,16,17,11,-1,11,17,18,-1,11,18,19,-1,19,20,11,-1,11,20,21,-1,11,21,22,-1,23,24,25,-1,25,24,26,-1,22,27,11,-1,11,27,24,-1,11,24,28,-1,28,24,23,-1,29,30,31,-1,31,30,32,-1,33,34,35,-1,35,34,36,-1,35,36,37,-1,9,13,7,-1,7,13,38,-1,7,38,0,-1,0,38,39,-1,0,39,40,-1,29,41,30,-1,30,41,42,-1,30,42,43,-1,37,44,35,-1,35,44,45,-1,35,45,46,-1,30,1,32,-1,32,1,0,-1,32,0,47,-1,47,0,40,-1,42,48,43,-1,43,48,49,-1,43,49,35,-1,35,49,50,-1,35,50,33,-1,3,46,4,-1,4,46,45,-1,4,45,51,-1,45,52,51,-1,51,52,5,-1,51,5,53,-1,53,5,7,-1,53,7,54,-1,55,56,57,-1,57,56,4,-1,57,4,58,-1,58,4,51,-1,58,51,59,-1,59,51,60,-1,61,62,63,-1,63,62,64,-1,63,64,65,-1,66,67,68,-1,69,70,0,-1,0,70,7,-1,7,70,71,-1,7,71,72,-1,73,74,75,-1,75,74,76,-1,75,76,77,-1,77,76,68,-1,67,78,68,-1,68,78,79,-1,68,79,80,-1,81,82,83,-1,83,82,72,-1,84,81,85,-1,85,81,83,-1,85,83,86,-1,86,83,87,-1,63,88,77,-1,77,88,89,-1,77,89,75,-1,90,91,92,-1,92,91,93,-1,92,93,68,-1,68,93,94,-1,68,94,66,-1,95,96,65,-1,65,96,54,-1,65,54,63,-1,63,54,7,-1,63,7,88,-1,88,7,92,-1,80,97,68,-1,68,97,98,-1,68,98,77,-1,77,98,81,-1,0,77,69,-1,69,77,81,-1,69,81,99,-1,99,81,84,-1,99,84,100,-1,100,84,101,-1,102,103,92,-1,92,103,104,-1,92,104,90,-1,72,82,7,-1,7,82,105,-1,7,105,92,-1,92,105,106,-1,92,106,102,-1,107,56,55,-1,59,60,108,-1,108,60,109,-1,110,111,112,-1,112,111,113,-1,62,61,114,-1,114,61,110,-1,114,110,115,-1,115,110,112,-1,115,112,95,-1,95,112,96,-1,55,116,107,-1,107,116,108,-1,107,108,117,-1,117,108,109,-1,117,109,118,-1,118,109,112,-1,118,112,119,-1,119,112,113,-1,120,121,122,-1,123,107,117,-1,124,125,126,-1,127,128,129,-1,130,131,132,-1,133,134,135,-1,135,134,136,-1,136,134,137,-1,136,137,138,-1,139,140,141,-1,141,140,142,-1,141,142,143,-1,144,145,146,-1,146,145,147,-1,146,147,148,-1,149,150,141,-1,141,150,151,-1,141,151,139,-1,148,152,146,-1,146,152,153,-1,146,153,154,-1,155,156,157,-1,156,158,157,-1,157,158,159,-1,157,159,160,-1,137,161,138,-1,138,161,162,-1,138,162,163,-1,164,165,157,-1,157,165,166,-1,157,166,155,-1,163,167,138,-1,138,167,168,-1,138,168,169,-1,170,171,172,-1,173,170,174,-1,170,175,174,-1,174,175,176,-1,174,176,177,-1,178,179,172,-1,172,179,180,-1,180,181,172,-1,172,181,182,-1,172,182,170,-1,170,182,183,-1,170,183,175,-1,184,185,186,-1,186,185,187,-1,186,187,188,-1,189,190,178,-1,178,190,191,-1,178,191,179,-1,188,192,186,-1,186,192,193,-1,186,193,194,-1,195,196,197,-1,197,196,198,-1,197,198,199,-1,200,201,202,-1,202,201,203,-1,202,203,204,-1,205,206,207,-1,207,206,208,-1,205,209,206,-1,206,209,210,-1,206,210,211,-1,211,212,206,-1,206,212,213,-1,206,213,202,-1,202,213,214,-1,202,214,200,-1,215,216,217,-1,217,216,218,-1,219,220,120,-1,221,222,223,-1,224,221,225,-1,223,226,221,-1,221,226,227,-1,221,227,225,-1,228,229,230,-1,230,229,225,-1,230,225,231,-1,231,225,227,-1,232,233,234,-1,234,233,217,-1,234,217,235,-1,235,217,218,-1,235,218,236,-1,237,238,234,-1,234,238,239,-1,234,239,232,-1,240,241,242,-1,242,243,244,-1,131,245,132,-1,132,245,246,-1,132,246,247,-1,247,248,132,-1,132,248,249,-1,132,249,240,-1,250,251,135,-1,135,251,252,-1,135,252,253,-1,244,243,136,-1,136,243,254,-1,136,254,135,-1,135,254,255,-1,135,255,250,-1,253,256,135,-1,135,256,257,-1,135,257,258,-1,258,257,259,-1,259,260,258,-1,258,260,261,-1,258,261,262,-1,263,264,265,-1,266,267,157,-1,157,267,268,-1,268,269,157,-1,157,269,138,-1,157,138,164,-1,164,138,169,-1,269,270,138,-1,138,270,271,-1,138,271,272,-1,272,273,138,-1,138,273,274,-1,138,274,263,-1,263,274,275,-1,263,275,276,-1,277,278,279,-1,265,264,279,-1,279,264,280,-1,279,280,277,-1,281,282,283,-1,283,284,285,-1,286,287,160,-1,160,287,283,-1,160,283,157,-1,157,283,285,-1,157,285,266,-1,282,288,283,-1,283,288,289,-1,283,289,284,-1,278,277,283,-1,283,277,290,-1,283,290,281,-1,291,122,292,-1,292,122,128,-1,292,128,293,-1,293,128,127,-1,294,295,296,-1,296,295,297,-1,298,299,297,-1,300,301,297,-1,297,301,302,-1,297,302,298,-1,303,304,305,-1,305,304,291,-1,303,306,304,-1,304,306,307,-1,304,307,308,-1,308,309,304,-1,304,309,310,-1,304,310,311,-1,312,313,314,-1,314,313,315,-1,314,315,129,-1,129,315,316,-1,129,316,127,-1,317,318,319,-1,319,318,320,-1,319,320,321,-1,322,323,324,-1,324,323,325,-1,326,327,328,-1,328,327,329,-1,328,329,330,-1,330,329,331,-1,330,331,320,-1,320,331,332,-1,320,332,321,-1,333,334,335,-1,335,334,336,-1,335,336,337,-1,337,336,338,-1,337,338,325,-1,325,338,339,-1,325,339,324,-1,324,339,340,-1,341,342,343,-1,343,342,344,-1,343,344,345,-1,345,344,346,-1,345,346,340,-1,340,346,347,-1,340,347,324,-1,324,347,348,-1,319,206,317,-1,317,206,202,-1,317,202,349,-1,349,202,348,-1,349,348,350,-1,350,348,347,-1,240,242,132,-1,132,242,244,-1,132,244,351,-1,351,352,132,-1,132,352,262,-1,132,262,130,-1,130,262,261,-1,123,353,354,-1,354,353,222,-1,354,222,355,-1,355,222,221,-1,355,221,356,-1,356,221,224,-1,356,224,357,-1,357,224,358,-1,357,358,359,-1,358,360,361,-1,362,363,364,-1,364,363,258,-1,364,258,365,-1,365,258,262,-1,365,262,366,-1,367,368,361,-1,361,368,366,-1,361,366,358,-1,358,366,262,-1,358,262,359,-1,359,262,352,-1,225,236,224,-1,224,236,218,-1,224,218,358,-1,358,218,363,-1,358,363,360,-1,360,363,362,-1,353,121,222,-1,222,121,120,-1,222,120,223,-1,223,120,220,-1,223,220,369,-1,369,220,370,-1,369,370,371,-1,263,265,138,-1,138,265,372,-1,138,372,136,-1,136,372,126,-1,136,126,244,-1,244,126,125,-1,244,125,351,-1,216,208,218,-1,218,208,206,-1,218,206,363,-1,363,206,319,-1,363,319,258,-1,258,319,321,-1,258,321,135,-1,135,321,141,-1,135,141,133,-1,133,141,143,-1,177,215,174,-1,174,215,217,-1,174,217,373,-1,233,219,217,-1,217,219,120,-1,217,120,373,-1,373,120,122,-1,373,122,374,-1,374,122,291,-1,374,291,375,-1,375,291,304,-1,332,322,321,-1,321,322,324,-1,321,324,141,-1,141,324,146,-1,141,146,149,-1,149,146,154,-1,374,294,373,-1,373,294,296,-1,373,296,174,-1,174,296,186,-1,174,186,173,-1,173,186,194,-1,204,199,202,-1,202,199,198,-1,202,198,348,-1,348,198,376,-1,348,376,324,-1,324,376,377,-1,324,377,146,-1,146,377,287,-1,146,287,144,-1,144,287,286,-1,299,378,297,-1,297,378,312,-1,297,312,296,-1,296,312,314,-1,296,314,186,-1,186,314,196,-1,186,196,184,-1,184,196,195,-1,123,117,353,-1,353,117,118,-1,353,118,121,-1,121,118,119,-1,121,119,122,-1,122,119,113,-1,122,113,128,-1,128,113,111,-1,128,111,129,-1,379,380,381,-1,381,380,382,-1,383,384,278,-1,278,384,385,-1,278,385,386,-1,380,387,382,-1,382,387,388,-1,382,388,389,-1,389,390,382,-1,382,390,391,-1,382,391,392,-1,386,393,278,-1,278,393,394,-1,278,394,395,-1,396,397,398,-1,398,397,399,-1,124,126,400,-1,400,126,372,-1,400,372,401,-1,401,372,265,-1,401,265,402,-1,402,265,279,-1,402,279,403,-1,403,279,278,-1,403,278,398,-1,398,278,395,-1,398,395,396,-1,404,405,381,-1,381,405,406,-1,381,406,379,-1,399,407,398,-1,398,407,408,-1,398,408,381,-1,381,408,409,-1,381,409,404,-1,111,110,129,-1,129,110,410,-1,129,410,314,-1,314,410,411,-1,314,411,196,-1,196,411,412,-1,196,412,198,-1,198,412,413,-1,198,413,376,-1,376,413,414,-1,376,414,377,-1,377,414,415,-1,377,415,287,-1,287,415,416,-1,287,416,283,-1,283,416,417,-1,283,417,278,-1,278,417,382,-1,278,382,383,-1,383,382,392,-1,381,382,77,-1,77,382,417,-1,417,416,77,-1,77,416,415,-1,77,415,61,-1,415,414,61,-1,61,414,413,-1,61,413,412,-1,412,411,61,-1,61,411,410,-1,61,410,110,-1,124,400,2,-1,2,400,401,-1,2,401,77,-1,77,401,402,-1,402,403,77,-1,77,403,398,-1,77,398,381,-1,107,123,56,-1,56,123,354,-1,56,354,355,-1,355,356,56,-1,56,356,357,-1,56,357,2,-1,2,357,359,-1,2,359,352,-1,352,351,2,-1,2,351,125,-1,2,125,124,-1,
        ]
    }
}
Shape{
    appearance Appearance {
        material  Material 	{
            diffuseColor 0.6666666666666666 0.6666666666666666 0.6666666666666666
            specularColor 0.3333333333333333 0.3333333333333333 0.3333333333333333
            ambientIntensity 0.6667
            transparency 0.0
            shininess 0.5
        }
    }
    geometry IndexedFaceSet {
        ccw TRUE
        solid FALSE
        coord DEF co Coordinate {
            point [
                -0.203 0.0741 0.315, -0.2181 0.0741 0.315, -0.203 0.0741 0.3189, -0.2181 0.0741 0.3189, -0.2181 0.0295 0.315, -0.2181 0.0295 0.3189, -0.2339 0.0295 0.315, -0.2339 0.0295 0.3189, -0.2339 0.1137 0.3189, -0.2339 0.1476 0.315, -0.2339 0.1476 0.3189, -0.2005 0.1476 0.315, -0.2005 0.1476 0.3189, -0.1605 0.1122 0.3189, -0.1605 0.1137 0.3189, -0.1605 0.1122 0.315, -0.1605 0.1143 0.315, -0.1605 0.1143 0.3189, -0.1619 0.1238 0.3189, -0.1619 0.1238 0.315, -0.1645 0.1304 0.3189, -0.1645 0.1304 0.315, -0.1688 0.1363 0.3189, -0.1688 0.1363 0.315, -0.1731 0.1401 0.3189, -0.1731 0.1401 0.315, -0.18 0.144 0.3189, -0.18 0.144 0.315, -0.189 0.1466 0.3189, -0.189 0.1466 0.315, -0.1943 0.0745 0.3189, -0.1943 0.0745 0.315, -0.185 0.0768 0.3189, -0.185 0.0768 0.315, -0.1763 0.0814 0.3189, -0.1763 0.0814 0.315, -0.1692 0.0876 0.3189, -0.1692 0.0876 0.315, -0.1644 0.0947 0.3189, -0.1644 0.0947 0.315, -0.1616 0.1023 0.3189, -0.1616 0.1023 0.315, -0.2181 0.1346 0.315, -0.2028 0.1346 0.315, -0.2 0.1345 0.315, -0.1912 0.1332 0.315, -0.1859 0.1309 0.315, -0.183 0.129 0.315, -0.1804 0.1261 0.315, -0.1783 0.1224 0.315, -0.1768 0.1176 0.315, -0.1763 0.1116 0.315, -0.1763 0.1111 0.315, -0.1772 0.104 0.315, -0.1789 0.0994 0.315, -0.1816 0.0953 0.315, -0.1854 0.0919 0.315, -0.1901 0.0894 0.315, -0.1963 0.0877 0.315, -0.2043 0.0871 0.315, -0.2181 0.0871 0.315, -0.2028 0.1346 0.3189, -0.2181 0.1346 0.3189, -0.2 0.1345 0.3189, -0.1912 0.1332 0.3189, -0.1859 0.1309 0.3189, -0.183 0.129 0.3189, -0.1804 0.1261 0.3189, -0.1783 0.1224 0.3189, -0.1768 0.1176 0.3189, -0.1763 0.1116 0.3189, -0.1763 0.1111 0.3189, -0.1772 0.104 0.3189, -0.1789 0.0994 0.3189, -0.1816 0.0953 0.3189, -0.1854 0.0919 0.3189, -0.1901 0.0894 0.3189, -0.1963 0.0877 0.3189, -0.2043 0.0871 0.3189, -0.2181 0.0871 0.3189, -0.1 -0.1275 0.315, -0.1151 -0.1275 0.315, -0.1 -0.1275 0.3189, -0.1151 -0.1275 0.3189, -0.1151 -0.1722 0.315, -0.1151 -0.1722 0.3189, -0.1309 -0.1722 0.315, -0.1309 -0.1722 0.3189, -0.1309 -0.0541 0.315, -0.1309 -0.0541 0.3189, -0.0976 -0.0541 0.315, -0.0976 -0.0541 0.3189, -0.0575 -0.0894 0.315, -0.0575 -0.0894 0.3189, -0.0575 -0.0873 0.3189, -0.0575 -0.0873 0.315, -0.0589 -0.0779 0.3189, -0.0589 -0.0779 0.315, -0.06 -0.0752 0.3189, -0.0616 -0.0713 0.315, -0.0616 -0.0713 0.3189, -0.0658 -0.0654 0.3189, -0.0658 -0.0654 0.315, -0.0701 -0.0616 0.3189, -0.0701 -0.0616 0.315, -0.077 -0.0577 0.3189, -0.077 -0.0577 0.315, -0.086 -0.055 0.3189, -0.086 -0.055 0.315, -0.0614 -0.107 0.3189, -0.0662 -0.114 0.315, -0.0662 -0.114 0.3189, -0.0733 -0.1203 0.315, -0.0733 -0.1203 0.3189, -0.082 -0.1248 0.315, -0.082 -0.1248 0.3189, -0.0914 -0.1271 0.315, -0.0914 -0.1271 0.3189, -0.06 -0.1031 0.3189, -0.0586 -0.0994 0.315, -0.0614 -0.107 0.315, -0.0586 -0.0994 0.3189, -0.1151 -0.067 0.315, -0.0998 -0.067 0.315, -0.097 -0.0671 0.315, -0.0883 -0.0685 0.315, -0.0829 -0.0707 0.315, -0.0801 -0.0727 0.315, -0.0774 -0.0755 0.315, -0.0753 -0.0793 0.315, -0.0738 -0.0841 0.315, -0.0733 -0.09 0.315, -0.0733 -0.0905 0.315, -0.0742 -0.0977 0.315, -0.0759 -0.1023 0.315, -0.0786 -0.1064 0.315, -0.0824 -0.1098 0.315, -0.0871 -0.1123 0.315, -0.0933 -0.1139 0.315, -0.1013 -0.1146 0.315, -0.1151 -0.1146 0.315, -0.0998 -0.067 0.3189, -0.1151 -0.067 0.3189, -0.097 -0.0671 0.3189, -0.0883 -0.0685 0.3189, -0.0829 -0.0707 0.3189, -0.0801 -0.0727 0.3189, -0.0774 -0.0755 0.3189, -0.0753 -0.0793 0.3189, -0.0738 -0.0841 0.3189, -0.0733 -0.09 0.3189, -0.0733 -0.0905 0.3189, -0.0742 -0.0977 0.3189, -0.0759 -0.1023 0.3189, -0.0786 -0.1064 0.3189, -0.0824 -0.1098 0.3189, -0.0871 -0.1123 0.3189, -0.0933 -0.1139 0.3189, -0.1013 -0.1146 0.3189, -0.1151 -0.1146 0.3189, 0.0102 -0.0541 0.315, 0.0563 -0.1722 0.315, 0.0102 -0.0541 0.3189, 0.0563 -0.1722 0.3189, 0.039 -0.1722 0.315, 0.039 -0.1722 0.3189, 0.0271 -0.1391 0.315, 0.0271 -0.1391 0.3189, -0.0217 -0.1391 0.315, -0.0217 -0.1391 0.3189, -0.033 -0.1722 0.315, -0.033 -0.1722 0.3189, -0.0503 -0.1722 0.315, -0.0503 -0.1722 0.3189, -0.0056 -0.0541 0.315, -0.0056 -0.0541 0.3189, -0.0177 -0.1261 0.315, 0.0218 -0.1261 0.315, -0.0001 -0.0768 0.315, 0.001 -0.0727 0.315, 0.0018 -0.0685 0.315, 0.0021 -0.0685 0.315, 0.0029 -0.0727 0.315, 0.004 -0.0768 0.315, -0.0177 -0.1261 0.3189, 0.0218 -0.1261 0.3189, -0.0001 -0.0768 0.3189, 0.001 -0.0727 0.3189, 0.0018 -0.0685 0.3189, 0.0021 -0.0685 0.3189, 0.0029 -0.0727 0.3189, 0.004 -0.0768 0.3189, 0.1038 -0.1107 0.3189, 0.1038 -0.1107 0.315, 0.1524 -0.1668 0.3189, 0.1571 -0.1722 0.315, 0.1571 -0.1722 0.3189, 0.137 -0.1722 0.315, 0.137 -0.1722 0.3189, 0.1524 -0.1722 0.3189, 0.0923 -0.1187 0.315, 0.0923 -0.1187 0.3189, 0.0897 -0.1143 0.315, 0.0897 -0.1143 0.3189, 0.0909 -0.1166 0.3189, 0.0909 -0.1166 0.315, 0.0894 -0.1143 0.315, 0.0894 -0.1143 0.3189, 0.0894 -0.1722 0.315, 0.0894 -0.1722 0.3189, 0.0736 -0.1722 0.315, 0.0736 -0.1722 0.3189, 0.0736 -0.0541 0.315, 0.0736 -0.0541 0.3189, 0.0894 -0.0541 0.315, 0.0894 -0.0541 0.3189, 0.0894 -0.1094 0.315, 0.0894 -0.1094 0.3189, 0.0897 -0.1094 0.315, 0.0897 -0.1094 0.3189, 0.0923 -0.1051 0.315, 0.0923 -0.1051 0.3189, 0.091 -0.1072 0.3189, 0.091 -0.1072 0.315, 0.1355 -0.0541 0.315, 0.1355 -0.0541 0.3189, 0.1524 -0.0541 0.3189, 0.1542 -0.0541 0.315, 0.1542 -0.0541 0.3189, 0.1524 -0.0561 0.3189, -0.2754 0.315 0.315, -0.2754 0.315 0.3189, -0.2767 0.3252 0.315, -0.2767 0.3252 0.3189, -0.2807 0.3348 0.315, -0.2807 0.3348 0.3189, -0.287 0.343 0.315, -0.287 0.343 0.3189, -0.2952 0.3493 0.315, -0.2952 0.3493 0.3189, -0.3047 0.3532 0.315, -0.3047 0.3532 0.3189, -0.315 0.3546 0.315, -0.315 0.3546 0.3189, -0.3252 0.3532 0.315, -0.3252 0.3532 0.3189, -0.3348 0.3493 0.315, -0.3348 0.3493 0.3189, -0.343 0.343 0.315, -0.343 0.343 0.3189, -0.3493 0.3348 0.315, -0.3493 0.3348 0.3189, -0.3532 0.3252 0.315, -0.3532 0.3252 0.3189, -0.3546 0.315 0.315, -0.3546 0.315 0.3189, -0.3532 0.3047 0.315, -0.3532 0.3047 0.3189, -0.3493 0.2952 0.315, -0.3493 0.2952 0.3189, -0.343 0.287 0.315, -0.343 0.287 0.3189, -0.3348 0.2807 0.315, -0.3348 0.2807 0.3189, -0.3252 0.2767 0.315, -0.3252 0.2767 0.3189, -0.315 0.2754 0.315, -0.315 0.2754 0.3189, -0.3047 0.2767 0.315, -0.3047 0.2767 0.3189, -0.2952 0.2807 0.315, -0.2952 0.2807 0.3189, -0.287 0.287 0.315, -0.287 0.287 0.3189, -0.2807 0.2952 0.315, -0.2807 0.2952 0.3189, -0.2767 0.3047 0.315, -0.2767 0.3047 0.3189, -0.315 0.315 0.315, 0.2126 0.1126 0.315, 0.2126 0.0982 0.315, 0.2126 0.1126 0.3189, 0.2126 0.0982 0.3189, 0.2023 0.1015 0.315, 0.2023 0.1015 0.3189, 0.2059 0.1012 0.3189, 0.2059 0.1012 0.315, 0.2096 0.1001 0.3189, 0.2096 0.1001 0.315, 0.1823 0.072 0.315, 0.1823 0.072 0.3189, 0.1828 0.0792 0.3189, 0.1828 0.0792 0.315, 0.1849 0.0876 0.3189, 0.1849 0.0876 0.315, 0.188 0.0934 0.3189, 0.188 0.0934 0.315, 0.1915 0.0974 0.3189, 0.1915 0.0974 0.315, 0.1946 0.0996 0.3189, 0.1946 0.0996 0.315, 0.1981 0.101 0.3189, 0.1981 0.101 0.315, 0.1823 0.0295 0.315, 0.1823 0.0295 0.3189, 0.1679 0.0295 0.315, 0.1679 0.0295 0.3189, 0.1679 0.113 0.315, 0.1679 0.113 0.3189, 0.1823 0.113 0.315, 0.1823 0.113 0.3189, 0.1823 0.0965 0.315, 0.1823 0.0965 0.3189, 0.1826 0.0965 0.315, 0.1826 0.0965 0.3189, 0.2047 0.1144 0.315, 0.2047 0.1144 0.3189, 0.2034 0.1144 0.3189, 0.2034 0.1144 0.315, 0.199 0.1137 0.3189, 0.1985 0.1136 0.315, 0.1985 0.1136 0.3189, 0.1938 0.1116 0.3189, 0.1938 0.1116 0.315, 0.1895 0.1083 0.3189, 0.1895 0.1083 0.315, 0.1859 0.1035 0.3189, 0.1859 0.1035 0.315, 0.2088 0.1141 0.315, 0.2113 0.1133 0.3189, 0.2113 0.1133 0.315, 0.21 0.1137 0.3189, 0.2088 0.1141 0.3189, 0.1478 0.0744 0.315, 0.1478 0.0669 0.315, 0.1478 0.0744 0.3189, 0.1478 0.0669 0.3189, 0.0901 0.0669 0.315, 0.0901 0.0669 0.3189, 0.1166 0.041 0.315, 0.1166 0.041 0.3189, 0.1087 0.0418 0.3189, 0.1087 0.0418 0.315, 0.1035 0.0435 0.3189, 0.1035 0.0435 0.315, 0.0992 0.0462 0.3189, 0.0992 0.0462 0.315, 0.0957 0.0497 0.3189, 0.0957 0.0497 0.315, 0.0929 0.0541 0.3189, 0.0929 0.0541 0.315, 0.091 0.0598 0.3189, 0.091 0.0598 0.315, 0.142 0.05 0.315, 0.142 0.05 0.3189, 0.1354 0.0457 0.3189, 0.1354 0.0457 0.315, 0.1265 0.0422 0.3189, 0.1265 0.0422 0.315, 0.142 0.037 0.315, 0.142 0.037 0.3189, 0.1128 0.028 0.315, 0.1128 0.028 0.3189, 0.1241 0.029 0.315, 0.121 0.0287 0.3189, 0.1241 0.029 0.3189, 0.1337 0.032 0.3189, 0.1337 0.032 0.315, 0.1056 0.0287 0.3189, 0.1027 0.029 0.315, 0.1027 0.029 0.3189, 0.0949 0.0316 0.315, 0.0949 0.0316 0.3189, 0.0885 0.0356 0.315, 0.0885 0.0356 0.3189, 0.0827 0.0415 0.315, 0.0827 0.0415 0.3189, 0.0785 0.0486 0.315, 0.0785 0.0486 0.3189, 0.0753 0.0592 0.315, 0.0753 0.0592 0.3189, 0.0743 0.0708 0.315, 0.0743 0.0708 0.3189, 0.113 0.1144 0.315, 0.113 0.1144 0.3189, 0.1074 0.1141 0.3189, 0.1074 0.1141 0.315, 0.1061 0.1137 0.3189, 0.0991 0.1119 0.315, 0.0991 0.1119 0.3189, 0.0919 0.1079 0.3189, 0.0919 0.1079 0.315, 0.0845 0.1011 0.3189, 0.0845 0.1011 0.315, 0.0789 0.0924 0.3189, 0.0789 0.0924 0.315, 0.0755 0.0828 0.3189, 0.0755 0.0828 0.315, 0.1201 0.1137 0.3189, 0.122 0.1135 0.315, 0.122 0.1135 0.3189, 0.1291 0.1112 0.315, 0.1291 0.1112 0.3189, 0.1349 0.1074 0.315, 0.1349 0.1074 0.3189, 0.1395 0.1027 0.315, 0.1395 0.1027 0.3189, 0.1435 0.0963 0.315, 0.1435 0.0963 0.3189, 0.1466 0.0868 0.315, 0.1466 0.0868 0.3189, 0.1334 0.0799 0.315, 0.1328 0.0859 0.315, 0.1314 0.0907 0.315, 0.1292 0.0945 0.315, 0.1261 0.0976 0.315, 0.1225 0.0998 0.315, 0.1185 0.101 0.315, 0.1133 0.1015 0.315, 0.1075 0.1008 0.315, 0.1031 0.099 0.315, 0.0983 0.0956 0.315, 0.0961 0.0933 0.315, 0.0928 0.0883 0.315, 0.0906 0.0822 0.315, 0.0901 0.0799 0.315, 0.0901 0.0799 0.3189, 0.1334 0.0799 0.3189, 0.0906 0.0822 0.3189, 0.0928 0.0883 0.3189, 0.0961 0.0933 0.3189, 0.0983 0.0956 0.3189, 0.1031 0.099 0.3189, 0.1075 0.1008 0.3189, 0.1133 0.1015 0.3189, 0.1185 0.101 0.3189, 0.1225 0.0998 0.3189, 0.1261 0.0976 0.3189, 0.1292 0.0945 0.3189, 0.1314 0.0907 0.3189, 0.1328 0.0859 0.3189, 0.0513 0.113 0.3189, 0.0513 0.113 0.315, 0.061 0.113 0.3189, 0.0657 0.113 0.315, 0.0657 0.113 0.3189, 0.061 0.097 0.3189, 0.0412 0.0295 0.315, 0.0412 0.0295 0.3189, 0.0253 0.0295 0.315, 0.0253 0.0295 0.3189, 0.0083 0.0877 0.315, 0.0083 0.0877 0.3189, 0.0069 0.0957 0.315, 0.0069 0.0957 0.3189, 0.0074 0.0917 0.3189, 0.0074 0.0917 0.315, 0.0066 0.0957 0.315, 0.0066 0.0957 0.3189, 0.0048 0.0879 0.315, 0.0048 0.0879 0.3189, 0.006 0.0918 0.3189, 0.006 0.0918 0.315, -0.0136 0.0295 0.315, -0.0136 0.0295 0.3189, -0.028 0.0295 0.315, -0.028 0.0295 0.3189, -0.0539 0.113 0.315, -0.0539 0.113 0.3189, -0.038 0.113 0.315, -0.038 0.113 0.3189, -0.0219 0.0514 0.315, -0.0219 0.0514 0.3189, -0.0208 0.0439 0.315, -0.0208 0.0439 0.3189, -0.0211 0.0477 0.3189, -0.0211 0.0477 0.315, -0.0193 0.0439 0.315, -0.0193 0.0439 0.3189, -0.0179 0.0517 0.315, -0.0179 0.0517 0.3189, -0.0188 0.0478 0.3189, -0.0188 0.0478 0.315, -0.0006 0.113 0.315, -0.0006 0.113 0.3189, 0.0138 0.113 0.315, 0.0138 0.113 0.3189, 0.0319 0.0515 0.315, 0.0319 0.0515 0.3189, 0.0332 0.0439 0.315, 0.0332 0.0439 0.3189, 0.0327 0.0477 0.3189, 0.0327 0.0477 0.315, 0.0339 0.0439 0.315, 0.0339 0.0439 0.3189, 0.0352 0.0515 0.315, 0.0352 0.0515 0.3189, 0.0343 0.0477 0.3189, 0.0343 0.0477 0.315, -0.1055 0.028 0.3189, -0.1055 0.028 0.315, -0.1127 0.0287 0.3189, -0.1166 0.0291 0.315, -0.1166 0.0291 0.3189, -0.1256 0.0322 0.315, -0.1256 0.0322 0.3189, -0.1329 0.0368 0.315, -0.1329 0.0368 0.3189, -0.1389 0.0428 0.315, -0.1389 0.0428 0.3189, -0.1437 0.0509 0.315, -0.1437 0.0509 0.3189, -0.1465 0.0597 0.315, -0.1465 0.0597 0.3189, -0.1475 0.0703 0.315, -0.1475 0.0703 0.3189, -0.1036 0.1144 0.315, -0.1036 0.1144 0.3189, -0.1153 0.1133 0.315, -0.1111 0.1137 0.3189, -0.1153 0.1133 0.3189, -0.1243 0.1104 0.3189, -0.1243 0.1104 0.315, -0.1325 0.1055 0.3189, -0.1325 0.1055 0.315, -0.1387 0.0992 0.3189, -0.1387 0.0992 0.315, -0.1433 0.0916 0.3189, -0.1433 0.0916 0.315, -0.1464 0.0821 0.3189, -0.1464 0.0821 0.315, -0.0962 0.1137 0.3189, -0.0928 0.1134 0.315, -0.0928 0.1134 0.3189, -0.0841 0.1106 0.315, -0.0841 0.1106 0.3189, -0.0769 0.1062 0.315, -0.0769 0.1062 0.3189, -0.071 0.1002 0.315, -0.071 0.1002 0.3189, -0.0665 0.0927 0.315, -0.0665 0.0927 0.3189, -0.0638 0.0841 0.315, -0.0638 0.0841 0.3189, -0.0625 0.0716 0.315, -0.0625 0.0716 0.3189, -0.0972 0.0287 0.3189, -0.0955 0.0289 0.315, -0.0955 0.0289 0.3189, -0.0867 0.0315 0.3189, -0.0867 0.0315 0.315, -0.079 0.0359 0.3189, -0.079 0.0359 0.315, -0.0719 0.0427 0.3189, -0.0719 0.0427 0.315, -0.0669 0.0504 0.3189, -0.0669 0.0504 0.315, -0.0637 0.0599 0.3189, -0.0637 0.0599 0.315, -0.0846 0.0494 0.315, -0.0883 0.0458 0.315, -0.0925 0.0433 0.315, -0.0978 0.0416 0.315, -0.1046 0.041 0.315, -0.1113 0.0416 0.315, -0.1168 0.0434 0.315, -0.1218 0.0466 0.315, -0.1258 0.0507 0.315, -0.1289 0.0559 0.315, -0.1309 0.0625 0.315, -0.1317 0.0708 0.315, -0.131 0.0787 0.315, -0.1288 0.0863 0.315, -0.1258 0.0916 0.315, -0.1216 0.096 0.315, -0.117 0.0989 0.315, -0.1117 0.1007 0.315, -0.1046 0.1015 0.315, -0.1016 0.1014 0.315, -0.0946 0.1 0.315, -0.0901 0.0979 0.315, -0.0863 0.095 0.315, -0.0838 0.092 0.315, -0.0809 0.0867 0.315, -0.0791 0.08 0.315, -0.0784 0.0712 0.315, -0.0791 0.0623 0.315, -0.0812 0.0551 0.315, -0.0838 0.0503 0.315, -0.1317 0.0708 0.3189, -0.131 0.0787 0.3189, -0.1288 0.0863 0.3189, -0.1258 0.0916 0.3189, -0.1216 0.096 0.3189, -0.117 0.0989 0.3189, -0.1117 0.1007 0.3189, -0.1046 0.1015 0.3189, -0.1016 0.1014 0.3189, -0.0946 0.1 0.3189, -0.0901 0.0979 0.3189, -0.0863 0.095 0.3189, -0.0838 0.092 0.3189, -0.0809 0.0867 0.3189, -0.0791 0.08 0.3189, -0.0784 0.0712 0.3189, -0.0791 0.0623 0.3189, -0.0812 0.0551 0.3189, -0.0838 0.0503 0.3189, -0.0846 0.0494 0.3189, -0.0883 0.0458 0.3189, -0.0925 0.0433 0.3189, -0.0978 0.0416 0.3189, -0.1046 0.041 0.3189, -0.1113 0.0416 0.3189, -0.1168 0.0434 0.3189, -0.1218 0.0466 0.3189, -0.1258 0.0507 0.3189, -0.1289 0.0559 0.3189, -0.1309 0.0625 0.3189
            ]
        }
        coordIndex [
            0,1,2,-1,2,1,3,-1,1,4,3,-1,3,4,5,-1,4,6,5,-1,5,6,7,-1,7,6,8,-1,8,6,9,-1,8,9,10,-1,9,11,10,-1,10,11,12,-1,13,14,15,-1,15,14,16,-1,14,17,16,-1,16,17,18,-1,16,18,19,-1,19,18,20,-1,19,20,21,-1,21,20,22,-1,21,22,23,-1,23,22,24,-1,23,24,25,-1,25,24,26,-1,25,26,27,-1,27,26,28,-1,27,28,29,-1,29,28,12,-1,29,12,11,-1,0,2,30,-1,0,30,31,-1,31,30,32,-1,31,32,33,-1,33,32,34,-1,33,34,35,-1,35,34,36,-1,35,36,37,-1,37,36,38,-1,37,38,39,-1,39,38,40,-1,39,40,41,-1,41,40,13,-1,41,13,15,-1,9,6,1,-1,1,6,4,-1,42,43,11,-1,11,43,44,-1,11,44,29,-1,29,44,45,-1,29,45,27,-1,27,45,46,-1,27,46,25,-1,25,46,47,-1,25,47,23,-1,23,47,48,-1,23,48,21,-1,21,48,49,-1,21,49,19,-1,19,49,50,-1,19,50,16,-1,16,50,51,-1,16,51,15,-1,15,51,52,-1,15,52,41,-1,41,52,53,-1,41,53,39,-1,39,53,54,-1,39,54,37,-1,37,54,55,-1,37,55,35,-1,35,55,56,-1,35,56,33,-1,33,56,57,-1,33,57,31,-1,31,57,58,-1,31,58,0,-1,0,58,59,-1,0,59,1,-1,1,59,60,-1,1,60,9,-1,9,60,42,-1,9,42,11,-1,43,42,61,-1,61,42,62,-1,43,61,63,-1,43,63,44,-1,44,63,64,-1,44,64,45,-1,45,64,65,-1,45,65,46,-1,46,65,66,-1,46,66,47,-1,47,66,67,-1,47,67,48,-1,48,67,68,-1,48,68,49,-1,49,68,69,-1,49,69,50,-1,50,69,70,-1,50,70,51,-1,51,70,71,-1,51,71,52,-1,52,71,72,-1,52,72,53,-1,53,72,73,-1,53,73,54,-1,54,73,74,-1,54,74,55,-1,55,74,75,-1,55,75,56,-1,56,75,76,-1,56,76,57,-1,57,76,77,-1,57,77,58,-1,58,77,78,-1,58,78,59,-1,60,59,79,-1,79,59,78,-1,42,60,62,-1,62,60,79,-1,80,81,82,-1,82,81,83,-1,81,84,83,-1,83,84,85,-1,84,86,85,-1,85,86,87,-1,86,88,87,-1,87,88,89,-1,88,90,89,-1,89,90,91,-1,92,93,94,-1,92,94,95,-1,95,94,96,-1,95,96,97,-1,97,96,98,-1,97,98,99,-1,98,100,99,-1,99,100,101,-1,99,101,102,-1,102,101,103,-1,102,103,104,-1,104,103,105,-1,104,105,106,-1,106,105,107,-1,106,107,108,-1,108,107,91,-1,108,91,90,-1,109,110,111,-1,111,110,112,-1,111,112,113,-1,113,112,114,-1,113,114,115,-1,115,114,116,-1,115,116,117,-1,117,116,80,-1,117,80,82,-1,118,119,109,-1,109,119,120,-1,109,120,110,-1,118,121,119,-1,119,121,93,-1,119,93,92,-1,88,86,81,-1,81,86,84,-1,122,123,90,-1,90,123,124,-1,90,124,108,-1,108,124,125,-1,108,125,106,-1,106,125,126,-1,106,126,104,-1,104,126,127,-1,104,127,102,-1,102,127,128,-1,102,128,99,-1,99,128,129,-1,99,129,97,-1,97,129,130,-1,97,130,95,-1,95,130,131,-1,95,131,92,-1,92,131,132,-1,92,132,119,-1,119,132,133,-1,119,133,120,-1,120,133,134,-1,120,134,110,-1,110,134,135,-1,110,135,112,-1,112,135,136,-1,112,136,114,-1,114,136,137,-1,114,137,116,-1,116,137,138,-1,116,138,80,-1,80,138,139,-1,80,139,81,-1,81,139,140,-1,81,140,88,-1,88,140,122,-1,88,122,90,-1,123,122,141,-1,141,122,142,-1,123,141,143,-1,123,143,124,-1,124,143,144,-1,124,144,125,-1,125,144,145,-1,125,145,126,-1,126,145,146,-1,126,146,127,-1,127,146,147,-1,127,147,128,-1,128,147,148,-1,128,148,129,-1,129,148,149,-1,129,149,130,-1,130,149,150,-1,130,150,131,-1,131,150,151,-1,131,151,132,-1,132,151,152,-1,132,152,133,-1,133,152,153,-1,133,153,134,-1,134,153,154,-1,134,154,135,-1,135,154,155,-1,135,155,136,-1,136,155,156,-1,136,156,137,-1,137,156,157,-1,137,157,138,-1,138,157,158,-1,138,158,139,-1,140,139,159,-1,159,139,158,-1,122,140,142,-1,142,140,159,-1,160,161,162,-1,162,161,163,-1,161,164,163,-1,163,164,165,-1,164,166,165,-1,165,166,167,-1,166,168,167,-1,167,168,169,-1,168,170,169,-1,169,170,171,-1,170,172,171,-1,171,172,173,-1,172,174,173,-1,173,174,175,-1,174,160,175,-1,175,160,162,-1,176,168,177,-1,177,168,166,-1,178,174,176,-1,176,174,172,-1,176,172,168,-1,168,172,170,-1,178,179,174,-1,174,179,180,-1,174,180,160,-1,160,180,181,-1,160,181,182,-1,182,183,160,-1,160,183,177,-1,160,177,161,-1,161,177,166,-1,161,166,164,-1,176,177,184,-1,184,177,185,-1,178,176,186,-1,186,176,184,-1,178,186,187,-1,178,187,179,-1,179,187,188,-1,179,188,180,-1,181,180,189,-1,189,180,188,-1,181,189,190,-1,181,190,182,-1,182,190,191,-1,182,191,183,-1,177,183,185,-1,185,183,191,-1,192,193,194,-1,194,193,195,-1,194,195,196,-1,197,198,195,-1,195,198,199,-1,195,199,196,-1,197,200,198,-1,198,200,201,-1,202,203,204,-1,202,204,205,-1,205,204,201,-1,205,201,200,-1,202,206,203,-1,203,206,207,-1,206,208,207,-1,207,208,209,-1,208,210,209,-1,209,210,211,-1,210,212,211,-1,211,212,213,-1,212,214,213,-1,213,214,215,-1,214,216,215,-1,215,216,217,-1,216,218,217,-1,217,218,219,-1,220,221,222,-1,220,222,223,-1,223,222,219,-1,223,219,218,-1,220,224,221,-1,221,224,225,-1,225,224,226,-1,226,224,227,-1,226,227,228,-1,193,192,227,-1,227,192,229,-1,227,229,228,-1,218,216,193,-1,214,212,216,-1,216,212,210,-1,210,208,206,-1,218,193,223,-1,210,206,216,-1,216,206,202,-1,216,202,193,-1,197,195,200,-1,200,195,193,-1,200,193,205,-1,205,193,202,-1,227,224,193,-1,193,224,220,-1,193,220,223,-1,230,231,232,-1,232,231,233,-1,232,233,234,-1,234,233,235,-1,234,235,236,-1,236,235,237,-1,236,237,238,-1,238,237,239,-1,238,239,240,-1,240,239,241,-1,240,241,242,-1,242,241,243,-1,242,243,244,-1,244,243,245,-1,244,245,246,-1,246,245,247,-1,246,247,248,-1,248,247,249,-1,248,249,250,-1,250,249,251,-1,250,251,252,-1,252,251,253,-1,252,253,254,-1,254,253,255,-1,254,255,256,-1,256,255,257,-1,256,257,258,-1,258,257,259,-1,258,259,260,-1,260,259,261,-1,260,261,262,-1,262,261,263,-1,262,263,264,-1,264,263,265,-1,264,265,266,-1,266,265,267,-1,266,267,268,-1,268,267,269,-1,268,269,270,-1,270,269,271,-1,270,271,272,-1,272,271,273,-1,272,273,274,-1,274,273,275,-1,274,275,276,-1,276,275,277,-1,276,277,230,-1,230,277,231,-1,274,276,278,-1,278,276,230,-1,278,230,232,-1,268,270,278,-1,278,270,272,-1,278,272,274,-1,262,264,278,-1,278,264,266,-1,278,266,268,-1,256,258,278,-1,278,258,260,-1,278,260,262,-1,250,252,278,-1,278,252,254,-1,278,254,256,-1,244,246,278,-1,278,246,248,-1,278,248,250,-1,238,240,278,-1,278,240,242,-1,278,242,244,-1,232,234,278,-1,278,234,236,-1,278,236,238,-1,279,280,281,-1,281,280,282,-1,283,284,285,-1,283,285,286,-1,286,285,287,-1,286,287,288,-1,288,287,282,-1,288,282,280,-1,289,290,291,-1,289,291,292,-1,292,291,293,-1,292,293,294,-1,294,293,295,-1,294,295,296,-1,296,295,297,-1,296,297,298,-1,298,297,299,-1,298,299,300,-1,300,299,301,-1,300,301,302,-1,302,301,284,-1,302,284,283,-1,289,303,290,-1,290,303,304,-1,303,305,304,-1,304,305,306,-1,305,307,306,-1,306,307,308,-1,307,309,308,-1,308,309,310,-1,309,311,310,-1,310,311,312,-1,311,313,312,-1,312,313,314,-1,315,316,317,-1,315,317,318,-1,318,317,319,-1,318,319,320,-1,319,321,320,-1,320,321,322,-1,320,322,323,-1,323,322,324,-1,323,324,325,-1,325,324,326,-1,325,326,327,-1,327,326,314,-1,327,314,313,-1,316,315,328,-1,279,281,329,-1,279,329,330,-1,330,329,331,-1,330,331,328,-1,328,331,332,-1,328,332,316,-1,305,303,289,-1,313,311,292,-1,309,307,311,-1,311,307,305,-1,311,305,292,-1,292,305,289,-1,280,279,288,-1,288,279,330,-1,288,330,286,-1,292,294,313,-1,313,294,296,-1,313,296,327,-1,327,296,298,-1,327,298,325,-1,325,298,300,-1,325,300,323,-1,323,300,302,-1,323,302,320,-1,320,302,283,-1,330,328,286,-1,286,328,315,-1,286,315,283,-1,283,315,318,-1,283,318,320,-1,333,334,335,-1,335,334,336,-1,334,337,336,-1,336,337,338,-1,339,340,341,-1,339,341,342,-1,342,341,343,-1,342,343,344,-1,344,343,345,-1,344,345,346,-1,346,345,347,-1,346,347,348,-1,348,347,349,-1,348,349,350,-1,350,349,351,-1,350,351,352,-1,352,351,338,-1,352,338,337,-1,353,354,355,-1,353,355,356,-1,356,355,357,-1,356,357,358,-1,358,357,340,-1,358,340,339,-1,353,359,354,-1,354,359,360,-1,361,362,363,-1,363,362,364,-1,364,365,363,-1,363,365,366,-1,363,366,367,-1,367,366,360,-1,367,360,359,-1,362,361,368,-1,368,361,369,-1,368,369,370,-1,370,369,371,-1,370,371,372,-1,372,371,373,-1,372,373,374,-1,374,373,375,-1,374,375,376,-1,376,375,377,-1,376,377,378,-1,378,377,379,-1,378,379,380,-1,380,379,381,-1,380,381,382,-1,383,384,385,-1,383,385,386,-1,386,385,387,-1,386,387,388,-1,387,389,388,-1,388,389,390,-1,388,390,391,-1,391,390,392,-1,391,392,393,-1,393,392,394,-1,393,394,395,-1,395,394,396,-1,395,396,397,-1,397,396,382,-1,397,382,381,-1,384,383,398,-1,398,383,399,-1,398,399,400,-1,400,399,401,-1,400,401,402,-1,402,401,403,-1,402,403,404,-1,404,403,405,-1,404,405,406,-1,406,405,407,-1,406,407,408,-1,408,407,409,-1,408,409,410,-1,410,409,333,-1,410,333,335,-1,337,334,411,-1,411,334,333,-1,411,333,412,-1,412,333,409,-1,412,409,413,-1,413,409,407,-1,413,407,414,-1,414,407,405,-1,414,405,415,-1,415,405,403,-1,415,403,416,-1,416,403,401,-1,416,401,417,-1,417,401,399,-1,417,399,418,-1,418,399,383,-1,418,383,419,-1,419,383,386,-1,419,386,420,-1,420,386,388,-1,420,388,421,-1,421,388,391,-1,421,391,422,-1,422,391,393,-1,422,393,423,-1,423,393,395,-1,423,395,424,-1,424,395,397,-1,424,397,425,-1,425,397,381,-1,339,363,358,-1,358,363,367,-1,358,367,356,-1,356,367,359,-1,356,359,353,-1,411,425,337,-1,337,425,381,-1,337,381,352,-1,352,381,379,-1,352,379,350,-1,350,379,377,-1,350,377,348,-1,348,377,375,-1,348,375,346,-1,346,375,373,-1,346,373,344,-1,344,373,371,-1,344,371,342,-1,342,371,369,-1,342,369,339,-1,339,369,361,-1,339,361,363,-1,425,411,426,-1,426,411,427,-1,425,426,428,-1,425,428,424,-1,424,428,429,-1,424,429,423,-1,423,429,430,-1,423,430,422,-1,422,430,431,-1,422,431,421,-1,421,431,432,-1,421,432,420,-1,420,432,433,-1,420,433,419,-1,419,433,434,-1,419,434,418,-1,418,434,435,-1,418,435,417,-1,417,435,436,-1,417,436,416,-1,416,436,437,-1,416,437,415,-1,415,437,438,-1,415,438,414,-1,414,438,439,-1,414,439,413,-1,413,439,440,-1,413,440,412,-1,412,440,427,-1,412,427,411,-1,441,442,443,-1,443,442,444,-1,443,444,445,-1,445,444,446,-1,446,444,447,-1,446,447,448,-1,447,449,448,-1,448,449,450,-1,449,451,450,-1,450,451,452,-1,453,454,455,-1,453,455,456,-1,456,455,452,-1,456,452,451,-1,453,457,454,-1,454,457,458,-1,459,460,461,-1,459,461,462,-1,462,461,458,-1,462,458,457,-1,459,463,460,-1,460,463,464,-1,463,465,464,-1,464,465,466,-1,465,467,466,-1,466,467,468,-1,467,469,468,-1,468,469,470,-1,469,471,470,-1,470,471,472,-1,473,474,475,-1,473,475,476,-1,476,475,472,-1,476,472,471,-1,473,477,474,-1,474,477,478,-1,479,480,481,-1,479,481,482,-1,482,481,478,-1,482,478,477,-1,479,483,480,-1,480,483,484,-1,483,485,484,-1,484,485,486,-1,485,487,486,-1,486,487,488,-1,489,490,491,-1,489,491,492,-1,492,491,488,-1,492,488,487,-1,489,493,490,-1,490,493,494,-1,495,496,497,-1,495,497,498,-1,498,497,494,-1,498,494,493,-1,495,442,496,-1,496,442,441,-1,469,467,471,-1,471,467,465,-1,471,465,476,-1,444,442,447,-1,447,442,495,-1,489,449,493,-1,493,449,447,-1,493,447,498,-1,498,447,495,-1,453,485,457,-1,457,485,483,-1,457,483,462,-1,453,456,485,-1,485,456,451,-1,485,451,487,-1,487,451,449,-1,487,449,492,-1,492,449,489,-1,479,463,483,-1,483,463,459,-1,483,459,462,-1,479,482,463,-1,463,482,477,-1,463,477,465,-1,465,477,473,-1,465,473,476,-1,499,500,501,-1,501,500,502,-1,501,502,503,-1,503,502,504,-1,503,504,505,-1,505,504,506,-1,505,506,507,-1,507,506,508,-1,507,508,509,-1,509,508,510,-1,509,510,511,-1,511,510,512,-1,511,512,513,-1,513,512,514,-1,513,514,515,-1,516,517,518,-1,518,517,519,-1,519,520,518,-1,518,520,521,-1,518,521,522,-1,522,521,523,-1,522,523,524,-1,524,523,525,-1,524,525,526,-1,526,525,527,-1,526,527,528,-1,528,527,529,-1,528,529,530,-1,530,529,515,-1,530,515,514,-1,517,516,531,-1,531,516,532,-1,531,532,533,-1,533,532,534,-1,533,534,535,-1,535,534,536,-1,535,536,537,-1,537,536,538,-1,537,538,539,-1,539,538,540,-1,539,540,541,-1,541,540,542,-1,541,542,543,-1,543,542,544,-1,543,544,545,-1,499,546,500,-1,500,546,547,-1,546,548,547,-1,547,548,549,-1,547,549,550,-1,550,549,551,-1,550,551,552,-1,552,551,553,-1,552,553,554,-1,554,553,555,-1,554,555,556,-1,556,555,557,-1,556,557,558,-1,558,557,545,-1,558,545,544,-1,554,559,552,-1,552,559,560,-1,552,560,550,-1,550,560,561,-1,550,561,547,-1,547,561,562,-1,547,562,500,-1,500,562,563,-1,500,563,502,-1,502,563,564,-1,502,564,504,-1,504,564,565,-1,504,565,506,-1,506,565,566,-1,506,566,508,-1,508,566,567,-1,508,567,510,-1,510,567,568,-1,510,568,512,-1,512,568,569,-1,512,569,514,-1,514,569,570,-1,514,570,530,-1,530,570,571,-1,530,571,528,-1,528,571,572,-1,528,572,526,-1,526,572,573,-1,526,573,524,-1,524,573,574,-1,524,574,522,-1,522,574,575,-1,522,575,518,-1,518,575,576,-1,518,576,516,-1,576,577,516,-1,516,577,578,-1,516,578,532,-1,532,578,579,-1,532,579,534,-1,534,579,580,-1,534,580,536,-1,536,580,581,-1,536,581,538,-1,538,581,582,-1,538,582,540,-1,540,582,583,-1,540,583,542,-1,542,583,584,-1,542,584,544,-1,544,584,585,-1,544,585,558,-1,558,585,586,-1,558,586,556,-1,556,586,587,-1,556,587,554,-1,554,587,588,-1,554,588,559,-1,570,589,590,-1,570,590,571,-1,571,590,591,-1,571,591,572,-1,572,591,592,-1,572,592,573,-1,573,592,593,-1,573,593,574,-1,574,593,594,-1,574,594,575,-1,575,594,595,-1,575,595,576,-1,576,595,596,-1,576,596,577,-1,577,596,597,-1,577,597,578,-1,578,597,598,-1,578,598,579,-1,579,598,599,-1,579,599,580,-1,580,599,600,-1,580,600,581,-1,581,600,601,-1,581,601,582,-1,582,601,602,-1,582,602,583,-1,583,602,603,-1,583,603,584,-1,584,603,604,-1,584,604,585,-1,585,604,605,-1,585,605,586,-1,586,605,606,-1,586,606,587,-1,587,606,607,-1,587,607,588,-1,588,607,608,-1,588,608,559,-1,559,608,609,-1,559,609,560,-1,560,609,610,-1,560,610,561,-1,561,610,611,-1,561,611,562,-1,562,611,612,-1,562,612,563,-1,563,612,613,-1,563,613,564,-1,564,613,614,-1,564,614,565,-1,565,614,615,-1,565,615,566,-1,566,615,616,-1,566,616,567,-1,567,616,617,-1,567,617,568,-1,568,617,618,-1,568,618,569,-1,569,618,589,-1,569,589,570,-1,
        ]
    }
}
Shape{
    appearance Appearance {
        material  Material 	{
            diffuseColor 0.25098039215686274 0.25098039215686274 0.25098039215686274
            specularColor 0.12549019607843137 0.12549019607843137 0.12549019607843137
            ambientIntensity 0.251
            transparency 0.0
            shininess 0.5
        }
    }
    geometry IndexedFaceSet {
        ccw TRUE
        solid FALSE
        coord DEF co Coordinate {
            point [
                -0.2181 0.1346 0.3189, -0.2181 0.0871 0.3189, -0.2028 0.1346 0.3189, -0.2043 0.0871 0.3189, -0.1963 0.0877 0.3189, -0.1901 0.0894 0.3189, -0.1854 0.0919 0.3189, -0.1772 0.104 0.3189, -0.1763 0.1111 0.3189, -0.1763 0.1116 0.3189, -0.2 0.1345 0.3189, -0.1768 0.1176 0.3189, -0.1912 0.1332 0.3189, -0.1859 0.1309 0.3189, -0.1816 0.0953 0.3189, -0.1789 0.0994 0.3189, -0.183 0.129 0.3189, -0.1783 0.1224 0.3189, -0.1804 0.1261 0.3189, -0.1151 -0.067 0.3189, -0.1151 -0.1146 0.3189, -0.0998 -0.067 0.3189, -0.1013 -0.1146 0.3189, -0.0933 -0.1139 0.3189, -0.0871 -0.1123 0.3189, -0.0824 -0.1098 0.3189, -0.0742 -0.0977 0.3189, -0.0733 -0.0905 0.3189, -0.0733 -0.09 0.3189, -0.097 -0.0671 0.3189, -0.0738 -0.0841 0.3189, -0.0883 -0.0685 0.3189, -0.0829 -0.0707 0.3189, -0.0786 -0.1064 0.3189, -0.0759 -0.1023 0.3189, -0.0801 -0.0727 0.3189, -0.0753 -0.0793 0.3189, -0.0774 -0.0755 0.3189, -0.0177 -0.1261 0.3189, 0.0218 -0.1261 0.3189, -0.0001 -0.0768 0.3189, 0.004 -0.0768 0.3189, 0.001 -0.0727 0.3189, 0.0029 -0.0727 0.3189, 0.0018 -0.0685 0.3189, 0.0021 -0.0685 0.3189, 0.0906 0.0822 0.3189, 0.0901 0.0799 0.3189, 0.1334 0.0799 0.3189, 0.0928 0.0883 0.3189, 0.1292 0.0945 0.3189, 0.1261 0.0976 0.3189, 0.1225 0.0998 0.3189, 0.1075 0.1008 0.3189, 0.1031 0.099 0.3189, 0.1328 0.0859 0.3189, 0.0983 0.0956 0.3189, 0.0961 0.0933 0.3189, 0.1314 0.0907 0.3189, 0.1185 0.101 0.3189, 0.1133 0.1015 0.3189, -0.131 0.0787 0.3189, -0.1317 0.0708 0.3189, -0.1046 0.041 0.3189, -0.1309 0.0625 0.3189, -0.1113 0.0416 0.3189, -0.0978 0.0416 0.3189, -0.1046 0.1015 0.3189, -0.0925 0.0433 0.3189, -0.0883 0.0458 0.3189, -0.0791 0.0623 0.3189, -0.0784 0.0712 0.3189, -0.1016 0.1014 0.3189, -0.1289 0.0559 0.3189, -0.1258 0.0507 0.3189, -0.1168 0.0434 0.3189, -0.1218 0.0466 0.3189, -0.0846 0.0494 0.3189, -0.0838 0.0503 0.3189, -0.0812 0.0551 0.3189, -0.1117 0.1007 0.3189, -0.117 0.0989 0.3189, -0.1216 0.096 0.3189, -0.0791 0.08 0.3189, -0.0809 0.0867 0.3189, -0.0838 0.092 0.3189, -0.1258 0.0916 0.3189, -0.1288 0.0863 0.3189, -0.0863 0.095 0.3189, -0.0901 0.0979 0.3189, -0.0946 0.1 0.3189
            ]
        }
        coordIndex [
            0,1,2,-1,2,1,3,-1,3,4,2,-1,2,4,5,-1,2,5,6,-1,7,8,2,-1,2,8,9,-1,2,9,10,-1,10,9,11,-1,10,11,12,-1,12,11,13,-1,6,14,2,-1,2,14,15,-1,2,15,7,-1,13,11,16,-1,16,11,17,-1,16,17,18,-1,19,20,21,-1,21,20,22,-1,22,23,21,-1,21,23,24,-1,21,24,25,-1,26,27,21,-1,21,27,28,-1,21,28,29,-1,29,28,30,-1,29,30,31,-1,31,30,32,-1,25,33,21,-1,21,33,34,-1,21,34,26,-1,32,30,35,-1,35,30,36,-1,35,36,37,-1,38,39,40,-1,40,39,41,-1,40,41,42,-1,42,41,43,-1,42,43,44,-1,44,43,45,-1,46,47,48,-1,46,48,49,-1,50,51,52,-1,53,54,55,-1,55,54,56,-1,55,56,48,-1,48,56,57,-1,48,57,49,-1,50,52,58,-1,58,52,59,-1,58,59,55,-1,55,59,60,-1,55,60,53,-1,61,62,63,-1,63,62,64,-1,63,64,65,-1,63,66,67,-1,67,66,68,-1,67,68,69,-1,70,71,72,-1,64,73,65,-1,65,73,74,-1,65,74,75,-1,75,74,76,-1,69,77,67,-1,67,77,78,-1,67,78,72,-1,72,78,79,-1,72,79,70,-1,67,80,63,-1,63,80,81,-1,63,81,82,-1,71,83,72,-1,72,83,84,-1,72,84,85,-1,82,86,63,-1,63,86,87,-1,63,87,61,-1,85,88,72,-1,72,88,89,-1,72,89,90,-1,
        ]
    }
}
Shape{
    appearance Appearance {
        material  Material 	{
            diffuseColor 0.8549019607843137 0.8549019607843137 0.8549019607843137
            specularColor 0.42745098039215684 0.42745098039215684 0.42745098039215684
            ambientIntensity 0.8549
            transparency 0.0
            shininess 0.5
        }
    }
    geometry IndexedFaceSet {
        ccw TRUE
        solid FALSE
        coord DEF co Coordinate {
            point [
                0.4173 -0.3248 0.0787, 0.4173 -0.187 0.0787, 0.4134 -0.3248 0.0787, 0.4134 -0.187 0.0787, 0.2795 -0.3248 0.0039, 0.2795 -0.3248 0.0, 0.4134 -0.3248 0.0039, 0.4173 -0.3248 0.0, 0.4134 -0.187 0.0039, 0.4173 -0.187 0.0, 0.2795 -0.187 0.0039, 0.2795 -0.187 0.0, 0.4173 0.187 0.0787, 0.4173 0.3248 0.0787, 0.4134 0.187 0.0787, 0.4134 0.3248 0.0787, 0.2795 0.187 0.0039, 0.2795 0.187 0.0, 0.4134 0.187 0.0039, 0.4173 0.187 0.0, 0.4134 0.3248 0.0039, 0.4173 0.3248 0.0, 0.2795 0.3248 0.0039, 0.2795 0.3248 0.0, 0.4173 -0.0689 0.0787, 0.4173 0.0689 0.0787, 0.4134 -0.0689 0.0787, 0.4134 0.0689 0.0787, 0.2795 -0.0689 0.0039, 0.2795 -0.0689 0.0, 0.4134 -0.0689 0.0039, 0.4173 -0.0689 0.0, 0.4134 0.0689 0.0039, 0.4173 0.0689 0.0, 0.2795 0.0689 0.0039, 0.2795 0.0689 0.0
            ]
        }
        coordIndex [
            0,1,2,-1,2,1,3,-1,4,5,6,-1,6,5,7,-1,6,7,2,-1,2,7,0,-1,3,1,8,-1,8,1,9,-1,8,9,10,-1,10,9,11,-1,1,0,9,-1,9,0,7,-1,11,5,10,-1,10,5,4,-1,5,11,7,-1,7,11,9,-1,12,13,14,-1,14,13,15,-1,16,17,18,-1,18,17,19,-1,18,19,14,-1,14,19,12,-1,15,13,20,-1,20,13,21,-1,20,21,22,-1,22,21,23,-1,13,12,21,-1,21,12,19,-1,23,17,22,-1,22,17,16,-1,17,23,19,-1,19,23,21,-1,24,25,26,-1,26,25,27,-1,28,29,30,-1,30,29,31,-1,30,31,26,-1,26,31,24,-1,27,25,32,-1,32,25,33,-1,32,33,34,-1,34,33,35,-1,25,24,33,-1,33,24,31,-1,35,29,34,-1,34,29,28,-1,29,35,31,-1,31,35,33,-1,
        ]
    }
}
Shape{
    appearance Appearance {
        material  Material 	{
            diffuseColor 1.0 1.0 1.0
            specularColor 0.8784313725490196 0.8784313725490196 0.8784313725490196
            ambientIntensity 1.0
            transparency 0.0
            shininess 0.5
        }
    }
    geometry IndexedFaceSet {
        ccw TRUE
        solid FALSE
        coord DEF co Coordinate {
            point [
                0.0311 0.1284 0.0079, -0.0476 0.1592 0.0079, 0.0311 0.1284 0.0039, -0.0476 0.1592 0.0039, -0.0476 0.1476 0.0079, -0.0476 0.1476 0.0039, -0.0255 0.1397 0.0079, -0.0255 0.1397 0.0039, -0.0255 0.1071 0.0079, -0.0255 0.1071 0.0039, -0.0476 0.0996 0.0079, -0.0476 0.0996 0.0039, -0.0476 0.0881 0.0079, -0.0476 0.0881 0.0039, 0.0311 0.1179 0.0079, 0.0311 0.1179 0.0039, -0.0169 0.1098 0.0079, 0.016 0.1215 0.0079, 0.0187 0.1223 0.0079, 0.0215 0.1228 0.0079, 0.0215 0.1231 0.0079, 0.0187 0.1236 0.0079, -0.0169 0.1361 0.0079, 0.016 0.1243 0.0079, -0.0169 0.1098 0.0039, -0.0169 0.1361 0.0039, 0.016 0.1215 0.0039, 0.0187 0.1223 0.0039, 0.0215 0.1228 0.0039, 0.0215 0.1231 0.0039, 0.0187 0.1236 0.0039, 0.016 0.1243 0.0039, -0.0476 0.0404 0.0079, -0.0476 0.019 0.0079, -0.0476 0.0404 0.0039, -0.0476 0.019 0.0039, 0.0311 0.019 0.0079, 0.0311 0.019 0.0039, 0.0311 0.0412 0.0079, 0.0311 0.0412 0.0039, -0.0073 0.0823 0.0079, -0.0073 0.0823 0.0039, -0.0034 0.0822 0.0039, -0.0034 0.0822 0.0079, 0.0048 0.0807 0.0039, 0.0048 0.0807 0.0079, 0.0125 0.0774 0.0039, 0.0125 0.0774 0.0079, 0.0188 0.0726 0.0039, 0.0188 0.0726 0.0079, 0.0216 0.0696 0.0039, 0.0216 0.0696 0.0079, 0.0267 0.0618 0.0039, 0.0267 0.0618 0.0079, 0.0299 0.0526 0.0039, 0.0299 0.0526 0.0079, -0.0468 0.0501 0.0039, -0.0468 0.0501 0.0079, -0.0441 0.0592 0.0039, -0.0441 0.0592 0.0079, -0.0393 0.0674 0.0039, -0.0393 0.0674 0.0079, -0.0331 0.0739 0.0039, -0.0331 0.0739 0.0079, -0.026 0.0784 0.0039, -0.026 0.0784 0.0079, -0.0178 0.0812 0.0039, -0.0178 0.0812 0.0079, -0.0075 0.0718 0.0079, 0.0003 0.0711 0.0079, 0.0066 0.0693 0.0079, 0.0114 0.0666 0.0079, 0.0155 0.0627 0.0079, 0.0192 0.057 0.0079, 0.0215 0.0505 0.0079, 0.0225 0.0411 0.0079, 0.0225 0.0295 0.0079, -0.039 0.0295 0.0079, -0.039 0.0407 0.0079, -0.0382 0.049 0.0079, -0.0361 0.0556 0.0079, -0.033 0.0609 0.0079, -0.0287 0.0653 0.0079, -0.0232 0.0687 0.0079, -0.017 0.0708 0.0079, 0.0225 0.0411 0.0039, 0.0225 0.0295 0.0039, 0.0215 0.0505 0.0039, 0.0192 0.057 0.0039, 0.0155 0.0627 0.0039, 0.0114 0.0666 0.0039, 0.0066 0.0693 0.0039, 0.0003 0.0711 0.0039, -0.0075 0.0718 0.0039, -0.017 0.0708 0.0039, -0.0232 0.0687 0.0039, -0.0287 0.0653 0.0039, -0.033 0.0609 0.0039, -0.0361 0.0556 0.0039, -0.0382 0.049 0.0039, -0.039 0.0407 0.0039, -0.039 0.0295 0.0039, -0.039 0.0036 0.0079, -0.0476 0.0036 0.0079, -0.039 0.0036 0.0039, -0.0476 0.0036 0.0039, -0.0476 -0.0387 0.0079, -0.0476 -0.0387 0.0039, 0.0311 -0.0387 0.0079, 0.0311 -0.0387 0.0039, 0.0311 0.0017 0.0079, 0.0311 0.0017 0.0039, 0.0225 0.0017 0.0079, 0.0225 0.0017 0.0039, 0.0225 -0.0281 0.0079, 0.0225 -0.0281 0.0039, -0.0034 -0.0281 0.0079, -0.0034 -0.0281 0.0039, -0.0034 -0.0002 0.0079, -0.0034 -0.0002 0.0039, -0.0121 -0.0002 0.0079, -0.0121 -0.0002 0.0039, -0.0121 -0.0281 0.0079, -0.0121 -0.0281 0.0039, -0.039 -0.0281 0.0079, -0.039 -0.0281 0.0039, -0.0349 -0.054 0.0079, -0.0435 -0.054 0.0079, -0.0349 -0.054 0.0039, -0.0435 -0.054 0.0039, -0.0486 -0.0757 0.0079, -0.0486 -0.0757 0.0039, -0.0485 -0.0735 0.0039, -0.0485 -0.0735 0.0079, -0.047 -0.0624 0.0039, -0.047 -0.0624 0.0079, -0.0097 -0.1126 0.0079, -0.0097 -0.1126 0.0039, -0.0187 -0.1119 0.0039, -0.0187 -0.1119 0.0079, -0.027 -0.1095 0.0039, -0.027 -0.1095 0.0079, -0.0345 -0.1054 0.0039, -0.0345 -0.1054 0.0079, -0.0408 -0.0995 0.0039, -0.0408 -0.0995 0.0079, -0.0449 -0.0931 0.0039, -0.0449 -0.0931 0.0079, -0.0476 -0.0854 0.0039, -0.0476 -0.0854 0.0079, 0.0321 -0.0725 0.0079, 0.0321 -0.0725 0.0039, 0.0313 -0.081 0.0079, 0.0316 -0.078 0.0039, 0.0313 -0.081 0.0039, 0.0287 -0.0896 0.0039, 0.0287 -0.0896 0.0079, 0.0244 -0.097 0.0039, 0.0244 -0.097 0.0079, 0.0178 -0.1038 0.0039, 0.0178 -0.1038 0.0079, 0.0104 -0.1084 0.0039, 0.0104 -0.1084 0.0079, 0.0014 -0.1115 0.0039, 0.0014 -0.1115 0.0079, 0.0316 -0.0656 0.0039, 0.0314 -0.0631 0.0079, 0.0314 -0.0631 0.0039, 0.029 -0.054 0.0079, 0.029 -0.054 0.0039, 0.0184 -0.054 0.0079, 0.0184 -0.054 0.0039, 0.0234 -0.0725 0.0079, 0.0234 -0.0725 0.0039, 0.0222 -0.0629 0.0039, 0.0222 -0.0629 0.0079, -0.0091 -0.102 0.0079, -0.0091 -0.102 0.0039, -0.0032 -0.1017 0.0039, -0.0032 -0.1017 0.0079, 0.0053 -0.0996 0.0039, 0.0053 -0.0996 0.0079, 0.0114 -0.0964 0.0039, 0.0114 -0.0964 0.0079, 0.0167 -0.0916 0.0039, 0.0167 -0.0916 0.0079, 0.0204 -0.0861 0.0039, 0.0204 -0.0861 0.0079, 0.0226 -0.0802 0.0039, 0.0226 -0.0802 0.0079, -0.0399 -0.0742 0.0079, -0.0399 -0.0742 0.0039, -0.0391 -0.0815 0.0039, -0.0391 -0.0815 0.0079, -0.037 -0.0873 0.0039, -0.037 -0.0873 0.0079, -0.0337 -0.0922 0.0039, -0.0337 -0.0922 0.0079, -0.0299 -0.0958 0.0039, -0.0299 -0.0958 0.0079, -0.0244 -0.0991 0.0039, -0.0244 -0.0991 0.0079, -0.0176 -0.1012 0.0039, -0.0176 -0.1012 0.0079, -0.0357 -0.0554 0.0039, -0.0357 -0.0554 0.0079, -0.0388 -0.0638 0.0039, -0.0388 -0.0638 0.0079, -0.039 -0.1193 0.0079, -0.0476 -0.1193 0.0079, -0.039 -0.1193 0.0039, -0.0476 -0.1193 0.0039, -0.0476 -0.1596 0.0079, -0.0476 -0.1596 0.0039, 0.0311 -0.1596 0.0079, 0.0311 -0.1596 0.0039, 0.0311 -0.1491 0.0079, 0.0311 -0.1491 0.0039, -0.039 -0.1491 0.0079, -0.039 -0.1491 0.0039
            ]
        }
        coordIndex [
            0,1,2,-1,2,1,3,-1,1,4,3,-1,3,4,5,-1,4,6,5,-1,5,6,7,-1,6,8,7,-1,7,8,9,-1,8,10,9,-1,9,10,11,-1,10,12,11,-1,11,12,13,-1,12,14,13,-1,13,14,15,-1,14,0,15,-1,15,0,2,-1,16,17,14,-1,12,10,8,-1,17,18,14,-1,14,18,19,-1,14,19,0,-1,0,19,20,-1,0,20,21,-1,14,12,16,-1,16,12,8,-1,16,8,22,-1,22,8,6,-1,21,23,0,-1,0,23,22,-1,0,22,1,-1,1,22,6,-1,1,6,4,-1,16,22,24,-1,24,22,25,-1,17,16,26,-1,26,16,24,-1,17,26,27,-1,17,27,18,-1,18,27,28,-1,18,28,19,-1,20,19,29,-1,29,19,28,-1,20,29,30,-1,20,30,21,-1,21,30,31,-1,21,31,23,-1,22,23,25,-1,25,23,31,-1,32,33,34,-1,34,33,35,-1,33,36,35,-1,35,36,37,-1,36,38,37,-1,37,38,39,-1,40,41,42,-1,40,42,43,-1,43,42,44,-1,43,44,45,-1,45,44,46,-1,45,46,47,-1,47,46,48,-1,47,48,49,-1,49,48,50,-1,49,50,51,-1,51,50,52,-1,51,52,53,-1,53,52,54,-1,53,54,55,-1,55,54,39,-1,55,39,38,-1,32,34,56,-1,32,56,57,-1,57,56,58,-1,57,58,59,-1,59,58,60,-1,59,60,61,-1,61,60,62,-1,61,62,63,-1,63,62,64,-1,63,64,65,-1,65,64,66,-1,65,66,67,-1,67,66,41,-1,67,41,40,-1,67,40,68,-1,68,40,43,-1,68,43,69,-1,69,43,45,-1,69,45,70,-1,70,45,47,-1,70,47,71,-1,71,47,49,-1,71,49,72,-1,72,49,51,-1,72,51,73,-1,73,51,53,-1,73,53,74,-1,74,53,55,-1,74,55,75,-1,75,55,38,-1,75,38,76,-1,76,38,36,-1,76,36,77,-1,77,36,33,-1,77,33,78,-1,78,33,32,-1,78,32,79,-1,79,32,57,-1,79,57,80,-1,80,57,59,-1,80,59,81,-1,81,59,61,-1,81,61,82,-1,82,61,63,-1,82,63,83,-1,83,63,65,-1,83,65,84,-1,84,65,67,-1,84,67,68,-1,75,76,85,-1,85,76,86,-1,75,85,87,-1,75,87,74,-1,74,87,88,-1,74,88,73,-1,73,88,89,-1,73,89,72,-1,72,89,90,-1,72,90,71,-1,71,90,91,-1,71,91,70,-1,70,91,92,-1,70,92,69,-1,69,92,93,-1,69,93,68,-1,68,93,94,-1,68,94,84,-1,84,94,95,-1,84,95,83,-1,83,95,96,-1,83,96,82,-1,82,96,97,-1,82,97,81,-1,81,97,98,-1,81,98,80,-1,80,98,99,-1,80,99,79,-1,79,99,100,-1,79,100,78,-1,77,78,101,-1,101,78,100,-1,76,77,86,-1,86,77,101,-1,102,103,104,-1,104,103,105,-1,103,106,105,-1,105,106,107,-1,106,108,107,-1,107,108,109,-1,108,110,109,-1,109,110,111,-1,110,112,111,-1,111,112,113,-1,112,114,113,-1,113,114,115,-1,114,116,115,-1,115,116,117,-1,116,118,117,-1,117,118,119,-1,118,120,119,-1,119,120,121,-1,120,122,121,-1,121,122,123,-1,122,124,123,-1,123,124,125,-1,124,102,125,-1,125,102,104,-1,106,103,102,-1,102,124,106,-1,106,124,122,-1,106,122,108,-1,112,110,114,-1,114,110,108,-1,114,108,116,-1,116,108,122,-1,116,122,118,-1,118,122,120,-1,126,127,128,-1,128,127,129,-1,130,131,132,-1,130,132,133,-1,133,132,134,-1,133,134,135,-1,135,134,129,-1,135,129,127,-1,136,137,138,-1,136,138,139,-1,139,138,140,-1,139,140,141,-1,141,140,142,-1,141,142,143,-1,143,142,144,-1,143,144,145,-1,145,144,146,-1,145,146,147,-1,147,146,148,-1,147,148,149,-1,149,148,131,-1,149,131,130,-1,150,151,152,-1,152,151,153,-1,153,154,152,-1,152,154,155,-1,152,155,156,-1,156,155,157,-1,156,157,158,-1,158,157,159,-1,158,159,160,-1,160,159,161,-1,160,161,162,-1,162,161,163,-1,162,163,164,-1,164,163,137,-1,164,137,136,-1,151,150,165,-1,165,150,166,-1,165,166,167,-1,167,166,168,-1,167,168,169,-1,168,170,169,-1,169,170,171,-1,172,173,174,-1,172,174,175,-1,175,174,171,-1,175,171,170,-1,176,177,178,-1,176,178,179,-1,179,178,180,-1,179,180,181,-1,181,180,182,-1,181,182,183,-1,183,182,184,-1,183,184,185,-1,185,184,186,-1,185,186,187,-1,187,186,188,-1,187,188,189,-1,189,188,173,-1,189,173,172,-1,190,191,192,-1,190,192,193,-1,193,192,194,-1,193,194,195,-1,195,194,196,-1,195,196,197,-1,197,196,198,-1,197,198,199,-1,199,198,200,-1,199,200,201,-1,201,200,202,-1,201,202,203,-1,203,202,177,-1,203,177,176,-1,126,128,204,-1,126,204,205,-1,205,204,206,-1,205,206,207,-1,207,206,191,-1,207,191,190,-1,193,130,190,-1,190,130,133,-1,190,133,207,-1,207,133,135,-1,207,135,205,-1,205,135,127,-1,205,127,126,-1,170,168,175,-1,175,168,166,-1,175,166,172,-1,172,166,150,-1,172,150,189,-1,189,150,152,-1,189,152,187,-1,187,152,156,-1,187,156,185,-1,185,156,158,-1,185,158,183,-1,183,158,160,-1,183,160,181,-1,181,160,162,-1,181,162,179,-1,179,162,164,-1,179,164,176,-1,176,164,136,-1,176,136,203,-1,203,136,139,-1,203,139,201,-1,201,139,141,-1,201,141,199,-1,199,141,143,-1,199,143,197,-1,197,143,145,-1,197,145,195,-1,195,145,147,-1,195,147,193,-1,193,147,149,-1,193,149,130,-1,208,209,210,-1,210,209,211,-1,209,212,211,-1,211,212,213,-1,212,214,213,-1,213,214,215,-1,214,216,215,-1,215,216,217,-1,216,218,217,-1,217,218,219,-1,218,208,219,-1,219,208,210,-1,216,214,218,-1,218,214,212,-1,218,212,208,-1,208,212,209,-1,
        ]
    }
}
Shape{
    appearance Appearance {
        material  Material 	{
            diffuseColor 0.25098039215686274 0.25098039215686274 0.25098039215686274
            specularColor 0.12549019607843137 0.12549019607843137 0.12549019607843137
            ambientIntensity 0.251
            transparency 0.0
            shininess 0.5
        }
    }
    geometry IndexedFaceSet {
        ccw TRUE
        solid FALSE
        coord DEF co Coordinate {
            point [
                -0.0169 0.1098 0.0039, -0.0169 0.1361 0.0039, 0.016 0.1215 0.0039, 0.016 0.1243 0.0039, 0.0187 0.1223 0.0039, 0.0187 0.1236 0.0039, 0.0215 0.1228 0.0039, 0.0215 0.1231 0.0039, 0.0225 0.0411 0.0039, 0.0225 0.0295 0.0039, -0.039 0.0295 0.0039, -0.017 0.0708 0.0039, -0.0075 0.0718 0.0039, -0.0232 0.0687 0.0039, 0.0003 0.0711 0.0039, 0.0066 0.0693 0.0039, 0.0215 0.0505 0.0039, -0.039 0.0407 0.0039, -0.0382 0.049 0.0039, -0.0361 0.0556 0.0039, 0.0114 0.0666 0.0039, 0.0155 0.0627 0.0039, 0.0192 0.057 0.0039, -0.033 0.0609 0.0039, -0.0287 0.0653 0.0039
            ]
        }
        coordIndex [
            0,1,2,-1,2,1,3,-1,2,3,4,-1,4,3,5,-1,4,5,6,-1,6,5,7,-1,8,9,10,-1,11,12,8,-1,11,8,13,-1,12,14,8,-1,8,14,15,-1,8,15,16,-1,10,17,8,-1,8,17,18,-1,8,18,19,-1,20,21,15,-1,15,21,22,-1,15,22,16,-1,19,23,8,-1,8,23,24,-1,8,24,13,-1,
        ]
    }
}