#VRML V2.0 utf8
# 3D model generated by easyeda2kicad.py (https://github.com/uPesy/easyeda2kicad.py)

Shape{
    appearance Appearance {
        material  Material 	{
            diffuseColor 1.0 1.0 1.0
            specularColor 0.8784313725490196 0.8784313725490196 0.8784313725490196
            ambientIntensity 1.0
            transparency 0.0
            shininess 0.5
        }
    }
    geometry IndexedFaceSet {
        ccw TRUE
        solid FALSE
        coord DEF co Coordinate {
            point [
                -0.1491 -0.0277 0.0, -0.0231 -0.0825 0.0, -0.1491 -0.254 0.0, -0.0231 -0.1127 0.0, 0.0363 -0.254 0.0, 0.0363 -0.0277 0.0, 0.0343 -0.0335 0.0, 0.0264 -0.0335 0.0, 0.0302 -0.0473 0.0, -0.0141 -0.0346 0.0, 0.0293 -0.0402 0.0, -0.0136 -0.0335 0.0, 0.0295 -0.0532 0.0, 0.0279 -0.0575 0.0, 0.0251 -0.0617 0.0, 0.0212 -0.0653 0.0, 0.0166 -0.0677 0.0, 0.0102 -0.0693 0.0, 0.0058 -0.0695 0.0, -0.0006 -0.0689 0.0, -0.0057 -0.0673 0.0, -0.0173 -0.0487 0.0, -0.0127 -0.0621 0.0, -0.0167 -0.0541 0.0, -0.0151 -0.0585 0.0, -0.0098 -0.0649 0.0, -0.0165 -0.0408 0.0, -0.018 -0.0676 0.0, -0.0166 -0.0825 0.0, -0.0211 -0.0628 0.0, -0.0231 -0.057 0.0, 0.0204 -0.0743 0.0, 0.0259 -0.0709 0.0, 0.036 -0.1048 0.0, 0.0309 -0.0657 0.0, 0.0341 -0.0602 0.0, -0.02 -0.0335 0.0, -0.0226 -0.0398 0.0, -0.0238 -0.0481 0.0, -0.0133 -0.072 0.0, -0.0077 -0.0751 0.0, -0.0166 -0.1048 0.0, 0.0361 -0.0537 0.0, 0.0363 -0.0515 0.0, 0.036 -0.1127 0.0, -0.0238 -0.0498 0.0, -0.0014 -0.0769 0.0, 0.0053 -0.0774 0.0, 0.0137 -0.0766 0.0, 0.1491 -0.254 0.0, 0.1491 -0.0277 0.0, 0.0367 -0.0474 0.0, 0.0363 -0.0422 0.0, 0.0362 -0.0403 0.0, -0.0231 0.1177 0.0, -0.0065 0.1118 0.0, -0.0065 0.0874 0.0, -0.0007 0.0679 0.0, -0.0069 0.0658 0.0, -0.0231 0.0731 0.0, -0.0225 0.0446 0.0, -0.0231 0.0373 0.0, -0.0231 0.0212 0.0, -0.0231 0.0817 0.0, -0.1491 0.195 0.0, -0.0122 0.0624 0.0, -0.0169 0.0576 0.0, -0.0204 0.0514 0.0, 0.0295 -0.0141 0.0, 0.01 -0.0141 0.0, 0.0295 0.0083 0.0, 0.01 0.0068 0.0, 0.036 0.0083 0.0, 0.036 0.0212 0.0, 0.0035 0.0068 0.0, 0.0035 -0.0141 0.0, -0.0166 -0.0141 0.0, -0.0166 0.0097 0.0, -0.0231 0.0097 0.0, -0.0231 -0.022 0.0, 0.036 -0.022 0.0, 0.022 0.0651 0.0, 0.0162 0.0675 0.0, 0.036 0.0954 0.0, 0.0101 0.0686 0.0, 0.0072 0.0688 0.0, 0.036 0.1033 0.0, 0.0326 0.0533 0.0, 0.0288 0.0592 0.0, 0.0267 0.0615 0.0, 0.036 0.0379 0.0, 0.035 0.0464 0.0, -0.0231 0.1264 0.0, -0.0901 0.254 0.0, 0.0363 0.254 0.0, 0.1491 0.254 0.0
            ]
        }
        coordIndex [
            0,1,2,-1,2,1,3,-1,2,3,4,-1,5,6,7,-1,8,9,10,-1,10,9,11,-1,10,11,7,-1,8,12,9,-1,9,12,13,-1,9,13,14,-1,14,15,9,-1,9,15,16,-1,9,16,17,-1,17,18,9,-1,9,18,19,-1,9,19,20,-1,21,22,23,-1,23,22,24,-1,20,25,9,-1,9,25,22,-1,9,22,26,-1,26,22,21,-1,27,28,29,-1,29,28,30,-1,31,32,33,-1,33,32,34,-1,33,34,35,-1,7,11,5,-1,5,11,36,-1,5,36,0,-1,0,36,37,-1,0,37,38,-1,27,39,28,-1,28,39,40,-1,28,40,41,-1,35,42,33,-1,33,42,43,-1,33,43,44,-1,28,1,30,-1,30,1,0,-1,30,0,45,-1,45,0,38,-1,40,46,41,-1,41,46,47,-1,41,47,33,-1,33,47,48,-1,33,48,31,-1,3,44,4,-1,4,44,43,-1,4,43,49,-1,49,43,50,-1,43,51,50,-1,50,51,52,-1,50,52,5,-1,5,52,53,-1,5,53,6,-1,54,55,56,-1,57,58,59,-1,60,61,0,-1,0,61,62,-1,59,0,63,-1,63,0,64,-1,58,65,59,-1,59,65,66,-1,59,66,0,-1,0,66,67,-1,0,67,60,-1,68,69,70,-1,70,69,71,-1,72,70,73,-1,73,70,71,-1,73,71,62,-1,62,71,74,-1,75,76,74,-1,74,76,77,-1,74,77,62,-1,62,77,78,-1,62,78,0,-1,0,78,79,-1,0,79,5,-1,5,79,80,-1,5,80,72,-1,81,82,83,-1,83,82,84,-1,83,84,59,-1,59,84,85,-1,59,85,57,-1,5,83,86,-1,87,88,83,-1,83,88,89,-1,83,89,81,-1,72,73,5,-1,5,73,90,-1,5,90,83,-1,83,90,91,-1,83,91,87,-1,56,63,54,-1,54,63,64,-1,54,64,92,-1,92,64,93,-1,92,93,86,-1,86,93,94,-1,86,94,5,-1,5,94,95,-1,5,95,50,-1,
        ]
    }
}
Shape{
    appearance Appearance {
        material  Material 	{
            diffuseColor 0.25098039215686274 0.25098039215686274 0.25098039215686274
            specularColor 0.12549019607843137 0.12549019607843137 0.12549019607843137
            ambientIntensity 0.251
            transparency 0.0
            shininess 0.5
        }
    }
    geometry IndexedFaceSet {
        ccw TRUE
        solid FALSE
        coord DEF co Coordinate {
            point [
                0.2894 -0.3051 0.0039, 0.3937 -0.3051 0.0039, 0.3937 -0.3937 0.0039, -0.3937 -0.3937 0.0039, -0.1491 -0.254 0.0039, 0.1491 -0.254 0.0039, -0.2546 0.2907 0.0039, -0.0901 0.254 0.0039, -0.2468 0.2805 0.0039, -0.1491 0.195 0.0039, -0.2648 0.2985 0.0039, -0.2766 0.3034 0.0039, -0.3937 0.3937 0.0039, -0.2894 0.3051 0.0039, -0.3937 0.3051 0.0039, -0.3937 -0.3051 0.0039, -0.2894 -0.3051 0.0039, -0.2468 -0.2805 0.0039, -0.2418 -0.2686 0.0039, -0.2402 -0.2559 0.0039, -0.2418 -0.0127 0.0039, -0.2402 0.0 0.0039, -0.2418 0.0127 0.0039, -0.2468 0.0246 0.0039, 0.1491 0.254 0.0039, 0.2648 0.2985 0.0039, 0.2546 0.2907 0.0039, 0.2418 -0.0127 0.0039, 0.2468 -0.0246 0.0039, 0.2468 -0.2313 0.0039, 0.2418 -0.2432 0.0039, -0.2766 -0.3034 0.0039, -0.2648 -0.2985 0.0039, -0.2546 -0.2907 0.0039, -0.2468 0.2313 0.0039, -0.2418 0.2432 0.0039, 0.2766 0.3034 0.0039, 0.3937 0.3937 0.0039, 0.2894 0.3051 0.0039, 0.3937 0.3051 0.0039, 0.2468 0.2805 0.0039, 0.2418 0.2686 0.0039, 0.2402 0.2559 0.0039, -0.2648 -0.2133 0.0039, -0.2766 -0.0475 0.0039, -0.2546 -0.2211 0.0039, -0.2648 -0.0426 0.0039, -0.2546 -0.0348 0.0039, -0.2402 0.2559 0.0039, -0.2418 0.2686 0.0039, -0.2894 -0.2067 0.0039, -0.3937 -0.2067 0.0039, -0.3937 -0.0492 0.0039, -0.2418 -0.2432 0.0039, -0.2468 -0.2313 0.0039, -0.2468 -0.0246 0.0039, -0.2546 0.0348 0.0039, -0.2648 0.0426 0.0039, -0.2766 0.0475 0.0039, -0.2546 0.2211 0.0039, -0.2648 0.2133 0.0039, 0.2546 0.0348 0.0039, 0.2468 0.0246 0.0039, 0.2648 0.2133 0.0039, 0.2418 0.0127 0.0039, 0.2402 0.0 0.0039, 0.2546 -0.0348 0.0039, 0.2648 -0.0426 0.0039, 0.2766 -0.0475 0.0039, 0.2546 -0.2211 0.0039, 0.2648 -0.2133 0.0039, 0.2402 -0.2559 0.0039, 0.2418 -0.2686 0.0039, 0.2468 -0.2805 0.0039, 0.2546 -0.2907 0.0039, 0.2648 -0.2985 0.0039, 0.2766 -0.3034 0.0039, -0.2766 -0.2084 0.0039, -0.2894 -0.0492 0.0039, 0.2418 0.2432 0.0039, 0.2468 0.2313 0.0039, 0.2546 0.2211 0.0039, -0.3937 0.0492 0.0039, -0.3937 0.2067 0.0039, -0.2894 0.0492 0.0039, -0.2894 0.2067 0.0039, -0.2766 0.2084 0.0039, 0.3937 0.2067 0.0039, 0.3937 0.0492 0.0039, 0.2894 0.2067 0.0039, 0.2894 0.0492 0.0039, 0.2766 0.2084 0.0039, 0.2766 0.0475 0.0039, 0.2648 0.0426 0.0039, 0.3937 -0.0492 0.0039, 0.3937 -0.2067 0.0039, 0.2894 -0.0492 0.0039, 0.2894 -0.2067 0.0039, 0.2766 -0.2084 0.0039, -0.3937 -0.3051 0.0591, -0.3937 0.2067 0.0591, -0.3937 0.0492 0.0591, -0.3937 0.3937 0.2402, -0.3937 0.3051 0.0591, -0.3937 0.1958 0.2402, -0.3937 -0.2067 0.0591, -0.3937 -0.0492 0.0591, -0.3937 -0.3937 0.2402, -0.3937 -0.3267 0.2402, -0.3937 -0.1718 0.2402, -0.3937 -0.0523 0.2402, -0.3937 0.0306 0.2402, -0.3937 0.1508 0.2402, 0.0643 -0.218 0.2402, 0.0659 -0.2254 0.2402, 0.0659 -0.1718 0.2402, -0.0374 0.1731 0.2402, -0.0439 0.1786 0.2402, -0.0537 0.1508 0.2402, -0.0292 0.169 0.2402, -0.0489 0.1857 0.2402, -0.0522 0.1937 0.2402, -0.0537 0.1958 0.2402, -0.0525 0.1958 0.2402, -0.0537 0.203 0.2402, -0.0363 0.1917 0.2402, -0.0322 0.1877 0.2402, -0.0099 0.1811 0.2402, -0.0289 0.1855 0.2402, -0.0218 0.1828 0.2402, 0.0659 0.1508 0.2402, -0.0045 0.1652 0.2402, -0.0172 0.1661 0.2402, -0.0387 0.1958 0.2402, -0.0071 0.1811 0.2402, 0.0659 0.1958 0.2402, 0.0652 0.1811 0.2402, 0.0652 0.1652 0.2402, -0.0537 0.2196 0.2402, -0.0534 0.2223 0.2402, -0.0537 0.3937 0.2402, -0.0507 0.2316 0.2402, -0.0468 0.2386 0.2402, -0.0414 0.2445 0.2402, -0.0348 0.2488 0.2402, -0.024 0.2527 0.2402, -0.0403 0.2191 0.2402, -0.0414 0.2107 0.2402, -0.0249 0.2357 0.2402, -0.006 0.2387 0.2402, -0.0414 0.2094 0.2402, -0.0408 0.202 0.2402, -0.039 0.1962 0.2402, 0.0652 0.2387 0.2402, 0.0652 0.2545 0.2402, 0.0659 0.3937 0.2402, -0.0063 0.2545 0.2402, -0.0083 0.2545 0.2402, -0.0168 0.2379 0.2402, -0.0311 0.2325 0.2402, -0.0351 0.2289 0.2402, -0.0382 0.2243 0.2402, -0.0543 0.2068 0.2402, -0.1404 0.1958 0.2402, -0.1404 0.3937 0.2402, -0.0544 0.2108 0.2402, 0.021 -0.2346 0.2402, 0.0186 -0.2416 0.2402, 0.049 -0.2525 0.2402, -0.0537 -0.3267 0.2402, 0.0619 -0.2525 0.2402, 0.0659 -0.3267 0.2402, 0.0659 -0.2404 0.2402, 0.0657 -0.2429 0.2402, 0.0635 -0.2497 0.2402, 0.0142 -0.2481 0.2402, 0.0085 -0.2532 0.2402, 0.0014 -0.257 0.2402, -0.0081 -0.2593 0.2402, -0.0471 -0.2448 0.2402, -0.0412 -0.2508 0.2402, -0.0339 -0.2556 0.2402, 0.0051 -0.1983 0.2402, 0.0051 -0.1986 0.2402, 0.0177 -0.1992 0.2402, 0.0119 -0.203 0.2402, 0.0313 -0.2027 0.2402, 0.0164 -0.2077 0.2402, 0.0401 -0.2075 0.2402, 0.0197 -0.2134 0.2402, 0.0465 -0.2132 0.2402, 0.0214 -0.2195 0.2402, 0.0505 -0.2191 0.2402, 0.0219 -0.2257 0.2402, 0.0525 -0.243 0.2402, 0.0536 -0.2329 0.2402, 0.0528 -0.2253 0.2402, -0.0147 -0.2597 0.2402, -0.0254 -0.2586 0.2402, 0.0664 -0.2277 0.2402, 0.3937 -0.1718 0.2402, 0.3937 -0.3267 0.2402, 0.0666 -0.2326 0.2402, 0.0603 -0.2096 0.2402, -0.0534 -0.2129 0.2402, -0.0508 -0.2057 0.2402, -0.0537 -0.1718 0.2402, -0.0469 -0.1997 0.2402, 0.0311 -0.188 0.2402, 0.0441 -0.194 0.2402, 0.0539 -0.2017 0.2402, -0.0413 -0.1943 0.2402, -0.0328 -0.1892 0.2402, -0.0195 -0.185 0.2402, -0.0015 -0.1833 0.2402, -0.0009 -0.1833 0.2402, 0.0151 -0.1844 0.2402, -0.0512 -0.238 0.2402, -0.0537 -0.23 0.2402, -0.1404 -0.3267 0.2402, -0.0537 -0.2299 0.2402, -0.1404 -0.1718 0.2402, -0.0544 -0.222 0.2402, -0.0537 -0.2155 0.2402, 0.3937 -0.3937 0.2402, 0.0659 -0.3937 0.2402, -0.0537 -0.3937 0.2402, -0.1404 -0.3937 0.2402, 0.0464 -0.0796 0.2402, 0.0464 -0.0792 0.2402, 0.0425 -0.0814 0.2402, 0.0382 -0.0796 0.2402, 0.0387 -0.0836 0.2402, 0.0652 -0.0638 0.2402, 0.0659 -0.0523 0.2402, -0.053 -0.0638 0.2402, -0.0537 -0.0523 0.2402, -0.053 -0.0796 0.2402, -0.053 -0.1415 0.2402, 0.0299 -0.0796 0.2402, 0.0652 -0.084 0.2402, 0.0652 -0.1445 0.2402, 0.0652 -0.1603 0.2402, -0.053 -0.1603 0.2402, -0.0328 -0.1449 0.2402, -0.0328 -0.1452 0.2402, -0.0287 -0.1426 0.2402, -0.0242 -0.1446 0.2402, -0.0247 -0.1402 0.2402, -0.0156 -0.1445 0.2402, 0.0522 0.0039 0.2402, 0.0119 0.0039 0.2402, 0.0522 -0.0407 0.2402, 0.0119 -0.0379 0.2402, -0.0011 -0.0379 0.2402, -0.0011 0.0039 0.2402, -0.053 0.0039 0.2402, -0.0537 0.0306 0.2402, -0.053 0.0198 0.2402, 0.0659 0.0306 0.2402, 0.0652 0.0198 0.2402, 0.0652 -0.0407 0.2402, 0.0596 0.0746 0.2402, 0.0525 0.0626 0.2402, 0.0426 0.0524 0.2402, 0.0326 0.0464 0.2402, 0.0652 0.1031 0.2402, 0.0638 0.0884 0.2402, -0.0194 0.0467 0.2402, -0.03 0.0531 0.2402, -0.0395 0.0626 0.2402, -0.0469 0.0744 0.2402, 0.0212 0.0427 0.2402, 0.0076 0.0414 0.2402, -0.0064 0.0426 0.2402, -0.0513 0.088 0.2402, -0.053 0.1043 0.2402, -0.053 0.1364 0.2402, 0.0652 0.1364 0.2402, -0.1404 -0.0523 0.2402, -0.1404 0.0306 0.2402, -0.1404 0.1508 0.2402, -0.2281 0.2629 0.2402, -0.233 0.251 0.2402, -0.2408 0.2408 0.2402, -0.251 0.233 0.2402, -0.3182 0.3002 0.2402, -0.3104 0.3104 0.2402, -0.3002 0.3182 0.2402, -0.3182 0.251 0.2402, -0.3104 0.2408 0.2402, -0.3002 0.233 0.2402, -0.2629 0.2281 0.2402, -0.2756 0.2264 0.2402, -0.2883 0.2281 0.2402, -0.3231 0.2629 0.2402, -0.3248 0.2756 0.2402, -0.3231 0.2883 0.2402, -0.251 0.3182 0.2402, -0.2408 0.3104 0.2402, -0.2883 0.3231 0.2402, -0.2756 0.3248 0.2402, -0.2629 0.3231 0.2402, -0.233 0.3002 0.2402, -0.2281 0.2883 0.2402, -0.2264 0.2756 0.2402, 0.3937 -0.0523 0.2402, 0.3937 0.0306 0.2402, 0.3937 0.1508 0.2402, 0.3937 0.1958 0.2402, 0.3937 0.3937 0.2402, 0.3937 -0.0492 0.0591, 0.3937 -0.2067 0.0591, 0.3937 -0.3051 0.0591, 0.3937 0.2067 0.0591, 0.3937 0.0492 0.0591, 0.3937 0.3051 0.0591
            ]
        }
        coordIndex [
            0,1,2,-1,3,4,2,-1,2,4,5,-1,6,7,8,-1,8,7,9,-1,10,11,12,-1,12,11,13,-1,12,13,14,-1,3,15,16,-1,17,18,4,-1,4,18,19,-1,4,20,21,-1,4,21,9,-1,9,21,22,-1,9,22,23,-1,24,25,26,-1,5,27,28,-1,5,29,30,-1,16,31,3,-1,3,31,32,-1,3,32,4,-1,4,32,33,-1,4,33,17,-1,9,34,35,-1,36,37,38,-1,38,37,39,-1,6,10,7,-1,7,10,12,-1,7,12,24,-1,24,12,37,-1,24,37,25,-1,25,37,36,-1,26,40,24,-1,24,40,41,-1,24,41,42,-1,43,44,45,-1,45,44,46,-1,45,46,47,-1,35,48,9,-1,9,48,49,-1,9,49,8,-1,50,51,52,-1,19,53,4,-1,4,53,54,-1,4,54,20,-1,20,54,45,-1,20,45,55,-1,55,45,47,-1,23,56,9,-1,9,56,57,-1,9,57,34,-1,34,57,58,-1,34,58,59,-1,59,58,60,-1,61,62,63,-1,63,62,64,-1,63,64,5,-1,5,64,65,-1,5,65,27,-1,28,66,5,-1,5,66,67,-1,5,67,29,-1,29,67,68,-1,29,68,69,-1,69,68,70,-1,30,71,5,-1,5,71,72,-1,5,72,73,-1,73,74,5,-1,5,74,75,-1,5,75,2,-1,2,75,76,-1,2,76,0,-1,43,77,44,-1,44,77,50,-1,44,50,78,-1,78,50,52,-1,42,79,24,-1,24,79,80,-1,24,80,5,-1,5,80,81,-1,5,81,63,-1,82,83,84,-1,84,83,85,-1,84,85,58,-1,58,85,86,-1,58,86,60,-1,87,88,89,-1,89,88,90,-1,89,90,91,-1,91,90,92,-1,91,92,63,-1,63,92,93,-1,63,93,61,-1,94,95,96,-1,96,95,97,-1,96,97,68,-1,68,97,98,-1,68,98,70,-1,99,15,3,-1,83,82,100,-1,100,82,101,-1,12,14,102,-1,102,14,103,-1,102,103,104,-1,104,103,100,-1,51,105,52,-1,52,105,106,-1,3,107,99,-1,99,107,108,-1,99,108,105,-1,105,108,109,-1,105,109,106,-1,106,109,110,-1,106,110,101,-1,101,110,111,-1,101,111,100,-1,100,111,112,-1,100,112,104,-1,113,114,115,-1,116,117,118,-1,116,118,119,-1,117,120,118,-1,118,120,121,-1,118,121,122,-1,122,121,123,-1,122,123,124,-1,125,126,127,-1,127,126,128,-1,127,128,129,-1,130,131,118,-1,118,131,132,-1,118,132,119,-1,125,127,133,-1,133,127,134,-1,133,134,135,-1,135,134,136,-1,135,136,130,-1,130,136,137,-1,130,137,131,-1,138,139,140,-1,140,139,141,-1,140,141,142,-1,142,143,140,-1,140,143,144,-1,140,144,145,-1,146,147,148,-1,149,150,151,-1,151,152,149,-1,149,152,133,-1,149,133,153,-1,153,133,135,-1,153,135,154,-1,154,135,155,-1,154,155,156,-1,156,155,140,-1,156,140,157,-1,157,140,145,-1,150,149,147,-1,147,149,158,-1,147,158,148,-1,159,160,148,-1,148,160,161,-1,148,161,146,-1,124,162,163,-1,140,164,138,-1,138,164,163,-1,138,163,165,-1,165,163,162,-1,166,167,168,-1,168,169,170,-1,170,169,171,-1,172,173,171,-1,171,173,174,-1,171,174,170,-1,167,175,168,-1,168,175,176,-1,168,176,169,-1,169,176,177,-1,169,177,178,-1,179,169,180,-1,180,169,181,-1,182,183,184,-1,184,183,185,-1,184,185,186,-1,186,185,187,-1,186,187,188,-1,188,187,189,-1,188,189,190,-1,190,189,191,-1,190,191,192,-1,192,191,193,-1,168,194,166,-1,166,194,195,-1,166,195,193,-1,193,195,196,-1,193,196,192,-1,178,197,169,-1,169,197,198,-1,169,198,181,-1,114,199,200,-1,171,201,172,-1,172,201,200,-1,172,200,202,-1,202,200,199,-1,113,115,203,-1,204,205,206,-1,206,205,207,-1,208,209,115,-1,115,209,210,-1,115,210,203,-1,207,211,206,-1,206,211,212,-1,206,212,213,-1,213,214,206,-1,206,214,215,-1,206,215,115,-1,115,215,216,-1,115,216,208,-1,179,217,169,-1,169,217,218,-1,169,218,219,-1,219,218,220,-1,219,220,221,-1,221,220,222,-1,221,222,223,-1,224,201,225,-1,225,201,171,-1,225,171,226,-1,226,171,169,-1,226,169,227,-1,227,169,219,-1,227,219,107,-1,228,229,230,-1,230,229,231,-1,230,231,232,-1,233,234,235,-1,235,234,236,-1,235,236,237,-1,237,236,206,-1,237,206,238,-1,232,231,238,-1,238,231,239,-1,238,239,237,-1,233,240,234,-1,234,240,241,-1,234,241,115,-1,115,241,242,-1,115,242,206,-1,206,242,243,-1,206,243,238,-1,244,245,246,-1,246,245,247,-1,246,247,248,-1,248,247,240,-1,240,247,249,-1,240,249,241,-1,250,251,252,-1,252,251,253,-1,254,255,236,-1,236,255,256,-1,236,256,257,-1,257,256,258,-1,257,258,259,-1,258,260,259,-1,259,260,261,-1,259,261,234,-1,234,261,252,-1,234,252,236,-1,236,252,253,-1,236,253,254,-1,262,263,259,-1,259,263,264,-1,259,264,265,-1,130,266,259,-1,259,266,267,-1,259,267,262,-1,268,269,257,-1,257,269,270,-1,257,270,271,-1,265,272,259,-1,259,272,273,-1,259,273,257,-1,257,273,274,-1,257,274,268,-1,271,275,257,-1,257,275,276,-1,257,276,118,-1,118,276,277,-1,118,277,130,-1,130,277,278,-1,130,278,266,-1,107,219,108,-1,108,219,221,-1,108,221,109,-1,109,221,279,-1,109,279,110,-1,110,279,280,-1,110,280,111,-1,111,280,281,-1,111,281,112,-1,112,281,163,-1,112,163,104,-1,124,163,122,-1,122,163,281,-1,122,281,118,-1,118,281,280,-1,118,280,257,-1,257,280,279,-1,257,279,236,-1,236,279,221,-1,236,221,206,-1,206,221,223,-1,206,223,204,-1,282,283,163,-1,163,283,284,-1,163,284,285,-1,286,287,102,-1,102,287,288,-1,289,104,290,-1,290,104,291,-1,285,292,163,-1,163,292,293,-1,163,293,104,-1,104,293,294,-1,104,294,291,-1,289,295,104,-1,104,295,296,-1,104,296,102,-1,102,296,297,-1,102,297,286,-1,298,299,164,-1,288,300,102,-1,102,300,301,-1,102,301,164,-1,164,301,302,-1,164,302,298,-1,299,303,164,-1,164,303,304,-1,164,304,163,-1,163,304,305,-1,163,305,282,-1,114,200,115,-1,115,200,306,-1,115,306,234,-1,234,306,307,-1,234,307,259,-1,259,307,308,-1,259,308,130,-1,130,308,309,-1,130,309,135,-1,135,309,310,-1,135,310,155,-1,94,311,95,-1,95,311,312,-1,2,1,224,-1,224,1,313,-1,224,313,201,-1,201,313,312,-1,87,314,88,-1,88,314,315,-1,315,307,311,-1,311,307,306,-1,311,306,312,-1,312,306,200,-1,312,200,201,-1,39,37,316,-1,316,37,310,-1,316,310,314,-1,314,310,309,-1,314,309,315,-1,315,309,308,-1,315,308,307,-1,102,164,12,-1,12,164,140,-1,12,140,37,-1,37,140,155,-1,37,155,310,-1,227,107,3,-1,2,224,225,-1,2,225,3,-1,3,225,226,-1,3,226,227,-1,
        ]
    }
}
Shape{
    appearance Appearance {
        material  Material 	{
            diffuseColor 0.6666666666666666 0.6666666666666666 0.6666666666666666
            specularColor 0.3333333333333333 0.3333333333333333 0.3333333333333333
            ambientIntensity 0.6667
            transparency 0.0
            shininess 0.5
        }
    }
    geometry IndexedFaceSet {
        ccw TRUE
        solid FALSE
        coord DEF co Coordinate {
            point [
                -0.2264 0.2756 0.2323, -0.2264 0.2756 0.2402, -0.2281 0.2883 0.2323, -0.2281 0.2883 0.2402, -0.233 0.3002 0.2323, -0.233 0.3002 0.2402, -0.2408 0.3104 0.2323, -0.2408 0.3104 0.2402, -0.251 0.3182 0.2323, -0.251 0.3182 0.2402, -0.2629 0.3231 0.2323, -0.2629 0.3231 0.2402, -0.2756 0.3248 0.2323, -0.2756 0.3248 0.2402, -0.2883 0.3231 0.2323, -0.2883 0.3231 0.2402, -0.3002 0.3182 0.2323, -0.3002 0.3182 0.2402, -0.3104 0.3104 0.2323, -0.3104 0.3104 0.2402, -0.3182 0.3002 0.2323, -0.3182 0.3002 0.2402, -0.3231 0.2883 0.2323, -0.3231 0.2883 0.2402, -0.3248 0.2756 0.2323, -0.3248 0.2756 0.2402, -0.3231 0.2629 0.2323, -0.3231 0.2629 0.2402, -0.3182 0.251 0.2323, -0.3182 0.251 0.2402, -0.3104 0.2408 0.2323, -0.3104 0.2408 0.2402, -0.3002 0.233 0.2323, -0.3002 0.233 0.2402, -0.2883 0.2281 0.2323, -0.2883 0.2281 0.2402, -0.2756 0.2264 0.2323, -0.2756 0.2264 0.2402, -0.2629 0.2281 0.2323, -0.2629 0.2281 0.2402, -0.251 0.233 0.2323, -0.251 0.233 0.2402, -0.2408 0.2408 0.2323, -0.2408 0.2408 0.2402, -0.233 0.251 0.2323, -0.233 0.251 0.2402, -0.2281 0.2629 0.2323, -0.2281 0.2629 0.2402, -0.2756 0.2756 0.2323, 0.0619 -0.2525 0.2362, 0.049 -0.2525 0.2362, 0.0619 -0.2525 0.2402, 0.049 -0.2525 0.2402, 0.0536 -0.2329 0.2362, 0.0536 -0.2329 0.2402, 0.0525 -0.243 0.2402, 0.0525 -0.243 0.2362, 0.0051 -0.1983 0.2362, 0.0051 -0.1983 0.2402, 0.0177 -0.1992 0.2402, 0.0177 -0.1992 0.2362, 0.0313 -0.2027 0.2402, 0.0313 -0.2027 0.2362, 0.0401 -0.2075 0.2402, 0.0401 -0.2075 0.2362, 0.0465 -0.2132 0.2402, 0.0465 -0.2132 0.2362, 0.0505 -0.2191 0.2402, 0.0505 -0.2191 0.2362, 0.0528 -0.2253 0.2402, 0.0528 -0.2253 0.2362, 0.0051 -0.1986 0.2362, 0.0051 -0.1986 0.2402, 0.0219 -0.2257 0.2362, 0.0219 -0.2257 0.2402, 0.0214 -0.2195 0.2402, 0.0214 -0.2195 0.2362, 0.0197 -0.2134 0.2402, 0.0197 -0.2134 0.2362, 0.0164 -0.2077 0.2402, 0.0164 -0.2077 0.2362, 0.0119 -0.203 0.2402, 0.0119 -0.203 0.2362, -0.0147 -0.2597 0.2362, -0.0147 -0.2597 0.2402, -0.0081 -0.2593 0.2402, -0.0081 -0.2593 0.2362, 0.0014 -0.257 0.2402, 0.0014 -0.257 0.2362, 0.0085 -0.2532 0.2402, 0.0085 -0.2532 0.2362, 0.0142 -0.2481 0.2402, 0.0142 -0.2481 0.2362, 0.0186 -0.2416 0.2402, 0.0186 -0.2416 0.2362, 0.021 -0.2346 0.2402, 0.021 -0.2346 0.2362, -0.0544 -0.222 0.2362, -0.0544 -0.222 0.2402, -0.0537 -0.2299 0.2402, -0.0537 -0.2299 0.2362, -0.0537 -0.23 0.2402, -0.0512 -0.238 0.2362, -0.0512 -0.238 0.2402, -0.0471 -0.2448 0.2402, -0.0471 -0.2448 0.2362, -0.0412 -0.2508 0.2402, -0.0412 -0.2508 0.2362, -0.0339 -0.2556 0.2402, -0.0339 -0.2556 0.2362, -0.0254 -0.2586 0.2402, -0.0254 -0.2586 0.2362, -0.0537 -0.2155 0.2402, -0.0534 -0.2129 0.2362, -0.0534 -0.2129 0.2402, -0.0508 -0.2057 0.2362, -0.0508 -0.2057 0.2402, -0.0469 -0.1997 0.2362, -0.0469 -0.1997 0.2402, -0.0413 -0.1943 0.2362, -0.0413 -0.1943 0.2402, -0.0328 -0.1892 0.2362, -0.0328 -0.1892 0.2402, -0.0195 -0.185 0.2362, -0.0195 -0.185 0.2402, -0.0015 -0.1833 0.2362, -0.0015 -0.1833 0.2402, -0.0009 -0.1833 0.2362, -0.0009 -0.1833 0.2402, 0.0666 -0.2326 0.2362, 0.0666 -0.2326 0.2402, 0.0664 -0.2277 0.2402, 0.0664 -0.2277 0.2362, 0.0659 -0.2254 0.2402, 0.0643 -0.218 0.2362, 0.0643 -0.218 0.2402, 0.0603 -0.2096 0.2402, 0.0603 -0.2096 0.2362, 0.0539 -0.2017 0.2402, 0.0539 -0.2017 0.2362, 0.0441 -0.194 0.2402, 0.0441 -0.194 0.2362, 0.0311 -0.188 0.2402, 0.0311 -0.188 0.2362, 0.0151 -0.1844 0.2402, 0.0151 -0.1844 0.2362, 0.0659 -0.2404 0.2402, 0.0657 -0.2429 0.2362, 0.0657 -0.2429 0.2402, 0.0635 -0.2497 0.2362, 0.0635 -0.2497 0.2402, -0.0137 -0.1992 0.2362, -0.0105 -0.1994 0.2362, -0.0051 -0.2007 0.2362, -0.0007 -0.2031 0.2362, 0.0039 -0.2071 0.2362, 0.0067 -0.2113 0.2362, 0.0083 -0.2159 0.2362, 0.009 -0.2217 0.2362, 0.0088 -0.225 0.2362, 0.0078 -0.2298 0.2362, 0.0061 -0.2336 0.2362, 0.0036 -0.2369 0.2362, 0.001 -0.2391 0.2362, -0.0033 -0.2416 0.2362, -0.009 -0.2432 0.2362, -0.0163 -0.2438 0.2362, -0.0223 -0.2433 0.2362, -0.0279 -0.2417 0.2362, -0.0326 -0.2392 0.2362, -0.0365 -0.2356 0.2362, -0.0392 -0.2317 0.2362, -0.0407 -0.2276 0.2362, -0.0414 -0.2219 0.2362, -0.0411 -0.2177 0.2362, -0.0397 -0.2134 0.2362, -0.0376 -0.2096 0.2362, -0.0343 -0.2062 0.2362, -0.0285 -0.2024 0.2362, -0.0218 -0.2001 0.2362, -0.0137 -0.1992 0.2402, -0.0105 -0.1994 0.2402, -0.0051 -0.2007 0.2402, -0.0007 -0.2031 0.2402, 0.0039 -0.2071 0.2402, 0.0067 -0.2113 0.2402, 0.0083 -0.2159 0.2402, 0.009 -0.2217 0.2402, 0.0088 -0.225 0.2402, 0.0078 -0.2298 0.2402, 0.0061 -0.2336 0.2402, 0.0036 -0.2369 0.2402, 0.001 -0.2391 0.2402, -0.0033 -0.2416 0.2402, -0.009 -0.2432 0.2402, -0.0163 -0.2438 0.2402, -0.0223 -0.2433 0.2402, -0.0279 -0.2417 0.2402, -0.0326 -0.2392 0.2402, -0.0365 -0.2356 0.2402, -0.0392 -0.2317 0.2402, -0.0407 -0.2276 0.2402, -0.0414 -0.2219 0.2402, -0.0411 -0.2177 0.2402, -0.0397 -0.2134 0.2402, -0.0376 -0.2096 0.2402, -0.0343 -0.2062 0.2402, -0.0285 -0.2024 0.2402, -0.0218 -0.2001 0.2402, 0.0652 -0.1603 0.2362, -0.053 -0.1603 0.2362, 0.0652 -0.1603 0.2402, -0.053 -0.1603 0.2402, -0.053 -0.1415 0.2362, -0.053 -0.1415 0.2402, 0.0387 -0.0836 0.2362, 0.0387 -0.0836 0.2402, 0.0464 -0.0796 0.2362, 0.0464 -0.0796 0.2402, 0.0425 -0.0814 0.2402, 0.0425 -0.0814 0.2362, 0.0464 -0.0792 0.2362, 0.0464 -0.0792 0.2402, 0.0299 -0.0796 0.2362, 0.0299 -0.0796 0.2402, 0.0382 -0.0796 0.2402, 0.0382 -0.0796 0.2362, -0.053 -0.0796 0.2362, -0.053 -0.0796 0.2402, -0.053 -0.0638 0.2362, -0.053 -0.0638 0.2402, 0.0652 -0.0638 0.2362, 0.0652 -0.0638 0.2402, 0.0652 -0.084 0.2362, 0.0652 -0.084 0.2402, -0.0247 -0.1402 0.2362, -0.0247 -0.1402 0.2402, -0.0328 -0.1449 0.2362, -0.0328 -0.1449 0.2402, -0.0287 -0.1426 0.2402, -0.0287 -0.1426 0.2362, -0.0328 -0.1452 0.2362, -0.0328 -0.1452 0.2402, -0.0156 -0.1445 0.2362, -0.0156 -0.1445 0.2402, -0.0242 -0.1446 0.2402, -0.0242 -0.1446 0.2362, 0.0652 -0.1445 0.2362, 0.0652 -0.1445 0.2402, 0.0652 -0.0407 0.2362, 0.0522 -0.0407 0.2362, 0.0652 -0.0407 0.2402, 0.0522 -0.0407 0.2402, 0.0522 0.0039 0.2362, 0.0522 0.0039 0.2402, 0.0119 0.0039 0.2362, 0.0119 0.0039 0.2402, 0.0119 -0.0379 0.2362, 0.0119 -0.0379 0.2402, -0.0011 -0.0379 0.2362, -0.0011 -0.0379 0.2402, -0.0011 0.0039 0.2362, -0.0011 0.0039 0.2402, -0.053 0.0039 0.2362, -0.053 0.0039 0.2402, -0.053 0.0198 0.2362, -0.053 0.0198 0.2402, 0.0652 0.0198 0.2362, 0.0652 0.0198 0.2402, -0.053 0.1043 0.2362, -0.053 0.1364 0.2362, -0.053 0.1043 0.2402, -0.053 0.1364 0.2402, 0.0652 0.1364 0.2362, 0.0652 0.1364 0.2402, 0.0652 0.1031 0.2362, 0.0652 0.1031 0.2402, 0.0076 0.0414 0.2362, 0.0076 0.0414 0.2402, 0.0212 0.0427 0.2402, 0.0212 0.0427 0.2362, 0.0326 0.0464 0.2402, 0.0326 0.0464 0.2362, 0.0426 0.0524 0.2402, 0.0426 0.0524 0.2362, 0.0525 0.0626 0.2402, 0.0525 0.0626 0.2362, 0.0596 0.0746 0.2402, 0.0596 0.0746 0.2362, 0.0638 0.0884 0.2402, 0.0638 0.0884 0.2362, -0.0513 0.088 0.2402, -0.0513 0.088 0.2362, -0.0469 0.0744 0.2402, -0.0469 0.0744 0.2362, -0.0395 0.0626 0.2402, -0.0395 0.0626 0.2362, -0.03 0.0531 0.2402, -0.03 0.0531 0.2362, -0.0194 0.0467 0.2402, -0.0194 0.0467 0.2362, -0.0064 0.0426 0.2402, -0.0064 0.0426 0.2362, 0.0073 0.0572 0.2362, 0.0189 0.0582 0.2362, 0.0286 0.0611 0.2362, 0.0358 0.0652 0.2362, 0.0419 0.071 0.2362, 0.0474 0.0796 0.2362, 0.0508 0.0894 0.2362, 0.0522 0.1032 0.2362, 0.0522 0.1206 0.2362, -0.04 0.1206 0.2362, -0.04 0.1038 0.2362, -0.0389 0.0916 0.2362, -0.0358 0.0815 0.2362, -0.031 0.0734 0.2362, -0.0244 0.0667 0.2362, -0.0164 0.0618 0.2362, -0.007 0.0587 0.2362, 0.0522 0.1032 0.2402, 0.0522 0.1206 0.2402, 0.0508 0.0894 0.2402, 0.0474 0.0796 0.2402, 0.0419 0.071 0.2402, 0.0358 0.0652 0.2402, 0.0286 0.0611 0.2402, 0.0189 0.0582 0.2402, 0.0073 0.0572 0.2402, -0.007 0.0587 0.2402, -0.0164 0.0618 0.2402, -0.0244 0.0667 0.2402, -0.031 0.0734 0.2402, -0.0358 0.0815 0.2402, -0.0389 0.0916 0.2402, -0.04 0.1038 0.2402, -0.04 0.1206 0.2402, 0.0652 0.1652 0.2362, -0.0045 0.1652 0.2362, 0.0652 0.1652 0.2402, -0.0045 0.1652 0.2402, -0.0525 0.1958 0.2402, -0.0522 0.1937 0.2362, -0.0537 0.203 0.2402, -0.0543 0.2068 0.2362, -0.0543 0.2068 0.2402, -0.0544 0.2108 0.2362, -0.0544 0.2108 0.2402, -0.0522 0.1937 0.2402, -0.0489 0.1857 0.2402, -0.0489 0.1857 0.2362, -0.0439 0.1786 0.2402, -0.0439 0.1786 0.2362, -0.0374 0.1731 0.2402, -0.0374 0.1731 0.2362, -0.0292 0.169 0.2402, -0.0292 0.169 0.2362, -0.0172 0.1661 0.2402, -0.0172 0.1661 0.2362, -0.0537 0.2196 0.2402, -0.0534 0.2223 0.2362, -0.0534 0.2223 0.2402, -0.0507 0.2316 0.2362, -0.0507 0.2316 0.2402, -0.0468 0.2386 0.2362, -0.0468 0.2386 0.2402, -0.0414 0.2445 0.2362, -0.0414 0.2445 0.2402, -0.0348 0.2488 0.2362, -0.0348 0.2488 0.2402, -0.024 0.2527 0.2362, -0.024 0.2527 0.2402, -0.0083 0.2545 0.2362, -0.0083 0.2545 0.2402, -0.0063 0.2545 0.2362, -0.0063 0.2545 0.2402, 0.0652 0.2545 0.2362, 0.0652 0.2545 0.2402, 0.0652 0.2387 0.2362, 0.0652 0.2387 0.2402, -0.006 0.2387 0.2362, -0.006 0.2387 0.2402, -0.0414 0.2094 0.2362, -0.0414 0.2094 0.2402, -0.0414 0.2107 0.2402, -0.0414 0.2107 0.2362, -0.0403 0.2191 0.2402, -0.0403 0.2191 0.2362, -0.0382 0.2243 0.2402, -0.0382 0.2243 0.2362, -0.0351 0.2289 0.2402, -0.0351 0.2289 0.2362, -0.0311 0.2325 0.2402, -0.0311 0.2325 0.2362, -0.0249 0.2357 0.2402, -0.0249 0.2357 0.2362, -0.0168 0.2379 0.2402, -0.0168 0.2379 0.2362, -0.0071 0.1811 0.2362, -0.0071 0.1811 0.2402, -0.0099 0.1811 0.2402, -0.0099 0.1811 0.2362, -0.0218 0.1828 0.2402, -0.0218 0.1828 0.2362, -0.0289 0.1855 0.2402, -0.0289 0.1855 0.2362, -0.0322 0.1877 0.2402, -0.0322 0.1877 0.2362, -0.0363 0.1917 0.2402, -0.0363 0.1917 0.2362, -0.0387 0.1958 0.2402, -0.039 0.1962 0.2362, -0.039 0.1962 0.2402, -0.0408 0.202 0.2402, -0.0408 0.202 0.2362, 0.0652 0.1811 0.2362, 0.0652 0.1811 0.2402
            ]
        }
        coordIndex [
            0,1,2,-1,2,1,3,-1,2,3,4,-1,4,3,5,-1,4,5,6,-1,6,5,7,-1,6,7,8,-1,8,7,9,-1,8,9,10,-1,10,9,11,-1,10,11,12,-1,12,11,13,-1,12,13,14,-1,14,13,15,-1,14,15,16,-1,16,15,17,-1,16,17,18,-1,18,17,19,-1,18,19,20,-1,20,19,21,-1,20,21,22,-1,22,21,23,-1,22,23,24,-1,24,23,25,-1,24,25,26,-1,26,25,27,-1,26,27,28,-1,28,27,29,-1,28,29,30,-1,30,29,31,-1,30,31,32,-1,32,31,33,-1,32,33,34,-1,34,33,35,-1,34,35,36,-1,36,35,37,-1,36,37,38,-1,38,37,39,-1,38,39,40,-1,40,39,41,-1,40,41,42,-1,42,41,43,-1,42,43,44,-1,44,43,45,-1,44,45,46,-1,46,45,47,-1,46,47,0,-1,0,47,1,-1,44,46,48,-1,48,46,0,-1,48,0,2,-1,38,40,48,-1,48,40,42,-1,48,42,44,-1,32,34,48,-1,48,34,36,-1,48,36,38,-1,26,28,48,-1,48,28,30,-1,48,30,32,-1,20,22,48,-1,48,22,24,-1,48,24,26,-1,14,16,48,-1,48,16,18,-1,48,18,20,-1,8,10,48,-1,48,10,12,-1,48,12,14,-1,2,4,48,-1,48,4,6,-1,48,6,8,-1,49,50,51,-1,51,50,52,-1,53,54,55,-1,53,55,56,-1,56,55,52,-1,56,52,50,-1,57,58,59,-1,57,59,60,-1,60,59,61,-1,60,61,62,-1,62,61,63,-1,62,63,64,-1,64,63,65,-1,64,65,66,-1,66,65,67,-1,66,67,68,-1,68,67,69,-1,68,69,70,-1,70,69,54,-1,70,54,53,-1,57,71,58,-1,58,71,72,-1,73,74,75,-1,73,75,76,-1,76,75,77,-1,76,77,78,-1,78,77,79,-1,78,79,80,-1,80,79,81,-1,80,81,82,-1,82,81,72,-1,82,72,71,-1,83,84,85,-1,83,85,86,-1,86,85,87,-1,86,87,88,-1,88,87,89,-1,88,89,90,-1,90,89,91,-1,90,91,92,-1,92,91,93,-1,92,93,94,-1,94,93,95,-1,94,95,96,-1,96,95,74,-1,96,74,73,-1,97,98,99,-1,97,99,100,-1,100,99,101,-1,100,101,102,-1,101,103,102,-1,102,103,104,-1,102,104,105,-1,105,104,106,-1,105,106,107,-1,107,106,108,-1,107,108,109,-1,109,108,110,-1,109,110,111,-1,111,110,84,-1,111,84,83,-1,98,97,112,-1,112,97,113,-1,112,113,114,-1,114,113,115,-1,114,115,116,-1,116,115,117,-1,116,117,118,-1,118,117,119,-1,118,119,120,-1,120,119,121,-1,120,121,122,-1,122,121,123,-1,122,123,124,-1,124,123,125,-1,124,125,126,-1,126,125,127,-1,126,127,128,-1,129,130,131,-1,129,131,132,-1,132,131,133,-1,132,133,134,-1,133,135,134,-1,134,135,136,-1,134,136,137,-1,137,136,138,-1,137,138,139,-1,139,138,140,-1,139,140,141,-1,141,140,142,-1,141,142,143,-1,143,142,144,-1,143,144,145,-1,145,144,128,-1,145,128,127,-1,130,129,146,-1,146,129,147,-1,146,147,148,-1,148,147,149,-1,148,149,150,-1,150,149,49,-1,150,49,51,-1,53,56,147,-1,147,56,149,-1,149,56,50,-1,149,50,49,-1,125,123,57,-1,57,123,151,-1,57,151,71,-1,71,151,152,-1,147,129,53,-1,53,129,132,-1,53,132,70,-1,70,132,134,-1,70,134,68,-1,68,134,137,-1,68,137,66,-1,66,137,139,-1,66,139,64,-1,64,139,141,-1,64,141,62,-1,62,141,143,-1,62,143,60,-1,60,143,145,-1,60,145,57,-1,57,145,127,-1,57,127,125,-1,152,153,71,-1,71,153,154,-1,71,154,82,-1,82,154,155,-1,82,155,80,-1,80,155,156,-1,80,156,78,-1,78,156,157,-1,78,157,76,-1,76,157,158,-1,76,158,73,-1,73,158,159,-1,73,159,96,-1,96,159,160,-1,96,160,94,-1,94,160,161,-1,94,161,92,-1,92,161,162,-1,92,162,90,-1,90,162,163,-1,90,163,88,-1,88,163,164,-1,88,164,86,-1,86,164,165,-1,86,165,83,-1,83,165,166,-1,83,166,111,-1,111,166,167,-1,111,167,109,-1,109,167,168,-1,109,168,107,-1,107,168,169,-1,107,169,105,-1,105,169,170,-1,105,170,102,-1,102,170,171,-1,102,171,100,-1,100,171,172,-1,100,172,97,-1,97,172,173,-1,97,173,113,-1,113,173,174,-1,113,174,115,-1,115,174,175,-1,115,175,117,-1,117,175,176,-1,117,176,119,-1,119,176,177,-1,119,177,121,-1,121,177,178,-1,121,178,123,-1,123,178,179,-1,123,179,151,-1,151,180,181,-1,151,181,152,-1,152,181,182,-1,152,182,153,-1,153,182,183,-1,153,183,154,-1,154,183,184,-1,154,184,155,-1,155,184,185,-1,155,185,156,-1,156,185,186,-1,156,186,157,-1,157,186,187,-1,157,187,158,-1,158,187,188,-1,158,188,159,-1,159,188,189,-1,159,189,160,-1,160,189,190,-1,160,190,161,-1,161,190,191,-1,161,191,162,-1,162,191,192,-1,162,192,163,-1,163,192,193,-1,163,193,164,-1,164,193,194,-1,164,194,165,-1,165,194,195,-1,165,195,166,-1,166,195,196,-1,166,196,167,-1,167,196,197,-1,167,197,168,-1,168,197,198,-1,168,198,169,-1,169,198,199,-1,169,199,170,-1,170,199,200,-1,170,200,171,-1,171,200,201,-1,171,201,172,-1,172,201,202,-1,172,202,173,-1,173,202,203,-1,173,203,174,-1,174,203,204,-1,174,204,175,-1,175,204,205,-1,175,205,176,-1,176,205,206,-1,176,206,177,-1,177,206,207,-1,177,207,178,-1,178,207,208,-1,178,208,179,-1,179,208,180,-1,179,180,151,-1,209,210,211,-1,211,210,212,-1,210,213,212,-1,212,213,214,-1,213,215,214,-1,214,215,216,-1,217,218,219,-1,217,219,220,-1,220,219,216,-1,220,216,215,-1,217,221,218,-1,218,221,222,-1,223,224,225,-1,223,225,226,-1,226,225,222,-1,226,222,221,-1,223,227,224,-1,224,227,228,-1,227,229,228,-1,228,229,230,-1,229,231,230,-1,230,231,232,-1,231,233,232,-1,232,233,234,-1,233,235,234,-1,234,235,236,-1,237,238,239,-1,237,239,240,-1,240,239,236,-1,240,236,235,-1,237,241,238,-1,238,241,242,-1,243,244,245,-1,243,245,246,-1,246,245,242,-1,246,242,241,-1,243,247,244,-1,244,247,248,-1,247,209,248,-1,248,209,211,-1,209,247,210,-1,210,247,243,-1,229,227,231,-1,231,227,223,-1,223,226,231,-1,231,226,221,-1,231,221,233,-1,233,221,217,-1,243,246,210,-1,210,246,241,-1,210,241,213,-1,213,241,237,-1,237,240,213,-1,213,240,235,-1,213,235,215,-1,215,235,233,-1,215,233,220,-1,220,233,217,-1,249,250,251,-1,251,250,252,-1,250,253,252,-1,252,253,254,-1,253,255,254,-1,254,255,256,-1,255,257,256,-1,256,257,258,-1,257,259,258,-1,258,259,260,-1,259,261,260,-1,260,261,262,-1,261,263,262,-1,262,263,264,-1,263,265,264,-1,264,265,266,-1,265,267,266,-1,266,267,268,-1,267,249,268,-1,268,249,251,-1,267,265,261,-1,261,265,263,-1,250,249,253,-1,253,249,267,-1,253,267,255,-1,255,267,261,-1,255,261,257,-1,257,261,259,-1,269,270,271,-1,271,270,272,-1,270,273,272,-1,272,273,274,-1,273,275,274,-1,274,275,276,-1,277,278,279,-1,277,279,280,-1,280,279,281,-1,280,281,282,-1,282,281,283,-1,282,283,284,-1,284,283,285,-1,284,285,286,-1,286,285,287,-1,286,287,288,-1,288,287,289,-1,288,289,290,-1,290,289,276,-1,290,276,275,-1,269,271,291,-1,269,291,292,-1,292,291,293,-1,292,293,294,-1,294,293,295,-1,294,295,296,-1,296,295,297,-1,296,297,298,-1,298,297,299,-1,298,299,300,-1,300,299,301,-1,300,301,302,-1,302,301,278,-1,302,278,277,-1,303,277,304,-1,304,277,280,-1,304,280,305,-1,305,280,282,-1,305,282,306,-1,306,282,284,-1,306,284,307,-1,307,284,286,-1,307,286,308,-1,308,286,288,-1,308,288,309,-1,309,288,290,-1,309,290,310,-1,310,290,275,-1,310,275,311,-1,311,275,273,-1,311,273,312,-1,312,273,270,-1,312,270,313,-1,313,270,269,-1,313,269,314,-1,314,269,292,-1,314,292,315,-1,315,292,294,-1,315,294,316,-1,316,294,296,-1,316,296,317,-1,317,296,298,-1,317,298,318,-1,318,298,300,-1,318,300,319,-1,319,300,302,-1,319,302,303,-1,303,302,277,-1,310,311,320,-1,320,311,321,-1,310,320,322,-1,310,322,309,-1,309,322,323,-1,309,323,308,-1,308,323,324,-1,308,324,307,-1,307,324,325,-1,307,325,306,-1,306,325,326,-1,306,326,305,-1,305,326,327,-1,305,327,304,-1,304,327,328,-1,304,328,303,-1,303,328,329,-1,303,329,319,-1,319,329,330,-1,319,330,318,-1,318,330,331,-1,318,331,317,-1,317,331,332,-1,317,332,316,-1,316,332,333,-1,316,333,315,-1,315,333,334,-1,315,334,314,-1,314,334,335,-1,314,335,313,-1,312,313,336,-1,336,313,335,-1,311,312,321,-1,321,312,336,-1,337,338,339,-1,339,338,340,-1,341,342,343,-1,343,342,344,-1,343,344,345,-1,345,344,346,-1,345,346,347,-1,341,348,342,-1,342,348,349,-1,342,349,350,-1,350,349,351,-1,350,351,352,-1,352,351,353,-1,352,353,354,-1,354,353,355,-1,354,355,356,-1,356,355,357,-1,356,357,358,-1,358,357,340,-1,358,340,338,-1,347,346,359,-1,359,346,360,-1,359,360,361,-1,361,360,362,-1,361,362,363,-1,363,362,364,-1,363,364,365,-1,365,364,366,-1,365,366,367,-1,367,366,368,-1,367,368,369,-1,369,368,370,-1,369,370,371,-1,371,370,372,-1,371,372,373,-1,373,372,374,-1,373,374,375,-1,374,376,375,-1,375,376,377,-1,376,378,377,-1,377,378,379,-1,378,380,379,-1,379,380,381,-1,382,383,384,-1,382,384,385,-1,385,384,386,-1,385,386,387,-1,387,386,388,-1,387,388,389,-1,389,388,390,-1,389,390,391,-1,391,390,392,-1,391,392,393,-1,393,392,394,-1,393,394,395,-1,395,394,396,-1,395,396,397,-1,397,396,381,-1,397,381,380,-1,398,399,400,-1,398,400,401,-1,401,400,402,-1,401,402,403,-1,403,402,404,-1,403,404,405,-1,405,404,406,-1,405,406,407,-1,407,406,408,-1,407,408,409,-1,409,408,410,-1,409,410,411,-1,410,412,411,-1,411,412,413,-1,411,413,414,-1,414,413,383,-1,414,383,382,-1,398,415,399,-1,399,415,416,-1,415,337,416,-1,416,337,339,-1,380,378,376,-1,337,415,338,-1,338,415,398,-1,338,398,358,-1,358,398,401,-1,358,401,356,-1,356,401,403,-1,356,403,354,-1,354,403,405,-1,354,405,352,-1,352,405,407,-1,352,407,350,-1,350,407,409,-1,350,409,342,-1,409,411,342,-1,342,411,414,-1,342,414,344,-1,344,414,382,-1,344,382,346,-1,346,382,385,-1,346,385,360,-1,360,385,387,-1,360,387,362,-1,362,387,389,-1,362,389,364,-1,364,389,391,-1,364,391,366,-1,366,391,393,-1,366,393,368,-1,368,393,395,-1,368,395,370,-1,370,395,397,-1,370,397,372,-1,372,397,380,-1,372,380,374,-1,374,380,376,-1,
        ]
    }
}
Shape{
    appearance Appearance {
        material  Material 	{
            diffuseColor 0.25098039215686274 0.25098039215686274 0.25098039215686274
            specularColor 0.12549019607843137 0.12549019607843137 0.12549019607843137
            ambientIntensity 0.251
            transparency 0.0
            shininess 0.5
        }
    }
    geometry IndexedFaceSet {
        ccw TRUE
        solid FALSE
        coord DEF co Coordinate {
            point [
                -0.0411 -0.2177 0.2402, 0.0088 -0.225 0.2402, 0.009 -0.2217 0.2402, -0.0105 -0.1994 0.2402, -0.0137 -0.1992 0.2402, -0.0414 -0.2219 0.2402, -0.0223 -0.2433 0.2402, -0.0163 -0.2438 0.2402, -0.009 -0.2432 0.2402, -0.0051 -0.2007 0.2402, 0.0067 -0.2113 0.2402, 0.0039 -0.2071 0.2402, -0.0007 -0.2031 0.2402, -0.0033 -0.2416 0.2402, 0.001 -0.2391 0.2402, 0.0036 -0.2369 0.2402, 0.0061 -0.2336 0.2402, 0.0078 -0.2298 0.2402, -0.0218 -0.2001 0.2402, -0.0285 -0.2024 0.2402, -0.0343 -0.2062 0.2402, -0.0376 -0.2096 0.2402, -0.0397 -0.2134 0.2402, 0.0083 -0.2159 0.2402, -0.0392 -0.2317 0.2402, -0.0365 -0.2356 0.2402, -0.0407 -0.2276 0.2402, -0.0326 -0.2392 0.2402, -0.0279 -0.2417 0.2402, 0.0522 0.1206 0.2402, -0.04 0.1206 0.2402, 0.0522 0.1032 0.2402, -0.04 0.1038 0.2402, -0.007 0.0587 0.2402, 0.0073 0.0572 0.2402, 0.0189 0.0582 0.2402, 0.0286 0.0611 0.2402, 0.0508 0.0894 0.2402, -0.0389 0.0916 0.2402, -0.0358 0.0815 0.2402, -0.031 0.0734 0.2402, 0.0358 0.0652 0.2402, 0.0419 0.071 0.2402, 0.0474 0.0796 0.2402, -0.0244 0.0667 0.2402, -0.0164 0.0618 0.2402
            ]
        }
        coordIndex [
            0,1,2,-1,3,4,2,-1,5,6,0,-1,0,6,7,-1,0,7,8,-1,3,2,9,-1,10,11,12,-1,8,13,0,-1,0,13,14,-1,0,14,15,-1,15,16,0,-1,0,16,17,-1,0,17,1,-1,4,18,2,-1,2,18,19,-1,2,19,20,-1,20,21,2,-1,2,21,22,-1,2,22,0,-1,9,2,12,-1,12,2,23,-1,12,23,10,-1,24,25,26,-1,26,25,27,-1,26,27,5,-1,5,27,28,-1,5,28,6,-1,29,30,31,-1,31,30,32,-1,33,34,31,-1,34,35,31,-1,31,35,36,-1,31,36,37,-1,32,38,31,-1,31,38,39,-1,31,39,40,-1,41,42,36,-1,36,42,43,-1,36,43,37,-1,40,44,31,-1,31,44,45,-1,31,45,33,-1,
        ]
    }
}
Shape{
    appearance Appearance {
        material  Material 	{
            diffuseColor 1.0 1.0 1.0
            specularColor 0.8784313725490196 0.8784313725490196 0.8784313725490196
            ambientIntensity 1.0
            transparency 0.0
            shininess 0.5
        }
    }
    geometry IndexedFaceSet {
        ccw TRUE
        solid FALSE
        coord DEF co Coordinate {
            point [
                -0.3976 0.3051 0.0591, -0.3976 0.2067 0.0591, -0.3937 0.3051 0.0591, -0.3937 0.2067 0.0591, -0.3937 0.2067 0.0039, -0.3976 0.2067 0.0, -0.2894 0.2067 0.0039, -0.2894 0.2067 0.0, -0.2894 0.3051 0.0039, -0.2894 0.3051 0.0, -0.3937 0.3051 0.0039, -0.3976 0.3051 0.0, -0.2766 0.2084 0.0, -0.2766 0.2084 0.0039, -0.2648 0.2133 0.0, -0.2648 0.2133 0.0039, -0.2546 0.2211 0.0, -0.2546 0.2211 0.0039, -0.2468 0.2313 0.0, -0.2468 0.2313 0.0039, -0.2418 0.2432 0.0, -0.2418 0.2432 0.0039, -0.2402 0.2559 0.0, -0.2402 0.2559 0.0039, -0.2418 0.2686 0.0, -0.2418 0.2686 0.0039, -0.2468 0.2805 0.0, -0.2468 0.2805 0.0039, -0.2546 0.2907 0.0, -0.2546 0.2907 0.0039, -0.2648 0.2985 0.0, -0.2648 0.2985 0.0039, -0.2766 0.3034 0.0, -0.2766 0.3034 0.0039, -0.3976 0.0492 0.0591, -0.3976 -0.0492 0.0591, -0.3937 0.0492 0.0591, -0.3937 -0.0492 0.0591, -0.3937 -0.0492 0.0039, -0.3976 -0.0492 0.0, -0.2894 -0.0492 0.0039, -0.2894 -0.0492 0.0, -0.2894 0.0492 0.0039, -0.2894 0.0492 0.0, -0.3937 0.0492 0.0039, -0.3976 0.0492 0.0, -0.2766 -0.0475 0.0, -0.2766 -0.0475 0.0039, -0.2648 -0.0426 0.0, -0.2648 -0.0426 0.0039, -0.2546 -0.0348 0.0, -0.2546 -0.0348 0.0039, -0.2468 -0.0246 0.0, -0.2468 -0.0246 0.0039, -0.2418 -0.0127 0.0, -0.2418 -0.0127 0.0039, -0.2402 0.0 0.0, -0.2402 0.0 0.0039, -0.2418 0.0127 0.0, -0.2418 0.0127 0.0039, -0.2468 0.0246 0.0, -0.2468 0.0246 0.0039, -0.2546 0.0348 0.0, -0.2546 0.0348 0.0039, -0.2648 0.0426 0.0, -0.2648 0.0426 0.0039, -0.2766 0.0475 0.0, -0.2766 0.0475 0.0039, -0.3976 -0.2067 0.0591, -0.3976 -0.3051 0.0591, -0.3937 -0.2067 0.0591, -0.3937 -0.3051 0.0591, -0.3937 -0.3051 0.0039, -0.3976 -0.3051 0.0, -0.2894 -0.3051 0.0039, -0.2894 -0.3051 0.0, -0.2894 -0.2067 0.0039, -0.2894 -0.2067 0.0, -0.3937 -0.2067 0.0039, -0.3976 -0.2067 0.0, -0.2766 -0.3034 0.0, -0.2766 -0.3034 0.0039, -0.2648 -0.2985 0.0, -0.2648 -0.2985 0.0039, -0.2546 -0.2907 0.0, -0.2546 -0.2907 0.0039, -0.2468 -0.2805 0.0, -0.2468 -0.2805 0.0039, -0.2418 -0.2686 0.0, -0.2418 -0.2686 0.0039, -0.2402 -0.2559 0.0, -0.2402 -0.2559 0.0039, -0.2418 -0.2432 0.0, -0.2418 -0.2432 0.0039, -0.2468 -0.2313 0.0, -0.2468 -0.2313 0.0039, -0.2546 -0.2211 0.0, -0.2546 -0.2211 0.0039, -0.2648 -0.2133 0.0, -0.2648 -0.2133 0.0039, -0.2766 -0.2084 0.0, -0.2766 -0.2084 0.0039, 0.3976 0.2067 0.0591, 0.3976 0.3051 0.0591, 0.3937 0.2067 0.0591, 0.3937 0.3051 0.0591, 0.3976 0.3051 0.0, 0.3976 0.2067 0.0, 0.3937 0.3051 0.0039, 0.2894 0.3051 0.0039, 0.2894 0.3051 0.0, 0.2766 0.3034 0.0, 0.2766 0.3034 0.0039, 0.2648 0.2985 0.0, 0.2648 0.2985 0.0039, 0.2546 0.2907 0.0, 0.2546 0.2907 0.0039, 0.2468 0.2805 0.0, 0.2468 0.2805 0.0039, 0.2418 0.2686 0.0, 0.2418 0.2686 0.0039, 0.2402 0.2559 0.0, 0.2402 0.2559 0.0039, 0.2418 0.2432 0.0, 0.2418 0.2432 0.0039, 0.2468 0.2313 0.0, 0.2468 0.2313 0.0039, 0.2546 0.2211 0.0, 0.2546 0.2211 0.0039, 0.2648 0.2133 0.0, 0.2648 0.2133 0.0039, 0.2766 0.2084 0.0, 0.2766 0.2084 0.0039, 0.2894 0.2067 0.0, 0.2894 0.2067 0.0039, 0.3937 0.2067 0.0039, 0.3976 -0.0492 0.0591, 0.3976 0.0492 0.0591, 0.3937 -0.0492 0.0591, 0.3937 0.0492 0.0591, 0.3976 0.0492 0.0, 0.3976 -0.0492 0.0, 0.3937 0.0492 0.0039, 0.2894 0.0492 0.0039, 0.2894 0.0492 0.0, 0.2766 0.0475 0.0, 0.2766 0.0475 0.0039, 0.2648 0.0426 0.0, 0.2648 0.0426 0.0039, 0.2546 0.0348 0.0, 0.2546 0.0348 0.0039, 0.2468 0.0246 0.0, 0.2468 0.0246 0.0039, 0.2418 0.0127 0.0, 0.2418 0.0127 0.0039, 0.2402 0.0 0.0, 0.2402 0.0 0.0039, 0.2418 -0.0127 0.0, 0.2418 -0.0127 0.0039, 0.2468 -0.0246 0.0, 0.2468 -0.0246 0.0039, 0.2546 -0.0348 0.0, 0.2546 -0.0348 0.0039, 0.2648 -0.0426 0.0, 0.2648 -0.0426 0.0039, 0.2766 -0.0475 0.0, 0.2766 -0.0475 0.0039, 0.2894 -0.0492 0.0, 0.2894 -0.0492 0.0039, 0.3937 -0.0492 0.0039, 0.3976 -0.3051 0.0591, 0.3976 -0.2067 0.0591, 0.3937 -0.3051 0.0591, 0.3937 -0.2067 0.0591, 0.3976 -0.2067 0.0, 0.3976 -0.3051 0.0, 0.3937 -0.2067 0.0039, 0.2894 -0.2067 0.0039, 0.2894 -0.2067 0.0, 0.2766 -0.2084 0.0, 0.2766 -0.2084 0.0039, 0.2648 -0.2133 0.0, 0.2648 -0.2133 0.0039, 0.2546 -0.2211 0.0, 0.2546 -0.2211 0.0039, 0.2468 -0.2313 0.0, 0.2468 -0.2313 0.0039, 0.2418 -0.2432 0.0, 0.2418 -0.2432 0.0039, 0.2402 -0.2559 0.0, 0.2402 -0.2559 0.0039, 0.2418 -0.2686 0.0, 0.2418 -0.2686 0.0039, 0.2468 -0.2805 0.0, 0.2468 -0.2805 0.0039, 0.2546 -0.2907 0.0, 0.2546 -0.2907 0.0039, 0.2648 -0.2985 0.0, 0.2648 -0.2985 0.0039, 0.2766 -0.3034 0.0, 0.2766 -0.3034 0.0039, 0.2894 -0.3051 0.0, 0.2894 -0.3051 0.0039, 0.3937 -0.3051 0.0039, -0.0901 0.254 0.0, -0.0901 0.254 0.0039, 0.0363 0.254 0.0, 0.1491 0.254 0.0039, 0.1491 0.254 0.0, -0.1491 -0.254 0.0, -0.1491 -0.254 0.0039, -0.1491 -0.0277 0.0, -0.1491 0.195 0.0039, -0.1491 0.195 0.0, 0.1491 -0.254 0.0, 0.1491 -0.254 0.0039, 0.0363 -0.254 0.0, 0.1491 -0.0277 0.0
            ]
        }
        coordIndex [
            0,1,2,-1,2,1,3,-1,3,1,4,-1,4,1,5,-1,4,5,6,-1,6,5,7,-1,8,9,10,-1,10,9,11,-1,10,11,2,-1,2,11,0,-1,1,0,5,-1,5,0,11,-1,6,7,12,-1,6,12,13,-1,13,12,14,-1,13,14,15,-1,15,14,16,-1,15,16,17,-1,17,16,18,-1,17,18,19,-1,19,18,20,-1,19,20,21,-1,21,20,22,-1,21,22,23,-1,23,22,24,-1,23,24,25,-1,25,24,26,-1,25,26,27,-1,27,26,28,-1,27,28,29,-1,29,28,30,-1,29,30,31,-1,31,30,32,-1,31,32,33,-1,33,32,9,-1,33,9,8,-1,32,30,22,-1,16,14,9,-1,16,9,18,-1,5,11,7,-1,7,11,9,-1,7,9,12,-1,12,9,14,-1,30,28,22,-1,22,28,26,-1,22,26,24,-1,32,22,9,-1,9,22,20,-1,9,20,18,-1,34,35,36,-1,36,35,37,-1,37,35,38,-1,38,35,39,-1,38,39,40,-1,40,39,41,-1,42,43,44,-1,44,43,45,-1,44,45,36,-1,36,45,34,-1,35,34,39,-1,39,34,45,-1,40,41,46,-1,40,46,47,-1,47,46,48,-1,47,48,49,-1,49,48,50,-1,49,50,51,-1,51,50,52,-1,51,52,53,-1,53,52,54,-1,53,54,55,-1,55,54,56,-1,55,56,57,-1,57,56,58,-1,57,58,59,-1,59,58,60,-1,59,60,61,-1,61,60,62,-1,61,62,63,-1,63,62,64,-1,63,64,65,-1,65,64,66,-1,65,66,67,-1,67,66,43,-1,67,43,42,-1,54,43,56,-1,56,43,66,-1,56,66,64,-1,64,62,56,-1,56,62,60,-1,56,60,58,-1,54,52,43,-1,43,52,50,-1,43,50,48,-1,39,45,41,-1,41,45,43,-1,41,43,46,-1,46,43,48,-1,68,69,70,-1,70,69,71,-1,71,69,72,-1,72,69,73,-1,72,73,74,-1,74,73,75,-1,76,77,78,-1,78,77,79,-1,78,79,70,-1,70,79,68,-1,69,68,73,-1,73,68,79,-1,74,75,80,-1,74,80,81,-1,81,80,82,-1,81,82,83,-1,83,82,84,-1,83,84,85,-1,85,84,86,-1,85,86,87,-1,87,86,88,-1,87,88,89,-1,89,88,90,-1,89,90,91,-1,91,90,92,-1,91,92,93,-1,93,92,94,-1,93,94,95,-1,95,94,96,-1,95,96,97,-1,97,96,98,-1,97,98,99,-1,99,98,100,-1,99,100,101,-1,101,100,77,-1,101,77,76,-1,100,98,90,-1,84,82,77,-1,84,77,86,-1,73,79,75,-1,75,79,77,-1,75,77,80,-1,80,77,82,-1,98,96,90,-1,90,96,94,-1,90,94,92,-1,100,90,77,-1,77,90,88,-1,77,88,86,-1,102,103,104,-1,104,103,105,-1,103,102,106,-1,106,102,107,-1,105,103,108,-1,108,103,106,-1,108,106,109,-1,109,106,110,-1,109,110,111,-1,109,111,112,-1,112,111,113,-1,112,113,114,-1,114,113,115,-1,114,115,116,-1,116,115,117,-1,116,117,118,-1,118,117,119,-1,118,119,120,-1,120,119,121,-1,120,121,122,-1,122,121,123,-1,122,123,124,-1,124,123,125,-1,124,125,126,-1,126,125,127,-1,126,127,128,-1,128,127,129,-1,128,129,130,-1,130,129,131,-1,130,131,132,-1,132,131,133,-1,132,133,134,-1,134,133,135,-1,135,133,107,-1,135,107,104,-1,104,107,102,-1,113,111,123,-1,123,111,110,-1,123,110,125,-1,106,107,110,-1,110,107,133,-1,110,133,131,-1,119,117,115,-1,131,129,110,-1,110,129,127,-1,110,127,125,-1,113,123,115,-1,115,123,121,-1,115,121,119,-1,136,137,138,-1,138,137,139,-1,137,136,140,-1,140,136,141,-1,139,137,142,-1,142,137,140,-1,142,140,143,-1,143,140,144,-1,143,144,145,-1,143,145,146,-1,146,145,147,-1,146,147,148,-1,148,147,149,-1,148,149,150,-1,150,149,151,-1,150,151,152,-1,152,151,153,-1,152,153,154,-1,154,153,155,-1,154,155,156,-1,156,155,157,-1,156,157,158,-1,158,157,159,-1,158,159,160,-1,160,159,161,-1,160,161,162,-1,162,161,163,-1,162,163,164,-1,164,163,165,-1,164,165,166,-1,166,165,167,-1,166,167,168,-1,168,167,169,-1,169,167,141,-1,169,141,138,-1,138,141,136,-1,140,141,144,-1,144,141,167,-1,144,167,145,-1,145,167,147,-1,167,165,159,-1,159,165,163,-1,159,163,161,-1,159,157,167,-1,167,157,155,-1,167,155,153,-1,153,151,167,-1,167,151,149,-1,167,149,147,-1,170,171,172,-1,172,171,173,-1,171,170,174,-1,174,170,175,-1,173,171,176,-1,176,171,174,-1,176,174,177,-1,177,174,178,-1,177,178,179,-1,177,179,180,-1,180,179,181,-1,180,181,182,-1,182,181,183,-1,182,183,184,-1,184,183,185,-1,184,185,186,-1,186,185,187,-1,186,187,188,-1,188,187,189,-1,188,189,190,-1,190,189,191,-1,190,191,192,-1,192,191,193,-1,192,193,194,-1,194,193,195,-1,194,195,196,-1,196,195,197,-1,196,197,198,-1,198,197,199,-1,198,199,200,-1,200,199,201,-1,200,201,202,-1,202,201,203,-1,203,201,175,-1,203,175,172,-1,172,175,170,-1,181,179,191,-1,191,179,178,-1,191,178,193,-1,174,175,178,-1,178,175,201,-1,178,201,199,-1,187,185,183,-1,199,197,178,-1,178,197,195,-1,178,195,193,-1,181,191,183,-1,183,191,189,-1,183,189,187,-1,204,205,206,-1,206,205,207,-1,206,207,208,-1,209,210,211,-1,211,210,212,-1,211,212,213,-1,214,215,216,-1,216,215,210,-1,216,210,209,-1,208,207,217,-1,217,207,215,-1,217,215,214,-1,
        ]
    }
}
Shape{
    appearance Appearance {
        material  Material 	{
            diffuseColor 0.25098039215686274 0.25098039215686274 0.25098039215686274
            specularColor 0.12549019607843137 0.12549019607843137 0.12549019607843137
            ambientIntensity 0.251
            transparency 0.0
            shininess 0.5
        }
    }
    geometry IndexedFaceSet {
        ccw TRUE
        solid FALSE
        coord DEF co Coordinate {
            point [
                0.036 0.1033 0.0039, -0.0231 0.1264 0.0039, 0.036 0.1033 0.0, -0.0231 0.1264 0.0, -0.0231 0.1177 0.0039, -0.0231 0.1177 0.0, -0.0065 0.1118 0.0039, -0.0065 0.1118 0.0, -0.0065 0.0874 0.0039, -0.0065 0.0874 0.0, -0.0231 0.0817 0.0039, -0.0231 0.0817 0.0, -0.0231 0.0731 0.0039, -0.0231 0.0731 0.0, 0.036 0.0954 0.0039, 0.036 0.0954 0.0, -0.0001 0.0894 0.0039, 0.0246 0.0982 0.0039, 0.0267 0.0987 0.0039, 0.0288 0.0991 0.0039, 0.0288 0.0993 0.0039, 0.0267 0.0997 0.0039, -0.0001 0.1091 0.0039, 0.0246 0.1002 0.0039, -0.0001 0.0894 0.0, -0.0001 0.1091 0.0, 0.0246 0.0982 0.0, 0.0267 0.0987 0.0, 0.0288 0.0991 0.0, 0.0288 0.0993 0.0, 0.0267 0.0997 0.0, 0.0246 0.1002 0.0, -0.0231 0.0373 0.0039, -0.0231 0.0212 0.0039, -0.0231 0.0373 0.0, -0.0231 0.0212 0.0, 0.036 0.0212 0.0039, 0.036 0.0212 0.0, 0.036 0.0379 0.0039, 0.036 0.0379 0.0, 0.0072 0.0688 0.0039, 0.0072 0.0688 0.0, 0.0101 0.0686 0.0, 0.0101 0.0686 0.0039, 0.0162 0.0675 0.0, 0.0162 0.0675 0.0039, 0.022 0.0651 0.0, 0.022 0.0651 0.0039, 0.0267 0.0615 0.0, 0.0267 0.0615 0.0039, 0.0288 0.0592 0.0, 0.0288 0.0592 0.0039, 0.0326 0.0533 0.0, 0.0326 0.0533 0.0039, 0.035 0.0464 0.0, 0.035 0.0464 0.0039, -0.0225 0.0446 0.0, -0.0225 0.0446 0.0039, -0.0204 0.0514 0.0, -0.0204 0.0514 0.0039, -0.0169 0.0576 0.0, -0.0169 0.0576 0.0039, -0.0122 0.0624 0.0, -0.0122 0.0624 0.0039, -0.0069 0.0658 0.0, -0.0069 0.0658 0.0039, -0.0007 0.0679 0.0, -0.0007 0.0679 0.0039, 0.007 0.0608 0.0039, 0.0129 0.0603 0.0039, 0.0175 0.059 0.0039, 0.0212 0.0569 0.0039, 0.0242 0.0541 0.0039, 0.027 0.0498 0.0039, 0.0287 0.0449 0.0039, 0.0295 0.0379 0.0039, 0.0295 0.0292 0.0039, -0.0166 0.0292 0.0039, -0.0166 0.0375 0.0039, -0.016 0.0438 0.0039, -0.0145 0.0487 0.0039, -0.0121 0.0527 0.0039, -0.0089 0.056 0.0039, -0.0048 0.0585 0.0039, -0.0002 0.0601 0.0039, 0.0295 0.0379 0.0, 0.0295 0.0292 0.0, 0.0287 0.0449 0.0, 0.027 0.0498 0.0, 0.0242 0.0541 0.0, 0.0212 0.0569 0.0, 0.0175 0.059 0.0, 0.0129 0.0603 0.0, 0.007 0.0608 0.0, -0.0002 0.0601 0.0, -0.0048 0.0585 0.0, -0.0089 0.056 0.0, -0.0121 0.0527 0.0, -0.0145 0.0487 0.0, -0.016 0.0438 0.0, -0.0166 0.0375 0.0, -0.0166 0.0292 0.0, -0.0166 0.0097 0.0039, -0.0231 0.0097 0.0039, -0.0166 0.0097 0.0, -0.0231 0.0097 0.0, -0.0231 -0.022 0.0039, -0.0231 -0.022 0.0, 0.036 -0.022 0.0039, 0.036 -0.022 0.0, 0.036 0.0083 0.0039, 0.036 0.0083 0.0, 0.0295 0.0083 0.0039, 0.0295 0.0083 0.0, 0.0295 -0.0141 0.0039, 0.0295 -0.0141 0.0, 0.01 -0.0141 0.0039, 0.01 -0.0141 0.0, 0.01 0.0068 0.0039, 0.01 0.0068 0.0, 0.0035 0.0068 0.0039, 0.0035 0.0068 0.0, 0.0035 -0.0141 0.0039, 0.0035 -0.0141 0.0, -0.0166 -0.0141 0.0039, -0.0166 -0.0141 0.0, -0.0136 -0.0335 0.0039, -0.02 -0.0335 0.0039, -0.0136 -0.0335 0.0, -0.02 -0.0335 0.0, -0.0238 -0.0498 0.0039, -0.0238 -0.0498 0.0, -0.0238 -0.0481 0.0, -0.0238 -0.0481 0.0039, -0.0226 -0.0398 0.0, -0.0226 -0.0398 0.0039, 0.0053 -0.0774 0.0039, 0.0053 -0.0774 0.0, -0.0014 -0.0769 0.0, -0.0014 -0.0769 0.0039, -0.0077 -0.0751 0.0, -0.0077 -0.0751 0.0039, -0.0133 -0.072 0.0, -0.0133 -0.072 0.0039, -0.018 -0.0676 0.0, -0.018 -0.0676 0.0039, -0.0211 -0.0628 0.0, -0.0211 -0.0628 0.0039, -0.0231 -0.057 0.0, -0.0231 -0.057 0.0039, 0.0367 -0.0474 0.0, 0.0363 -0.0515 0.0, 0.0367 -0.0474 0.0039, 0.0361 -0.0537 0.0039, 0.0361 -0.0537 0.0, 0.0341 -0.0602 0.0, 0.0341 -0.0602 0.0039, 0.0309 -0.0657 0.0, 0.0309 -0.0657 0.0039, 0.0259 -0.0709 0.0, 0.0259 -0.0709 0.0039, 0.0204 -0.0743 0.0, 0.0204 -0.0743 0.0039, 0.0137 -0.0766 0.0, 0.0137 -0.0766 0.0039, 0.0363 -0.0422 0.0, 0.0362 -0.0403 0.0039, 0.0362 -0.0403 0.0, 0.0343 -0.0335 0.0039, 0.0343 -0.0335 0.0, 0.0264 -0.0335 0.0039, 0.0264 -0.0335 0.0, 0.0302 -0.0473 0.0039, 0.0302 -0.0473 0.0, 0.0293 -0.0402 0.0, 0.0293 -0.0402 0.0039, 0.0058 -0.0695 0.0039, 0.0058 -0.0695 0.0, 0.0102 -0.0693 0.0, 0.0102 -0.0693 0.0039, 0.0166 -0.0677 0.0, 0.0166 -0.0677 0.0039, 0.0212 -0.0653 0.0, 0.0212 -0.0653 0.0039, 0.0251 -0.0617 0.0, 0.0251 -0.0617 0.0039, 0.0279 -0.0575 0.0, 0.0279 -0.0575 0.0039, 0.0295 -0.0532 0.0, 0.0295 -0.0532 0.0039, -0.0173 -0.0487 0.0039, -0.0173 -0.0487 0.0, -0.0167 -0.0541 0.0, -0.0167 -0.0541 0.0039, -0.0151 -0.0585 0.0, -0.0151 -0.0585 0.0039, -0.0127 -0.0621 0.0, -0.0127 -0.0621 0.0039, -0.0098 -0.0649 0.0, -0.0098 -0.0649 0.0039, -0.0057 -0.0673 0.0, -0.0057 -0.0673 0.0039, -0.0006 -0.0689 0.0, -0.0006 -0.0689 0.0039, -0.0141 -0.0346 0.0, -0.0141 -0.0346 0.0039, -0.0165 -0.0408 0.0, -0.0165 -0.0408 0.0039, -0.0166 -0.0825 0.0039, -0.0231 -0.0825 0.0039, -0.0166 -0.0825 0.0, -0.0231 -0.0825 0.0, -0.0231 -0.1127 0.0039, -0.0231 -0.1127 0.0, 0.036 -0.1127 0.0039, 0.036 -0.1127 0.0, 0.036 -0.1048 0.0039, 0.036 -0.1048 0.0, -0.0166 -0.1048 0.0039, -0.0166 -0.1048 0.0
            ]
        }
        coordIndex [
            0,1,2,-1,2,1,3,-1,1,4,3,-1,3,4,5,-1,4,6,5,-1,5,6,7,-1,6,8,7,-1,7,8,9,-1,8,10,9,-1,9,10,11,-1,10,12,11,-1,11,12,13,-1,12,14,13,-1,13,14,15,-1,14,0,15,-1,15,0,2,-1,16,17,14,-1,12,10,8,-1,17,18,14,-1,14,18,19,-1,14,19,0,-1,0,19,20,-1,0,20,21,-1,14,12,16,-1,16,12,8,-1,16,8,22,-1,22,8,6,-1,21,23,0,-1,0,23,22,-1,0,22,1,-1,1,22,6,-1,1,6,4,-1,16,22,24,-1,24,22,25,-1,17,16,26,-1,26,16,24,-1,17,26,27,-1,17,27,18,-1,18,27,28,-1,18,28,19,-1,20,19,29,-1,29,19,28,-1,20,29,30,-1,20,30,21,-1,21,30,31,-1,21,31,23,-1,22,23,25,-1,25,23,31,-1,32,33,34,-1,34,33,35,-1,33,36,35,-1,35,36,37,-1,36,38,37,-1,37,38,39,-1,40,41,42,-1,40,42,43,-1,43,42,44,-1,43,44,45,-1,45,44,46,-1,45,46,47,-1,47,46,48,-1,47,48,49,-1,49,48,50,-1,49,50,51,-1,51,50,52,-1,51,52,53,-1,53,52,54,-1,53,54,55,-1,55,54,39,-1,55,39,38,-1,32,34,56,-1,32,56,57,-1,57,56,58,-1,57,58,59,-1,59,58,60,-1,59,60,61,-1,61,60,62,-1,61,62,63,-1,63,62,64,-1,63,64,65,-1,65,64,66,-1,65,66,67,-1,67,66,41,-1,67,41,40,-1,67,40,68,-1,68,40,43,-1,68,43,69,-1,69,43,45,-1,69,45,70,-1,70,45,47,-1,70,47,71,-1,71,47,49,-1,71,49,72,-1,72,49,51,-1,72,51,73,-1,73,51,53,-1,73,53,74,-1,74,53,55,-1,74,55,75,-1,75,55,38,-1,75,38,76,-1,76,38,36,-1,76,36,77,-1,77,36,33,-1,77,33,78,-1,78,33,32,-1,78,32,79,-1,79,32,57,-1,79,57,80,-1,80,57,59,-1,80,59,81,-1,81,59,61,-1,81,61,82,-1,82,61,63,-1,82,63,83,-1,83,63,65,-1,83,65,84,-1,84,65,67,-1,84,67,68,-1,75,76,85,-1,85,76,86,-1,75,85,87,-1,75,87,74,-1,74,87,88,-1,74,88,73,-1,73,88,89,-1,73,89,72,-1,72,89,90,-1,72,90,71,-1,71,90,91,-1,71,91,70,-1,70,91,92,-1,70,92,69,-1,69,92,93,-1,69,93,68,-1,68,93,94,-1,68,94,84,-1,84,94,95,-1,84,95,83,-1,83,95,96,-1,83,96,82,-1,82,96,97,-1,82,97,81,-1,81,97,98,-1,81,98,80,-1,80,98,99,-1,80,99,79,-1,79,99,100,-1,79,100,78,-1,77,78,101,-1,101,78,100,-1,76,77,86,-1,86,77,101,-1,102,103,104,-1,104,103,105,-1,103,106,105,-1,105,106,107,-1,106,108,107,-1,107,108,109,-1,108,110,109,-1,109,110,111,-1,110,112,111,-1,111,112,113,-1,112,114,113,-1,113,114,115,-1,114,116,115,-1,115,116,117,-1,116,118,117,-1,117,118,119,-1,118,120,119,-1,119,120,121,-1,120,122,121,-1,121,122,123,-1,122,124,123,-1,123,124,125,-1,124,102,125,-1,125,102,104,-1,106,103,102,-1,102,124,106,-1,106,124,122,-1,106,122,108,-1,112,110,114,-1,114,110,108,-1,114,108,116,-1,116,108,122,-1,116,122,118,-1,118,122,120,-1,126,127,128,-1,128,127,129,-1,130,131,132,-1,130,132,133,-1,133,132,134,-1,133,134,135,-1,135,134,129,-1,135,129,127,-1,136,137,138,-1,136,138,139,-1,139,138,140,-1,139,140,141,-1,141,140,142,-1,141,142,143,-1,143,142,144,-1,143,144,145,-1,145,144,146,-1,145,146,147,-1,147,146,148,-1,147,148,149,-1,149,148,131,-1,149,131,130,-1,150,151,152,-1,152,151,153,-1,151,154,153,-1,153,154,155,-1,153,155,156,-1,156,155,157,-1,156,157,158,-1,158,157,159,-1,158,159,160,-1,160,159,161,-1,160,161,162,-1,162,161,163,-1,162,163,164,-1,164,163,137,-1,164,137,136,-1,150,152,165,-1,165,152,166,-1,165,166,167,-1,167,166,168,-1,167,168,169,-1,168,170,169,-1,169,170,171,-1,172,173,174,-1,172,174,175,-1,175,174,171,-1,175,171,170,-1,176,177,178,-1,176,178,179,-1,179,178,180,-1,179,180,181,-1,181,180,182,-1,181,182,183,-1,183,182,184,-1,183,184,185,-1,185,184,186,-1,185,186,187,-1,187,186,188,-1,187,188,189,-1,189,188,173,-1,189,173,172,-1,190,191,192,-1,190,192,193,-1,193,192,194,-1,193,194,195,-1,195,194,196,-1,195,196,197,-1,197,196,198,-1,197,198,199,-1,199,198,200,-1,199,200,201,-1,201,200,202,-1,201,202,203,-1,203,202,177,-1,203,177,176,-1,126,128,204,-1,126,204,205,-1,205,204,206,-1,205,206,207,-1,207,206,191,-1,207,191,190,-1,193,130,190,-1,190,130,133,-1,190,133,207,-1,207,133,135,-1,207,135,205,-1,205,135,127,-1,205,127,126,-1,170,168,175,-1,175,168,166,-1,175,166,172,-1,172,166,152,-1,172,152,189,-1,189,152,153,-1,189,153,187,-1,187,153,156,-1,187,156,185,-1,185,156,158,-1,185,158,183,-1,183,158,160,-1,183,160,181,-1,181,160,162,-1,181,162,179,-1,179,162,164,-1,179,164,176,-1,176,164,136,-1,176,136,203,-1,203,136,139,-1,203,139,201,-1,201,139,141,-1,201,141,199,-1,199,141,143,-1,199,143,197,-1,197,143,145,-1,197,145,195,-1,195,145,147,-1,195,147,193,-1,193,147,149,-1,193,149,130,-1,208,209,210,-1,210,209,211,-1,209,212,211,-1,211,212,213,-1,212,214,213,-1,213,214,215,-1,214,216,215,-1,215,216,217,-1,216,218,217,-1,217,218,219,-1,218,208,219,-1,219,208,210,-1,216,214,218,-1,218,214,212,-1,218,212,208,-1,208,212,209,-1,
        ]
    }
}
Shape{
    appearance Appearance {
        material  Material 	{
            diffuseColor 1.0 1.0 1.0
            specularColor 0.8784313725490196 0.8784313725490196 0.8784313725490196
            ambientIntensity 1.0
            transparency 0.0
            shininess 0.5
        }
    }
    geometry IndexedFaceSet {
        ccw TRUE
        solid FALSE
        coord DEF co Coordinate {
            point [
                -0.0001 0.0894 0.0, -0.0001 0.1091 0.0, 0.0246 0.0982 0.0, 0.0246 0.1002 0.0, 0.0267 0.0987 0.0, 0.0267 0.0997 0.0, 0.0288 0.0991 0.0, 0.0288 0.0993 0.0, 0.0295 0.0379 0.0, 0.0295 0.0292 0.0, -0.0166 0.0292 0.0, -0.0002 0.0601 0.0, 0.007 0.0608 0.0, -0.0048 0.0585 0.0, 0.0129 0.0603 0.0, 0.0175 0.059 0.0, 0.0287 0.0449 0.0, -0.0166 0.0375 0.0, -0.016 0.0438 0.0, -0.0145 0.0487 0.0, 0.0212 0.0569 0.0, 0.0242 0.0541 0.0, 0.027 0.0498 0.0, -0.0121 0.0527 0.0, -0.0089 0.056 0.0, -0.0901 0.254 0.0, -0.1491 0.195 0.0, -0.0901 0.254 0.0039, -0.1491 0.195 0.0039
            ]
        }
        coordIndex [
            0,1,2,-1,2,1,3,-1,2,3,4,-1,4,3,5,-1,4,5,6,-1,6,5,7,-1,8,9,10,-1,11,12,8,-1,11,8,13,-1,12,14,8,-1,8,14,15,-1,8,15,16,-1,10,17,8,-1,8,17,18,-1,8,18,19,-1,20,21,15,-1,15,21,22,-1,15,22,16,-1,19,23,8,-1,8,23,24,-1,8,24,13,-1,25,26,27,-1,27,26,28,-1,
        ]
    }
}